<svg viewBox="0 0 700 460" xmlns="http://www.w3.org/2000/svg">
<rect width="700" height="460" fill="#f7f2e8" stroke="#444" stroke-width="0.75"/>
<text x="28" y="40" font-family="Georgia, serif" font-style="italic" font-weight="500" font-size="22" fill="#2a3680">Coverage</text>
<text x="672" y="40" font-family="Menlo, monospace" font-size="10" fill="#888" text-anchor="end">M-01 ··· M-24</text>
<line x1="28" y1="54" x2="672" y2="54" stroke="#aaa" stroke-width="0.6"/>
<text x="28" y="80" font-family="Menlo, monospace" font-size="10" fill="#888" letter-spacing="2.5">UNITS</text>
<rect x="36" y="90" width="24" height="17" fill="#e6dfd2" rx="1"/>
<rect x="62" y="90" width="24" height="17" fill="#e6dfd2" rx="1"/>
<rect x="88" y="90" width="24" height="17" fill="#f0e9d8" rx="1"/>
<rect x="114" y="90" width="24" height="17" fill="#e6dfd2" rx="1"/>
<rect x="140" y="90" width="24" height="17" fill="#c9c0a8" rx="1"/>
<rect x="166" y="90" width="24" height="17" fill="#e6dfd2" rx="1"/>
<rect x="192" y="90" width="24" height="17" fill="#e6dfd2" rx="1"/>
<rect x="218" y="90" width="24" height="17" fill="#c9c0a8" rx="1"/>
<rect x="244" y="90" width="24" height="17" fill="#e6dfd2" rx="1"/>
<rect x="270" y="90" width="24" height="17" fill="#e6dfd2" rx="1"/>
<rect x="296" y="90" width="24" height="17" fill="#e6dfd2" rx="1"/>
<rect x="322" y="90" width="24" height="17" fill="#e6dfd2" rx="1"/>
<rect x="348" y="90" width="24" height="17" fill="#e6dfd2" rx="1"/>
<rect x="374" y="90" width="24" height="17" fill="#e6dfd2" rx="1"/>
<rect x="400" y="90" width="24" height="17" fill="#c9c0a8" rx="1"/>
<rect x="426" y="90" width="24" height="17" fill="#c9c0a8" rx="1"/>
<rect x="452" y="90" width="24" height="17" fill="#f0e9d8" rx="1"/>
<rect x="478" y="90" width="24" height="17" fill="#e6dfd2" rx="1"/>
<rect x="504" y="90" width="24" height="17" fill="#e6dfd2" rx="1"/>
<rect x="530" y="90" width="24" height="17" fill="#e6dfd2" rx="1"/>
<rect x="556" y="90" width="24" height="17" fill="#e6dfd2" rx="1"/>
<rect x="582" y="90" width="24" height="17" fill="#e6dfd2" rx="1"/>
<rect x="608" y="90" width="24" height="17" fill="#e6dfd2" rx="1"/>
<rect x="634" y="90" width="24" height="17" fill="#7a6f55" rx="1"/>
<rect x="36" y="109" width="24" height="17" fill="#e6dfd2" rx="1"/>
<rect x="62" y="109" width="24" height="17" fill="#e6dfd2" rx="1"/>
<rect x="88" y="109" width="24" height="17" fill="#e6dfd2" rx="1"/>
<rect x="114" y="109" width="24" height="17" fill="#c9c0a8" rx="1"/>
<rect x="140" y="109" width="24" height="17" fill="#7a6f55" rx="1"/>
<rect x="166" y="109" width="24" height="17" fill="#e6dfd2" rx="1"/>
<rect x="192" y="109" width="24" height="17" fill="#c9c0a8" rx="1"/>
<rect x="218" y="109" width="24" height="17" fill="#e6dfd2" rx="1"/>
<rect x="244" y="109" width="24" height="17" fill="#e6dfd2" rx="1"/>
<rect x="270" y="109" width="24" height="17" fill="#e6dfd2" rx="1"/>
<rect x="296" y="109" width="24" height="17" fill="#e6dfd2" rx="1"/>
<rect x="322" y="109" width="24" height="17" fill="#e6dfd2" rx="1"/>
<rect x="348" y="109" width="24" height="17" fill="#e6dfd2" rx="1"/>
<rect x="374" y="109" width="24" height="17" fill="#e6dfd2" rx="1"/>
<rect x="400" y="109" width="24" height="17" fill="#f0e9d8" rx="1"/>
<rect x="426" y="109" width="24" height="17" fill="#c9c0a8" rx="1"/>
<rect x="452" y="109" width="24" height="17" fill="#f0e9d8" rx="1"/>
<rect x="478" y="109" width="24" height="17" fill="#c9c0a8" rx="1"/>
<rect x="504" y="109" width="24" height="17" fill="#c9c0a8" rx="1"/>
<rect x="530" y="109" width="24" height="17" fill="#c9c0a8" rx="1"/>
<rect x="556" y="109" width="24" height="17" fill="#c9c0a8" rx="1"/>
<rect x="582" y="109" width="24" height="17" fill="#c9c0a8" rx="1"/>
<rect x="608" y="109" width="24" height="17" fill="#c9c0a8" rx="1"/>
<rect x="634" y="109" width="24" height="17" fill="#e6dfd2" rx="1"/>
<rect x="36" y="128" width="24" height="17" fill="#e6dfd2" rx="1"/>
<rect x="62" y="128" width="24" height="17" fill="#7a6f55" rx="1"/>
<rect x="88" y="128" width="24" height="17" fill="#e6dfd2" rx="1"/>
<rect x="114" y="128" width="24" height="17" fill="#c9c0a8" rx="1"/>
<rect x="140" y="128" width="24" height="17" fill="#f0e9d8" rx="1"/>
<rect x="166" y="128" width="24" height="17" fill="#e6dfd2" rx="1"/>
<rect x="192" y="128" width="24" height="17" fill="#e6dfd2" rx="1"/>
<rect x="218" y="128" width="24" height="17" fill="#c9c0a8" rx="1"/>
<rect x="244" y="128" width="24" height="17" fill="#e6dfd2" rx="1"/>
<rect x="270" y="128" width="24" height="17" fill="#f0e9d8" rx="1"/>
<rect x="296" y="128" width="24" height="17" fill="#7a6f55" rx="1"/>
<rect x="322" y="128" width="24" height="17" fill="#e6dfd2" rx="1"/>
<rect x="348" y="128" width="24" height="17" fill="#e6dfd2" rx="1"/>
<rect x="374" y="128" width="24" height="17" fill="#c9c0a8" rx="1"/>
<rect x="400" y="128" width="24" height="17" fill="#c9c0a8" rx="1"/>
<rect x="426" y="128" width="24" height="17" fill="#e6dfd2" rx="1"/>
<rect x="452" y="128" width="24" height="17" fill="#f0e9d8" rx="1"/>
<rect x="478" y="128" width="24" height="17" fill="#c9c0a8" rx="1"/>
<rect x="504" y="128" width="24" height="17" fill="#f0e9d8" rx="1"/>
<rect x="530" y="128" width="24" height="17" fill="#c9c0a8" rx="1"/>
<rect x="556" y="128" width="24" height="17" fill="#e6dfd2" rx="1"/>
<rect x="582" y="128" width="24" height="17" fill="#e6dfd2" rx="1"/>
<rect x="608" y="128" width="24" height="17" fill="#e6dfd2" rx="1"/>
<rect x="634" y="128" width="24" height="17" fill="#c9c0a8" rx="1"/>
<rect x="36" y="147" width="24" height="17" fill="#e6dfd2" rx="1"/>
<rect x="62" y="147" width="24" height="17" fill="#e6dfd2" rx="1"/>
<rect x="88" y="147" width="24" height="17" fill="#e6dfd2" rx="1"/>
<rect x="114" y="147" width="24" height="17" fill="#c9c0a8" rx="1"/>
<rect x="140" y="147" width="24" height="17" fill="#b8612a" rx="1"/>
<rect x="166" y="147" width="24" height="17" fill="#c9c0a8" rx="1"/>
<rect x="192" y="147" width="24" height="17" fill="#e6dfd2" rx="1"/>
<rect x="218" y="147" width="24" height="17" fill="#e6dfd2" rx="1"/>
<rect x="244" y="147" width="24" height="17" fill="#7a6f55" rx="1"/>
<rect x="270" y="147" width="24" height="17" fill="#e6dfd2" rx="1"/>
<rect x="296" y="147" width="24" height="17" fill="#c9c0a8" rx="1"/>
<rect x="322" y="147" width="24" height="17" fill="#7a6f55" rx="1"/>
<rect x="348" y="147" width="24" height="17" fill="#e6dfd2" rx="1"/>
<rect x="374" y="147" width="24" height="17" fill="#c9c0a8" rx="1"/>
<rect x="400" y="147" width="24" height="17" fill="#7a6f55" rx="1"/>
<rect x="426" y="147" width="24" height="17" fill="#e6dfd2" rx="1"/>
<rect x="452" y="147" width="24" height="17" fill="#c9c0a8" rx="1"/>
<rect x="478" y="147" width="24" height="17" fill="#f0e9d8" rx="1"/>
<rect x="504" y="147" width="24" height="17" fill="#7a6f55" rx="1"/>
<rect x="530" y="147" width="24" height="17" fill="#c9c0a8" rx="1"/>
<rect x="556" y="147" width="24" height="17" fill="#7a6f55" rx="1"/>
<rect x="582" y="147" width="24" height="17" fill="#e6dfd2" rx="1"/>
<rect x="608" y="147" width="24" height="17" fill="#7a6f55" rx="1"/>
<rect x="634" y="147" width="24" height="17" fill="#e6dfd2" rx="1"/>
<rect x="36" y="166" width="24" height="17" fill="#c9c0a8" rx="1"/>
<rect x="62" y="166" width="24" height="17" fill="#c9c0a8" rx="1"/>
<rect x="88" y="166" width="24" height="17" fill="#c9c0a8" rx="1"/>
<rect x="114" y="166" width="24" height="17" fill="#e6dfd2" rx="1"/>
<rect x="140" y="166" width="24" height="17" fill="#7a6f55" rx="1"/>
<rect x="166" y="166" width="24" height="17" fill="#c9c0a8" rx="1"/>
<rect x="192" y="166" width="24" height="17" fill="#e6dfd2" rx="1"/>
<rect x="218" y="166" width="24" height="17" fill="#e6dfd2" rx="1"/>
<rect x="244" y="166" width="24" height="17" fill="#e6dfd2" rx="1"/>
<rect x="270" y="166" width="24" height="17" fill="#3a3326" rx="1"/>
<rect x="296" y="166" width="24" height="17" fill="#e6dfd2" rx="1"/>
<rect x="322" y="166" width="24" height="17" fill="#7a6f55" rx="1"/>
<rect x="348" y="166" width="24" height="17" fill="#c9c0a8" rx="1"/>
<rect x="374" y="166" width="24" height="17" fill="#c9c0a8" rx="1"/>
<rect x="400" y="166" width="24" height="17" fill="#7a6f55" rx="1"/>
<rect x="426" y="166" width="24" height="17" fill="#3a3326" rx="1"/>
<rect x="452" y="166" width="24" height="17" fill="#e6dfd2" rx="1"/>
<rect x="478" y="166" width="24" height="17" fill="#f0e9d8" rx="1"/>
<rect x="504" y="166" width="24" height="17" fill="#3a3326" rx="1"/>
<rect x="530" y="166" width="24" height="17" fill="#e6dfd2" rx="1"/>
<rect x="556" y="166" width="24" height="17" fill="#e6dfd2" rx="1"/>
<rect x="582" y="166" width="24" height="17" fill="#7a6f55" rx="1"/>
<rect x="608" y="166" width="24" height="17" fill="#c9c0a8" rx="1"/>
<rect x="634" y="166" width="24" height="17" fill="#7a6f55" rx="1"/>
<rect x="36" y="185" width="24" height="17" fill="#e6dfd2" rx="1"/>
<rect x="62" y="185" width="24" height="17" fill="#7a6f55" rx="1"/>
<rect x="88" y="185" width="24" height="17" fill="#e6dfd2" rx="1"/>
<rect x="114" y="185" width="24" height="17" fill="#7a6f55" rx="1"/>
<rect x="140" y="185" width="24" height="17" fill="#e6dfd2" rx="1"/>
<rect x="166" y="185" width="24" height="17" fill="#7a6f55" rx="1"/>
<rect x="192" y="185" width="24" height="17" fill="#e6dfd2" rx="1"/>
<rect x="218" y="185" width="24" height="17" fill="#c9c0a8" rx="1"/>
<rect x="244" y="185" width="24" height="17" fill="#b8612a" rx="1"/>
<rect x="270" y="185" width="24" height="17" fill="#c9c0a8" rx="1"/>
<rect x="296" y="185" width="24" height="17" fill="#e6dfd2" rx="1"/>
<rect x="322" y="185" width="24" height="17" fill="#e6dfd2" rx="1"/>
<rect x="348" y="185" width="24" height="17" fill="#e6dfd2" rx="1"/>
<rect x="374" y="185" width="24" height="17" fill="#e6dfd2" rx="1"/>
<rect x="400" y="185" width="24" height="17" fill="#c9c0a8" rx="1"/>
<rect x="426" y="185" width="24" height="17" fill="#7a6f55" rx="1"/>
<rect x="452" y="185" width="24" height="17" fill="#e6dfd2" rx="1"/>
<rect x="478" y="185" width="24" height="17" fill="#e6dfd2" rx="1"/>
<rect x="504" y="185" width="24" height="17" fill="#e6dfd2" rx="1"/>
<rect x="530" y="185" width="24" height="17" fill="#e6dfd2" rx="1"/>
<rect x="556" y="185" width="24" height="17" fill="#e6dfd2" rx="1"/>
<rect x="582" y="185" width="24" height="17" fill="#c9c0a8" rx="1"/>
<rect x="608" y="185" width="24" height="17" fill="#e6dfd2" rx="1"/>
<rect x="634" y="185" width="24" height="17" fill="#e6dfd2" rx="1"/>
<rect x="36" y="204" width="24" height="17" fill="#e6dfd2" rx="1"/>
<rect x="62" y="204" width="24" height="17" fill="#e6dfd2" rx="1"/>
<rect x="88" y="204" width="24" height="17" fill="#7a6f55" rx="1"/>
<rect x="114" y="204" width="24" height="17" fill="#7a6f55" rx="1"/>
<rect x="140" y="204" width="24" height="17" fill="#3a3326" rx="1"/>
<rect x="166" y="204" width="24" height="17" fill="#7a6f55" rx="1"/>
<rect x="192" y="204" width="24" height="17" fill="#7a6f55" rx="1"/>
<rect x="218" y="204" width="24" height="17" fill="#3a3326" rx="1"/>
<rect x="244" y="204" width="24" height="17" fill="#b8612a" rx="1"/>
<rect x="270" y="204" width="24" height="17" fill="#e6dfd2" rx="1"/>
<rect x="296" y="204" width="24" height="17" fill="#e6dfd2" rx="1"/>
<rect x="322" y="204" width="24" height="17" fill="#7a6f55" rx="1"/>
<rect x="348" y="204" width="24" height="17" fill="#7a6f55" rx="1"/>
<rect x="374" y="204" width="24" height="17" fill="#7a6f55" rx="1"/>
<rect x="400" y="204" width="24" height="17" fill="#c9c0a8" rx="1"/>
<rect x="426" y="204" width="24" height="17" fill="#f0e9d8" rx="1"/>
<rect x="452" y="204" width="24" height="17" fill="#f0e9d8" rx="1"/>
<rect x="478" y="204" width="24" height="17" fill="#e6dfd2" rx="1"/>
<rect x="504" y="204" width="24" height="17" fill="#e6dfd2" rx="1"/>
<rect x="530" y="204" width="24" height="17" fill="#e6dfd2" rx="1"/>
<rect x="556" y="204" width="24" height="17" fill="#7a6f55" rx="1"/>
<rect x="582" y="204" width="24" height="17" fill="#e6dfd2" rx="1"/>
<rect x="608" y="204" width="24" height="17" fill="#b8612a" rx="1"/>
<rect x="634" y="204" width="24" height="17" fill="#7a6f55" rx="1"/>
<rect x="36" y="223" width="24" height="17" fill="#e6dfd2" rx="1"/>
<rect x="62" y="223" width="24" height="17" fill="#7a6f55" rx="1"/>
<rect x="88" y="223" width="24" height="17" fill="#3a3326" rx="1"/>
<rect x="114" y="223" width="24" height="17" fill="#b8612a" rx="1"/>
<rect x="140" y="223" width="24" height="17" fill="#c9c0a8" rx="1"/>
<rect x="166" y="223" width="24" height="17" fill="#c9c0a8" rx="1"/>
<rect x="192" y="223" width="24" height="17" fill="#b8612a" rx="1"/>
<rect x="218" y="223" width="24" height="17" fill="#7a6f55" rx="1"/>
<rect x="244" y="223" width="24" height="17" fill="#b8612a" rx="1"/>
<rect x="270" y="223" width="24" height="17" fill="#7a6f55" rx="1"/>
<rect x="296" y="223" width="24" height="17" fill="#e6dfd2" rx="1"/>
<rect x="322" y="223" width="24" height="17" fill="#c9c0a8" rx="1"/>
<rect x="348" y="223" width="24" height="17" fill="#c9c0a8" rx="1"/>
<rect x="374" y="223" width="24" height="17" fill="#7a6f55" rx="1"/>
<rect x="400" y="223" width="24" height="17" fill="#f0e9d8" rx="1"/>
<rect x="426" y="223" width="24" height="17" fill="#7a6f55" rx="1"/>
<rect x="452" y="223" width="24" height="17" fill="#c9c0a8" rx="1"/>
<rect x="478" y="223" width="24" height="17" fill="#7a6f55" rx="1"/>
<rect x="504" y="223" width="24" height="17" fill="#e6dfd2" rx="1"/>
<rect x="530" y="223" width="24" height="17" fill="#f0e9d8" rx="1"/>
<rect x="556" y="223" width="24" height="17" fill="#c9c0a8" rx="1"/>
<rect x="582" y="223" width="24" height="17" fill="#c9c0a8" rx="1"/>
<rect x="608" y="223" width="24" height="17" fill="#7a6f55" rx="1"/>
<rect x="634" y="223" width="24" height="17" fill="#3a3326" rx="1"/>
<rect x="36" y="242" width="24" height="17" fill="#7a6f55" rx="1"/>
<rect x="62" y="242" width="24" height="17" fill="#e6dfd2" rx="1"/>
<rect x="88" y="242" width="24" height="17" fill="#e6dfd2" rx="1"/>
<rect x="114" y="242" width="24" height="17" fill="#7a6f55" rx="1"/>
<rect x="140" y="242" width="24" height="17" fill="#e6dfd2" rx="1"/>
<rect x="166" y="242" width="24" height="17" fill="#b8612a" rx="1"/>
<rect x="192" y="242" width="24" height="17" fill="#f0e9d8" rx="1"/>
<rect x="218" y="242" width="24" height="17" fill="#7a6f55" rx="1"/>
<rect x="244" y="242" width="24" height="17" fill="#b8612a" rx="1"/>
<rect x="270" y="242" width="24" height="17" fill="#7a6f55" rx="1"/>
<rect x="296" y="242" width="24" height="17" fill="#b8612a" rx="1"/>
<rect x="322" y="242" width="24" height="17" fill="#3a3326" rx="1"/>
<rect x="348" y="242" width="24" height="17" fill="#c9c0a8" rx="1"/>
<rect x="374" y="242" width="24" height="17" fill="#7a6f55" rx="1"/>
<rect x="400" y="242" width="24" height="17" fill="#7a6f55" rx="1"/>
<rect x="426" y="242" width="24" height="17" fill="#3a3326" rx="1"/>
<rect x="452" y="242" width="24" height="17" fill="#b8612a" rx="1"/>
<rect x="478" y="242" width="24" height="17" fill="#c9c0a8" rx="1"/>
<rect x="504" y="242" width="24" height="17" fill="#f0e9d8" rx="1"/>
<rect x="530" y="242" width="24" height="17" fill="#3a3326" rx="1"/>
<rect x="556" y="242" width="24" height="17" fill="#e6dfd2" rx="1"/>
<rect x="582" y="242" width="24" height="17" fill="#7a6f55" rx="1"/>
<rect x="608" y="242" width="24" height="17" fill="#3a3326" rx="1"/>
<rect x="634" y="242" width="24" height="17" fill="#7a6f55" rx="1"/>
<rect x="36" y="261" width="24" height="17" fill="#7a6f55" rx="1"/>
<rect x="62" y="261" width="24" height="17" fill="#c9c0a8" rx="1"/>
<rect x="88" y="261" width="24" height="17" fill="#e6dfd2" rx="1"/>
<rect x="114" y="261" width="24" height="17" fill="#e6dfd2" rx="1"/>
<rect x="140" y="261" width="24" height="17" fill="#c9c0a8" rx="1"/>
<rect x="166" y="261" width="24" height="17" fill="#e6dfd2" rx="1"/>
<rect x="192" y="261" width="24" height="17" fill="#7a6f55" rx="1"/>
<rect x="218" y="261" width="24" height="17" fill="#c9c0a8" rx="1"/>
<rect x="244" y="261" width="24" height="17" fill="#b8612a" rx="1"/>
<rect x="270" y="261" width="24" height="17" fill="#7a6f55" rx="1"/>
<rect x="296" y="261" width="24" height="17" fill="#c9c0a8" rx="1"/>
<rect x="322" y="261" width="24" height="17" fill="#e6dfd2" rx="1"/>
<rect x="348" y="261" width="24" height="17" fill="#e6dfd2" rx="1"/>
<rect x="374" y="261" width="24" height="17" fill="#c9c0a8" rx="1"/>
<rect x="400" y="261" width="24" height="17" fill="#e6dfd2" rx="1"/>
<rect x="426" y="261" width="24" height="17" fill="#e6dfd2" rx="1"/>
<rect x="452" y="261" width="24" height="17" fill="#7a6f55" rx="1"/>
<rect x="478" y="261" width="24" height="17" fill="#7a6f55" rx="1"/>
<rect x="504" y="261" width="24" height="17" fill="#b8612a" rx="1"/>
<rect x="530" y="261" width="24" height="17" fill="#b8612a" rx="1"/>
<rect x="556" y="261" width="24" height="17" fill="#e6dfd2" rx="1"/>
<rect x="582" y="261" width="24" height="17" fill="#f0e9d8" rx="1"/>
<rect x="608" y="261" width="24" height="17" fill="#7a6f55" rx="1"/>
<rect x="634" y="261" width="24" height="17" fill="#e6dfd2" rx="1"/>
<rect x="36" y="280" width="24" height="17" fill="#c9c0a8" rx="1"/>
<rect x="62" y="280" width="24" height="17" fill="#c9c0a8" rx="1"/>
<rect x="88" y="280" width="24" height="17" fill="#3a3326" rx="1"/>
<rect x="114" y="280" width="24" height="17" fill="#7a6f55" rx="1"/>
<rect x="140" y="280" width="24" height="17" fill="#c9c0a8" rx="1"/>
<rect x="166" y="280" width="24" height="17" fill="#e6dfd2" rx="1"/>
<rect x="192" y="280" width="24" height="17" fill="#e6dfd2" rx="1"/>
<rect x="218" y="280" width="24" height="17" fill="#7a6f55" rx="1"/>
<rect x="244" y="280" width="24" height="17" fill="#c9c0a8" rx="1"/>
<rect x="270" y="280" width="24" height="17" fill="#c9c0a8" rx="1"/>
<rect x="296" y="280" width="24" height="17" fill="#7a6f55" rx="1"/>
<rect x="322" y="280" width="24" height="17" fill="#f0e9d8" rx="1"/>
<rect x="348" y="280" width="24" height="17" fill="#3a3326" rx="1"/>
<rect x="374" y="280" width="24" height="17" fill="#7a6f55" rx="1"/>
<rect x="400" y="280" width="24" height="17" fill="#c9c0a8" rx="1"/>
<rect x="426" y="280" width="24" height="17" fill="#c9c0a8" rx="1"/>
<rect x="452" y="280" width="24" height="17" fill="#c9c0a8" rx="1"/>
<rect x="478" y="280" width="24" height="17" fill="#7a6f55" rx="1"/>
<rect x="504" y="280" width="24" height="17" fill="#f0e9d8" rx="1"/>
<rect x="530" y="280" width="24" height="17" fill="#c9c0a8" rx="1"/>
<rect x="556" y="280" width="24" height="17" fill="#b8612a" rx="1"/>
<rect x="582" y="280" width="24" height="17" fill="#e6dfd2" rx="1"/>
<rect x="608" y="280" width="24" height="17" fill="#3a3326" rx="1"/>
<rect x="634" y="280" width="24" height="17" fill="#b8612a" rx="1"/>
<rect x="36" y="299" width="24" height="17" fill="#3a3326" rx="1"/>
<rect x="62" y="299" width="24" height="17" fill="#3a3326" rx="1"/>
<rect x="88" y="299" width="24" height="17" fill="#7a6f55" rx="1"/>
<rect x="114" y="299" width="24" height="17" fill="#e6dfd2" rx="1"/>
<rect x="140" y="299" width="24" height="17" fill="#7a6f55" rx="1"/>
<rect x="166" y="299" width="24" height="17" fill="#f0e9d8" rx="1"/>
<rect x="192" y="299" width="24" height="17" fill="#b8612a" rx="1"/>
<rect x="218" y="299" width="24" height="17" fill="#7a6f55" rx="1"/>
<rect x="244" y="299" width="24" height="17" fill="#3a3326" rx="1"/>
<rect x="270" y="299" width="24" height="17" fill="#3a3326" rx="1"/>
<rect x="296" y="299" width="24" height="17" fill="#b8612a" rx="1"/>
<rect x="322" y="299" width="24" height="17" fill="#7a6f55" rx="1"/>
<rect x="348" y="299" width="24" height="17" fill="#b8612a" rx="1"/>
<rect x="374" y="299" width="24" height="17" fill="#c9c0a8" rx="1"/>
<rect x="400" y="299" width="24" height="17" fill="#c9c0a8" rx="1"/>
<rect x="426" y="299" width="24" height="17" fill="#3a3326" rx="1"/>
<rect x="452" y="299" width="24" height="17" fill="#c9c0a8" rx="1"/>
<rect x="478" y="299" width="24" height="17" fill="#f0e9d8" rx="1"/>
<rect x="504" y="299" width="24" height="17" fill="#b8612a" rx="1"/>
<rect x="530" y="299" width="24" height="17" fill="#b8612a" rx="1"/>
<rect x="556" y="299" width="24" height="17" fill="#7a6f55" rx="1"/>
<rect x="582" y="299" width="24" height="17" fill="#b8612a" rx="1"/>
<rect x="608" y="299" width="24" height="17" fill="#e6dfd2" rx="1"/>
<rect x="634" y="299" width="24" height="17" fill="#b8612a" rx="1"/>
<rect x="36" y="318" width="24" height="17" fill="#e6dfd2" rx="1"/>
<rect x="62" y="318" width="24" height="17" fill="#e6dfd2" rx="1"/>
<rect x="88" y="318" width="24" height="17" fill="#7a6f55" rx="1"/>
<rect x="114" y="318" width="24" height="17" fill="#7a6f55" rx="1"/>
<rect x="140" y="318" width="24" height="17" fill="#7a6f55" rx="1"/>
<rect x="166" y="318" width="24" height="17" fill="#f0e9d8" rx="1"/>
<rect x="192" y="318" width="24" height="17" fill="#3a3326" rx="1"/>
<rect x="218" y="318" width="24" height="17" fill="#7a6f55" rx="1"/>
<rect x="244" y="318" width="24" height="17" fill="#c9c0a8" rx="1"/>
<rect x="270" y="318" width="24" height="17" fill="#b8612a" rx="1"/>
<rect x="296" y="318" width="24" height="17" fill="#c9c0a8" rx="1"/>
<rect x="322" y="318" width="24" height="17" fill="#c9c0a8" rx="1"/>
<rect x="348" y="318" width="24" height="17" fill="#3a3326" rx="1"/>
<rect x="374" y="318" width="24" height="17" fill="#3a3326" rx="1"/>
<rect x="400" y="318" width="24" height="17" fill="#c9c0a8" rx="1"/>
<rect x="426" y="318" width="24" height="17" fill="#7a6f55" rx="1"/>
<rect x="452" y="318" width="24" height="17" fill="#c9c0a8" rx="1"/>
<rect x="478" y="318" width="24" height="17" fill="#7a6f55" rx="1"/>
<rect x="504" y="318" width="24" height="17" fill="#7a6f55" rx="1"/>
<rect x="530" y="318" width="24" height="17" fill="#3a3326" rx="1"/>
<rect x="556" y="318" width="24" height="17" fill="#e6dfd2" rx="1"/>
<rect x="582" y="318" width="24" height="17" fill="#c9c0a8" rx="1"/>
<rect x="608" y="318" width="24" height="17" fill="#c9c0a8" rx="1"/>
<rect x="634" y="318" width="24" height="17" fill="#b8612a" rx="1"/>
<rect x="36" y="337" width="24" height="17" fill="#b8612a" rx="1"/>
<rect x="62" y="337" width="24" height="17" fill="#3a3326" rx="1"/>
<rect x="88" y="337" width="24" height="17" fill="#e6dfd2" rx="1"/>
<rect x="114" y="337" width="24" height="17" fill="#7a6f55" rx="1"/>
<rect x="140" y="337" width="24" height="17" fill="#7a6f55" rx="1"/>
<rect x="166" y="337" width="24" height="17" fill="#b8612a" rx="1"/>
<rect x="192" y="337" width="24" height="17" fill="#b8612a" rx="1"/>
<rect x="218" y="337" width="24" height="17" fill="#f0e9d8" rx="1"/>
<rect x="244" y="337" width="24" height="17" fill="#b8612a" rx="1"/>
<rect x="270" y="337" width="24" height="17" fill="#3a3326" rx="1"/>
<rect x="296" y="337" width="24" height="17" fill="#7a6f55" rx="1"/>
<rect x="322" y="337" width="24" height="17" fill="#7a6f55" rx="1"/>
<rect x="348" y="337" width="24" height="17" fill="#b8612a" rx="1"/>
<rect x="374" y="337" width="24" height="17" fill="#e6dfd2" rx="1"/>
<rect x="400" y="337" width="24" height="17" fill="#3a3326" rx="1"/>
<rect x="426" y="337" width="24" height="17" fill="#3a3326" rx="1"/>
<rect x="452" y="337" width="24" height="17" fill="#b8612a" rx="1"/>
<rect x="478" y="337" width="24" height="17" fill="#7a6f55" rx="1"/>
<rect x="504" y="337" width="24" height="17" fill="#f0e9d8" rx="1"/>
<rect x="530" y="337" width="24" height="17" fill="#3a3326" rx="1"/>
<rect x="556" y="337" width="24" height="17" fill="#3a3326" rx="1"/>
<rect x="582" y="337" width="24" height="17" fill="#b8612a" rx="1"/>
<rect x="608" y="337" width="24" height="17" fill="#b8612a" rx="1"/>
<rect x="634" y="337" width="24" height="17" fill="#b8612a" rx="1"/>
<rect x="36" y="356" width="24" height="17" fill="#3a3326" rx="1"/>
<rect x="62" y="356" width="24" height="17" fill="#3a3326" rx="1"/>
<rect x="88" y="356" width="24" height="17" fill="#7a6f55" rx="1"/>
<rect x="114" y="356" width="24" height="17" fill="#f0e9d8" rx="1"/>
<rect x="140" y="356" width="24" height="17" fill="#7a6f55" rx="1"/>
<rect x="166" y="356" width="24" height="17" fill="#b8612a" rx="1"/>
<rect x="192" y="356" width="24" height="17" fill="#b8612a" rx="1"/>
<rect x="218" y="356" width="24" height="17" fill="#c9c0a8" rx="1"/>
<rect x="244" y="356" width="24" height="17" fill="#b8612a" rx="1"/>
<rect x="270" y="356" width="24" height="17" fill="#f0e9d8" rx="1"/>
<rect x="296" y="356" width="24" height="17" fill="#e6dfd2" rx="1"/>
<rect x="322" y="356" width="24" height="17" fill="#3a3326" rx="1"/>
<rect x="348" y="356" width="24" height="17" fill="#c9c0a8" rx="1"/>
<rect x="374" y="356" width="24" height="17" fill="#f0e9d8" rx="1"/>
<rect x="400" y="356" width="24" height="17" fill="#7a6f55" rx="1"/>
<rect x="426" y="356" width="24" height="17" fill="#b8612a" rx="1"/>
<rect x="452" y="356" width="24" height="17" fill="#b8612a" rx="1"/>
<rect x="478" y="356" width="24" height="17" fill="#e6dfd2" rx="1"/>
<rect x="504" y="356" width="24" height="17" fill="#b8612a" rx="1"/>
<rect x="530" y="356" width="24" height="17" fill="#7a6f55" rx="1"/>
<rect x="556" y="356" width="24" height="17" fill="#3a3326" rx="1"/>
<rect x="582" y="356" width="24" height="17" fill="#b8612a" rx="1"/>
<rect x="608" y="356" width="24" height="17" fill="#7a6f55" rx="1"/>
<rect x="634" y="356" width="24" height="17" fill="#3a3326" rx="1"/>
<rect x="36" y="375" width="24" height="17" fill="#c9c0a8" rx="1"/>
<rect x="62" y="375" width="24" height="17" fill="#e6dfd2" rx="1"/>
<rect x="88" y="375" width="24" height="17" fill="#b8612a" rx="1"/>
<rect x="114" y="375" width="24" height="17" fill="#f0e9d8" rx="1"/>
<rect x="140" y="375" width="24" height="17" fill="#b8612a" rx="1"/>
<rect x="166" y="375" width="24" height="17" fill="#3a3326" rx="1"/>
<rect x="192" y="375" width="24" height="17" fill="#7a6f55" rx="1"/>
<rect x="218" y="375" width="24" height="17" fill="#e6dfd2" rx="1"/>
<rect x="244" y="375" width="24" height="17" fill="#b8612a" rx="1"/>
<rect x="270" y="375" width="24" height="17" fill="#f0e9d8" rx="1"/>
<rect x="296" y="375" width="24" height="17" fill="#7a6f55" rx="1"/>
<rect x="322" y="375" width="24" height="17" fill="#7a6f55" rx="1"/>
<rect x="348" y="375" width="24" height="17" fill="#3a3326" rx="1"/>
<rect x="374" y="375" width="24" height="17" fill="#3a3326" rx="1"/>
<rect x="400" y="375" width="24" height="17" fill="#b8612a" rx="1"/>
<rect x="426" y="375" width="24" height="17" fill="#3a3326" rx="1"/>
<rect x="452" y="375" width="24" height="17" fill="#c9c0a8" rx="1"/>
<rect x="478" y="375" width="24" height="17" fill="#b8612a" rx="1"/>
<rect x="504" y="375" width="24" height="17" fill="#b8612a" rx="1"/>
<rect x="530" y="375" width="24" height="17" fill="#b8612a" rx="1"/>
<rect x="556" y="375" width="24" height="17" fill="#b8612a" rx="1"/>
<rect x="582" y="375" width="24" height="17" fill="#f0e9d8" rx="1"/>
<rect x="608" y="375" width="24" height="17" fill="#c9c0a8" rx="1"/>
<rect x="634" y="375" width="24" height="17" fill="#f0e9d8" rx="1"/>
<rect x="36" y="394" width="24" height="17" fill="#b8612a" rx="1"/>
<rect x="62" y="394" width="24" height="17" fill="#3a3326" rx="1"/>
<rect x="88" y="394" width="24" height="17" fill="#3a3326" rx="1"/>
<rect x="114" y="394" width="24" height="17" fill="#e6dfd2" rx="1"/>
<rect x="140" y="394" width="24" height="17" fill="#b8612a" rx="1"/>
<rect x="166" y="394" width="24" height="17" fill="#7a6f55" rx="1"/>
<rect x="192" y="394" width="24" height="17" fill="#f0e9d8" rx="1"/>
<rect x="218" y="394" width="24" height="17" fill="#b8612a" rx="1"/>
<rect x="244" y="394" width="24" height="17" fill="#b8612a" rx="1"/>
<rect x="270" y="394" width="24" height="17" fill="#f0e9d8" rx="1"/>
<rect x="296" y="394" width="24" height="17" fill="#3a3326" rx="1"/>
<rect x="322" y="394" width="24" height="17" fill="#b8612a" rx="1"/>
<rect x="348" y="394" width="24" height="17" fill="#7a6f55" rx="1"/>
<rect x="374" y="394" width="24" height="17" fill="#b8612a" rx="1"/>
<rect x="400" y="394" width="24" height="17" fill="#b8612a" rx="1"/>
<rect x="426" y="394" width="24" height="17" fill="#3a3326" rx="1"/>
<rect x="452" y="394" width="24" height="17" fill="#b8612a" rx="1"/>
<rect x="478" y="394" width="24" height="17" fill="#c9c0a8" rx="1"/>
<rect x="504" y="394" width="24" height="17" fill="#7a6f55" rx="1"/>
<rect x="530" y="394" width="24" height="17" fill="#b8612a" rx="1"/>
<rect x="556" y="394" width="24" height="17" fill="#b8612a" rx="1"/>
<rect x="582" y="394" width="24" height="17" fill="#b8612a" rx="1"/>
<rect x="608" y="394" width="24" height="17" fill="#b8612a" rx="1"/>
<rect x="634" y="394" width="24" height="17" fill="#b8612a" rx="1"/>
<rect x="36" y="413" width="24" height="17" fill="#b8612a" rx="1"/>
<rect x="62" y="413" width="24" height="17" fill="#e6dfd2" rx="1"/>
<rect x="88" y="413" width="24" height="17" fill="#b8612a" rx="1"/>
<rect x="114" y="413" width="24" height="17" fill="#b8612a" rx="1"/>
<rect x="140" y="413" width="24" height="17" fill="#b8612a" rx="1"/>
<rect x="166" y="413" width="24" height="17" fill="#b8612a" rx="1"/>
<rect x="192" y="413" width="24" height="17" fill="#3a3326" rx="1"/>
<rect x="218" y="413" width="24" height="17" fill="#e6dfd2" rx="1"/>
<rect x="244" y="413" width="24" height="17" fill="#b8612a" rx="1"/>
<rect x="270" y="413" width="24" height="17" fill="#7a6f55" rx="1"/>
<rect x="296" y="413" width="24" height="17" fill="#3a3326" rx="1"/>
<rect x="322" y="413" width="24" height="17" fill="#7a6f55" rx="1"/>
<rect x="348" y="413" width="24" height="17" fill="#b8612a" rx="1"/>
<rect x="374" y="413" width="24" height="17" fill="#b8612a" rx="1"/>
<rect x="400" y="413" width="24" height="17" fill="#e6dfd2" rx="1"/>
<rect x="426" y="413" width="24" height="17" fill="#b8612a" rx="1"/>
<rect x="452" y="413" width="24" height="17" fill="#b8612a" rx="1"/>
<rect x="478" y="413" width="24" height="17" fill="#c9c0a8" rx="1"/>
<rect x="504" y="413" width="24" height="17" fill="#c9c0a8" rx="1"/>
<rect x="530" y="413" width="24" height="17" fill="#b8612a" rx="1"/>
<rect x="556" y="413" width="24" height="17" fill="#b8612a" rx="1"/>
<rect x="582" y="413" width="24" height="17" fill="#b8612a" rx="1"/>
<rect x="608" y="413" width="24" height="17" fill="#b8612a" rx="1"/>
<rect x="634" y="413" width="24" height="17" fill="#3a3326" rx="1"/>
<line x1="36" y1="440" x2="658" y2="440" stroke="#888" stroke-width="0.4"/>
<text x="48.0" y="456" font-family="Menlo, monospace" font-size="9" fill="#888" text-anchor="middle">M01</text>
<text x="204.0" y="456" font-family="Menlo, monospace" font-size="9" fill="#888" text-anchor="middle">M07</text>
<text x="360.0" y="456" font-family="Menlo, monospace" font-size="9" fill="#888" text-anchor="middle">M13</text>
<text x="516.0" y="456" font-family="Menlo, monospace" font-size="9" fill="#888" text-anchor="middle">M19</text>
<text x="646.0" y="456" font-family="Menlo, monospace" font-size="9" fill="#888" text-anchor="middle">M24</text>
<text x="28" y="442" font-family="Georgia, serif" font-style="italic" font-size="11" fill="#888">Schematic. Each cell is a unit-by-month observation; tone stands for reporting density.</text>
</svg>
