<svg viewBox="0 0 700 460" xmlns="http://www.w3.org/2000/svg">
  <rect width="700" height="460" fill="#f7f2e8" stroke="#444" stroke-width="0.75"/>

  <!-- Title -->
  <text x="28" y="40" font-family="Georgia, serif" font-style="italic" font-weight="500" font-size="22" fill="#2a3680">Indicator review</text>
  <text x="640" y="40" font-family="Menlo, monospace" font-size="10" fill="#888" text-anchor="end">UPDATED · M-12</text>
  <line x1="28" y1="54" x2="672" y2="54" stroke="#aaa" stroke-width="0.6"/>

  <!-- KPI tile -->
  <text x="28" y="86" font-family="Menlo, monospace" font-size="10" fill="#888" letter-spacing="2.5">SCORE</text>
  <text x="28" y="138" font-family="Georgia, serif" font-size="48" font-weight="500" fill="#222">62.4</text>
  <text x="28" y="158" font-family="Menlo, monospace" font-size="11" fill="#b8612a">↑ +3.1 this month</text>

  <!-- Ranking list -->
  <text x="240" y="86" font-family="Menlo, monospace" font-size="10" fill="#888" letter-spacing="2.5">RANK · INDICATOR</text>
  <g font-family="Menlo, monospace" font-size="11" fill="#222">
    <text x="240" y="108">01</text>
    <rect x="270" y="100" width="220" height="10" fill="#b8612a" opacity="0.95"/>
    <text x="500" y="108" fill="#888">82.1</text>
    <text x="240" y="130">02</text>
    <rect x="270" y="122" width="195" height="10" fill="#b8612a" opacity="0.85"/>
    <text x="500" y="130" fill="#888">74.6</text>
    <text x="240" y="152">03</text>
    <rect x="270" y="144" width="160" height="10" fill="#666" opacity="0.7"/>
    <text x="500" y="152" fill="#888">68.2</text>
    <text x="240" y="174">04</text>
    <rect x="270" y="166" width="118" height="10" fill="#666" opacity="0.55"/>
    <text x="500" y="174" fill="#888">52.8</text>
    <text x="240" y="196">05</text>
    <rect x="270" y="188" width="72" height="10" fill="#aaa" opacity="0.5"/>
    <text x="500" y="196" fill="#888">31.4</text>
  </g>

  <line x1="28" y1="234" x2="672" y2="234" stroke="#aaa" stroke-width="0.6"/>

  <!-- Trend -->
  <text x="28" y="264" font-family="Menlo, monospace" font-size="10" fill="#888" letter-spacing="2.5">12-MONTH TREND</text>
  <polyline points="50,360 110,348 170,365 230,330 290,318 350,308 410,310 470,278 530,270 590,260 650,242"
            fill="none" stroke="#2a3680" stroke-width="1.6"/>
  <g fill="#2a3680">
    <circle cx="50" cy="360" r="2.5"/><circle cx="110" cy="348" r="2.5"/>
    <circle cx="170" cy="365" r="2.5"/><circle cx="230" cy="330" r="2.5"/>
    <circle cx="290" cy="318" r="2.5"/><circle cx="350" cy="308" r="2.5"/>
    <circle cx="410" cy="310" r="2.5"/><circle cx="470" cy="278" r="2.5"/>
    <circle cx="530" cy="270" r="2.5"/><circle cx="590" cy="260" r="2.5"/>
    <circle cx="650" cy="242" r="2.5"/>
  </g>
  <line x1="28" y1="395" x2="672" y2="395" stroke="#888" stroke-width="0.4"/>
  <g font-family="Menlo, monospace" font-size="9" fill="#888">
    <text x="50" y="412" text-anchor="middle">M01</text>
    <text x="170" y="412" text-anchor="middle">M03</text>
    <text x="290" y="412" text-anchor="middle">M05</text>
    <text x="410" y="412" text-anchor="middle">M07</text>
    <text x="530" y="412" text-anchor="middle">M09</text>
    <text x="650" y="412" text-anchor="middle">M11</text>
  </g>

  <text x="28" y="442" font-family="Georgia, serif" font-style="italic" font-size="11" fill="#888">Schematic. Indicators and values are illustrative.</text>
</svg>
