<?xml version="1.0" standalone="no"?>
<!DOCTYPE svg PUBLIC "-//W3C//DTD SVG 20010904//EN"
 "http://www.w3.org/TR/2001/REC-SVG-20010904/DTD/svg10.dtd">
<svg version="1.0" xmlns="http://www.w3.org/2000/svg"
 width="1000.000000pt" height="749.000000pt" viewBox="0 0 1000.000000 749.000000"
 preserveAspectRatio="xMidYMid meet">
<metadata>
Created by potrace 1.16, written by Peter Selinger 2001-2019
</metadata>
<g transform="translate(0.000000,749.000000) scale(0.100000,-0.100000)"
fill="currentColor" stroke="none">
<path d="M1266 7452 c-3 -21 -15 -47 -26 -57 -31 -28 13 -204 47 -191 30 12 8
-78 -23 -97 -15 -8 -19 -37 -6 -37 56 0 120 140 66 148 -26 4 -41 140 -22 203
12 42 6 69 -15 69 -9 0 -17 -15 -21 -38z"/>
<path d="M7517 7422 c-26 -37 -62 -89 -79 -117 -17 -27 -38 -61 -48 -75 -21
-32 -31 -60 -22 -60 5 0 28 30 52 68 56 84 132 189 166 225 l25 27 -23 0 c-17
-1 -36 -19 -71 -68z"/>
<path d="M8735 7454 c-27 -19 -64 -43 -81 -54 -17 -11 -48 -45 -70 -76 l-38
-57 41 -36 c22 -20 48 -49 56 -66 8 -16 27 -41 41 -54 14 -14 26 -31 26 -40 0
-8 14 -52 31 -97 34 -91 53 -100 64 -31 4 23 16 53 25 67 23 31 35 70 22 70
-13 0 -28 -20 -39 -54 -16 -49 -30 -41 -69 41 -21 43 -59 103 -86 132 -76 86
-65 114 75 201 34 21 60 46 66 63 14 37 -1 35 -64 -9z"/>
<path d="M2717 7463 c-16 -28 -33 -313 -19 -313 24 0 32 30 32 115 0 49 5 108
10 130 12 52 -4 101 -23 68z"/>
<path d="M2597 7413 c-4 -3 -7 -13 -7 -21 0 -9 -8 -24 -17 -34 -13 -15 -15
-23 -6 -36 6 -10 14 -32 17 -50 4 -17 12 -34 16 -37 14 -8 23 41 15 73 -4 15
-7 46 -6 70 1 43 0 47 -12 35z"/>
<path d="M8454 7328 c-77 -75 -93 -108 -50 -108 18 0 31 11 50 45 15 24 47 61
71 82 50 41 55 53 24 53 -13 0 -51 -29 -95 -72z"/>
<path d="M9955 7346 c-22 -23 -42 -54 -45 -71 -4 -25 -10 -31 -40 -35 -35 -5
-44 -29 -19 -55 17 -17 75 24 95 67 10 22 26 45 37 53 13 9 17 22 15 47 l-3
34 -40 -40z"/>
<path d="M6575 7370 c-16 -4 -115 -8 -220 -9 -123 -1 -185 -5 -175 -11 27 -17
429 -5 448 14 19 18 3 20 -53 6z"/>
<path d="M2853 7334 c-17 -13 -17 -15 1 -29 22 -17 77 -20 92 -5 6 6 72 11
147 12 77 1 137 7 137 12 0 5 -56 7 -142 3 -105 -4 -153 -2 -180 7 -31 11 -41
11 -55 0z"/>
<path d="M6644 7296 c-16 -26 -16 -72 1 -70 13 2 42 43 50 72 9 32 -29 30 -51
-2z"/>
<path d="M2928 7255 c-11 -11 57 -164 78 -174 12 -5 39 -44 61 -88 30 -60 46
-81 71 -92 25 -11 35 -25 48 -68 9 -29 23 -58 30 -64 38 -32 -10 89 -59 147
-13 16 -39 57 -56 92 -17 34 -43 72 -56 84 -14 12 -25 32 -25 45 0 13 -12 31
-29 44 -16 12 -32 34 -35 50 -5 27 -16 36 -28 24z"/>
<path d="M5680 7230 c-361 -14 -567 -20 -767 -21 -166 -1 -203 -4 -207 -16 -9
-23 -7 -25 17 -20 12 3 216 8 452 11 237 4 475 11 530 16 55 5 138 12 185 16
47 4 92 10 100 15 17 9 -36 9 -310 -1z"/>
<path d="M4028 7196 c-524 -11 -742 -25 -397 -27 746 -3 1004 3 1004 23 0 17
26 17 -607 4z"/>
<path d="M6640 7171 c0 -32 -17 -55 -106 -145 -103 -104 -144 -171 -144 -231
0 -40 -46 -97 -115 -145 -44 -30 -87 -158 -70 -210 15 -48 40 -12 50 75 10 80
19 102 47 110 13 4 37 22 53 39 17 17 41 39 53 48 19 15 22 28 22 83 0 57 3
66 24 80 13 9 38 43 55 75 28 52 36 60 61 60 24 0 31 5 36 28 10 46 26 70 50
76 31 8 34 60 4 76 -18 10 -20 8 -20 -19z"/>
<path d="M840 7159 c0 -15 7 -32 15 -39 8 -7 15 -21 15 -32 0 -10 7 -33 16
-49 20 -39 15 -71 -14 -85 -23 -11 -22 -11 9 -18 85 -17 86 -12 14 136 -37 78
-55 105 -55 87z"/>
<path d="M9978 7079 c-9 -19 -24 -42 -33 -49 -23 -19 -75 -127 -75 -155 0 -43
19 -37 45 14 14 28 39 66 56 85 27 31 30 41 27 88 l-4 53 -16 -36z"/>
<path d="M2867 7064 c-12 -12 -8 -51 7 -63 21 -17 28 -75 16 -122 -15 -53 -8
-58 30 -21 36 37 37 40 5 102 -14 27 -25 55 -25 63 0 19 -24 49 -33 41z"/>
<path d="M8323 7041 c-10 -10 -34 -37 -53 -60 -19 -23 -45 -53 -58 -67 -22
-25 -21 -57 1 -35 19 19 34 12 40 -18 4 -20 14 -31 31 -35 14 -3 30 -15 36
-26 9 -17 58 -50 75 -50 19 0 -4 33 -60 86 -36 34 -65 66 -65 71 0 19 42 63
59 63 13 0 21 10 25 31 12 63 2 76 -31 40z"/>
<path d="M8570 6965 c-46 -53 -76 -78 -102 -86 -47 -15 -50 -35 -5 -36 17 0
47 -3 65 -8 31 -7 32 -7 32 24 0 25 7 36 29 49 25 14 71 95 71 125 0 22 -32
-2 -90 -68z"/>
<path d="M1350 7021 c0 -4 22 -28 49 -52 76 -68 83 -74 105 -79 16 -5 22 -15
24 -48 4 -48 10 -51 48 -18 l28 23 -40 25 c-21 14 -71 55 -110 92 -65 59 -104
81 -104 57z"/>
<path d="M6677 7023 c-25 -43 -3 -166 34 -189 21 -13 20 5 -1 35 -20 26 -22
37 -16 89 6 54 -3 88 -17 65z"/>
<path d="M7904 6991 c-81 -67 -88 -75 -77 -78 15 -5 111 64 124 89 18 34 3 30
-47 -11z"/>
<path d="M7196 6934 c-9 -8 -28 -36 -43 -62 -14 -26 -43 -75 -65 -109 -21 -34
-38 -65 -38 -69 0 -4 -14 -23 -31 -43 -40 -47 -101 -151 -96 -165 2 -6 34 34
70 89 37 55 86 128 109 162 122 177 166 269 94 197z"/>
<path d="M5680 6865 c0 -3 4 -13 9 -23 6 -9 13 -33 16 -52 3 -19 17 -48 30
-65 l24 -29 -2 64 c-2 51 -6 68 -25 87 -20 20 -52 31 -52 18z"/>
<path d="M7818 6833 c-10 -2 -18 -9 -18 -14 0 -5 -1 -12 -2 -16 -4 -10 86 -13
102 -3 30 19 -38 46 -82 33z"/>
<path d="M6728 6753 c-23 -26 -48 -79 -48 -101 0 -10 -9 -47 -21 -82 -20 -62
-20 -64 -2 -77 16 -12 18 -12 22 4 2 10 21 71 42 135 48 144 49 169 7 121z"/>
<path d="M647 6753 c-4 -3 -7 -14 -7 -23 0 -8 -9 -33 -20 -55 -27 -53 -25 -65
8 -65 l27 0 0 75 c0 41 0 75 -1 75 0 0 -4 -3 -7 -7z"/>
<path d="M2765 6731 c-4 -13 1 -27 14 -40 12 -12 21 -29 21 -38 0 -10 7 -27
15 -37 8 -11 15 -32 15 -46 0 -29 32 -64 67 -74 11 -4 24 -13 27 -21 6 -17 36
-21 36 -5 0 6 -4 10 -10 10 -21 0 -90 73 -90 95 0 28 -34 110 -49 119 -6 4
-11 18 -11 32 0 29 -26 33 -35 5z"/>
<path d="M3040 6733 c1 -10 7 -29 15 -43 17 -29 19 -98 5 -136 -18 -46 -2 -73
21 -38 24 37 24 122 1 183 -18 46 -42 66 -42 34z"/>
<path d="M7760 6738 c0 -6 15 -24 32 -40 l33 -29 17 22 c33 40 21 74 -15 42
-18 -17 -19 -17 -28 0 -11 19 -39 23 -39 5z"/>
<path d="M4746 6722 c-4 -7 -18 -12 -32 -12 -26 0 -33 -27 -12 -48 32 -32 76
0 61 45 -6 18 -12 23 -17 15z"/>
<path d="M6903 6698 c-10 -13 -32 -52 -48 -88 -15 -36 -45 -96 -67 -134 -21
-38 -36 -71 -33 -75 9 -9 41 36 71 99 15 30 32 62 39 70 14 16 75 133 75 144
0 13 -17 5 -37 -16z"/>
<path d="M3198 6689 c-37 -19 -38 -21 -38 -75 0 -72 33 -78 38 -6 4 49 41 78
87 66 33 -8 32 9 0 24 -34 16 -43 15 -87 -9z"/>
<path d="M6440 6639 c-9 -17 -5 -29 25 -75 50 -76 76 -73 35 4 -10 20 -22 49
-25 65 -6 32 -20 35 -35 6z"/>
<path d="M9734 6539 c-9 -19 -34 -60 -55 -91 -38 -55 -50 -86 -28 -73 23 15
120 178 110 188 -6 6 -15 -2 -27 -24z"/>
<path d="M7895 6537 c-8 -13 -26 -29 -38 -34 -25 -12 -54 -83 -43 -102 12 -18
26 -2 26 28 0 28 19 53 36 50 21 -4 32 3 42 26 24 52 6 76 -23 32z"/>
<path d="M2690 6492 c0 -11 12 -43 26 -69 19 -36 24 -57 20 -85 -5 -33 -4 -37
24 -47 22 -7 30 -16 30 -33 0 -13 11 -43 24 -68 28 -55 57 -173 54 -220 -2
-19 2 -35 7 -35 6 0 9 17 7 39 l-3 38 36 -6 c40 -8 41 11 0 38 -17 11 -26 31
-35 80 -7 36 -18 70 -25 76 -8 6 -17 25 -21 43 -3 17 -21 58 -39 91 -18 34
-38 77 -44 97 -15 48 -61 94 -61 61z"/>
<path d="M3144 6485 c-17 -43 47 -185 82 -185 17 0 25 -7 30 -25 3 -14 10 -25
15 -25 23 0 -2 55 -37 83 -15 11 -27 37 -35 75 -19 87 -40 117 -55 77z"/>
<path d="M3265 6489 c-4 -6 4 -22 19 -35 14 -14 26 -36 26 -50 0 -13 4 -32 10
-42 5 -9 14 -36 20 -59 7 -26 17 -43 25 -43 16 0 20 25 6 34 -5 4 -12 30 -16
59 -4 28 -14 66 -23 82 -8 17 -18 37 -22 45 -9 19 -36 25 -45 9z"/>
<path d="M5740 6476 c0 -8 -8 -22 -17 -32 -21 -20 -28 -158 -9 -147 34 19 45
35 34 53 -8 13 -7 29 5 64 16 46 14 76 -4 76 -5 0 -9 -6 -9 -14z"/>
<path d="M7446 6444 c-26 -26 -35 -49 -25 -65 5 -7 6 -29 2 -48 -4 -24 -2 -32
6 -27 6 4 11 16 11 27 0 11 9 37 20 59 31 61 23 92 -14 54z"/>
<path d="M6520 6435 c-6 -8 -9 -19 -5 -25 4 -6 -1 -20 -11 -31 -37 -41 -38
-199 0 -199 11 0 14 17 14 75 0 42 5 81 11 89 7 8 9 25 6 39 -4 14 -2 28 4 31
13 8 15 36 2 36 -5 0 -14 -7 -21 -15z"/>
<path d="M5945 6406 c-56 -15 -81 -27 -83 -39 -5 -24 7 -22 146 34 76 31 43
34 -63 5z"/>
<path d="M6166 6349 c-14 -17 -26 -35 -26 -40 0 -17 11 -9 20 16 20 52 65 13
56 -48 -6 -35 -5 -39 9 -27 28 23 11 130 -21 130 -7 0 -24 -14 -38 -31z"/>
<path d="M6310 6321 c0 -16 -14 -68 -32 -115 -35 -98 -27 -147 10 -62 11 25
34 65 51 90 37 53 38 66 8 94 -31 29 -37 28 -37 -7z"/>
<path d="M9608 6323 c-9 -10 -31 -50 -48 -88 -17 -39 -36 -78 -41 -88 -6 -11
-8 -21 -5 -24 3 -3 11 6 17 21 7 14 16 26 20 26 11 0 81 148 77 161 -2 6 -11
2 -20 -8z"/>
<path d="M6111 6264 c-19 -13 -40 -25 -45 -27 -17 -6 13 -37 35 -37 23 0 52
42 47 68 -3 19 -4 19 -37 -4z"/>
<path d="M8002 6248 c-29 -22 -51 -43 -49 -45 7 -6 157 67 157 77 0 24 -58 7
-108 -32z"/>
<path d="M6646 6247 c-20 -19 -36 -41 -36 -48 0 -8 -18 -36 -40 -64 -38 -48
-50 -87 -31 -100 12 -7 41 22 41 42 0 19 67 141 93 170 33 37 12 37 -27 0z"/>
<path d="M7355 6239 c-5 -22 -3 -34 10 -43 15 -11 15 -14 -4 -38 -51 -65 -48
-115 5 -70 37 32 54 111 29 132 -8 7 -15 18 -15 26 0 27 -19 23 -25 -7z"/>
<path d="M2977 6244 c-3 -4 -1 -16 5 -28 24 -44 34 -127 22 -183 -5 -29 -4
-33 15 -33 31 0 34 16 17 112 -20 111 -38 153 -59 132z"/>
<path d="M9992 6204 c-1 -12 -21 -48 -45 -80 -44 -62 -67 -105 -67 -129 0 -29
18 -14 35 28 9 23 32 58 51 78 31 32 35 41 31 80 -2 24 -4 34 -5 23z"/>
<path d="M7574 6183 c-14 -43 -108 -220 -130 -244 -18 -20 -18 -29 -1 -29 20
0 63 51 76 89 6 19 23 50 38 70 21 27 28 48 29 84 1 49 -3 59 -12 30z"/>
<path d="M3185 6079 c-11 -28 -30 -65 -43 -82 -19 -27 -20 -33 -8 -45 15 -16
40 -7 33 11 -6 17 19 63 43 80 25 17 32 80 10 84 -10 3 -22 -13 -35 -48z"/>
<path d="M1905 6110 c-10 -16 3 -29 62 -67 67 -42 97 -32 37 13 -21 16 -46 37
-56 47 -20 19 -34 22 -43 7z"/>
<path d="M2453 6095 c-7 -19 24 -55 42 -49 7 3 22 -6 33 -20 11 -14 29 -26 41
-26 35 0 81 -83 81 -147 0 -74 17 -66 25 11 9 82 3 98 -48 132 -23 16 -66 48
-95 71 -59 47 -70 51 -79 28z"/>
<path d="M6648 6086 c-9 -9 -19 -25 -23 -35 -3 -11 -21 -28 -39 -39 -22 -13
-35 -30 -39 -51 -4 -17 -16 -45 -29 -61 -36 -50 -14 -44 33 9 78 87 164 245
97 177z"/>
<path d="M7971 6066 c-7 -8 -26 -18 -42 -21 -34 -8 -37 -27 -9 -62 11 -14 20
-36 20 -49 0 -45 19 -33 30 20 6 29 17 62 25 72 29 39 6 76 -24 40z"/>
<path d="M3384 6048 c-4 -7 0 -16 10 -22 61 -36 95 -113 103 -231 6 -88 10
-105 23 -85 18 29 12 152 -10 188 -11 18 -20 41 -20 52 0 10 -5 22 -10 25 -6
4 -22 24 -36 46 -24 39 -47 49 -60 27z"/>
<path d="M3250 6025 c0 -20 68 -95 86 -95 26 0 14 31 -28 70 -44 43 -58 49
-58 25z"/>
<path d="M5988 6014 c-11 -19 -17 -130 -9 -144 15 -22 22 -7 28 58 5 54 -7
107 -19 86z"/>
<path d="M7097 5924 c-95 -94 -112 -124 -69 -124 11 0 41 -9 67 -21 34 -15 58
-19 86 -15 27 4 42 2 53 -9 28 -29 116 54 116 110 0 14 -33 -12 -45 -36 -27
-50 -163 -54 -213 -4 -47 44 97 152 184 138 50 -8 43 14 -12 37 -64 28 -58 30
-167 -76z"/>
<path d="M9981 5990 c-8 -19 -26 -52 -40 -73 -22 -34 -23 -39 -9 -53 14 -14
17 -11 34 33 9 26 21 53 26 60 5 6 8 24 6 40 l-3 28 -14 -35z"/>
<path d="M6189 6003 c-10 -80 -5 -176 8 -155 9 12 26 22 39 22 27 0 30 7 10
35 -7 11 -19 37 -25 57 -12 36 -30 59 -32 41z"/>
<path d="M8723 5985 c-11 -8 -47 -49 -78 -91 -62 -82 -107 -117 -142 -111 -28
5 -59 -15 -49 -31 4 -7 18 -12 31 -12 51 0 33 -83 -36 -165 -9 -11 -22 -36
-28 -56 -10 -33 -42 -59 -71 -59 -29 0 15 75 89 152 38 40 42 49 31 63 -15 18
-64 -19 -76 -59 -8 -23 -41 -66 -131 -169 -64 -72 -79 -107 -44 -107 10 0 21
6 24 14 3 7 38 30 79 50 101 51 137 84 145 132 4 24 16 48 33 64 28 25 60 95
60 130 0 11 12 27 26 36 14 10 46 53 71 96 25 44 58 89 74 100 44 33 36 54 -8
23z"/>
<path d="M2213 5965 c-9 -24 25 -54 102 -92 105 -51 138 -71 147 -88 5 -8 22
-15 39 -15 l30 0 -21 30 c-12 17 -30 30 -40 30 -10 0 -22 4 -25 10 -9 15 -105
76 -145 92 -19 8 -41 22 -49 31 -17 21 -30 22 -38 2z"/>
<path d="M2945 5933 c-4 -16 -8 -38 -11 -49 -4 -25 14 -84 26 -84 17 0 21 51
11 148 -2 23 -21 12 -26 -15z"/>
<path d="M8773 5908 c-39 -45 -83 -121 -89 -157 -4 -20 -11 -44 -16 -55 -7
-13 -6 -21 3 -27 23 -14 29 -10 29 20 0 36 53 144 91 189 16 18 29 37 29 42 0
18 -26 10 -47 -12z"/>
<path d="M3143 5869 c-14 -14 -7 -37 23 -69 30 -33 44 -72 44 -123 0 -52 15
-80 30 -57 41 63 -50 296 -97 249z"/>
<path d="M2793 5844 c-4 -12 -1 -21 12 -28 10 -6 32 -23 48 -38 33 -31 47 -35
47 -15 0 12 -21 34 -77 81 -22 18 -23 18 -30 0z"/>
<path d="M6020 5827 c0 -13 25 -49 60 -87 33 -35 60 -70 60 -76 0 -27 29 -38
50 -19 27 24 25 33 -7 47 -34 15 -133 114 -133 132 0 8 -7 16 -15 20 -11 4
-15 -1 -15 -17z"/>
<path d="M6447 5834 c-4 -4 -7 -15 -7 -24 0 -51 -60 -84 -70 -39 -12 50 -35
27 -37 -36 -1 -33 -11 -87 -22 -119 l-21 -60 26 25 c14 13 32 35 39 49 7 14
38 57 69 95 33 41 55 78 54 89 -3 21 -20 31 -31 20z"/>
<path d="M9638 5761 c-26 -9 -49 -18 -52 -21 -10 -10 16 -100 29 -100 15 0 28
27 19 41 -16 27 6 59 42 59 28 0 35 4 32 17 -4 22 -15 23 -70 4z"/>
<path d="M7962 5732 c-7 -22 -12 -49 -12 -61 0 -12 -18 -56 -40 -97 -38 -73
-50 -114 -31 -114 20 0 81 152 81 201 0 9 7 22 15 29 16 14 20 47 7 68 -6 9
-12 0 -20 -26z"/>
<path d="M204 5705 c5 -11 13 -35 18 -54 10 -35 31 -82 74 -162 13 -26 24 -56
24 -66 0 -19 18 -43 32 -43 16 0 8 78 -11 102 -11 13 -23 37 -26 51 -4 15 -11
29 -15 32 -5 3 -22 34 -40 69 -30 62 -75 119 -56 71z"/>
<path d="M796 5660 c16 -137 12 -203 -14 -216 -51 -25 -50 -37 3 -29 62 8 71
16 57 52 -6 15 -16 73 -23 128 -7 55 -16 107 -21 115 -6 9 -6 -11 -2 -50z"/>
<path d="M3300 5691 c0 -5 9 -13 21 -16 21 -7 21 -7 3 -74 -6 -19 -3 -22 12
-19 18 3 36 77 26 107 -4 13 -62 15 -62 2z"/>
<path d="M2847 5670 c-3 -14 -8 -36 -11 -50 -3 -14 -8 -36 -11 -50 -5 -18 0
-34 15 -53 33 -41 44 -35 34 21 -4 26 -7 61 -6 79 1 17 -2 42 -7 55 l-9 23 -5
-25z"/>
<path d="M8578 5565 c-43 -60 -49 -81 -19 -66 24 13 82 101 75 112 -10 16 -19
9 -56 -46z"/>
<path d="M6230 5590 c-7 -12 -8 -39 -5 -63 5 -34 3 -46 -10 -57 -9 -8 -21 -25
-26 -37 -11 -29 -38 -41 -50 -22 -13 21 -33 -5 -54 -68 -27 -85 4 -94 45 -14
10 20 35 54 56 76 95 96 124 145 89 145 -10 0 -15 10 -15 30 0 35 -14 39 -30
10z"/>
<path d="M5662 5573 c-5 -10 -12 -43 -16 -73 l-7 -55 25 40 c32 54 43 105 22
105 -8 0 -19 -8 -24 -17z"/>
<path d="M9450 5488 c-14 -5 -34 -18 -45 -28 -12 -11 -37 -25 -58 -32 -45 -16
-52 -33 -12 -34 20 0 41 10 65 30 19 17 46 39 59 48 30 21 25 29 -9 16z"/>
<path d="M3114 5481 c16 -26 214 -169 330 -239 16 -9 55 -34 88 -56 32 -21 61
-36 63 -34 7 6 -71 68 -85 68 -7 0 -25 10 -40 23 -27 21 -63 45 -122 78 -16 9
-53 39 -82 65 -67 62 -171 127 -152 95z"/>
<path d="M7344 5460 c-25 -10 -74 -90 -74 -121 0 -18 2 -19 15 -9 8 7 15 23
15 36 0 14 12 31 33 45 59 42 66 72 11 49z"/>
<path d="M1230 5450 c0 -25 81 -170 96 -170 18 0 15 12 -27 110 -25 59 -69 98
-69 60z"/>
<path d="M1337 5454 c-6 -6 50 -205 61 -216 28 -28 18 72 -13 133 -8 15 -15
39 -15 52 0 23 -21 42 -33 31z"/>
<path d="M2070 5423 c0 -6 7 -28 16 -49 9 -22 20 -75 23 -119 6 -86 20 -103
34 -42 6 26 18 42 38 52 18 10 26 20 23 30 -7 18 -18 19 -45 5 -21 -12 -39 18
-39 64 0 12 -11 33 -25 46 -14 13 -25 19 -25 13z"/>
<path d="M6308 5323 c-60 -67 -66 -72 -113 -78 -54 -9 -77 -37 -51 -63 14 -14
18 -14 38 4 13 12 37 26 55 33 27 11 133 118 133 135 0 18 -34 1 -62 -31z"/>
<path d="M695 5320 c-8 -13 -13 -320 -5 -320 13 0 30 136 30 234 0 87 -8 114
-25 86z"/>
<path d="M6675 5205 c-4 -48 -3 -113 2 -145 7 -43 6 -73 -4 -111 -17 -67 -1
-91 23 -34 23 57 25 107 8 245 -18 151 -20 154 -29 45z"/>
<path d="M5661 5261 c-15 -28 -14 -74 4 -97 16 -21 17 -18 20 41 1 22 4 46 6
54 6 22 -19 24 -30 2z"/>
<path d="M7910 5245 c-7 -8 -18 -15 -24 -15 -26 -1 -69 -50 -43 -50 29 0 117
46 114 60 -3 21 -31 24 -47 5z"/>
<path d="M8195 5230 c-3 -5 -11 -38 -16 -72 -11 -70 -17 -78 -61 -94 -43 -14
-50 -36 -8 -24 59 17 98 67 106 138 6 58 -3 81 -21 52z"/>
<path d="M1400 5199 c-13 -17 -19 -19 -42 -10 -23 9 -29 7 -38 -8 -14 -27 12
-48 43 -34 12 6 36 8 53 6 42 -6 53 13 23 42 -24 23 -24 23 -39 4z"/>
<path d="M6209 5164 c-33 -36 -72 -54 -114 -54 -43 0 -46 -18 -5 -26 36 -8 38
-19 8 -35 -30 -16 -562 -23 -601 -8 -27 11 -67 -8 -67 -32 0 -5 149 -9 331 -9
182 0 335 -2 339 -5 10 -6 25 8 76 75 18 25 34 51 34 59 0 8 7 23 17 33 9 10
14 20 11 23 -2 3 -15 -7 -29 -21z"/>
<path d="M9091 5161 c-17 -16 -31 -34 -31 -40 0 -6 -24 -28 -53 -49 -29 -22
-64 -56 -77 -75 -30 -44 -62 -59 -105 -51 -40 7 -75 -2 -75 -20 0 -30 142 -31
165 -1 11 14 64 72 118 128 54 56 103 110 108 120 16 28 -15 21 -50 -12z"/>
<path d="M147 5152 c-10 -10 -17 -24 -17 -30 0 -6 -9 -16 -19 -21 -23 -13 -71
-96 -71 -123 0 -30 18 -12 49 50 16 31 43 74 60 96 17 21 31 40 31 42 0 10
-19 2 -33 -14z"/>
<path d="M5124 5150 c-20 -20 -139 -47 -162 -37 -26 12 -52 3 -52 -18 0 -12
14 -15 73 -15 86 0 172 28 172 56 0 21 -17 28 -31 14z"/>
<path d="M9190 5119 c-19 -24 -75 -89 -125 -144 -98 -108 -140 -163 -132 -171
7 -8 47 15 47 26 0 5 21 33 46 62 26 28 62 73 81 100 19 26 41 48 47 48 15 0
78 98 73 113 -1 5 -18 -10 -37 -34z"/>
<path d="M6300 5074 c-32 -71 -35 -84 -22 -84 21 0 72 92 72 130 0 38 -20 19
-50 -46z"/>
<path d="M6519 5105 c-56 -30 -136 -183 -122 -234 2 -10 -2 -39 -11 -65 -21
-62 -21 -86 2 -86 48 0 95 178 58 219 -28 31 -1 83 58 107 37 15 75 79 44 74
-2 -1 -15 -7 -29 -15z"/>
<path d="M7732 5113 c-25 -5 -72 -71 -72 -102 0 -15 14 -5 55 38 52 55 64 73
48 70 -5 -1 -18 -4 -31 -6z"/>
<path d="M2536 5101 c-4 -5 -1 -22 4 -36 22 -57 3 -67 -40 -22 -52 55 -56 23
-5 -39 19 -23 35 -52 35 -63 0 -22 45 -51 80 -51 23 0 25 17 5 44 -8 11 -15
33 -15 48 0 51 -50 143 -64 119z"/>
<path d="M3210 5103 c0 -5 7 -17 15 -27 8 -11 15 -29 15 -40 0 -12 7 -29 15
-40 10 -13 11 -24 5 -36 -13 -24 -1 -63 17 -56 8 3 19 6 24 6 15 0 -1 82 -22
112 -10 15 -19 33 -19 41 0 8 -8 21 -18 30 -20 18 -32 22 -32 10z"/>
<path d="M3707 5103 c-14 -14 -5 -23 44 -48 30 -16 57 -39 67 -56 l17 -31 145
7 c80 3 271 6 425 5 261 0 323 5 301 27 -13 13 -414 19 -481 8 -110 -20 -362
-4 -380 23 -9 12 -24 22 -34 22 -10 0 -35 11 -55 25 -41 28 -40 28 -49 18z"/>
<path d="M5213 5068 l2 -43 -45 -1 c-72 -1 -190 -16 -195 -25 -11 -16 60 -20
170 -9 64 7 133 10 155 6 51 -8 70 1 70 32 0 14 12 38 27 54 l27 28 -25 0
c-29 0 -49 -17 -49 -40 0 -18 -55 -54 -70 -45 -6 3 -10 14 -10 23 0 24 -28 62
-45 62 -10 0 -13 -12 -12 -42z"/>
<path d="M2885 5047 c-4 -9 -5 -26 -2 -37 3 -10 -2 -28 -10 -39 -8 -12 -11
-26 -8 -31 15 -25 -6 -53 -26 -34 -26 24 -34 11 -21 -33 7 -23 20 -42 34 -48
29 -13 35 -43 13 -59 -18 -13 -17 -57 1 -63 30 -10 58 57 45 106 -7 28 -10 80
-6 128 5 85 -6 146 -20 110z"/>
<path d="M2140 5036 c0 -8 16 -31 35 -50 19 -20 35 -40 35 -46 0 -5 7 -10 15
-10 23 0 17 20 -19 70 -33 46 -66 64 -66 36z"/>
<path d="M4808 5021 c-66 -6 -94 -16 -67 -25 31 -10 179 -14 185 -5 8 14 -15
39 -35 37 -9 0 -46 -4 -83 -7z"/>
<path d="M9468 5020 c-3 -8 -15 -44 -27 -80 -40 -118 -53 -106 108 -104 116 1
144 4 159 17 14 13 37 17 89 17 58 0 77 4 106 24 19 13 44 27 56 31 23 7 27
20 10 30 -5 4 -18 0 -28 -9 -11 -10 -36 -16 -70 -16 -34 0 -67 -8 -94 -22 -35
-18 -64 -22 -168 -25 -150 -5 -155 -3 -138 76 10 48 8 97 -3 61z"/>
<path d="M3500 4991 c0 -13 65 -21 170 -20 91 0 94 1 58 14 -40 15 -228 20
-228 6z"/>
<path d="M6165 4943 c-8 -21 -26 -59 -40 -85 -21 -40 -23 -52 -13 -73 12 -26
36 -34 42 -12 15 59 42 126 59 144 20 22 20 23 2 43 -26 28 -34 25 -50 -17z"/>
<path d="M7347 4932 c-16 -3 -18 -10 -13 -45 5 -34 1 -51 -19 -86 -28 -48 -30
-68 -13 -106 15 -32 28 -32 28 1 0 24 12 69 42 159 24 73 20 87 -25 77z"/>
<path d="M2160 4904 c0 -3 16 -20 36 -38 33 -30 36 -38 38 -90 2 -82 20 -63
24 26 l3 75 -43 16 c-47 18 -58 20 -58 11z"/>
<path d="M6871 4816 c-14 -17 -27 -86 -16 -86 4 0 25 14 47 32 l41 32 -23 18
c-27 22 -34 22 -49 4z"/>
<path d="M4450 4773 c0 -29 10 -51 42 -93 35 -46 42 -64 46 -110 8 -118 42
-103 42 18 0 74 0 76 -39 112 -21 20 -42 48 -46 61 -18 58 -45 65 -45 12z"/>
<path d="M5376 4761 c-3 -5 10 -21 29 -36 39 -29 88 -31 93 -5 5 29 -107 67
-122 41z"/>
<path d="M3075 4708 c-10 -39 2 -65 36 -77 50 -17 86 -121 52 -147 -17 -12
-17 -13 1 -20 30 -11 51 9 54 53 3 41 4 40 -89 153 -12 14 -27 34 -34 45 -13
19 -14 19 -20 -7z"/>
<path d="M3325 4678 c15 -63 12 -93 -8 -90 -15 3 -17 -1 -12 -20 15 -48 45
-60 45 -18 0 11 7 35 16 54 24 50 12 106 -23 106 -24 0 -25 -2 -18 -32z"/>
<path d="M3707 4703 c-19 -34 29 -211 50 -189 12 12 7 151 -6 175 -12 21 -36
28 -44 14z"/>
<path d="M5859 4684 c-7 -8 -31 -14 -60 -14 -42 0 -49 -3 -49 -19 0 -11 -8
-26 -18 -33 -39 -27 -56 -88 -24 -88 10 0 25 16 37 42 14 29 29 44 50 51 17 5
37 16 46 23 38 34 152 -3 162 -52 3 -16 26 -53 51 -83 25 -30 50 -67 57 -83 7
-17 19 -28 30 -28 20 0 26 15 10 25 -5 3 -15 22 -22 43 -14 42 -91 142 -120
156 -10 5 -19 14 -19 21 0 40 -104 71 -131 39z"/>
<path d="M6119 4676 c-15 -33 -5 -56 24 -56 45 0 61 -22 54 -74 -5 -37 -4 -46
8 -46 8 0 15 6 15 14 0 25 19 29 56 11 38 -18 61 -15 71 11 8 22 -14 33 -52
27 -38 -6 -91 40 -111 97 -15 44 -49 53 -65 16z"/>
<path d="M2520 4652 c0 -34 25 -72 49 -72 19 0 61 -35 61 -50 0 -15 27 -12 33
4 7 17 -1 26 -22 26 -9 0 -21 10 -26 22 -6 12 -21 25 -35 28 -17 4 -28 16 -35
38 -11 39 -25 42 -25 4z"/>
<path d="M850 4656 c0 -7 6 -19 14 -25 7 -6 19 -31 26 -56 16 -56 47 -88 37
-37 -16 81 -77 174 -77 118z"/>
<path d="M5278 4653 c-3 -15 -13 -17 -75 -15 -56 3 -79 0 -102 -14 -57 -34
-39 -41 82 -37 124 5 159 21 137 64 -13 24 -37 25 -42 2z"/>
<path d="M7310 4636 c-27 -73 -1 -111 39 -59 l21 26 -22 26 c-13 14 -24 28
-25 30 -1 2 -7 -8 -13 -23z"/>
<path d="M960 4621 c0 -5 13 -19 28 -30 25 -17 45 -53 88 -156 7 -17 9 -15 12
13 4 41 -43 159 -69 173 -23 12 -59 12 -59 0z"/>
<path d="M5480 4589 l-45 -40 35 3 c66 6 79 -160 18 -237 -20 -26 -18 -30 28
-39 l32 -7 6 58 c9 80 4 275 -7 291 -13 17 -17 16 -67 -29z"/>
<path d="M4035 4600 c-12 -13 -31 -20 -54 -20 -20 0 -49 -7 -65 -15 -15 -8
-36 -15 -46 -15 -10 0 -28 -9 -41 -20 l-24 -19 28 -1 c15 0 40 6 55 14 15 7
51 17 80 21 59 8 115 45 96 65 -7 7 -16 5 -29 -10z"/>
<path d="M2817 4553 c-3 -5 1 -23 8 -40 l14 -33 31 18 c44 24 38 56 -12 60
-20 2 -38 -1 -41 -5z"/>
<path d="M4815 4551 c-7 -12 0 -15 50 -26 17 -3 58 -20 93 -37 63 -31 79 -32
69 -4 -10 26 -53 47 -114 56 -32 4 -65 11 -74 15 -10 3 -20 2 -24 -4z"/>
<path d="M3026 4542 c-10 -17 6 -133 18 -129 15 5 15 129 -1 134 -6 2 -14 0
-17 -5z"/>
<path d="M7104 4496 c-3 -9 -3 -23 0 -32 3 -9 -1 -25 -9 -37 -34 -48 7 -53 47
-5 20 24 34 32 59 33 23 0 35 5 37 16 4 23 -21 30 -57 16 -25 -9 -33 -8 -50 7
-19 17 -21 17 -27 2z"/>
<path d="M170 4490 c-8 -5 -29 -10 -47 -10 -41 0 -63 -9 -63 -26 0 -17 27 -17
59 0 13 7 32 11 41 9 26 -7 67 17 49 28 -18 11 -21 11 -39 -1z"/>
<path d="M3602 4480 c-12 -10 -28 -21 -35 -23 -21 -9 15 -28 42 -22 33 8 74
37 64 45 -19 18 -49 18 -71 0z"/>
<path d="M4170 4479 c0 -26 73 -60 113 -52 27 5 26 7 -33 39 -70 40 -80 41
-80 13z"/>
<path d="M4635 4480 c-10 -11 -26 -22 -36 -25 -22 -7 -25 -34 -5 -60 13 -18
14 -17 30 13 9 17 31 45 48 61 l33 31 -26 0 c-14 0 -34 -9 -44 -20z"/>
<path d="M1459 4458 c16 -25 27 -33 47 -31 57 4 130 -66 118 -114 -6 -23 23
-41 32 -19 6 16 -44 131 -74 166 -20 24 -21 24 -41 6 -20 -18 -21 -18 -54 3
-47 29 -52 26 -28 -11z"/>
<path d="M5650 4448 c-41 -90 -16 -401 30 -373 7 4 6 13 -1 27 -6 12 -9 40 -6
64 2 24 1 65 -4 91 -6 31 -5 67 2 103 20 94 21 117 10 125 -7 4 -19 -11 -31
-37z"/>
<path d="M3315 4469 c-14 -21 135 -165 161 -155 27 10 14 37 -28 56 -25 11
-57 38 -78 64 -36 48 -44 53 -55 35z"/>
<path d="M6668 4433 c-1 -21 -2 -62 -3 -91 -2 -29 -6 -71 -9 -94 -7 -44 6 -70
30 -61 12 4 14 16 9 53 -4 26 -1 66 5 90 9 32 8 53 -1 91 -15 58 -28 63 -31
12z"/>
<path d="M2658 4419 c-27 -15 -21 -31 23 -62 51 -35 59 -29 31 28 -23 48 -27
50 -54 34z"/>
<path d="M7386 4415 c-8 -8 -29 -37 -47 -65 -30 -47 -59 -65 -59 -38 0 9 -3 9
-11 1 -21 -21 -1 -54 29 -47 26 6 34 14 107 101 47 56 31 97 -19 48z"/>
<path d="M2768 4363 c2 -21 15 -60 29 -86 22 -42 24 -53 14 -75 -13 -28 -7
-38 30 -47 37 -9 47 20 14 41 -19 12 -25 25 -25 53 0 47 -18 112 -38 134 -23
26 -28 21 -24 -20z"/>
<path d="M3227 4358 c-6 -42 -1 -46 50 -41 50 6 49 22 -3 53 -44 25 -41 26
-47 -12z"/>
<path d="M2340 4366 c0 -31 69 -71 85 -50 20 27 61 3 102 -61 58 -90 88 -127
115 -141 67 -35 63 -6 -10 73 -31 34 -70 80 -87 102 -33 44 -47 52 -122 75
-64 20 -83 20 -83 2z"/>
<path d="M4815 4364 c-27 -10 -56 -13 -87 -9 -44 6 -48 5 -48 -14 0 -28 87
-21 173 14 50 21 16 29 -38 9z"/>
<path d="M2995 4359 c-18 -28 58 -128 98 -129 23 0 22 10 -8 66 -39 73 -71 95
-90 63z"/>
<path d="M4191 4349 c-19 -8 -21 -12 -11 -24 7 -8 17 -38 24 -67 14 -64 32
-61 28 5 -3 53 19 65 53 27 20 -22 45 -26 62 -9 8 8 17 8 31 0 39 -21 122 -10
122 16 0 11 7 14 24 11 21 -4 46 21 46 47 0 2 -30 2 -67 -1 -83 -6 -241 -6
-268 0 -11 2 -31 0 -44 -5z"/>
<path d="M4952 4347 c-33 -10 -71 -52 -59 -63 17 -18 124 47 111 67 -6 10 -9
10 -52 -4z"/>
<path d="M9977 4354 c-4 -4 -50 -8 -102 -10 -94 -3 -98 -4 -134 -37 -29 -26
-49 -35 -91 -40 -100 -12 -86 -43 16 -35 36 3 65 13 85 27 39 29 198 71 228
60 18 -7 21 -5 21 16 0 24 -10 32 -23 19z"/>
<path d="M5054 4338 c-11 -17 19 -40 44 -33 13 3 40 1 59 -6 42 -13 54 -5 27
20 -21 20 -120 35 -130 19z"/>
<path d="M3554 4325 c-7 -18 26 -106 41 -108 15 -3 18 61 5 94 -13 31 -37 38
-46 14z"/>
<path d="M3671 4316 c-24 -62 20 -145 65 -121 26 13 27 15 7 15 -25 0 -39 34
-29 73 9 36 -31 67 -43 33z"/>
<path d="M9380 4315 c-14 -8 -49 -14 -77 -15 -38 0 -58 -5 -68 -17 -43 -49
-105 -133 -105 -142 0 -21 20 -11 34 17 30 58 110 112 166 112 16 0 39 6 50
12 15 10 25 10 38 2 12 -8 24 -8 39 -1 17 7 34 6 63 -3 42 -14 62 -8 42 12
-34 34 -139 48 -182 23z"/>
<path d="M2240 4309 c0 -14 114 -121 118 -110 5 13 -49 101 -68 111 -25 13
-50 13 -50 -1z"/>
<path d="M4097 4258 c-12 -51 -19 -206 -9 -212 23 -14 33 25 33 120 -1 95 -12
140 -24 92z"/>
<path d="M5086 4252 c-4 -7 -89 -22 -216 -37 -19 -3 -36 -9 -38 -15 -2 -5 -9
-10 -17 -10 -21 0 -40 -29 -27 -42 7 -7 17 -3 35 14 23 23 33 25 128 27 92 1
106 3 118 21 7 11 20 20 27 20 8 0 14 4 14 9 0 14 -18 23 -24 13z"/>
<path d="M3525 4178 c4 -18 14 -48 21 -67 8 -18 14 -44 14 -57 0 -17 6 -24 19
-24 26 0 35 29 15 51 -9 10 -14 25 -11 33 6 16 -19 75 -38 88 -20 15 -26 7
-20 -24z"/>
<path d="M5520 4180 c-21 -50 7 -137 31 -99 16 26 7 129 -11 129 -4 0 -13 -13
-20 -30z"/>
<path d="M2141 4168 c-7 -19 -6 -37 4 -65 7 -21 16 -47 20 -57 12 -41 28 1 21
57 -9 73 -30 103 -45 65z"/>
<path d="M8682 4178 c-9 -9 -52 -13 -135 -13 -67 0 -128 -4 -135 -8 -6 -5 -28
-3 -47 4 -31 12 -39 11 -67 -5 -21 -13 -52 -19 -99 -20 -75 -1 -101 -15 -83
-44 16 -25 40 -26 63 -3 24 24 43 26 70 9 14 -9 23 -8 42 5 28 20 97 22 122 2
16 -12 25 -11 63 5 31 14 57 18 91 14 55 -7 143 25 143 51 0 18 -12 19 -28 3z"/>
<path d="M2367 4167 c-5 -14 8 -80 20 -100 8 -14 33 15 33 39 0 32 -44 83 -53
61z"/>
<path d="M3011 4166 c-16 -19 34 -53 53 -36 27 21 66 -20 66 -70 0 -26 13 -32
44 -20 53 20 25 86 -51 120 -53 23 -96 26 -112 6z"/>
<path d="M6202 4143 c-9 -3 -11 -18 -6 -54 5 -34 3 -54 -6 -64 -9 -11 -10 -19
-2 -27 17 -17 35 2 29 31 -4 18 1 38 14 57 33 50 20 77 -29 57z"/>
<path d="M7961 4121 c-8 -5 -45 -12 -83 -16 -66 -7 -95 -24 -40 -24 15 0 38
-1 52 -3 111 -10 205 10 178 37 -10 11 -94 15 -107 6z"/>
<path d="M3727 4113 c-30 -29 42 -55 119 -42 32 6 76 13 97 16 36 5 47 16 27
28 -5 3 -23 -1 -39 -10 -40 -20 -144 -20 -161 0 -13 16 -32 19 -43 8z"/>
<path d="M4280 4103 c0 -32 137 -53 199 -32 46 16 30 24 -52 25 -40 0 -89 4
-109 8 -24 6 -38 5 -38 -1z"/>
<path d="M4710 4091 c0 -26 4 -28 73 -36 49 -6 57 -5 57 9 0 12 -10 16 -45 16
-31 0 -47 5 -51 15 -9 22 -34 18 -34 -4z"/>
<path d="M7303 4088 c-51 -17 -39 -26 35 -25 37 0 76 -2 86 -4 10 -2 21 1 23
7 2 7 -10 14 -29 17 -18 3 -44 8 -58 11 -14 2 -40 0 -57 -6z"/>
<path d="M7612 4088 c-22 -22 -13 -25 57 -23 71 3 91 9 91 26 0 14 -134 11
-148 -3z"/>
<path d="M6522 4051 c-21 -21 8 -47 35 -32 11 5 54 12 94 13 55 2 74 7 74 17
0 20 -183 22 -203 2z"/>
<path d="M6414 4019 c24 -115 16 -151 -29 -131 -14 7 -74 14 -132 16 -120 5
-128 9 -128 73 0 26 -5 48 -12 50 -17 6 -26 -33 -13 -58 22 -39 3 -43 -232
-42 -1793 8 -2232 3 -2117 -21 13 -3 548 -7 1189 -10 668 -4 1180 -10 1200
-15 55 -15 330 -24 330 -11 0 6 -6 21 -12 33 -7 12 -15 49 -18 81 -3 38 -10
61 -19 64 -11 4 -12 -3 -7 -29z"/>
<path d="M0 4001 c0 -22 129 -37 142 -17 15 22 1 28 -70 32 -64 3 -72 1 -72
-15z"/>
<path d="M5413 4001 c-119 -11 -160 -11 -210 -1 -61 12 -123 7 -123 -11 0 -5
132 -9 320 -9 203 0 320 4 320 10 0 24 -119 29 -307 11z"/>
<path d="M2632 3985 c-18 -39 -15 -55 11 -55 50 0 61 -29 48 -131 -9 -69 -9
-94 0 -105 7 -8 9 -29 6 -49 -3 -19 -2 -35 2 -35 16 0 31 26 31 56 0 33 19 57
42 53 25 -3 38 1 38 12 0 8 -12 10 -34 6 -41 -6 -69 17 -64 54 15 124 -46 270
-80 194z"/>
<path d="M3620 4000 c0 -5 7 -13 16 -18 16 -9 13 -57 -7 -131 -5 -19 28 -26
47 -10 10 8 14 28 13 66 -3 55 7 72 41 73 11 1 10 4 -4 15 -22 16 -106 21
-106 5z"/>
<path d="M4115 4001 c-41 -18 15 -26 160 -22 67 2 84 5 67 11 -33 14 -203 22
-227 11z"/>
<path d="M286 3992 c-11 -18 11 -23 87 -22 77 2 145 -9 190 -30 19 -10 33 -10
50 -3 12 6 78 9 152 7 72 -2 148 -1 170 3 l40 6 -45 13 c-29 9 -97 13 -195 13
-82 0 -170 2 -195 4 -137 15 -248 19 -254 9z"/>
<path d="M1042 3973 c-43 -6 -37 -27 9 -30 139 -9 182 -7 187 6 4 11 -4 12
-39 7 -32 -5 -50 -2 -64 8 -20 15 -31 16 -93 9z"/>
<path d="M3326 3972 c-13 -22 43 -43 102 -38 31 3 61 5 65 5 29 2 -7 26 -39
26 -21 1 -58 4 -80 9 -25 4 -44 4 -48 -2z"/>
<path d="M205 3962 c-6 -4 -15 -18 -21 -32 l-11 -25 139 1 c135 2 168 9 154
33 -5 8 -13 8 -26 1 -33 -18 -98 -10 -205 23 -11 4 -25 3 -30 -1z"/>
<path d="M1300 3955 c0 -24 6 -25 330 -29 297 -3 330 -2 330 14 0 12 -233 22
-264 11 -19 -8 -65 -7 -163 3 -91 10 -143 11 -155 5 -12 -6 -25 -6 -37 1 -28
14 -41 13 -41 -5z"/>
<path d="M1996 3952 c-17 -27 107 -38 364 -33 72 2 207 -6 223 -13 9 -5 17 -4
17 1 0 26 -107 42 -280 41 -96 -1 -207 2 -246 6 -46 5 -74 4 -78 -2z"/>
<path d="M3115 3944 c-82 -7 -176 -11 -207 -8 -32 3 -58 2 -58 -3 0 -17 85
-29 170 -25 47 2 121 5 165 7 44 2 85 3 92 4 7 1 17 10 23 21 13 23 29 23
-185 4z"/>
<path d="M3549 3860 c-9 -5 -45 -14 -80 -20 -35 -5 -82 -14 -104 -19 -22 -6
-76 -17 -120 -26 -44 -9 -87 -18 -95 -22 -8 -3 -55 -7 -105 -9 -126 -6 -201
-17 -195 -29 7 -13 139 -15 210 -3 30 5 89 11 130 14 47 3 86 12 105 23 37 23
119 41 186 41 57 0 123 24 117 42 -6 17 -29 20 -49 8z"/>
<path d="M2586 3838 c-3 -13 -6 -35 -6 -49 0 -38 -22 -52 -88 -55 -31 -1 -70
-7 -85 -13 -16 -6 -64 -11 -108 -11 -66 0 -79 -3 -79 -16 0 -19 90 -17 267 6
l101 13 7 69 c7 70 3 98 -9 56z"/>
<path d="M7275 3787 c-86 -9 -95 -12 -95 -32 0 -12 6 -15 21 -10 11 4 74 8
141 10 114 3 156 13 128 30 -17 10 -111 12 -195 2z"/>
<path d="M7509 3783 c-22 -26 130 -40 521 -48 119 -3 240 -9 269 -15 30 -5
151 -10 270 -11 231 -1 444 -10 606 -28 55 -6 155 -12 221 -15 67 -2 131 -9
142 -15 12 -6 32 -9 45 -6 12 4 34 2 48 -3 16 -7 31 -6 43 0 11 6 33 6 64 -1
26 -5 95 -12 155 -14 l107 -5 0 24 c0 26 -11 27 -245 29 -33 1 -71 5 -85 10
-14 4 -50 9 -80 10 -30 1 -129 7 -220 13 -340 23 -521 31 -710 33 -107 0 -229
5 -270 10 -41 4 -151 11 -245 14 -93 3 -215 8 -270 11 -341 19 -357 19 -366 7z"/>
<path d="M6931 3757 c-43 -43 -12 -53 121 -36 103 14 108 34 6 27 -41 -4 -72
-1 -89 8 -20 10 -29 10 -38 1z"/>
<path d="M2000 3699 c-41 -4 -147 -13 -234 -18 -155 -10 -202 -21 -156 -36 23
-7 64 -5 310 19 74 7 157 12 185 12 40 -1 50 2 53 17 4 19 -25 21 -158 6z"/>
<path d="M1345 3660 c-11 -5 -39 -9 -62 -9 -24 -1 -43 -6 -43 -12 0 -11 161
-6 181 6 29 19 -37 32 -76 15z"/>
<path d="M1015 3648 c-44 -5 -122 -11 -174 -13 -158 -6 -223 -23 -146 -38 40
-7 411 20 434 32 11 6 31 11 46 11 15 0 24 4 20 10 -7 12 -66 11 -180 -2z"/>
<path d="M6454 3649 c-10 -16 11 -26 73 -33 43 -5 61 -13 82 -35 16 -17 43
-32 64 -36 66 -13 93 15 34 34 -37 12 -101 44 -120 59 -19 15 -125 24 -133 11z"/>
<path d="M3305 3621 c-8 -14 123 -141 146 -141 5 0 9 -11 9 -24 0 -36 20 -43
42 -16 23 28 20 52 -8 60 -11 3 -27 11 -35 17 -115 99 -144 119 -154 104z"/>
<path d="M412 3599 c-26 -10 -89 -17 -197 -24 -74 -5 -193 -23 -207 -31 -47
-29 98 -27 179 3 25 9 57 13 77 10 42 -7 166 9 180 23 16 16 -6 29 -32 19z"/>
<path d="M6523 3559 c-18 -12 -33 -27 -33 -34 0 -13 28 -41 33 -34 2 2 15 19
30 37 41 51 25 66 -30 31z"/>
<path d="M3275 3530 c-8 -13 13 -40 31 -40 7 0 25 -12 39 -27 26 -29 32 -22
16 20 -18 48 -69 75 -86 47z"/>
<path d="M5857 3533 c-4 -3 -7 -14 -7 -24 0 -19 11 -23 75 -34 74 -11 130 -35
168 -70 47 -44 148 -55 126 -14 -8 15 -16 19 -32 14 -71 -22 -91 -11 -67 35
18 33 -50 67 -151 75 -20 2 -46 8 -57 14 -23 12 -45 14 -55 4z"/>
<path d="M8680 3521 c0 -16 6 -21 25 -21 14 0 29 -8 35 -20 13 -25 53 -28 48
-4 -8 41 -108 83 -108 45z"/>
<path d="M5482 3512 c-20 -10 -31 -21 -27 -30 3 -7 5 -23 5 -34 0 -14 6 -19
23 -16 14 2 22 10 22 23 0 22 28 24 113 10 52 -9 66 29 15 41 -16 3 -41 10
-57 15 -39 12 -55 11 -94 -9z"/>
<path d="M5082 3489 c2 -16 12 -25 36 -31 19 -5 32 -14 29 -21 -7 -23 -40 -19
-82 12 -54 39 -61 39 -81 0 -20 -40 -15 -43 79 -57 83 -13 97 -10 97 15 0 15
2 14 46 -4 13 -5 39 61 30 76 -3 4 -27 11 -53 14 -27 4 -61 9 -76 13 -26 6
-28 4 -25 -17z"/>
<path d="M6220 3456 c-18 -23 -5 -49 23 -43 28 7 152 -26 175 -47 36 -32 67
-25 67 14 0 30 -4 35 -25 38 -29 3 -193 40 -213 48 -8 3 -20 -2 -27 -10z"/>
<path d="M8502 3454 c5 -28 35 -41 58 -26 30 18 43 15 61 -17 11 -18 28 -30
50 -35 49 -10 53 6 11 46 -44 42 -187 67 -180 32z"/>
<path d="M6874 3443 c-3 -10 -14 -39 -25 -65 -22 -55 -24 -81 -6 -97 15 -12
27 -5 27 17 0 7 16 46 35 85 42 85 42 77 5 77 -20 0 -33 -6 -36 -17z"/>
<path d="M5815 3440 c3 -5 17 -10 30 -10 30 0 42 -30 19 -47 -23 -17 -64 -16
-88 2 -22 16 -46 20 -46 7 0 -22 164 -80 174 -63 11 18 64 13 75 -6 33 -63 7
-88 -61 -57 -39 18 -41 18 -54 -1 -22 -30 -12 -40 47 -43 30 -2 68 -4 84 -5
28 -2 30 0 32 38 7 127 2 139 -55 123 -33 -9 -38 -8 -52 13 -28 43 -50 59 -81
59 -17 0 -28 -4 -24 -10z"/>
<path d="M6554 3435 c-4 -9 -1 -35 6 -58 7 -23 14 -48 16 -56 4 -11 8 -10 24
4 13 12 29 16 48 12 43 -9 61 7 38 32 -20 22 -51 28 -61 11 -17 -27 -44 -10
-42 26 2 39 -18 59 -29 29z"/>
<path d="M5289 3423 c-1 -4 -2 -17 -3 -28 -1 -15 -7 -20 -28 -18 -70 5 -16
-30 65 -42 56 -9 67 13 17 32 -23 8 -29 17 -28 34 2 12 -3 24 -9 26 -7 3 -13
1 -14 -4z"/>
<path d="M2574 3323 c4 -54 10 -102 14 -108 18 -29 30 152 12 186 -25 45 -33
20 -26 -78z"/>
<path d="M2710 3395 c0 -35 27 -85 46 -85 13 0 15 6 9 28 -17 68 -55 108 -55
57z"/>
<path d="M5400 3395 c-15 -19 -8 -30 32 -45 18 -7 47 -19 64 -28 31 -15 64
-12 64 7 0 6 -12 14 -27 17 -16 4 -44 17 -63 29 -19 12 -40 24 -46 28 -7 4
-17 0 -24 -8z"/>
<path d="M8490 3380 c-9 -17 -8 -25 4 -39 9 -10 16 -21 16 -26 0 -4 19 -32 41
-62 45 -57 74 -71 63 -28 -4 15 -2 25 5 25 20 0 12 27 -11 37 -12 5 -34 32
-48 59 -30 55 -53 66 -70 34z"/>
<path d="M2247 3383 c-12 -11 -8 -33 6 -33 6 -1 27 -21 45 -45 18 -25 37 -45
42 -45 13 0 13 37 0 45 -6 4 -19 24 -30 46 -19 36 -46 50 -63 32z"/>
<path d="M8842 3354 c-35 -24 -28 -44 17 -44 49 0 66 -38 32 -74 -12 -12 -21
-26 -21 -31 0 -4 -20 -30 -45 -56 -25 -26 -45 -53 -45 -59 0 -22 -22 -8 -74
45 -62 64 -80 71 -64 23 17 -48 125 -153 167 -161 19 -4 46 -21 65 -41 17 -19
40 -35 51 -38 13 -2 21 -13 23 -31 2 -15 7 -27 12 -27 4 0 31 -18 60 -39 29
-22 57 -38 64 -36 6 2 23 6 39 9 29 7 38 36 10 36 -37 0 -102 44 -183 122 -68
66 -91 83 -115 83 -51 0 -43 29 24 100 34 35 61 70 61 78 0 9 12 25 27 37 l28
22 -32 26 c-17 15 -34 37 -38 50 -7 26 -31 28 -63 6z"/>
<path d="M5664 3327 c11 -7 39 -29 62 -50 29 -26 45 -34 50 -26 4 7 0 17 -9
24 -9 6 -21 24 -26 38 -9 24 -16 27 -53 26 -38 0 -41 -2 -24 -12z"/>
<path d="M7010 3326 c-59 -19 -122 -56 -117 -69 7 -23 47 -19 78 7 34 29 40
31 55 17 12 -13 104 17 104 34 0 26 -58 32 -120 11z"/>
<path d="M2847 3323 c-3 -7 -2 -52 2 -83 0 -5 15 -10 32 -10 25 0 32 -6 44
-34 13 -30 19 -34 62 -39 75 -8 73 6 -7 80 -89 83 -123 105 -133 86z"/>
<path d="M3567 3315 c-21 -7 -39 -15 -41 -17 -41 -68 -37 -118 17 -223 11 -22
30 -67 41 -100 13 -35 27 -60 35 -60 21 0 24 50 6 84 -8 17 -15 40 -15 53 0
12 -10 31 -23 43 -13 11 -34 43 -46 72 l-24 51 47 48 c25 27 46 52 46 56 0 10
3 10 -43 -7z"/>
<path d="M5145 3310 c-12 -19 6 -28 70 -33 33 -3 75 -9 93 -12 30 -7 34 -5 30
11 -2 15 -15 20 -58 25 -30 4 -71 10 -91 14 -25 5 -39 3 -44 -5z"/>
<path d="M3709 3281 c-19 -20 -29 -40 -29 -60 0 -36 2 -37 36 -15 26 18 29 18
209 -10 55 -9 110 -21 122 -28 30 -15 34 -9 44 53 11 68 12 68 -87 68 -52 0
-82 -3 -79 -9 3 -6 29 -10 56 -10 49 0 74 -19 53 -40 -8 -7 -131 2 -201 16
-31 6 -30 34 1 34 45 0 37 17 -11 24 -73 10 -83 8 -114 -23z"/>
<path d="M7447 3296 c-3 -8 3 -22 14 -32 10 -9 19 -23 19 -30 0 -20 19 -27 35
-14 21 17 19 35 -9 64 -26 29 -51 34 -59 12z"/>
<path d="M4318 3282 c-104 -13 -141 -22 -157 -36 -35 -32 -11 -41 71 -26 40 7
120 16 177 19 83 5 106 9 115 23 23 37 -28 42 -206 20z"/>
<path d="M6482 3287 c-6 -6 -13 -26 -17 -42 -14 -62 -16 -65 -42 -65 -15 0
-34 -7 -44 -16 -27 -25 -100 -29 -117 -7 -16 22 -32 4 -32 -39 0 -33 3 -33 95
-12 39 9 89 18 112 21 40 5 41 6 48 51 4 26 13 57 21 69 26 41 5 76 -24 40z"/>
<path d="M4990 3251 c-19 -58 -13 -65 61 -67 35 -1 75 -4 89 -6 18 -2 25 2 28
16 5 26 -23 46 -64 46 -20 0 -44 10 -62 25 -38 32 -36 32 -52 -14z"/>
<path d="M770 3267 c0 -8 10 -26 21 -41 17 -22 20 -36 16 -70 -4 -30 -2 -49 8
-62 24 -32 20 87 -5 136 -22 42 -40 59 -40 37z"/>
<path d="M5434 3259 c20 -29 10 -50 -20 -43 -23 6 -24 5 -24 -55 0 -65 0 -65
55 -61 40 3 41 4 17 38 -31 43 -31 55 3 60 45 7 77 6 111 -2 28 -7 32 -5 36
18 6 32 -13 50 -46 42 -13 -3 -45 1 -72 9 -69 21 -79 20 -60 -6z"/>
<path d="M2670 3233 c0 -14 6 -23 14 -23 10 0 16 -13 18 -42 3 -43 13 -54 37
-39 21 14 3 86 -21 86 -10 0 -24 9 -32 20 -15 20 -15 20 -16 -2z"/>
<path d="M9000 3219 c-12 -21 1 -40 60 -94 47 -44 77 -74 92 -93 19 -23 38
-29 38 -11 0 5 -22 34 -49 62 -27 29 -63 76 -81 105 -35 57 -44 62 -60 31z"/>
<path d="M4511 3196 c-12 -31 -30 -37 -136 -43 -159 -9 -155 -33 6 -33 136 0
179 19 179 79 0 30 -38 28 -49 -3z"/>
<path d="M5268 3183 c-2 -23 -8 -29 -35 -31 -45 -4 -46 -37 -2 -46 56 -11 69
-8 69 17 0 13 5 28 12 35 9 9 7 16 -7 32 -24 27 -33 25 -37 -7z"/>
<path d="M5805 3191 c-3 -6 4 -15 17 -22 l22 -12 -27 -23 c-40 -34 -34 -43 27
-37 29 3 69 0 88 -6 35 -12 68 -7 68 10 0 5 -13 9 -29 9 -47 0 -120 36 -131
65 -10 26 -24 32 -35 16z"/>
<path d="M7416 3182 c-5 -8 72 -78 139 -127 22 -16 54 -42 71 -57 26 -24 33
-27 42 -15 10 11 1 21 -45 50 -32 19 -81 58 -110 85 -56 55 -89 77 -97 64z"/>
<path d="M2865 3115 c8 -78 19 -105 40 -105 28 0 11 102 -25 147 l-22 28 7
-70z"/>
<path d="M4603 3150 c-32 -19 -48 -70 -23 -70 16 0 74 31 82 44 29 43 -7 58
-59 26z"/>
<path d="M5532 3138 c-7 -7 -12 -17 -12 -24 0 -6 -10 -18 -22 -26 -34 -23 -17
-50 28 -46 37 3 37 3 38 52 1 50 -10 66 -32 44z"/>
<path d="M3696 3122 c-25 -29 -20 -44 12 -35 45 13 287 -2 308 -18 7 -6 16 -4
23 5 16 19 -4 25 -119 37 -126 13 -161 17 -186 24 -13 3 -28 -2 -38 -13z"/>
<path d="M8918 3119 c-26 -15 -22 -29 11 -40 16 -6 50 -37 76 -70 46 -57 67
-70 80 -50 5 9 -60 76 -91 94 -9 5 -12 17 -8 34 10 38 -28 56 -68 32z"/>
<path d="M2605 3068 c-10 -90 -10 -153 0 -158 14 -7 22 41 24 133 1 87 -14
104 -24 25z"/>
<path d="M2706 3094 c-18 -46 3 -75 47 -67 23 5 28 10 25 31 -4 33 -62 62 -72
36z"/>
<path d="M7221 3089 c-11 -12 -22 -33 -26 -47 -3 -15 -17 -57 -31 -94 -20 -53
-23 -71 -14 -88 17 -31 27 -17 40 57 12 74 28 109 59 137 24 22 28 56 6 56 -8
0 -23 -9 -34 -21z"/>
<path d="M2984 3085 c-3 -8 -1 -29 5 -46 6 -18 11 -48 11 -68 0 -42 14 -61 45
-61 50 0 58 40 16 79 -17 16 -33 41 -36 57 -11 47 -14 54 -25 54 -6 0 -13 -7
-16 -15z"/>
<path d="M4143 3070 c-26 -10 -30 -35 -9 -43 22 -9 58 4 89 30 l29 23 -44 -1
c-24 0 -53 -4 -65 -9z"/>
<path d="M5702 3060 c-8 -13 -23 -20 -44 -20 -50 0 -18 -23 34 -24 41 -1 43 0
43 28 0 36 -16 43 -33 16z"/>
<path d="M6628 3061 c-30 -7 -73 -55 -63 -71 11 -18 45 -10 56 13 6 13 24 28
41 35 16 6 27 16 23 21 -7 12 -15 12 -57 2z"/>
<path d="M9662 3061 c-7 -4 -60 -7 -118 -5 -93 2 -133 -7 -86 -19 35 -10 361
-7 367 3 11 18 -138 37 -163 21z"/>
<path d="M3493 3023 c-4 -9 5 -53 20 -97 15 -45 26 -101 26 -126 -1 -49 14
-100 31 -100 15 0 12 84 -5 116 -8 16 -15 38 -15 50 0 12 -4 34 -9 50 -5 16
-12 50 -16 77 -6 48 -20 61 -32 30z"/>
<path d="M6216 3003 c9 -49 8 -49 100 -43 74 5 79 7 82 29 5 35 -10 45 -50 31
-29 -11 -39 -10 -66 4 -55 28 -74 22 -66 -21z"/>
<path d="M3260 3006 c0 -14 7 -31 16 -38 51 -40 84 -78 84 -96 0 -26 18 -38
26 -18 11 30 34 17 40 -23 8 -50 18 -65 38 -58 17 7 15 10 -39 106 -19 33 -39
53 -77 77 -21 14 -38 33 -40 46 -5 35 -48 38 -48 4z"/>
<path d="M5852 3022 c-25 -4 -48 -37 -32 -47 5 -3 20 -3 34 1 19 4 26 1 31
-14 6 -21 56 -39 75 -27 21 13 11 45 -15 45 -13 0 -34 10 -47 23 -14 14 -32
22 -46 19z"/>
<path d="M6070 3001 c-59 -20 -57 -24 24 -41 54 -12 64 -7 68 30 4 32 -18 34
-92 11z"/>
<path d="M9250 3005 c0 -8 11 -17 24 -21 14 -3 27 -12 30 -20 6 -15 49 -18 81
-5 17 7 14 10 -21 20 -23 6 -45 18 -48 26 -7 20 -66 20 -66 0z"/>
<path d="M6979 2983 c-9 -24 -6 -30 38 -69 l47 -42 -37 -41 c-56 -62 -51 -77
10 -35 68 46 79 88 31 119 -19 12 -35 32 -40 51 -11 43 -36 51 -49 17z"/>
<path d="M6714 2975 c-9 -14 -22 -25 -28 -25 -32 0 -70 -70 -47 -85 14 -8 111
85 111 106 0 29 -18 31 -36 4z"/>
<path d="M3826 2981 c-8 -12 63 -30 117 -29 68 1 58 13 -22 27 -84 13 -88 13
-95 2z"/>
<path d="M6511 2948 c-5 -18 -15 -47 -22 -65 -19 -47 -5 -51 35 -9 30 32 34
42 29 72 -7 43 -29 44 -42 2z"/>
<path d="M4835 2960 c-16 -4 -51 -8 -77 -9 -57 -1 -78 -9 -78 -27 0 -18 4 -18
47 3 30 14 42 15 83 4 42 -11 53 -10 81 4 51 27 14 43 -56 25z"/>
<path d="M4977 2953 c-9 -8 156 -73 186 -73 40 0 97 -26 132 -60 21 -20 40
-30 49 -27 58 22 -70 108 -188 127 -38 6 -76 15 -85 19 -24 13 -87 22 -94 14z"/>
<path d="M3984 2918 c-13 -21 316 -36 629 -28 23 0 22 27 -1 35 -27 8 -623 2
-628 -7z"/>
<path d="M5480 2909 c0 -25 15 -27 134 -15 151 15 147 31 -9 31 -110 0 -125
-2 -125 -16z"/>
<path d="M3180 2911 c0 -6 -13 -11 -28 -11 -43 0 -45 -9 -11 -47 20 -23 28
-41 24 -54 -6 -18 40 -89 58 -89 16 0 6 38 -15 52 -33 22 -40 128 -8 128 13 0
20 5 18 13 -6 15 -38 22 -38 8z"/>
<path d="M9402 2897 c-48 -11 -81 -25 -79 -31 6 -18 70 -23 110 -8 24 9 50 12
75 7 48 -9 439 -18 469 -10 52 13 26 36 -39 34 -169 -5 -370 5 -375 18 -7 18
-62 15 -161 -10z"/>
<path d="M6154 2899 c-3 -5 -2 -9 3 -9 4 0 61 -2 126 -4 75 -3 117 0 115 6 -4
12 -236 19 -244 7z"/>
<path d="M5792 2884 c-7 -13 -25 -17 -73 -18 -64 -2 -109 -17 -109 -38 0 -6 8
-8 23 -3 67 23 137 18 137 -10 0 -48 17 -67 53 -59 18 4 45 6 60 5 20 -1 27 3
24 11 -2 7 -10 12 -18 10 -52 -13 -109 56 -63 77 14 6 24 17 22 24 -7 19 -45
20 -56 1z"/>
<path d="M2967 2844 c-7 -41 2 -134 13 -134 21 0 21 152 0 165 -4 3 -10 -11
-13 -31z"/>
<path d="M2445 2837 c-8 -19 -19 -55 -26 -80 -6 -26 -17 -52 -25 -58 -17 -14
-18 -39 -1 -39 22 0 86 147 87 198 0 24 -21 11 -35 -21z"/>
<path d="M1275 2844 c4 -11 10 -30 13 -44 4 -22 23 -49 74 -110 7 -8 26 -41
43 -73 37 -73 72 -114 87 -99 8 8 2 25 -20 59 -16 26 -38 72 -49 101 -14 42
-28 61 -65 87 -33 24 -47 42 -50 62 -2 18 -10 29 -22 31 -15 3 -17 0 -11 -14z"/>
<path d="M2644 2833 c-20 -28 -20 -28 -2 -58 14 -22 18 -41 14 -72 -6 -48 8
-57 37 -25 21 23 13 133 -12 163 -16 20 -17 20 -37 -8z"/>
<path d="M3240 2843 c0 -10 7 -27 15 -37 8 -11 15 -30 15 -43 0 -12 10 -29 23
-37 12 -9 36 -36 52 -60 30 -46 55 -59 55 -31 0 21 -29 65 -57 88 -12 10 -37
45 -54 77 -32 60 -49 75 -49 43z"/>
<path d="M2226 2739 c2 -112 13 -143 43 -125 13 8 1 164 -15 204 -23 56 -30
36 -28 -79z"/>
<path d="M3968 2839 c-30 -19 53 -29 232 -29 168 0 236 9 188 24 -25 8 -408
12 -420 5z"/>
<path d="M5485 2831 c-8 -27 4 -51 29 -52 11 0 58 -3 104 -5 51 -3 82 0 82 6
0 5 -13 10 -29 10 -17 0 -33 5 -36 10 -3 6 -15 10 -26 10 -11 0 -37 9 -59 20
-48 25 -57 25 -65 1z"/>
<path d="M6429 2810 c-9 -26 -16 -30 -46 -30 -20 0 -32 -4 -28 -10 3 -5 19
-10 34 -10 15 0 32 -5 39 -12 17 -17 29 -1 35 50 6 51 -18 60 -34 12z"/>
<path d="M7879 2814 c-13 -14 -41 -35 -61 -45 -42 -21 -46 -30 -23 -49 20 -17
19 -43 -4 -88 -10 -20 -23 -58 -30 -85 -6 -26 -23 -73 -36 -103 -29 -66 -22
-84 30 -84 26 0 38 -8 60 -36 36 -46 39 -40 54 91 7 61 19 137 27 169 9 39 11
63 5 69 -24 24 -38 -15 -50 -140 -16 -153 -37 -190 -75 -130 -15 22 20 202 51
262 6 11 13 37 16 58 7 46 22 67 49 67 17 0 19 -5 13 -40 -8 -49 11 -55 23 -7
5 22 17 36 40 46 41 18 40 24 -4 50 -45 27 -55 26 -85 -5z"/>
<path d="M3641 2806 c-11 -13 -10 -17 5 -23 33 -12 182 -7 204 7 25 17 -9 30
-55 23 -49 -8 -60 -8 -106 1 -26 6 -39 4 -48 -8z"/>
<path d="M3903 2808 c-18 -22 -25 -90 -23 -208 2 -129 3 -134 36 -126 16 4 26
1 33 -11 14 -25 266 -37 294 -14 33 27 16 31 -123 29 -155 -3 -159 -1 -163 58
l-2 39 187 -4 c205 -3 215 -1 190 54 -10 21 -7 29 13 54 37 43 32 53 -22 49
-54 -3 -74 -38 -37 -65 40 -29 1 -40 -161 -45 -133 -3 -157 -6 -175 -23 -23
-21 -35 -14 -45 26 -10 42 17 61 84 59 85 -3 91 -2 91 20 0 28 -24 35 -68 22
-72 -22 -101 3 -76 63 15 37 -9 54 -33 23z"/>
<path d="M6775 2800 c-26 -42 64 -96 110 -66 40 26 33 48 -14 40 -33 -5 -39
-3 -44 15 -5 22 -41 29 -52 11z"/>
<path d="M1688 2768 c-14 -20 -17 -21 -77 -9 -72 14 -98 4 -60 -23 52 -36 169
-16 169 29 0 31 -13 32 -32 3z"/>
<path d="M9186 2782 c-17 -28 129 -127 167 -113 29 11 -67 81 -111 81 -12 0
-27 9 -35 21 -8 11 -17 16 -21 11z"/>
<path d="M6243 2769 c-52 -15 -42 -39 15 -39 45 0 82 20 82 43 0 10 -59 7 -97
-4z"/>
<path d="M6521 2719 c-56 -45 -61 -64 -15 -64 24 0 30 5 32 28 3 23 8 27 35
27 46 0 65 14 48 34 -21 25 -44 19 -100 -25z"/>
<path d="M5863 2703 c-33 -23 -29 -43 9 -43 17 0 39 -7 48 -15 20 -18 187 -35
177 -18 -4 6 -28 14 -54 18 -56 8 -118 38 -126 60 -8 19 -26 18 -54 -2z"/>
<path d="M6367 2669 c6 -31 5 -32 -22 -26 -36 6 -55 -1 -55 -20 0 -12 8 -14
38 -9 64 10 112 -9 112 -44 0 -33 -13 -37 -54 -19 -14 7 -33 8 -43 5 -32 -13
21 -46 72 -46 52 0 75 -8 75 -25 0 -33 49 -72 97 -78 56 -6 69 -1 51 20 -10
12 -9 17 5 24 35 20 51 69 23 69 -15 0 -27 -7 -31 -19 -16 -50 -125 -36 -125
16 0 16 -7 27 -19 30 -18 5 -41 42 -41 66 0 7 -14 18 -30 24 -23 9 -29 17 -28
34 2 15 -3 24 -14 27 -15 3 -17 -2 -11 -29z"/>
<path d="M9410 2690 c-26 -16 -2 -43 33 -37 17 3 67 9 110 13 63 5 114 21 80
25 -56 6 -213 5 -223 -1z"/>
<path d="M3253 2626 c2 -66 22 -105 43 -84 12 12 -8 108 -27 131 -19 22 -19
22 -16 -47z"/>
<path d="M3564 2652 c-11 -29 -45 -42 -116 -42 -31 0 -40 -33 -12 -44 28 -11
58 -2 147 42 4 2 7 -5 7 -16 0 -16 -241 -262 -256 -262 -3 0 -20 -15 -39 -34
-19 -19 -47 -41 -62 -48 -15 -7 -37 -30 -48 -51 -15 -28 -29 -40 -57 -48 -33
-9 -178 -158 -178 -183 0 -16 24 -2 69 42 27 26 86 79 131 117 45 39 117 102
159 141 42 39 121 109 176 156 132 112 134 115 140 178 7 77 -37 115 -61 52z"/>
<path d="M2966 2651 c-25 -28 -19 -49 22 -75 20 -13 46 -33 56 -45 36 -40 47
-17 23 49 -25 70 -72 103 -101 71z"/>
<path d="M6160 2659 c0 -5 16 -19 35 -30 19 -12 35 -27 35 -34 0 -7 7 -19 16
-26 9 -7 20 -23 25 -36 10 -26 24 -30 33 -8 3 9 -3 19 -14 25 -11 6 -20 21
-20 33 0 12 -11 32 -25 45 -26 25 -85 47 -85 31z"/>
<path d="M6578 2638 c-20 -20 9 -86 43 -96 8 -3 4 6 -9 21 -44 47 24 95 101
71 9 -3 17 -1 17 5 0 6 -6 11 -12 12 -106 7 -122 5 -140 -13z"/>
<path d="M5721 2595 c-41 -13 -114 -34 -163 -46 -69 -17 -88 -26 -86 -38 5
-24 102 -15 209 20 50 16 98 29 108 29 26 0 66 34 57 48 -11 17 -42 14 -125
-13z"/>
<path d="M80 2603 c0 -7 16 -31 35 -55 19 -24 43 -61 54 -83 22 -47 65 -90 80
-80 18 11 13 20 -53 102 -71 87 -116 132 -116 116z"/>
<path d="M7194 2592 c-14 -9 -77 -99 -98 -140 -19 -37 -18 -106 2 -90 6 6 12
19 12 28 0 32 38 104 64 123 28 20 32 17 14 -12 -20 -32 -4 -52 31 -40 43 15
55 33 36 53 -9 9 -21 32 -26 51 -10 36 -16 40 -35 27z"/>
<path d="M8985 2580 c-8 -13 12 -40 30 -40 6 0 20 -9 30 -20 25 -28 45 -25 45
5 0 20 -5 25 -23 25 -13 0 -32 9 -42 20 -20 22 -31 25 -40 10z"/>
<path d="M6774 2565 c4 -10 -5 -20 -27 -29 -39 -17 -32 -20 86 -37 74 -10 113
-9 96 4 -53 42 -165 87 -155 62z"/>
<path d="M6160 2525 c0 -37 4 -47 25 -61 14 -9 28 -28 32 -42 3 -13 27 -52 52
-86 25 -34 57 -82 70 -106 24 -44 69 -117 120 -194 14 -21 31 -40 38 -43 7 -3
15 -15 19 -26 4 -12 22 -39 40 -60 19 -20 34 -43 35 -50 0 -6 18 -37 39 -67
45 -64 170 -284 170 -299 0 -16 39 -53 50 -46 12 7 4 27 -40 100 -19 33 -40
71 -46 85 -6 14 -27 45 -46 70 -19 26 -48 68 -63 95 -16 28 -40 64 -54 81 -25
30 -49 67 -80 123 -8 15 -38 63 -68 109 -30 46 -58 93 -63 105 -5 12 -45 74
-89 137 -45 63 -92 139 -106 168 -30 64 -35 65 -35 7z"/>
<path d="M9720 2542 c0 -30 93 -41 178 -21 100 24 61 40 -90 36 -64 -1 -88 -6
-88 -15z"/>
<path d="M2180 2541 c0 -5 11 -23 25 -39 13 -16 29 -41 35 -56 6 -18 16 -26
27 -24 34 6 26 38 -21 83 -43 43 -66 55 -66 36z"/>
<path d="M3382 2537 c-6 -7 -9 -22 -6 -34 7 -24 -35 -43 -96 -43 -35 0 -39 -3
-47 -36 -4 -21 -17 -42 -28 -48 -29 -16 -35 -28 -23 -43 18 -22 36 -14 68 31
22 30 46 49 76 61 24 9 44 21 44 26 0 6 16 25 36 43 37 34 39 56 5 56 -10 0
-23 -6 -29 -13z"/>
<path d="M2586 2521 c-11 -17 44 -76 71 -76 21 0 31 -9 47 -37 23 -44 15 -61
-14 -30 -28 30 -33 28 -25 -10 14 -64 20 -69 63 -52 52 22 55 27 31 57 -11 15
-25 44 -31 64 -19 68 -116 126 -142 84z"/>
<path d="M1615 2494 c26 -8 73 -52 91 -86 8 -16 23 -28 34 -28 63 0 -32 109
-100 115 -25 3 -36 2 -25 -1z"/>
<path d="M3060 2485 c-8 -10 -21 -13 -38 -8 -24 6 -23 4 17 -53 52 -73 67 -75
63 -11 -3 60 -23 95 -42 72z"/>
<path d="M9280 2482 c0 -46 110 -104 147 -77 17 12 16 14 -7 24 -26 10 -119
52 -132 59 -5 2 -8 -1 -8 -6z"/>
<path d="M2864 2456 c-4 -10 -2 -27 4 -37 16 -25 15 -39 -2 -39 -35 0 -28 -46
10 -60 17 -7 24 -20 30 -55 6 -46 7 -47 37 -41 56 11 71 47 26 61 -22 7 -49
65 -49 106 0 39 -45 92 -56 65z"/>
<path d="M8524 2460 c-12 -5 -31 -23 -42 -42 -11 -18 -32 -44 -46 -57 -14 -14
-26 -31 -26 -38 0 -7 -21 -34 -47 -58 -50 -47 -48 -74 3 -55 33 13 141 -7 174
-32 l28 -21 69 56 c37 31 81 67 96 79 35 29 32 118 -4 118 -15 0 -17 -5 -12
-31 6 -32 -72 -129 -105 -129 -8 0 -26 -7 -42 -16 -26 -16 -31 -15 -89 7 -74
29 -74 31 -11 98 28 29 50 57 50 62 0 5 18 18 40 29 62 32 31 57 -36 30z"/>
<path d="M5490 2432 c0 -10 5 -23 11 -29 6 -6 17 -22 23 -35 14 -27 16 -27
221 -32 83 -2 162 -7 178 -11 49 -13 32 29 -30 73 -39 26 -55 28 -51 5 5 -29
-148 -40 -177 -13 -12 11 -27 20 -34 20 -6 0 -29 9 -51 20 -50 26 -90 26 -90
2z"/>
<path d="M5935 2419 c-13 -21 19 -29 118 -29 88 0 98 2 95 18 -4 21 -201 32
-213 11z"/>
<path d="M3806 2391 c-8 -15 -26 -36 -40 -45 -49 -32 -29 -35 218 -33 l244 2
5 40 c7 46 -7 69 -32 56 -21 -12 -235 -16 -278 -6 -30 7 -32 6 -35 -26 -2 -28
-8 -35 -29 -37 -37 -4 -57 22 -35 46 18 21 21 32 6 32 -5 0 -16 -13 -24 -29z"/>
<path d="M6394 2377 c-3 -4 3 -10 13 -13 10 -3 27 -10 38 -14 73 -31 120 -16
77 23 -19 18 -118 21 -128 4z"/>
<path d="M7234 2316 c-17 -68 25 -105 46 -41 14 43 8 65 -19 65 -13 0 -23 -9
-27 -24z"/>
<path d="M7558 2305 c-51 -55 -95 -142 -82 -163 19 -29 33 -20 68 43 19 36 47
70 69 84 41 27 46 45 18 61 -30 15 -37 13 -73 -25z"/>
<path d="M4430 2322 c-39 -4 -60 -17 -60 -39 0 -12 9 -13 43 -8 23 4 146 9
272 11 267 5 233 4 315 4 36 0 76 0 90 1 14 0 54 0 90 0 36 0 70 0 75 0 6 0
22 -3 38 -7 30 -7 39 14 14 34 -12 10 -776 13 -877 4z"/>
<path d="M6958 2298 c-40 -27 -47 -36 -53 -75 -9 -62 -7 -62 95 -12 100 49
113 65 45 55 -43 -7 -63 5 -30 18 18 7 20 32 2 39 -7 3 -34 -9 -59 -25z"/>
<path d="M2566 2288 c-3 -12 -8 -44 -11 -70 -4 -31 -11 -48 -20 -48 -19 0 -31
-68 -16 -83 17 -16 41 17 41 55 0 15 4 28 10 28 17 0 48 73 40 95 -14 38 -38
50 -44 23z"/>
<path d="M6558 2282 c-45 -9 23 -62 80 -62 21 0 47 -7 58 -15 24 -18 74 -20
74 -2 0 8 -12 19 -26 26 -20 9 -25 17 -21 33 5 19 3 20 -43 15 -27 -3 -62 -3
-77 2 -15 4 -36 5 -45 3z"/>
<path d="M2131 2225 c-1 -63 17 -105 45 -105 19 0 17 17 -8 70 -12 25 -25 56
-29 70 -4 17 -7 5 -8 -35z"/>
<path d="M3057 2273 c-25 -7 -18 -47 9 -51 26 -4 70 30 60 46 -7 12 -35 14
-69 5z"/>
<path d="M6440 2264 c0 -3 20 -33 45 -66 25 -33 45 -65 45 -71 0 -28 73 -86
93 -75 12 6 44 8 79 4 48 -5 58 -3 58 9 0 22 -42 35 -108 35 -54 0 -152 70
-152 109 0 13 -40 61 -51 61 -5 0 -9 -3 -9 -6z"/>
<path d="M3366 2218 c-2 -7 -12 -36 -22 -64 -22 -65 -11 -108 14 -56 9 17 21
32 28 32 14 0 64 -56 64 -72 0 -6 8 0 19 13 l18 23 27 -28 c25 -28 56 -25 56
5 0 12 -55 39 -79 39 -13 0 -33 20 -58 57 -39 59 -60 74 -67 51z"/>
<path d="M1726 2165 c-8 -21 -8 -133 0 -162 13 -47 19 -20 18 72 -2 96 -6 120
-18 90z"/>
<path d="M3590 2100 c-10 -19 -8 -20 37 -20 26 0 69 -7 95 -14 49 -15 58 -13
58 16 0 15 -8 18 -54 18 -30 0 -58 5 -61 10 -11 18 -64 11 -75 -10z"/>
<path d="M7815 2060 c-37 -27 -74 -50 -81 -50 -24 0 -26 -22 -3 -46 28 -30 34
-30 70 0 16 14 52 37 79 52 51 28 58 41 40 75 -16 28 -30 24 -105 -31z"/>
<path d="M2040 2084 c0 -3 11 -22 25 -42 14 -20 25 -42 25 -49 0 -8 12 -13 29
-13 17 0 33 -4 36 -10 9 -15 25 -12 25 5 0 24 -93 115 -118 115 -12 0 -22 -2
-22 -6z"/>
<path d="M7113 2021 c-13 -34 -19 -39 -34 -31 -25 14 -49 12 -49 -3 0 -25 21
-36 45 -25 16 7 29 7 45 -2 27 -15 27 -15 32 44 4 64 -17 74 -39 17z"/>
<path d="M1860 2002 c0 -40 3 -44 34 -57 19 -8 44 -28 56 -45 22 -31 50 -40
50 -17 0 25 -58 94 -84 101 -14 3 -26 10 -26 14 0 5 -7 17 -15 28 -13 18 -14
16 -15 -24z"/>
<path d="M3292 2018 c-18 -18 -14 -36 9 -43 12 -4 37 -23 56 -41 25 -25 43
-34 67 -34 46 0 75 -34 83 -98 6 -58 18 -66 34 -24 7 19 7 37 0 61 -13 42 -8
51 30 51 16 0 29 5 29 10 0 6 -16 10 -35 10 -41 0 -60 27 -51 72 5 23 2 30
-17 37 -30 12 -32 8 -17 -44 16 -59 2 -80 -32 -48 -13 11 -38 28 -55 37 -18 9
-40 28 -49 41 -18 27 -34 31 -52 13z"/>
<path d="M691 2016 c165 -141 176 -148 238 -135 20 5 54 12 76 16 80 16 51 38
-50 38 -82 0 -94 3 -130 27 -22 15 -55 30 -73 34 -18 4 -35 11 -38 15 -3 5
-10 9 -16 9 -6 0 -9 -2 -7 -4z"/>
<path d="M4031 1957 c-22 -22 -12 -37 26 -37 20 0 45 -7 55 -17 23 -21 38 -7
31 29 -4 23 -9 27 -27 22 -12 -3 -33 -1 -48 5 -18 7 -29 6 -37 -2z"/>
<path d="M8320 1963 c0 -11 59 -73 70 -73 4 0 27 -16 50 -35 40 -33 70 -45 70
-27 0 16 -26 41 -87 82 -35 23 -65 46 -69 51 -6 11 -34 12 -34 2z"/>
<path d="M3610 1945 c0 -22 36 -36 83 -33 53 4 47 19 -12 35 -61 16 -71 16
-71 -2z"/>
<path d="M8817 1930 c-6 -16 -15 -30 -19 -30 -15 0 -39 -58 -27 -66 12 -7 48
32 49 54 0 7 14 21 31 31 31 19 30 22 -4 34 -14 6 -21 0 -30 -23z"/>
<path d="M2910 1942 c-8 -2 -20 -11 -27 -19 -7 -9 -22 -16 -35 -17 -17 -1 -30
-15 -52 -54 -37 -70 -12 -60 78 30 58 58 65 70 36 60z"/>
<path d="M1729 1918 c-6 -59 -5 -166 2 -162 5 3 9 19 9 35 0 17 7 44 16 60 8
17 14 40 12 52 -3 24 -37 37 -39 15z"/>
<path d="M2590 1919 c-27 -11 -59 -47 -60 -66 0 -22 35 -14 60 12 13 14 29 25
35 25 7 0 20 9 30 20 21 23 -16 28 -65 9z"/>
<path d="M7613 1914 c26 -86 98 -226 105 -206 9 28 -72 212 -97 220 -10 3 -12
-1 -8 -14z"/>
<path d="M2149 1899 c-8 -16 -8 -27 1 -45 7 -12 10 -36 7 -51 -7 -34 25 -85
42 -68 11 11 -3 80 -21 102 -5 6 -6 28 -2 47 7 41 -8 49 -27 15z"/>
<path d="M3229 1891 l-24 -19 28 -13 c28 -13 34 -24 17 -34 -5 -3 -7 -25 -3
-50 5 -36 3 -45 -9 -45 -9 0 -23 -12 -33 -26 -22 -35 -6 -51 58 -60 56 -8 68
17 17 35 -38 13 -43 51 -7 51 34 0 39 10 21 38 -9 13 -16 46 -17 73 -3 62 -16
76 -48 50z"/>
<path d="M6346 1776 c-75 -78 -92 -106 -83 -130 10 -25 34 -19 41 9 4 14 18
31 31 37 14 6 25 18 25 26 0 9 16 30 35 48 23 21 35 41 35 58 0 37 -7 33 -84
-48z"/>
<path d="M181 1797 c-8 -20 -8 -40 -2 -65 25 -93 40 -180 38 -217 l-2 -40 70
3 c90 5 88 0 70 127 -20 138 -23 150 -46 171 -28 25 -35 9 -16 -31 9 -20 17
-47 17 -61 0 -13 6 -35 13 -47 9 -14 12 -40 9 -70 -8 -89 -92 -66 -107 31 -3
20 -9 55 -15 78 -5 22 -7 50 -4 61 3 11 1 35 -4 54 l-9 34 -12 -28z"/>
<path d="M1567 1803 c-3 -5 9 -60 25 -123 16 -63 29 -134 29 -157 0 -51 9 -59
49 -38 36 18 35 16 11 64 -11 21 -32 80 -46 131 -34 121 -51 152 -68 123z"/>
<path d="M7330 1771 c0 -11 5 -23 10 -26 6 -3 10 -17 10 -31 0 -34 27 -84 46
-84 29 0 26 30 -10 80 -20 27 -36 57 -36 65 0 8 -4 15 -10 15 -5 0 -10 -9 -10
-19z"/>
<path d="M2400 1760 c-8 -5 -29 -10 -47 -10 -41 0 -63 -9 -63 -26 0 -27 106
-20 138 9 35 33 14 54 -28 27z"/>
<path d="M3598 1751 c-40 -6 -40 -19 -1 -40 44 -23 117 5 92 35 -12 15 -28 15
-91 5z"/>
<path d="M8140 1739 c-9 -17 -7 -31 10 -72 33 -81 43 -100 66 -129 12 -15 24
-33 27 -40 2 -7 8 -9 13 -5 4 4 1 22 -8 40 -48 93 -69 149 -63 166 13 41 -27
75 -45 40z"/>
<path d="M3010 1732 c0 -4 13 -23 29 -42 15 -19 31 -45 35 -57 20 -62 115
-130 143 -102 9 9 20 5 45 -15 131 -109 232 -146 295 -109 29 16 31 16 60 -5
56 -39 133 1 133 70 0 12 -58 0 -86 -19 -16 -10 -24 -11 -29 -3 -4 6 -15 8
-26 5 -10 -4 -26 -2 -35 3 -12 6 -23 3 -40 -15 -27 -27 -56 -30 -75 -6 -8 9
-41 28 -74 43 -33 15 -73 42 -89 59 -28 29 -34 31 -76 25 l-47 -6 -28 48 c-45
79 -135 163 -135 126z"/>
<path d="M6445 1720 c-3 -10 -24 -32 -45 -48 l-39 -28 29 -11 c31 -12 50 -2
50 28 0 9 9 28 20 41 10 14 16 28 13 32 -11 11 -22 6 -28 -14z"/>
<path d="M2565 1667 c-22 -23 -88 -88 -147 -144 -120 -113 -124 -120 -70 -94
36 16 282 254 282 272 0 21 -28 6 -65 -34z"/>
<path d="M8264 1669 c-13 -22 89 -66 125 -54 43 13 26 30 -54 51 -67 17 -62
17 -71 3z"/>
<path d="M6553 1618 c-18 -22 -33 -51 -33 -63 0 -34 -12 -37 -54 -15 -21 10
-44 16 -52 13 -17 -6 -19 -43 -2 -43 6 0 19 -7 29 -16 10 -9 30 -17 46 -18 15
-2 34 -5 41 -7 13 -4 36 44 52 111 5 19 12 45 15 58 11 33 -6 26 -42 -20z"/>
<path d="M2200 1624 c-25 -14 -56 -36 -70 -49 -14 -12 -36 -26 -50 -30 -14 -4
-42 -20 -63 -37 -20 -16 -50 -34 -66 -39 -45 -16 -53 -59 -12 -59 36 0 101 41
182 115 9 8 19 15 24 15 4 0 22 11 40 24 17 13 48 31 68 40 41 17 50 46 15 46
-13 0 -43 -12 -68 -26z"/>
<path d="M9842 1641 c12 -32 158 -151 158 -129 0 16 -15 35 -48 61 -27 21 -54
47 -60 58 -12 18 -57 28 -50 10z"/>
<path d="M8632 1618 c-23 -23 -13 -38 23 -38 19 0 35 -4 35 -10 0 -14 33 -13
48 2 27 27 15 60 -14 41 -25 -16 -27 -16 -39 0 -14 20 -36 22 -53 5z"/>
<path d="M2852 1577 c-7 -19 -23 -39 -37 -45 -28 -13 -21 -46 11 -59 9 -3 29
-30 45 -59 32 -56 60 -74 84 -54 19 16 19 39 0 64 -8 11 -15 32 -15 48 0 33
-49 138 -65 138 -6 0 -16 -15 -23 -33z"/>
<path d="M3552 1573 c2 -11 -6 -19 -22 -23 -31 -7 -33 -37 -3 -57 21 -14 22
-13 28 21 4 19 13 40 21 47 20 16 17 29 -6 29 -14 0 -20 -6 -18 -17z"/>
<path d="M6272 1542 c-46 -43 -52 -66 -23 -82 46 -24 75 2 87 78 9 55 -8 56
-64 4z"/>
<path d="M8573 1550 c-37 -15 -28 -37 19 -43 23 -3 45 -13 50 -21 8 -14 13
-12 34 13 31 38 31 41 -11 41 -19 0 -35 5 -35 10 0 12 -27 12 -57 0z"/>
<path d="M8776 1525 l-27 -25 27 -35 c14 -19 30 -35 34 -35 4 0 13 -14 20 -30
7 -17 26 -41 42 -55 16 -14 46 -46 68 -72 62 -78 98 -113 114 -113 29 0 17 27
-29 64 -25 21 -45 42 -45 48 0 6 -38 50 -84 98 -107 111 -114 124 -81 146 14
9 25 20 25 25 0 18 -38 8 -64 -16z"/>
<path d="M7290 1500 c0 -5 9 -14 20 -20 21 -11 27 -44 10 -55 -20 -12 -42 -67
-36 -91 10 -39 26 -27 26 19 0 57 11 72 54 69 50 -4 53 14 11 53 -34 33 -85
48 -85 25z"/>
<path d="M8400 1502 c0 -6 5 -14 10 -17 6 -3 10 -15 10 -26 0 -12 12 -27 30
-37 16 -9 30 -22 30 -29 0 -16 49 -53 70 -53 9 0 22 -11 28 -25 14 -30 37 -32
52 -6 14 28 15 26 -37 57 -41 23 -85 56 -175 132 -11 9 -18 11 -18 4z"/>
<path d="M1198 1430 c-18 -41 -39 -86 -48 -101 -8 -15 -27 -49 -42 -76 -14
-26 -45 -65 -67 -86 -23 -21 -41 -43 -41 -49 0 -6 -11 -24 -25 -40 -42 -50
-18 -46 28 4 122 134 232 305 222 346 -3 12 -1 32 6 43 6 11 8 23 5 26 -3 3
-20 -27 -38 -67z"/>
<path d="M7890 1481 c-49 -9 -27 -17 49 -20 69 -2 104 5 96 20 -7 10 -89 10
-145 0z"/>
<path d="M7780 1478 c1 -22 35 -106 55 -136 33 -51 52 -58 80 -32 16 15 35 20
72 20 87 0 110 20 47 40 -21 7 -63 10 -99 8 -74 -6 -85 -1 -119 57 -23 38 -36
54 -36 43z"/>
<path d="M8246 1425 c-19 -34 -14 -67 7 -46 19 19 36 12 62 -26 80 -120 115
-152 123 -113 4 21 -115 179 -154 204 -19 13 -22 11 -38 -19z"/>
<path d="M1621 1418 c-10 -27 12 -58 41 -58 29 0 33 28 8 56 -29 30 -38 30
-49 2z"/>
<path d="M3265 1430 c-4 -6 12 -31 37 -55 23 -25 45 -55 48 -67 7 -28 38 -36
47 -12 8 22 -21 75 -55 96 -15 10 -37 24 -49 33 -15 11 -23 13 -28 5z"/>
<path d="M4088 1376 c-94 -105 -104 -127 -85 -190 26 -82 23 -171 -8 -208 -21
-25 -23 -33 -14 -51 11 -20 12 -20 25 -1 26 37 35 44 59 44 31 0 32 12 3 25
-21 9 -23 17 -23 92 0 45 -3 85 -7 89 -22 22 20 143 52 151 22 6 80 76 80 97
0 30 -25 15 -82 -48z"/>
<path d="M6325 1430 c-3 -5 -14 -10 -24 -10 -10 0 -26 -9 -36 -20 -12 -13 -31
-20 -57 -20 -43 0 -52 -30 -23 -80 8 -14 14 -36 15 -50 0 -29 37 -140 51 -155
5 -5 9 -32 9 -61 0 -58 7 -84 22 -84 18 0 4 170 -17 210 -54 100 -6 285 59
230 17 -13 41 13 32 35 -6 17 -22 20 -31 5z"/>
<path d="M6860 1411 c0 -12 18 -45 40 -74 23 -29 48 -62 58 -75 9 -13 30 -38
45 -57 28 -33 127 -191 127 -201 0 -8 81 -127 103 -152 11 -12 30 -37 41 -56
68 -108 86 -128 86 -92 0 15 -77 137 -148 236 -22 30 -49 74 -60 96 -29 57
-107 169 -159 229 -24 28 -58 74 -76 104 -35 59 -57 75 -57 42z"/>
<path d="M2205 1334 c-64 -62 -85 -103 -27 -53 62 54 112 104 112 111 0 19
-23 4 -85 -58z"/>
<path d="M1825 1343 c-76 -45 -95 -59 -95 -71 0 -16 35 -7 117 30 36 16 63 35
63 43 0 21 -48 19 -85 -2z"/>
<path d="M6716 1327 c-27 -35 -33 -62 -17 -72 19 -11 77 66 67 90 -9 23 -23
18 -50 -18z"/>
<path d="M9420 1320 c-8 -5 -35 -10 -60 -10 -26 0 -63 -9 -85 -20 -22 -11 -43
-20 -48 -20 -16 0 -237 -227 -237 -243 0 -8 12 -18 28 -22 15 -3 65 -24 111
-46 105 -49 98 -49 162 14 30 30 74 65 99 79 25 14 68 38 95 54 28 16 74 33
104 39 69 14 74 28 19 56 -24 12 -65 46 -92 75 -49 54 -68 62 -96 44z m95 -71
c56 -52 56 -61 -2 -87 -87 -38 -169 -87 -219 -130 -53 -46 -102 -55 -140 -27
-10 8 -36 15 -56 15 -59 0 -49 26 47 124 148 152 279 189 370 105z"/>
<path d="M2584 1238 c6 -100 13 -128 34 -128 12 0 14 11 9 72 -3 39 -2 79 3
89 11 20 -11 49 -36 49 -12 0 -14 -15 -10 -82z"/>
<path d="M3745 1260 c-14 -22 -20 -229 -6 -243 18 -18 22 12 19 139 -2 82 -6
114 -13 104z"/>
<path d="M3493 1247 c-24 -30 -35 -75 -24 -95 15 -28 15 -30 -16 -58 -27 -25
-26 -72 3 -81 21 -7 67 85 60 122 -8 42 10 58 66 53 38 -2 43 0 46 20 3 16 -1
20 -12 16 -8 -3 -25 1 -38 9 -35 22 -74 29 -85 14z"/>
<path d="M2060 1200 c-30 -27 -58 -50 -62 -50 -4 0 -24 -15 -45 -34 -21 -19
-51 -45 -68 -59 -54 -45 -17 -41 40 4 80 63 189 159 198 175 16 28 -9 13 -63
-36z"/>
<path d="M6407 1243 c-20 -37 -30 -153 -13 -153 30 0 51 28 39 49 -17 26 -16
31 1 31 24 0 28 18 11 50 -15 29 -29 38 -38 23z"/>
<path d="M6756 1210 c-29 -11 -54 -27 -62 -41 -29 -53 -6 -80 32 -38 10 12 38
32 61 46 70 41 50 61 -31 33z"/>
<path d="M7880 1153 c1 -44 31 -88 57 -84 66 9 106 6 113 -9 28 -61 36 -74 48
-78 17 -5 15 23 -4 38 -9 8 -14 25 -12 44 l3 31 -74 10 c-59 8 -77 15 -89 33
-14 21 -42 31 -42 15z"/>
<path d="M8430 1150 c0 -14 91 -100 105 -100 15 0 45 32 45 48 0 22 -22 24
-44 3 l-23 -22 -16 24 c-31 48 -67 73 -67 47z"/>
<path d="M8274 1092 c-6 -4 -16 -22 -22 -41 -7 -19 -35 -56 -62 -82 -51 -49
-61 -69 -35 -69 19 0 86 73 102 111 7 16 19 29 28 29 21 0 31 -29 16 -49 -6
-9 -20 -35 -31 -58 -16 -36 -24 -43 -47 -43 -23 0 -31 -6 -40 -31 -14 -37 -44
-36 -53 1 -6 27 -35 37 -60 21 -12 -9 -12 -15 7 -48 26 -45 65 -56 83 -24 6
12 21 21 34 21 35 0 73 35 102 93 15 29 40 66 56 84 29 30 30 31 8 38 -11 4
-26 18 -32 31 -11 24 -33 30 -54 16z"/>
<path d="M2560 1072 c0 -4 7 -18 16 -30 9 -13 14 -32 11 -42 -3 -13 1 -21 14
-25 10 -4 24 -16 30 -28 17 -33 51 -67 66 -67 20 0 16 16 -16 52 -15 18 -43
59 -61 91 -27 48 -60 76 -60 49z"/>
<path d="M6100 1050 c-9 -6 -39 -8 -72 -4 -65 7 -85 0 -67 -22 19 -23 219 -19
219 5 0 20 -58 35 -80 21z"/>
<path d="M2897 1028 c-3 -12 30 -88 39 -88 2 0 3 10 1 22 -3 31 38 38 48 9 8
-26 -2 -44 -21 -37 -20 8 -17 -8 5 -28 47 -43 93 5 67 68 -21 51 -126 91 -139
54z"/>
<path d="M3531 1028 c0 -10 -9 -26 -18 -36 -46 -47 -84 -104 -79 -118 21 -54
114 74 103 142 -2 16 -5 21 -6 12z"/>
<path d="M1322 944 c-138 -68 -154 -78 -167 -111 -28 -67 -6 -72 64 -14 25 21
58 44 73 52 102 53 201 129 187 143 -3 3 -73 -29 -157 -70z"/>
<path d="M2730 1009 c0 -7 6 -20 14 -28 13 -15 55 -116 71 -168 9 -34 125 -4
125 32 0 23 -36 37 -50 20 -19 -22 -49 -18 -59 8 -5 13 -16 29 -25 37 -10 7
-26 33 -36 56 -20 44 -40 65 -40 43z"/>
<path d="M5180 972 c0 -16 6 -37 14 -47 7 -10 11 -26 9 -36 -6 -22 12 -33 29
-16 7 7 21 16 31 20 18 7 23 42 7 52 -6 3 -15 -6 -20 -20 -14 -36 -36 -27 -32
14 3 31 -11 61 -29 61 -5 0 -9 -13 -9 -28z"/>
<path d="M6436 991 c-14 -22 -33 -130 -25 -142 11 -18 37 44 46 106 5 42 -6
61 -21 36z"/>
<path d="M3131 977 c-14 -18 -1 -57 29 -87 11 -11 20 -27 20 -35 0 -8 4 -15 9
-15 20 0 22 22 7 63 -9 23 -15 51 -13 62 3 25 -34 33 -52 12z"/>
<path d="M9943 977 c-28 -12 -29 -28 -3 -53 11 -10 29 -28 40 -38 20 -20 20
-20 20 5 0 50 -32 98 -57 86z"/>
<path d="M9450 948 c0 -11 155 -179 173 -186 27 -12 -4 41 -65 113 -66 76
-108 105 -108 73z"/>
<path d="M1683 879 c-77 -66 -107 -103 -65 -80 27 15 168 150 157 150 -5 0
-47 -32 -92 -70z"/>
<path d="M2040 915 c-15 -18 -7 -43 17 -52 26 -9 143 -132 143 -150 0 -18 0
-18 -77 32 -44 29 -63 48 -67 68 -4 19 -12 27 -26 27 -27 0 -25 -12 5 -40 14
-13 25 -29 25 -36 0 -12 125 -109 155 -121 18 -6 38 42 31 73 -3 12 -40 58
-81 101 -41 43 -75 81 -75 85 0 18 -38 27 -50 13z"/>
<path d="M2535 868 c4 -18 7 -48 6 -66 -1 -25 4 -35 24 -44 13 -6 32 -22 41
-36 23 -35 36 -10 19 38 -40 112 -110 196 -90 108z"/>
<path d="M8497 864 c-45 -30 -45 -31 -3 -72 30 -29 38 -32 55 -22 25 13 28 45
5 54 -11 4 -14 13 -10 30 9 36 -6 39 -47 10z"/>
<path d="M6580 832 c0 -54 13 -92 32 -92 11 0 23 -11 28 -26 12 -29 30 -23 30
10 0 14 -10 30 -24 39 -13 9 -26 29 -29 45 -7 33 -37 53 -37 24z"/>
<path d="M6281 813 c-5 -10 -10 -45 -12 -78 l-4 -60 34 -5 c26 -4 36 -11 41
-30 38 -133 68 -176 55 -80 -8 63 -34 129 -58 149 -10 7 -17 24 -17 36 0 68
-20 103 -39 68z"/>
<path d="M5873 804 c-3 -9 2 -31 11 -49 14 -25 15 -37 7 -52 -11 -22 2 -43 27
-43 13 0 9 129 -5 153 -8 13 -33 7 -40 -9z"/>
<path d="M8002 787 c-11 -13 -6 -22 29 -54 23 -21 58 -56 78 -78 84 -92 101
-103 101 -69 0 31 -194 218 -208 201z"/>
<path d="M521 761 c23 -65 215 -80 235 -19 11 37 -16 51 -42 23 -28 -30 -104
-27 -159 7 -41 24 -46 23 -34 -11z"/>
<path d="M3261 771 c-18 -13 -22 -23 -16 -40 5 -18 -1 -31 -28 -60 -19 -20
-37 -45 -39 -56 -3 -15 -11 -20 -31 -18 -24 2 -27 -2 -27 -29 0 -22 -14 -47
-51 -91 -29 -35 -49 -69 -48 -81 3 -39 -1 -46 -24 -46 -33 0 -75 -90 -58 -126
15 -33 31 -22 31 22 0 29 5 36 37 51 36 18 46 31 108 148 14 28 39 64 54 80
16 17 43 59 62 95 18 36 46 80 61 98 49 58 26 97 -31 53z"/>
<path d="M8633 754 c-12 -33 17 -122 48 -146 17 -13 48 -38 70 -57 l40 -35 67
22 c37 11 95 24 130 28 48 5 62 10 60 22 -5 26 -34 38 -60 25 -137 -69 -233
-51 -295 54 -32 55 -25 63 52 60 44 -3 73 2 96 13 44 23 21 35 -40 19 -37 -9
-59 -9 -94 -1 -60 15 -66 15 -74 -4z"/>
<path d="M9132 731 c-17 -10 10 -41 36 -41 9 0 26 -7 36 -15 21 -16 36 -11 36
11 0 30 -79 64 -108 45z"/>
<path d="M107 712 c-13 -20 39 -145 81 -194 37 -45 -20 -85 -160 -113 -20 -4
-28 -11 -28 -26 0 -17 4 -20 23 -15 12 4 68 17 124 30 140 33 144 36 92 89
-17 17 -37 47 -44 67 -34 95 -79 178 -88 162z"/>
<path d="M9700 700 c0 -10 136 -156 193 -208 15 -14 27 -32 27 -39 0 -8 5 -11
11 -7 8 4 8 9 0 17 -6 6 -11 19 -11 29 0 9 -26 44 -57 76 -32 32 -75 78 -95
100 -34 39 -68 55 -68 32z"/>
<path d="M9860 685 c0 -32 94 -51 125 -25 16 13 16 15 -1 27 -26 19 -124 17
-124 -2z"/>
<path d="M7980 682 c0 -13 38 -65 70 -97 17 -16 63 -68 102 -115 74 -90 118
-131 130 -123 18 10 6 30 -26 46 -21 9 -51 39 -74 74 -22 32 -55 72 -73 90
-19 17 -50 52 -69 76 -33 43 -60 65 -60 49z"/>
<path d="M6630 611 c0 -16 -7 -34 -15 -41 -8 -7 -15 -20 -15 -30 0 -19 36 -55
43 -43 8 14 4 143 -5 143 -4 0 -8 -13 -8 -29z"/>
<path d="M2175 620 c-8 -13 13 -46 59 -98 18 -20 38 -47 45 -59 14 -27 30 -30
37 -5 3 9 14 36 25 60 l20 44 -28 33 c-16 19 -34 34 -40 34 -15 1 -17 -35 -3
-44 15 -9 12 -65 -3 -65 -19 0 -40 20 -70 68 -29 45 -32 48 -42 32z"/>
<path d="M7450 567 c0 -19 59 -116 268 -437 51 -77 82 -114 82 -97 0 12 -63
115 -149 246 -9 13 -25 39 -36 56 -72 116 -165 247 -165 232z"/>
<path d="M1212 483 c-50 -43 -109 -91 -131 -107 -23 -17 -41 -33 -41 -38 0
-19 26 -4 83 47 33 30 66 55 73 55 7 0 18 9 24 20 6 11 24 27 40 35 28 15 57
52 47 61 -3 3 -45 -30 -95 -73z"/>
<path d="M7196 520 c-38 -42 -43 -55 -26 -65 17 -10 11 -43 -15 -95 -30 -60
-32 -80 -5 -55 11 10 20 22 20 28 0 5 19 26 43 47 40 36 41 38 25 57 -23 25
-22 41 2 78 40 60 9 63 -44 5z"/>
<path d="M770 524 c-19 -8 -38 -22 -43 -30 -4 -7 -15 -14 -24 -14 -9 0 -27 -9
-39 -21 -12 -11 -55 -39 -95 -62 -53 -30 -75 -48 -77 -65 -7 -45 27 -38 75 17
30 34 52 51 68 51 13 0 30 9 37 19 7 10 29 26 48 35 103 48 150 113 50 70z"/>
<path d="M2794 493 c3 -21 6 -50 6 -65 0 -18 5 -28 14 -28 17 0 31 -18 22 -27
-3 -4 -17 0 -31 7 -20 11 -27 11 -40 0 -22 -18 -18 -39 8 -44 12 -3 36 -8 52
-11 84 -17 85 -17 85 -2 0 8 -7 20 -15 27 -8 7 -15 21 -15 31 0 30 -63 149
-78 149 -11 0 -13 -9 -8 -37z"/>
<path d="M8655 476 c-16 -42 -16 -46 0 -78 10 -18 21 -39 25 -47 3 -8 13 -17
20 -19 11 -4 10 2 -4 23 -13 20 -16 38 -12 69 11 74 11 89 0 93 -7 2 -20 -16
-29 -41z"/>
<path d="M8850 475 c0 -9 16 -39 35 -68 19 -28 35 -61 36 -72 1 -33 53 -130
72 -133 20 -4 25 52 6 63 -32 20 -68 87 -56 106 9 15 7 23 -15 46 -14 15 -29
38 -33 51 -7 25 -45 31 -45 7z"/>
<path d="M2133 460 c-30 -12 -29 -30 1 -30 26 0 151 -117 162 -152 6 -20 73
-58 101 -58 25 0 88 23 93 34 10 20 -80 40 -94 20 -13 -18 -166 116 -166 145
0 10 -58 52 -70 50 -3 0 -15 -4 -27 -9z"/>
<path d="M9310 452 c0 -16 161 -154 187 -161 16 -4 30 -16 33 -28 10 -40 184
-211 195 -192 7 11 -94 117 -165 173 -26 21 -9 46 33 46 10 0 17 5 14 13 -2 7
-17 11 -38 9 -35 -3 -129 54 -129 78 0 5 -27 23 -60 40 -64 32 -70 34 -70 22z"/>
<path d="M2543 413 c-10 -15 -26 -34 -35 -41 -10 -7 -18 -20 -18 -28 0 -21 28
-17 35 6 7 21 31 30 80 27 27 -2 30 1 30 28 0 45 -65 50 -92 8z"/>
<path d="M1890 358 c22 -37 26 -68 9 -85 -13 -13 -8 -55 7 -60 11 -4 44 65 44
92 0 16 -57 85 -71 85 -5 0 0 -15 11 -32z"/>
<path d="M9150 361 c0 -5 7 -11 15 -15 25 -9 17 -25 -25 -46 -22 -11 -40 -25
-40 -31 0 -20 28 -20 61 0 19 12 43 21 55 21 47 0 59 47 14 57 -17 3 -33 10
-36 14 -7 12 -44 12 -44 0z"/>
<path d="M6547 300 c-9 -14 -17 -33 -17 -43 0 -10 -9 -21 -20 -24 -24 -6 -26
-31 -5 -59 18 -24 35 -5 35 39 0 15 7 42 16 58 20 39 13 60 -9 29z"/>
<path d="M2715 275 c24 -73 60 -154 66 -148 29 32 20 73 -26 120 -29 29 -44
40 -40 28z"/>
<path d="M8750 264 c0 -5 11 -27 25 -49 13 -22 25 -49 25 -61 0 -11 9 -29 19
-38 11 -10 22 -29 26 -43 10 -40 36 -73 58 -73 19 0 19 1 4 18 -10 10 -17 23
-17 29 0 13 -48 106 -81 158 -27 42 -59 74 -59 59z"/>
<path d="M9327 256 c-3 -9 -15 -12 -31 -9 -17 4 -26 1 -26 -7 0 -7 8 -10 19
-7 20 5 74 -42 119 -102 24 -32 62 -42 62 -16 0 8 -7 20 -16 27 -44 35 -76 74
-81 100 -6 30 -36 39 -46 14z"/>
<path d="M1435 240 c-8 -26 8 -47 44 -55 16 -3 43 -17 62 -31 18 -13 40 -24
49 -24 10 0 38 -11 64 -25 55 -29 62 -27 69 17 3 18 9 46 13 62 4 19 3 27 -3
23 -6 -4 -14 -19 -18 -34 -17 -68 -121 -46 -213 45 -48 47 -58 51 -67 22z"/>
<path d="M8410 172 c0 -4 29 -38 65 -77 36 -38 65 -76 65 -82 0 -7 9 -13 21
-13 27 0 25 3 -46 87 -54 63 -105 105 -105 85z"/>
<path d="M1950 158 c0 -28 75 -78 115 -78 22 0 15 30 -10 44 -11 6 -32 19 -47
29 -31 20 -58 22 -58 5z"/>
<path d="M9020 154 c0 -3 11 -20 25 -38 13 -17 39 -50 57 -73 42 -54 63 -56
38 -5 -27 56 -120 145 -120 116z"/>
<path d="M160 70 c-41 -20 -81 -44 -89 -54 -28 -33 28 -17 83 24 29 22 57 40
63 40 6 0 16 7 23 15 18 21 5 17 -80 -25z"/>
</g>
</svg>
