<?xml version="1.0" standalone="no"?>
<!DOCTYPE svg PUBLIC "-//W3C//DTD SVG 20010904//EN"
 "http://www.w3.org/TR/2001/REC-SVG-20010904/DTD/svg10.dtd">
<svg version="1.0" xmlns="http://www.w3.org/2000/svg"
 width="1000.000000pt" height="750.000000pt" viewBox="0 0 1000.000000 750.000000"
 preserveAspectRatio="xMidYMid meet">
<metadata>
Created by potrace 1.16, written by Peter Selinger 2001-2019
</metadata>
<g transform="translate(0.000000,750.000000) scale(0.100000,-0.100000)"
fill="currentColor" stroke="none">
<path d="M9097 7403 c-9 -54 -22 -141 -27 -193 -6 -52 -17 -142 -25 -200 -7
-58 -23 -179 -35 -270 -39 -306 -52 -404 -106 -785 -42 -295 -48 -346 -69
-570 -9 -93 -25 -224 -36 -289 -23 -136 -24 -134 54 -128 57 4 81 22 30 22
-62 0 -61 -11 -29 250 8 69 20 181 26 250 6 69 28 249 50 400 59 420 106 780
150 1155 16 138 34 280 40 317 23 155 3 190 -23 41z"/>
<path d="M6988 7460 c-19 -104 -66 -825 -55 -836 12 -12 16 20 32 261 9 132
20 308 26 391 6 83 9 166 7 185 l-4 34 -6 -35z"/>
<path d="M3242 7265 c-7 -25 -12 -54 -12 -66 0 -11 -9 -38 -21 -60 -24 -48
-18 -61 15 -30 16 15 22 29 18 47 -6 31 16 110 34 125 19 16 17 29 -4 29 -13
0 -21 -13 -30 -45z"/>
<path d="M2615 7264 c-11 -8 -43 -22 -71 -30 -28 -8 -59 -21 -70 -29 -34 -26
18 -18 72 10 26 14 57 25 68 25 22 0 46 17 46 32 0 13 -23 9 -45 -8z"/>
<path d="M3646 7195 c-12 -19 -23 -24 -37 -20 -15 5 -19 2 -19 -16 0 -13 -9
-32 -19 -43 -25 -26 -41 -131 -20 -124 9 3 14 20 15 46 2 70 55 139 62 80 3
-25 34 -58 54 -58 16 0 7 51 -12 67 -11 10 -20 25 -20 35 0 9 9 22 20 28 23
12 27 30 6 30 -7 0 -21 -11 -30 -25z"/>
<path d="M3455 7111 c-8 -16 -22 -31 -31 -33 -13 -2 -11 -6 10 -18 37 -19 60
-4 64 44 4 46 -20 50 -43 7z"/>
<path d="M3327 7074 c-40 -21 -35 -60 7 -57 40 3 64 28 50 50 -15 23 -25 24
-57 7z"/>
<path d="M2070 7070 c-19 -4 -52 -11 -73 -14 -45 -8 -41 -21 10 -30 21 -4 54
-9 73 -13 32 -5 34 -4 20 12 -13 15 -12 19 9 36 25 20 17 22 -39 9z"/>
<path d="M2346 6963 c-41 -76 -41 -76 -28 -81 7 -2 19 -17 27 -33 15 -27 59
-49 72 -35 4 4 -10 20 -30 37 -43 36 -48 72 -16 113 16 21 17 26 5 26 -8 0
-22 -12 -30 -27z"/>
<path d="M8892 6948 c-18 -72 -23 -148 -9 -148 8 0 17 31 24 87 13 93 3 133
-15 61z"/>
<path d="M3034 6952 c1 -11 -11 -18 -37 -23 -44 -7 -62 -21 -54 -43 5 -13 11
-14 32 -4 22 10 29 8 53 -15 46 -44 54 -38 67 55 l7 46 -35 0 c-25 0 -34 -4
-33 -16z"/>
<path d="M3596 6944 c-3 -9 -6 -28 -6 -44 0 -30 -24 -58 -35 -40 -10 16 -55
12 -55 -5 0 -37 52 -70 64 -40 3 8 15 15 27 15 15 0 19 4 15 16 -3 8 -2 23 3
32 17 34 21 82 7 82 -8 0 -17 -7 -20 -16z"/>
<path d="M7170 6874 c-33 -38 -90 -147 -90 -173 0 -8 14 5 30 27 17 23 34 42
39 42 10 0 65 130 58 137 -2 2 -19 -13 -37 -33z"/>
<path d="M1473 6868 c-57 -22 -68 -38 -29 -38 14 0 28 -4 31 -10 10 -17 19
-11 43 25 34 53 33 54 -45 23z"/>
<path d="M2860 6870 c0 -5 -11 -12 -24 -16 -20 -5 -24 -12 -23 -39 1 -36 27
-52 61 -39 9 3 23 1 31 -6 19 -16 47 -5 43 17 -3 14 -13 18 -43 18 -43 0 -66
38 -31 51 20 8 21 24 1 24 -8 0 -15 -4 -15 -10z"/>
<path d="M5077 6715 c-4 -93 -11 -276 -16 -405 -33 -776 -34 -910 -12 -910 11
0 19 215 32 886 11 557 9 756 -4 429z"/>
<path d="M3803 6824 c-41 -18 -42 -34 -4 -34 40 0 81 -16 81 -32 1 -7 10 -24
20 -37 23 -27 57 -22 45 7 -4 9 -7 25 -7 34 1 12 -6 17 -21 15 -16 -1 -23 4
-25 21 -3 18 -42 47 -55 41 -1 0 -17 -7 -34 -15z"/>
<path d="M1253 6788 c-51 -17 -93 -34 -93 -39 0 -22 46 -7 185 56 50 23 5 15
-92 -17z"/>
<path d="M4677 6766 c-3 -8 -7 -174 -8 -368 l-1 -353 28 -6 c112 -23 180 -164
131 -272 -14 -30 -28 -69 -32 -86 -3 -17 -11 -33 -16 -36 -13 -9 -11 -49 3
-63 23 -23 40 -14 33 16 -4 19 4 51 25 102 64 156 38 273 -78 350 l-53 35 2
203 c1 112 6 205 11 208 4 3 8 -4 8 -15 0 -23 7 -26 30 -11 12 8 12 10 -3 16
-10 3 -17 17 -17 32 0 14 -9 36 -21 48 -35 37 -16 133 29 148 36 12 33 26 -5
26 -12 0 -28 9 -35 20 -15 24 -24 25 -31 6z"/>
<path d="M4976 6689 c-9 -91 -7 -287 3 -293 16 -10 21 36 21 197 0 159 -12
208 -24 96z"/>
<path d="M3015 6730 c-3 -5 -17 -10 -31 -10 -30 0 -30 -7 2 -36 33 -31 64 -8
64 49 0 11 -28 8 -35 -3z"/>
<path d="M2448 6694 c-7 -16 -23 -37 -36 -48 -36 -29 -28 -90 13 -94 24 -3 28
-1 18 9 -24 24 -15 69 19 101 29 27 30 30 15 45 -15 15 -17 14 -29 -13z"/>
<path d="M4795 6618 c-15 -47 -10 -148 7 -148 14 0 18 8 18 34 0 18 3 54 6 80
7 45 -18 72 -31 34z"/>
<path d="M4008 6573 c-8 -25 -12 -71 -10 -133 2 -52 3 -113 2 -135 -4 -92 1
-324 8 -370 12 -72 20 60 26 408 4 265 0 302 -26 230z"/>
<path d="M6915 6588 c-11 -6 -26 -14 -34 -18 -19 -8 -16 -128 6 -194 14 -43
14 -64 3 -170 -17 -164 -17 -188 -3 -193 32 -11 48 265 24 387 -10 50 -9 95 5
142 3 9 16 19 30 22 21 6 24 9 14 21 -14 17 -18 18 -45 3z"/>
<path d="M7310 6573 c0 -3 8 -15 17 -25 15 -17 16 -25 4 -76 -7 -31 -15 -71
-18 -87 -3 -20 -14 -36 -33 -47 -21 -12 -27 -22 -23 -37 4 -16 -1 -23 -23 -31
-46 -18 -57 -7 -49 48 7 50 21 75 37 66 30 -19 49 47 24 81 -34 47 -92 -64
-81 -154 12 -98 37 -105 107 -30 84 89 136 226 104 274 -15 23 -66 37 -66 18z"/>
<path d="M874 6528 c4 -18 10 -50 13 -71 l5 -38 22 19 c11 11 30 22 40 24 27
4 26 21 -2 28 -12 3 -31 20 -42 38 -11 17 -25 32 -31 32 -7 0 -9 -11 -5 -32z"/>
<path d="M7078 6513 c-9 -10 -23 -33 -32 -50 -9 -18 -28 -40 -41 -49 -14 -9
-25 -25 -25 -36 0 -11 -5 -29 -11 -40 -9 -16 -8 -24 5 -36 14 -14 17 -13 31
19 9 19 29 52 46 74 34 46 69 109 69 125 0 16 -25 12 -42 -7z"/>
<path d="M560 6492 c-43 -21 -47 -47 -6 -47 21 0 31 -6 37 -22 13 -35 33 -29
25 8 -3 17 -6 42 -6 55 0 28 -4 29 -50 6z"/>
<path d="M5548 6290 c-4 -69 -13 -240 -19 -380 -5 -140 -14 -327 -19 -415 -8
-165 -8 -177 13 -169 9 3 13 50 14 167 1 89 7 313 14 497 12 345 10 523 -3
300z"/>
<path d="M2354 6330 c-6 -6 -30 -16 -54 -23 -35 -10 -49 -21 -71 -57 -35 -57
-36 -73 -4 -37 14 15 29 27 34 27 4 0 13 11 19 24 9 21 19 25 59 28 41 3 48 6
51 26 4 23 -16 30 -34 12z"/>
<path d="M1637 6309 c-36 -14 -25 -29 22 -29 21 0 55 -7 74 -15 45 -19 58 -19
51 -1 -12 32 -104 60 -147 45z"/>
<path d="M3917 6077 c4 -41 1 -72 -7 -87 -11 -20 -9 -26 14 -49 31 -30 31 -30
11 98 -16 110 -25 128 -18 38z"/>
<path d="M925 6110 c-8 -12 1 -145 10 -160 13 -22 28 17 15 40 -6 11 -7 26 -3
33 15 24 14 97 -1 97 -8 0 -17 -4 -21 -10z"/>
<path d="M7673 6008 c-17 -18 -50 -48 -74 -66 -68 -50 -176 -151 -162 -152 7
0 30 15 50 33 21 19 66 53 101 76 35 23 67 53 72 65 4 12 20 30 34 39 14 10
26 22 26 27 0 18 -16 10 -47 -22z"/>
<path d="M6720 5900 c0 -5 6 -21 12 -36 12 -25 10 -29 -26 -60 -21 -18 -35
-38 -31 -44 8 -13 35 5 35 25 0 6 11 17 25 23 42 19 46 102 4 102 -10 0 -19
-4 -19 -10z"/>
<path d="M3829 5877 c-35 -30 -69 -81 -69 -104 0 -10 -9 -42 -21 -72 -20 -54
-15 -77 16 -68 14 5 26 67 19 100 -7 34 47 124 83 138 12 4 23 13 23 19 0 17
-23 11 -51 -13z"/>
<path d="M3932 5875 c-20 -44 -16 -211 6 -227 9 -7 25 -26 35 -41 10 -15 22
-25 26 -22 12 7 25 220 15 237 -11 16 -21 -27 -23 -93 -1 -43 -23 -91 -36 -78
-12 12 -17 144 -7 185 11 51 1 76 -16 39z"/>
<path d="M2782 5818 c-19 -19 -14 -28 16 -28 38 0 69 -24 77 -60 7 -32 34 -53
52 -42 15 10 3 34 -36 68 -18 16 -44 39 -56 52 -25 25 -36 27 -53 10z"/>
<path d="M6430 5775 c-19 -14 -41 -25 -50 -25 -9 0 -25 -6 -36 -14 -33 -25 6
-29 51 -6 21 11 49 20 60 20 24 0 45 18 45 37 0 21 -33 15 -70 -12z"/>
<path d="M7170 5758 c-50 -18 -75 -36 -65 -46 2 -3 18 1 35 6 55 20 80 -15 45
-65 -19 -28 -104 -83 -127 -83 -24 0 -43 -49 -52 -132 -5 -46 -16 -79 -35
-110 -24 -37 -81 -153 -81 -164 0 -21 26 9 59 69 23 39 50 83 61 97 15 19 22
48 28 115 l7 90 34 10 c58 17 144 103 137 137 -10 50 20 78 52 46 20 -20 26 0
8 27 -19 29 -33 30 -106 3z"/>
<path d="M919 5678 c-23 -29 -52 -60 -63 -70 -17 -14 -18 -20 -8 -43 7 -14 12
-48 12 -75 0 -28 3 -50 8 -50 4 0 7 35 7 79 l0 78 49 62 c59 76 55 93 -5 19z"/>
<path d="M4503 5685 c2 -14 -1 -42 -8 -63 -14 -40 -6 -36 -190 -87 -78 -22
-178 -125 -121 -125 36 0 78 23 73 41 -7 27 11 37 120 70 101 30 143 60 143
102 0 28 27 31 78 10 29 -12 61 -18 85 -15 44 5 60 22 22 22 -40 0 -136 30
-167 51 -35 25 -41 24 -35 -6z"/>
<path d="M6772 5592 c-124 -126 -129 -132 -110 -132 7 0 51 35 97 77 46 43 93
82 105 88 23 11 36 65 16 65 -7 0 -55 -44 -108 -98z"/>
<path d="M6572 5630 c-12 -16 -22 -38 -22 -48 0 -10 -11 -29 -25 -42 -28 -27
-32 -40 -10 -40 15 0 105 126 105 147 0 23 -26 14 -48 -17z"/>
<path d="M3982 5538 c-7 -7 -12 -22 -12 -34 0 -13 -5 -35 -11 -51 -21 -53 -28
-152 -14 -186 7 -18 11 -44 8 -60 -4 -21 -2 -27 12 -27 16 0 17 7 11 69 -6 57
-2 88 19 175 29 117 25 152 -13 114z"/>
<path d="M4490 5491 c0 -5 9 -28 20 -52 11 -24 20 -58 20 -76 0 -17 4 -34 9
-37 5 -3 12 -30 16 -61 10 -83 30 -84 21 0 -9 92 -30 177 -51 208 -17 27 -35
36 -35 18z"/>
<path d="M4685 5458 c-34 -29 -60 -120 -43 -148 14 -22 -15 -125 -39 -139 -19
-10 -23 -133 -5 -139 7 -2 12 6 12 20 0 13 9 55 21 93 25 86 48 176 58 232 4
24 16 52 26 63 29 32 4 47 -30 18z"/>
<path d="M8694 5403 c-11 -102 -11 -97 7 -101 17 -3 38 145 24 168 -15 24 -24
5 -31 -67z"/>
<path d="M6468 5436 c-18 -19 -45 -39 -60 -45 -21 -8 -26 -16 -25 -43 0 -32
-59 -168 -74 -168 -15 0 -109 -162 -123 -212 -21 -76 -32 -227 -15 -211 7 7
12 28 11 47 -1 19 5 42 13 50 8 8 15 25 15 38 0 76 85 265 137 305 18 13 43
43 57 66 13 23 45 69 70 101 65 84 60 143 -6 72z"/>
<path d="M4290 5421 c0 -4 18 -20 40 -35 74 -49 148 -194 121 -238 -7 -11 -10
-22 -7 -25 8 -9 26 7 26 24 0 13 3 13 15 3 8 -7 15 -20 15 -29 0 -9 5 -23 11
-31 11 -16 8 15 -13 125 -13 72 -24 96 -41 89 -7 -2 -27 15 -45 41 -41 58
-122 109 -122 76z"/>
<path d="M4750 5344 c-7 -33 -26 -106 -42 -163 -34 -124 -32 -153 5 -56 35 93
71 255 58 268 -6 6 -14 -13 -21 -49z"/>
<path d="M3601 5338 c-1 -15 -8 -53 -17 -85 -9 -32 -19 -74 -24 -93 -4 -19
-11 -42 -14 -51 -12 -28 132 -198 154 -184 8 5 4 14 -13 29 -102 86 -121 167
-76 324 8 31 9 49 1 65 -10 21 -11 21 -11 -5z"/>
<path d="M8434 5325 c13 -50 23 -143 19 -175 -4 -35 10 -70 22 -58 10 10 -16
200 -32 228 -10 18 -12 20 -9 5z"/>
<path d="M5110 5283 c0 -21 27 -33 75 -33 69 0 213 -18 252 -32 33 -12 67 1
50 19 -8 7 -164 33 -232 38 -22 2 -64 7 -92 11 -32 4 -53 3 -53 -3z"/>
<path d="M5548 5259 c-32 -54 -6 -69 48 -26 41 32 129 30 206 -5 75 -35 93
-67 85 -157 -6 -72 6 -128 16 -81 44 193 -50 301 -250 286 -49 -4 -83 -2 -85
4 -2 5 -11 -4 -20 -21z"/>
<path d="M4099 5103 c12 -23 25 -44 31 -48 5 -3 10 -22 10 -41 0 -19 5 -34 10
-34 6 0 10 6 10 14 0 20 17 24 63 15 36 -6 50 -16 61 -44 5 -15 40 8 44 30 5
22 -14 35 -54 35 -48 0 -125 38 -162 79 l-33 36 20 -42z"/>
<path d="M6886 5119 c-2 -8 -12 -36 -22 -62 -18 -52 -15 -62 27 -72 37 -9 53
96 20 129 -16 16 -21 17 -25 5z"/>
<path d="M5160 4972 c0 -79 -46 -124 -149 -147 -34 -7 -40 -25 -16 -45 13 -10
19 -10 33 2 9 9 40 27 67 41 69 35 107 118 75 167 -7 11 -10 7 -10 -18z"/>
<path d="M2735 4973 c41 -21 39 -19 37 -59 l-3 -35 31 22 c37 28 37 24 -2 60
-21 19 -43 29 -63 29 l-30 -1 30 -16z"/>
<path d="M4812 4963 c-22 -18 -47 -26 -78 -28 -66 -2 -141 -73 -109 -102 4 -5
10 -2 13 5 18 53 64 83 123 81 60 -2 99 16 99 47 0 23 -15 22 -48 -3z"/>
<path d="M5485 4920 c3 -6 14 -10 24 -10 10 0 21 -3 24 -7 10 -10 109 -43 129
-43 24 0 31 -16 17 -38 -13 -21 -4 -62 10 -46 22 24 21 102 -2 108 -143 41
-213 53 -202 36z"/>
<path d="M6750 4849 c-12 -41 -27 -85 -32 -98 -6 -15 -5 -28 1 -34 14 -14 41
10 41 38 0 12 9 47 19 78 16 45 17 59 7 73 -11 15 -16 7 -36 -57z"/>
<path d="M830 4895 c-14 -8 -33 -12 -42 -9 -15 5 -18 -2 -18 -41 l0 -46 50 51
c62 64 65 76 10 45z"/>
<path d="M8616 4808 c-3 -13 -7 -70 -10 -128 -3 -62 -20 -178 -41 -285 -44
-216 -43 -242 14 -299 46 -45 65 -44 26 2 -56 67 -62 108 -30 212 19 60 54
264 64 373 11 112 12 113 105 97 74 -13 146 -8 146 10 0 6 -26 10 -57 10 -32
0 -85 7 -118 15 -82 20 -94 19 -99 -7z"/>
<path d="M4564 4785 c-8 -19 13 -45 36 -45 9 0 22 -12 28 -26 7 -14 17 -22 22
-19 16 10 11 34 -10 47 -11 7 -20 23 -20 35 0 27 -47 33 -56 8z"/>
<path d="M5775 4744 c-4 -10 -19 -47 -36 -82 -33 -72 -34 -79 -14 -102 8 -9
21 -34 29 -56 12 -33 15 -36 22 -20 4 11 2 32 -6 50 -19 44 -16 83 10 149 17
43 20 61 12 69 -8 8 -13 6 -17 -8z"/>
<path d="M713 4558 c-22 -47 -40 -173 -23 -163 6 3 10 14 10 24 0 10 10 27 23
39 18 17 21 29 19 71 -4 55 -13 64 -29 29z"/>
<path d="M990 4522 c0 -7 14 -48 31 -92 24 -62 28 -83 20 -99 -15 -28 -14 -51
4 -51 32 0 38 38 16 108 -20 65 -70 160 -71 134z"/>
<path d="M5746 4408 c-9 -21 -16 -42 -16 -47 0 -11 -99 -101 -111 -101 -5 0
-9 -4 -9 -10 0 -5 16 -10 35 -10 22 0 35 5 35 13 0 7 16 28 35 47 19 19 35 41
35 49 0 8 7 23 17 33 12 14 14 23 6 40 -11 22 -11 22 -27 -14z"/>
<path d="M5299 4410 c-13 -18 -19 -19 -86 -9 -90 14 -129 3 -63 -17 71 -22
170 -9 170 22 0 29 -4 30 -21 4z"/>
<path d="M4575 4369 c-4 -6 2 -21 14 -33 12 -12 21 -30 21 -39 0 -9 5 -17 10
-17 6 0 10 13 10 30 0 17 7 33 18 39 15 9 15 12 2 21 -20 13 -67 13 -75 -1z"/>
<path d="M1310 4326 c0 -9 8 -16 17 -16 9 0 46 -16 82 -36 79 -44 139 -66 146
-55 5 10 -57 61 -75 61 -6 0 -32 11 -58 24 -66 33 -112 42 -112 22z"/>
<path d="M5327 4313 c-12 -12 -7 -22 13 -28 22 -7 27 -34 9 -52 -7 -7 -6 -15
5 -26 21 -21 20 -24 -10 -31 -33 -9 -26 -28 15 -40 37 -11 59 7 39 32 -6 7
-12 37 -12 66 -1 65 -32 107 -59 79z"/>
<path d="M4230 4298 c-58 -16 -64 -28 -37 -79 25 -47 52 -57 71 -26 9 15 6 21
-14 37 -26 20 -24 26 12 44 52 26 32 42 -32 24z"/>
<path d="M5126 4262 c-10 -16 10 -67 27 -70 24 -5 44 42 27 63 -13 16 -46 20
-54 7z"/>
<path d="M6468 4219 c-16 -31 -28 -67 -28 -80 0 -13 -10 -40 -21 -59 -23 -37
-41 -136 -30 -158 11 -20 33 11 36 51 4 47 24 115 52 174 16 34 23 66 21 90
l-3 38 -27 -56z"/>
<path d="M1077 4223 c-14 -13 -6 -36 20 -56 55 -44 123 -71 123 -49 -1 23 -14
51 -22 46 -16 -10 -69 18 -79 43 -8 22 -29 30 -42 16z"/>
<path d="M621 4162 c-26 -22 -32 -33 -29 -57 l3 -30 18 32 c11 22 28 35 50 41
17 4 33 16 35 25 5 27 -39 21 -77 -11z"/>
<path d="M174 4160 c-156 -17 -174 -21 -174 -40 0 -12 12 -22 33 -29 43 -15
163 -94 209 -139 54 -52 68 -29 17 26 -22 23 -44 42 -49 42 -4 0 -21 11 -37
24 -15 13 -39 27 -53 31 -82 25 -61 40 80 55 107 12 118 15 98 27 -25 14 -23
13 -124 3z"/>
<path d="M5025 4150 c-4 -6 1 -22 10 -36 24 -36 16 -88 -13 -92 -30 -4 -23
-23 12 -35 36 -12 36 -11 41 68 2 37 7 70 10 73 3 3 0 11 -6 19 -14 16 -45 17
-54 3z"/>
<path d="M4266 4116 c-36 -19 -84 -37 -106 -41 -29 -5 -57 -21 -91 -51 -56
-50 -59 -51 -194 -59 -210 -13 -412 -43 -442 -68 -27 -20 -11 -25 40 -11 106
29 146 35 317 43 273 14 314 20 295 41 -20 23 -6 35 66 56 29 9 69 29 88 45
20 16 47 29 61 29 32 0 66 23 56 38 -10 17 -18 15 -90 -22z"/>
<path d="M4368 4097 c-25 -24 -59 -49 -76 -56 -33 -14 -44 -41 -17 -41 31 0
160 95 160 118 0 29 -23 22 -67 -21z"/>
<path d="M1580 4073 c-30 -18 -56 -38 -58 -43 -5 -13 54 -13 76 -1 10 5 65 12
122 15 136 8 160 14 189 42 13 13 20 24 14 24 -5 0 -14 -5 -19 -10 -19 -19
-231 -25 -252 -8 -15 13 -22 11 -72 -19z"/>
<path d="M875 4080 c-4 -6 -1 -17 5 -25 14 -17 56 -20 65 -5 9 14 37 12 73 -6
59 -29 94 -15 44 19 -44 29 -173 40 -187 17z"/>
<path d="M575 4060 c-3 -5 -15 -10 -26 -10 -10 0 -19 -4 -19 -10 0 -5 8 -10
19 -10 23 0 51 -77 54 -151 2 -38 6 -51 20 -55 28 -9 32 3 18 54 -8 26 -17 72
-21 102 -12 81 -27 109 -45 80z"/>
<path d="M4724 4040 c-48 -21 -62 -38 -39 -46 18 -7 77 21 102 49 22 24 -6 23
-63 -3z"/>
<path d="M1930 4042 c0 -7 12 -14 28 -18 15 -3 41 -10 57 -15 37 -11 108 1
150 25 l30 17 -30 -7 c-39 -8 -84 -8 -167 1 -48 6 -68 4 -68 -3z"/>
<path d="M716 4031 c-4 -5 -2 -29 4 -53 5 -24 10 -64 10 -90 0 -50 12 -67 34
-48 8 6 26 8 41 4 31 -8 45 6 45 46 0 16 8 29 22 35 25 11 36 35 16 35 -20 -1
-62 -41 -76 -72 -15 -35 -32 -36 -32 -3 0 14 -6 28 -14 31 -11 4 -14 21 -13
62 2 55 -18 84 -37 53z"/>
<path d="M5570 4024 c0 -29 179 -70 195 -45 7 12 -13 17 -88 26 -31 3 -63 13
-71 21 -19 18 -36 18 -36 -2z"/>
<path d="M5338 4013 c-29 -7 -21 -33 13 -40 17 -3 33 -12 36 -19 8 -21 20 -17
26 8 11 40 -25 64 -75 51z"/>
<path d="M4541 3934 c33 -39 130 -59 157 -32 22 22 12 29 -40 27 -29 -1 -66 4
-81 10 -40 16 -52 14 -36 -5z"/>
<path d="M2311 3908 c-16 -25 6 -48 44 -48 12 0 30 -9 40 -20 23 -25 37 -25
59 -1 18 20 2 31 -49 31 -10 0 -33 13 -50 30 l-30 30 -14 -22z"/>
<path d="M5232 3908 c3 -20 10 -22 75 -24 117 -4 104 28 -15 40 -61 6 -63 5
-60 -16z"/>
<path d="M333 3852 c14 -15 37 -47 50 -72 24 -46 49 -59 55 -27 2 9 -1 17 -7
17 -15 0 -58 49 -72 82 -7 18 -19 28 -32 28 -20 0 -19 -2 6 -28z"/>
<path d="M3221 3844 c-19 -13 -43 -24 -53 -24 -26 0 -98 -42 -98 -57 0 -18 5
-17 59 12 25 13 72 36 105 51 41 19 54 29 45 35 -18 11 -18 11 -58 -17z"/>
<path d="M120 3854 c0 -11 72 -114 80 -114 23 0 18 25 -15 70 -31 42 -65 65
-65 44z"/>
<path d="M734 3769 c-8 -14 2 -22 49 -38 43 -14 67 -3 67 30 0 22 -8 23 -46 9
-19 -8 -30 -8 -38 0 -13 13 -23 13 -32 -1z"/>
<path d="M4294 3702 c-75 -114 -97 -166 -135 -312 -22 -87 -40 -490 -22 -490
6 0 12 70 16 183 9 311 58 489 167 607 38 41 43 60 17 60 -7 0 -26 -22 -43
-48z"/>
<path d="M2450 3716 c0 -9 7 -28 16 -41 9 -14 14 -36 11 -50 -9 -49 29 -128
48 -101 13 17 7 52 -16 98 -15 29 -10 66 8 77 23 12 17 18 -29 26 -31 6 -38 4
-38 -9z"/>
<path d="M8727 3723 c-4 -3 -7 -14 -7 -23 0 -9 -14 -35 -31 -58 -35 -48 -34
-57 4 -43 31 12 71 83 62 112 -7 20 -17 24 -28 12z"/>
<path d="M1146 3685 c-9 -13 -16 -29 -16 -34 0 -17 -41 -39 -62 -33 -14 3 -26
-2 -38 -19 -16 -20 -21 -22 -45 -11 -45 21 -87 16 -83 -10 4 -31 81 -35 144
-8 25 11 56 20 68 20 27 0 76 64 76 98 0 29 -24 28 -44 -3z"/>
<path d="M3238 3653 c-27 -15 -51 -37 -58 -54 -7 -15 -21 -36 -32 -46 -21 -19
-58 -84 -58 -103 0 -40 95 62 126 135 8 19 21 35 29 35 28 0 65 24 65 42 0 24
-16 22 -72 -9z"/>
<path d="M665 3637 c-5 -17 -3 -33 4 -40 6 -6 11 -21 11 -33 0 -13 5 -26 10
-29 6 -3 10 -21 10 -40 0 -32 14 -54 27 -41 3 3 1 25 -5 48 -6 24 -14 62 -17
85 -9 60 -31 88 -40 50z"/>
<path d="M774 3609 c3 -17 12 -45 20 -62 8 -18 16 -41 18 -52 4 -22 26 -30 47
-16 20 13 -55 161 -81 161 -6 0 -8 -13 -4 -31z"/>
<path d="M1127 3504 c-11 -12 -8 -75 7 -150 19 -91 37 -224 34 -248 -2 -14 5
-21 22 -26 19 -4 27 -16 35 -50 l12 -45 7 43 c5 29 3 59 -8 95 -8 28 -17 81
-18 117 -3 48 -10 74 -26 97 -12 18 -30 64 -40 103 -10 39 -21 68 -25 64z"/>
<path d="M4737 3482 c-15 -15 -27 -32 -27 -37 0 -5 -7 -16 -15 -25 -24 -27
-56 -170 -37 -170 7 0 53 135 52 154 0 6 18 31 41 58 43 51 32 68 -14 20z"/>
<path d="M9530 3471 c-30 -10 -84 -24 -120 -30 -94 -18 -242 -69 -275 -95 -35
-28 -31 -52 5 -31 79 46 230 93 325 102 33 4 65 12 72 19 41 41 210 29 311
-22 42 -22 88 -41 102 -44 17 -4 26 -13 28 -30 6 -44 22 -47 22 -5 l0 40 -108
54 c-128 66 -252 80 -362 42z"/>
<path d="M2540 3450 c0 -19 10 -40 30 -60 19 -20 30 -41 30 -60 0 -21 9 -36
34 -55 20 -15 40 -42 47 -63 18 -55 31 -69 41 -41 11 30 2 54 -27 73 -14 9
-25 24 -25 33 0 9 -18 38 -40 64 -24 29 -40 58 -40 73 0 22 -30 66 -45 66 -3
0 -5 -13 -5 -30z"/>
<path d="M8632 3420 c-11 -20 -25 -30 -40 -30 -28 0 -62 -17 -62 -30 0 -15 46
-12 85 4 36 15 71 59 60 76 -11 18 -25 11 -43 -20z"/>
<path d="M3050 3368 c1 -23 41 -232 46 -237 8 -7 -4 167 -15 205 -5 22 -31 48
-31 32z"/>
<path d="M9073 3270 c-12 -12 -34 -51 -49 -86 -26 -63 -33 -68 -79 -65 -18 1
-17 -1 8 -24 39 -35 37 -37 95 76 54 102 63 141 25 99z"/>
<path d="M2828 3218 c-65 -71 -73 -78 -90 -78 -14 0 -18 -8 -18 -35 0 -25 4
-33 14 -29 13 5 134 136 150 162 16 26 -27 11 -56 -20z"/>
<path d="M5995 3221 c-3 -5 -1 -12 5 -16 12 -7 13 -94 2 -112 -21 -33 -117
-51 -143 -27 -16 14 -18 14 -28 -5 -6 -11 -7 -22 -2 -25 7 -5 156 11 189 20
19 5 17 174 -2 174 -8 0 -17 -4 -21 -9z"/>
<path d="M3486 3108 c-4 -62 -9 -130 -12 -150 -4 -24 -2 -38 5 -38 7 0 11 21
11 51 0 28 5 60 11 71 15 28 17 154 3 168 -9 9 -13 -17 -18 -102z"/>
<path d="M4416 3205 c-3 -8 -3 -21 0 -29 5 -12 -9 -84 -51 -263 -18 -73 -20
-127 -5 -102 12 21 80 342 80 380 0 31 -14 39 -24 14z"/>
<path d="M8367 3154 c-13 -13 -7 -22 29 -43 40 -24 65 -26 82 -9 9 9 21 8 53
-1 34 -10 43 -10 50 1 19 30 9 37 -68 43 -32 3 -76 8 -99 11 -22 2 -43 1 -47
-2z"/>
<path d="M8630 3086 c0 -25 16 -36 56 -36 29 0 64 -16 64 -29 0 -19 -30 -19
-65 0 -41 22 -88 18 -64 -7 16 -15 260 -67 293 -62 50 7 24 41 -54 69 -41 15
-108 41 -149 58 -88 37 -81 36 -81 7z"/>
<path d="M5622 3065 c-9 -11 -36 -15 -99 -15 -110 0 -103 -7 22 -20 105 -11
118 -8 109 28 -7 25 -14 27 -32 7z"/>
<path d="M8352 3048 c-38 -38 65 -62 126 -29 28 15 29 25 1 18 -11 -3 -42 0
-69 7 -30 8 -53 9 -58 4z"/>
<path d="M9216 3005 c-8 -21 109 -66 133 -51 4 3 32 -4 60 -15 41 -15 56 -17
67 -8 23 19 16 28 -23 34 -21 4 -74 17 -119 31 -93 28 -110 29 -118 9z"/>
<path d="M8500 2956 c0 -7 68 -36 86 -36 12 0 54 -25 108 -63 17 -12 18 -17 6
-66 -7 -29 -14 -74 -16 -100 -2 -25 -6 -65 -10 -88 -3 -26 -2 -43 4 -43 5 0
12 21 16 48 12 93 34 227 41 248 5 17 -4 25 -71 59 -69 34 -164 58 -164 41z"/>
<path d="M511 2920 c-1 -14 8 -40 19 -58 11 -18 20 -40 20 -50 0 -26 36 -116
49 -120 20 -7 11 39 -22 111 -19 40 -41 88 -50 107 -14 32 -16 33 -16 10z"/>
<path d="M1237 2893 c-13 -12 -7 -61 8 -73 11 -9 14 -22 10 -40 -4 -18 -1 -31
10 -40 11 -9 14 -22 10 -37 -3 -13 1 -36 9 -51 9 -19 11 -34 4 -51 -6 -18 -5
-29 6 -40 24 -23 30 8 18 82 -45 263 -49 277 -75 250z"/>
<path d="M8825 2871 l-40 -6 -7 -75 c-3 -41 -9 -97 -13 -123 -3 -30 -2 -46 3
-43 10 6 15 29 30 132 10 66 24 82 75 86 29 2 42 8 42 18 0 17 -30 21 -90 11z"/>
<path d="M4150 2851 c0 -22 13 -33 63 -50 50 -17 60 -5 22 25 -46 36 -85 48
-85 25z"/>
<path d="M4465 2771 c-26 -5 -30 -11 -32 -41 -1 -19 -5 -45 -9 -57 -5 -17 -2
-23 9 -23 19 0 28 13 37 54 6 33 36 44 34 14 -1 -12 5 -18 18 -18 15 0 18 3
10 13 -5 6 -12 23 -14 36 -3 28 -11 31 -53 22z"/>
<path d="M2987 2694 c-9 -9 -9 -168 0 -177 20 -20 31 18 26 86 -6 74 -14 103
-26 91z"/>
<path d="M8393 2572 c4 -93 2 -88 42 -98 l30 -7 -25 27 c-20 22 -25 39 -26 82
0 30 -6 60 -13 67 -9 9 -11 -7 -8 -71z"/>
<path d="M1950 2617 c0 -13 6 -43 14 -68 8 -24 17 -56 20 -72 6 -25 40 -31 64
-12 6 5 -82 175 -90 175 -5 0 -8 -10 -8 -23z"/>
<path d="M8750 2570 c-5 -19 -12 -62 -14 -95 -3 -33 -3 -51 0 -40 20 69 57
132 84 142 44 16 36 30 -15 29 -43 -1 -46 -3 -55 -36z"/>
<path d="M6400 2529 c0 -6 13 -29 29 -52 40 -56 43 -79 12 -87 -36 -8 -36 -25
-1 -50 37 -26 65 -20 56 13 -3 12 -6 45 -6 72 -1 47 -4 52 -46 82 -24 18 -44
28 -44 22z"/>
<path d="M8662 2528 c-6 -8 -12 -36 -14 -63 -2 -40 -7 -52 -26 -61 l-23 -11
31 -27 c39 -33 50 -27 43 24 -3 21 0 60 6 86 12 49 3 76 -17 52z"/>
<path d="M4265 2510 c-3 -5 0 -29 6 -52 7 -24 11 -49 10 -56 -3 -19 17 -147
39 -242 l19 -85 -4 85 c-4 99 -23 227 -36 252 -5 9 -9 37 -9 62 0 43 -11 59
-25 36z"/>
<path d="M4713 2492 c-18 -24 -20 -36 -13 -67 19 -85 55 -67 55 27 0 70 -12
81 -42 40z"/>
<path d="M4433 2438 c-24 -31 -46 -109 -34 -121 14 -14 31 6 31 39 0 11 7 29
15 40 26 34 14 75 -12 42z"/>
<path d="M2070 2428 c0 -17 31 -63 58 -89 15 -14 22 -32 22 -59 0 -21 5 -42
10 -45 6 -3 10 4 10 18 0 14 2 37 5 53 5 24 -2 38 -42 82 -49 53 -63 62 -63
40z"/>
<path d="M4980 2359 l0 -81 43 7 c53 9 57 14 30 32 -13 9 -23 20 -23 27 0 18
-34 96 -42 96 -5 0 -8 -36 -8 -81z"/>
<path d="M1975 2420 c-8 -12 2 -100 15 -145 10 -31 13 -59 25 -225 9 -113 18
-139 35 -95 9 22 9 38 1 61 -6 17 -11 49 -11 72 0 22 -5 53 -11 68 -5 16 -12
62 -13 104 -2 41 -7 83 -11 93 -4 9 -5 24 -1 32 11 30 -14 60 -29 35z"/>
<path d="M6678 2409 c18 -12 52 -22 75 -24 23 -1 71 -10 107 -20 96 -26 380
-11 333 18 -6 4 -39 1 -74 -5 -72 -12 -302 5 -355 27 -17 7 -51 16 -75 19
l-44 7 33 -22z"/>
<path d="M5179 2398 c0 -7 0 -112 1 -234 1 -245 -4 -271 -50 -280 -30 -7 -58
-30 -47 -41 8 -7 98 15 114 29 21 17 18 538 -2 538 -8 0 -15 -6 -16 -12z"/>
<path d="M7308 2378 c6 -6 33 -15 59 -19 27 -3 93 -16 147 -28 89 -19 154 -37
421 -117 85 -25 132 -32 105 -14 -8 5 -40 17 -70 26 -30 9 -86 27 -125 40 -38
13 -137 39 -220 58 -82 20 -176 43 -207 51 -72 19 -127 20 -110 3z"/>
<path d="M3705 2364 c-99 -13 -214 -48 -215 -65 0 -22 56 -19 75 4 18 22 31
25 170 36 152 13 165 15 165 32 0 12 -59 10 -195 -7z"/>
<path d="M4600 2332 c0 -14 42 -30 98 -37 51 -6 52 -5 52 20 0 29 -7 31 -32 8
-19 -17 -21 -17 -50 0 -31 18 -68 23 -68 9z"/>
<path d="M9830 2329 c-14 -6 -45 -20 -69 -32 -100 -50 -293 -419 -244 -468 8
-8 13 2 18 33 8 54 81 206 132 275 21 29 50 70 64 91 17 25 50 50 95 75 63 33
65 50 4 26z"/>
<path d="M1307 2213 c-9 -17 6 -253 17 -271 18 -29 28 -10 22 46 -3 31 -8 96
-12 145 -5 77 -14 103 -27 80z"/>
<path d="M8174 2169 c-10 -16 219 -149 258 -149 24 0 -16 28 -114 80 -53 28
-102 57 -108 65 -15 18 -26 19 -36 4z"/>
<path d="M2310 2102 c0 -40 30 -87 73 -117 62 -41 66 -21 9 41 -21 22 -44 55
-51 72 -16 39 -31 41 -31 4z"/>
<path d="M1330 1885 c-10 -12 -10 -18 1 -31 7 -9 12 -33 11 -55 -2 -21 4 -49
12 -61 8 -14 17 -64 21 -123 8 -108 21 -151 36 -122 6 9 6 33 0 59 -5 24 -12
79 -16 122 -4 44 -13 100 -21 125 -7 24 -11 48 -8 53 17 28 -15 58 -36 33z"/>
<path d="M4344 1850 c2 -25 10 -127 17 -227 7 -100 16 -180 21 -177 13 8 -18
407 -34 434 -6 10 -7 -1 -4 -30z"/>
<path d="M2480 1839 c0 -8 11 -30 25 -49 14 -19 25 -42 25 -52 0 -10 9 -26 20
-35 11 -10 20 -27 20 -39 0 -11 9 -29 20 -39 25 -22 29 0 5 31 -8 10 -15 31
-15 46 0 15 -5 30 -10 33 -6 4 -16 21 -24 38 -16 39 -66 88 -66 66z"/>
<path d="M1864 1594 c-17 -41 -10 -66 20 -72 13 -3 16 6 16 47 0 63 -16 74
-36 25z"/>
<path d="M2065 1509 c8 -113 8 -114 25 -104 8 5 10 21 6 44 -3 20 -7 63 -8 95
-2 39 -8 61 -16 64 -11 3 -12 -15 -7 -99z"/>
<path d="M2620 1580 c0 -15 95 -212 127 -262 12 -21 23 -43 23 -50 0 -18 71
-160 77 -154 6 6 -21 82 -59 166 -27 57 -38 81 -76 157 -5 10 -22 44 -38 76
-30 60 -54 90 -54 67z"/>
<path d="M1407 1433 c-11 -11 -8 -65 7 -107 l13 -39 7 66 c9 76 -2 106 -27 80z"/>
<path d="M5790 1354 c-74 -7 -151 -13 -170 -12 -58 2 -80 -2 -80 -12 0 -9 106
-8 285 5 122 8 157 14 150 26 -7 11 -10 11 -185 -7z"/>
<path d="M5310 1331 c-56 -10 -13 -20 86 -20 91 0 116 5 93 20 -16 10 -125 10
-179 0z"/>
<path d="M1430 1230 c0 -12 5 -30 10 -41 13 -23 23 -90 21 -141 -1 -28 3 -38
14 -38 20 0 20 -3 -13 194 -7 42 -32 62 -32 26z"/>
<path d="M4786 1222 c-20 -33 497 -59 644 -33 l45 8 -45 2 c-439 16 -552 21
-591 27 -29 4 -49 2 -53 -4z"/>
<path d="M6075 1118 c-38 -5 -89 -11 -112 -14 -74 -9 -51 -28 25 -20 37 4 94
9 127 12 83 7 107 13 100 24 -7 11 -41 11 -140 -2z"/>
<path d="M3940 1065 c-103 -54 -284 -56 -367 -4 -23 14 -44 6 -27 -11 63 -63
250 -79 364 -31 128 55 189 27 190 -86 1 -26 2 -27 14 -10 57 75 -84 190 -174
142z"/>
<path d="M2855 1060 c-4 -6 -2 -17 4 -23 6 -6 11 -20 11 -32 0 -11 6 -29 14
-40 7 -11 19 -37 25 -57 14 -44 37 -53 26 -10 -22 87 -68 181 -80 162z"/>
<path d="M4852 1059 c-19 -7 310 -20 463 -18 55 0 110 -3 123 -6 20 -7 28 1
20 21 -4 8 -584 11 -606 3z"/>
<path d="M6940 964 c0 -32 -33 -119 -49 -128 -12 -8 -61 -110 -61 -126 0 -21
14 -2 52 71 19 37 47 82 62 101 29 39 33 65 11 94 -14 18 -14 17 -15 -12z"/>
<path d="M2234 915 c-19 -12 -108 -42 -201 -65 -38 -9 -92 -41 -118 -70 -29
-32 -13 -32 35 0 44 29 179 80 211 80 9 0 28 9 42 20 14 11 37 20 51 20 16 0
26 6 26 15 0 19 -20 19 -46 0z"/>
<path d="M3000 860 l-35 -18 28 -7 c22 -6 26 -11 22 -29 -4 -11 -9 -28 -11
-38 -7 -23 15 -34 22 -11 3 10 14 37 25 61 31 68 19 78 -51 42z"/>
<path d="M3151 805 c37 -37 259 -40 259 -4 0 6 -7 6 -19 -1 -27 -14 -86 -12
-151 5 -76 20 -110 20 -89 0z"/>
<path d="M1795 705 c-83 -53 -155 -72 -214 -58 -30 8 -43 8 -51 -2 -12 -15 -3
-26 16 -18 8 3 23 -2 34 -12 12 -11 26 -14 40 -10 12 4 32 8 43 10 56 7 170
69 211 114 32 35 -2 25 -79 -24z"/>
<path d="M3955 715 c-130 -74 -245 -127 -286 -132 -78 -9 -223 -46 -249 -63
-25 -17 -97 -44 -159 -60 -42 -11 -64 -30 -34 -30 31 0 203 59 233 80 14 9 48
20 75 24 179 24 236 42 377 124 41 23 122 93 108 92 -3 0 -32 -16 -65 -35z"/>
<path d="M3304 570 c-48 -21 -61 -37 -45 -53 8 -8 19 -5 41 11 16 12 36 22 43
22 18 0 39 24 30 33 -10 10 -24 8 -69 -13z"/>
<path d="M8397 538 c-15 -13 -27 -31 -27 -41 0 -20 16 -23 23 -4 17 46 107
-32 107 -92 0 -21 24 -6 34 21 10 29 -15 73 -49 84 -11 3 -29 17 -40 31 l-20
24 -28 -23z"/>
<path d="M8195 322 c-6 -5 -35 -14 -65 -20 -48 -11 -206 -47 -756 -178 -164
-39 -194 -49 -194 -66 0 -7 -3 -23 -6 -35 -8 -29 22 -32 31 -4 7 23 50 38 225
79 320 76 640 153 694 169 56 16 59 16 71 -1 13 -17 15 -16 30 13 21 41 0 70
-30 43z"/>
<path d="M6212 273 c-68 -122 103 -263 328 -268 69 -2 107 -1 85 1 -234 24
-378 121 -397 264 l-3 25 -13 -22z"/>
<path d="M8542 175 c-1 -79 12 -100 24 -39 6 32 9 35 31 29 28 -7 28 -6 -6 48
-36 58 -49 49 -49 -38z"/>
<path d="M6923 230 c-50 -20 -27 -39 27 -22 75 24 169 -25 184 -95 14 -62
-113 -81 -193 -28 -40 27 -61 29 -46 5 40 -64 190 -74 253 -17 85 78 -101 207
-225 157z"/>
<path d="M8201 180 c-1 -58 14 -80 86 -121 96 -55 104 -59 127 -59 22 1 88 28
71 29 -176 18 -257 63 -274 151 l-9 45 -1 -45z"/>
<path d="M8671 113 c53 -71 104 -113 139 -113 31 1 33 2 15 12 -11 6 -50 35
-86 65 -68 54 -92 67 -68 36z"/>
</g>
</svg>
