<?xml version="1.0" standalone="no"?>
<!DOCTYPE svg PUBLIC "-//W3C//DTD SVG 20010904//EN"
 "http://www.w3.org/TR/2001/REC-SVG-20010904/DTD/svg10.dtd">
<svg version="1.0" xmlns="http://www.w3.org/2000/svg"
 width="1000.000000pt" height="759.000000pt" viewBox="0 0 1000.000000 759.000000"
 preserveAspectRatio="xMidYMid meet">
<metadata>
Created by potrace 1.16, written by Peter Selinger 2001-2019
</metadata>
<g transform="translate(0.000000,759.000000) scale(0.100000,-0.100000)"
fill="currentColor" stroke="none">
<path d="M4464 7380 c-64 -20 -124 -181 -124 -334 0 -102 111 -114 155 -17 18
40 23 44 80 55 29 6 31 4 45 -41 27 -84 162 -119 262 -67 27 14 33 14 71 -5
47 -23 158 -20 206 4 21 10 31 9 65 -6 54 -24 106 -24 166 2 45 19 50 20 72 5
80 -56 169 49 107 128 -11 14 -15 26 -9 26 6 0 22 11 35 25 53 52 14 140 -59
133 -26 -3 -31 1 -38 30 -24 92 -192 94 -259 2 l-23 -31 -91 7 c-80 6 -96 4
-132 -14 -36 -19 -42 -19 -61 -6 -27 19 -161 30 -200 16 -29 -10 -32 -9 -51
24 -32 53 -143 86 -217 64z m980 -40 c61 -23 26 -80 -36 -59 -75 24 -105 -35
-38 -77 78 -50 90 -91 47 -155 -50 -75 -207 -77 -207 -3 0 34 17 39 62 18 72
-32 135 32 71 72 -150 94 -64 267 101 204z m-845 -10 c117 -33 40 -209 -91
-210 -48 0 -48 0 -48 -34 0 -52 -16 -85 -45 -92 -40 -10 -50 7 -36 58 7 24 21
92 32 153 11 60 25 115 31 122 13 16 108 17 157 3z m231 -82 c15 -10 22 -10
32 0 38 38 63 7 43 -55 -8 -26 -18 -79 -23 -117 -8 -80 -27 -102 -61 -72 -18
16 -21 16 -51 1 -67 -34 -110 -2 -110 82 1 119 95 208 170 161z m278 0 c9 -9
17 -9 36 2 39 20 84 -21 47 -44 -8 -5 -37 -154 -33 -169 10 -34 -31 -56 -59
-31 -16 14 -20 14 -49 -1 -87 -45 -144 54 -96 168 28 68 118 111 154 75z m470
0 c26 -26 0 -88 -38 -88 -40 0 -53 47 -20 80 23 23 41 25 58 8z m-30 -170 c26
-26 0 -88 -38 -88 -38 0 -51 40 -24 78 17 24 43 29 62 10z"/>
<path d="M4496 7278 c-31 -108 -30 -123 7 -113 53 15 87 48 87 85 0 32 -86 57
-94 28z"/>
<path d="M4756 7185 c-39 -40 -42 -126 -4 -133 36 -7 100 107 76 135 -14 18
-53 16 -72 -2z"/>
<path d="M5032 7182 c-27 -27 -39 -99 -20 -119 34 -33 90 23 92 94 1 46 -38
59 -72 25z"/>
<path d="M7603 7370 c-81 -36 -111 -145 -58 -208 30 -36 32 -52 5 -52 -27 0
-70 -43 -70 -70 0 -83 128 -116 229 -58 l38 22 34 -25 c40 -28 166 -31 223 -4
29 14 35 14 71 -5 41 -21 148 -20 205 1 19 7 36 5 63 -6 53 -22 107 -19 161
10 l46 25 33 -20 c91 -56 179 42 109 123 -15 16 3 45 29 47 3 0 11 11 17 25
36 78 -28 136 -110 100 -15 -6 -18 -2 -18 23 0 106 -181 124 -257 26 l-26 -35
-87 7 c-80 6 -92 5 -124 -15 -33 -21 -36 -21 -60 -6 -38 25 -173 32 -214 11
-41 -21 -42 -21 -42 10 0 81 -99 119 -197 74z m140 -29 c65 -25 33 -83 -33
-61 -92 30 -111 -45 -23 -87 88 -42 61 -164 -43 -193 -73 -21 -134 0 -134 46
0 34 17 39 62 18 92 -41 126 32 43 94 -118 89 -14 237 128 183z m810 0 c65
-25 33 -83 -33 -61 -83 27 -108 -36 -31 -79 118 -65 64 -205 -80 -206 -76 0
-106 27 -76 69 12 17 15 17 51 0 89 -43 123 32 41 94 -118 89 -15 237 128 183z
m-605 -93 c9 -9 18 -9 37 0 44 20 58 16 51 -15 -3 -16 -13 -74 -23 -131 -19
-109 -38 -136 -68 -95 -13 17 -15 17 -43 1 -72 -43 -112 -13 -112 83 0 120 98
217 158 157z m279 1 c9 -9 20 -9 43 1 45 18 56 3 41 -52 -7 -24 -18 -76 -25
-117 -14 -84 -36 -111 -62 -76 -14 18 -15 18 -43 2 -96 -57 -152 46 -96 179
23 56 111 94 142 63z m474 1 c23 -13 24 -38 3 -68 -33 -47 -100 -11 -73 41 20
37 37 44 70 27z m-26 -176 c18 -18 12 -52 -13 -71 -50 -40 -98 21 -52 67 24
24 43 25 65 4z"/>
<path d="M7875 7180 c-25 -27 -33 -117 -12 -126 36 -13 97 54 97 107 0 42 -53
54 -85 19z"/>
<path d="M8155 7180 c-26 -28 -33 -117 -10 -126 38 -15 109 85 92 130 -9 23
-60 20 -82 -4z"/>
<path d="M2084 7332 c-23 -11 -51 -34 -63 -51 l-23 -32 -82 7 c-72 6 -87 4
-124 -15 -38 -20 -44 -20 -65 -6 -35 23 -164 30 -207 12 l-34 -15 -16 46 c-26
79 -106 85 -143 10 -34 -70 -69 -283 -53 -323 20 -46 57 -56 109 -27 l39 21
30 -22 c37 -27 185 -28 226 -1 21 14 27 13 65 -5 44 -21 168 -21 210 1 12 6
32 4 63 -8 53 -20 119 -14 174 17 l38 22 28 -22 c79 -62 175 34 113 114 -21
26 -16 44 13 45 4 0 15 14 23 31 35 66 -18 130 -91 110 -33 -9 -33 -9 -36 26
-6 70 -109 104 -194 65z m-652 -62 c-1 -19 -9 -60 -16 -90 -8 -30 -19 -88 -26
-128 -13 -78 -30 -105 -64 -100 -16 2 -21 9 -19 33 1 26 48 275 59 313 10 34
69 9 66 -28z m791 31 c65 -25 33 -83 -33 -61 -86 28 -110 -32 -32 -80 77 -47
88 -119 26 -171 -79 -66 -233 -36 -181 35 12 17 15 17 51 0 89 -43 123 32 41
94 -118 89 -14 237 128 183z m-282 -90 c44 17 55 2 40 -53 -7 -24 -18 -76 -25
-117 -14 -84 -36 -111 -61 -77 -14 19 -16 19 -48 1 -77 -41 -127 10 -110 112
19 106 94 174 151 137 20 -13 29 -14 53 -3z m-321 -3 c16 -10 24 -10 40 0 44
27 65 8 45 -43 -7 -16 -18 -61 -24 -100 -19 -111 -20 -115 -38 -115 -9 0 -21
8 -28 17 -12 16 -15 16 -49 -2 -72 -39 -121 8 -110 105 12 111 95 181 164 138z
m751 2 c23 -13 24 -38 3 -68 -32 -46 -93 -16 -72 37 15 40 35 49 69 31z m-26
-174 c28 -20 -2 -86 -38 -86 -47 0 -62 45 -27 80 24 24 39 25 65 6z"/>
<path d="M1825 7140 c-26 -28 -33 -117 -10 -126 39 -15 109 84 92 129 -9 24
-60 22 -82 -3z"/>
<path d="M1544 7135 c-25 -38 -31 -113 -9 -121 43 -17 123 112 84 137 -26 16
-58 10 -75 -16z"/>
<path d="M4041 6772 c-34 -34 -46 -179 -19 -237 20 -44 24 -28 27 97 3 143 -3
132 63 129 108 -4 133 -151 26 -151 -35 0 -41 -14 -30 -65 l8 -40 17 31 c25
49 45 50 63 4 25 -62 29 -50 33 97 1 76 5 141 7 145 3 4 -8 7 -23 7 -15 -1
-54 2 -85 6 -54 7 -58 6 -87 -23z"/>
<path d="M4608 6780 c-14 -11 -38 -20 -53 -20 -23 0 -25 -3 -19 -22 16 -52 84
-49 84 4 0 23 35 41 71 36 18 -3 28 0 26 6 -7 21 -81 18 -109 -4z"/>
<path d="M7509 6769 c-27 -29 -34 -31 -105 -33 -60 -2 -80 -6 -90 -20 -10 -15
-21 -17 -54 -11 -49 8 -55 -19 -10 -42 94 -46 74 -141 -31 -153 -54 -6 -54 -6
-26 -20 23 -11 36 -11 76 -1 39 10 58 10 89 0 32 -9 53 -9 100 1 l60 14 6 67
c5 43 3 76 -4 89 -14 26 10 101 36 111 58 23 90 -11 42 -43 -20 -13 -21 -17
-9 -32 12 -14 12 -19 -1 -34 -21 -24 -13 -159 8 -141 12 9 20 7 40 -12 31 -29
278 -31 322 -3 18 12 27 13 37 4 23 -19 86 -30 135 -24 l45 6 0 106 0 107 50
0 c61 0 74 -25 26 -50 -30 -15 -31 -17 -31 -88 l1 -72 19 23 20 24 30 -26 c36
-30 88 -42 126 -29 48 16 36 28 -26 28 -78 1 -95 16 -95 90 0 91 75 139 133
85 53 -50 32 -107 -34 -94 -40 7 -60 -2 -44 -21 27 -33 119 -14 132 27 23 78
-37 145 -120 134 -54 -7 -46 -7 -182 -1 -155 6 -203 -1 -196 -29 11 -44 -46
-191 -74 -191 -21 0 -26 6 -34 43 -12 51 -36 57 -36 9 0 -95 -54 -79 -85 26
-20 65 -30 78 -52 70 -23 -9 -16 -71 12 -97 28 -26 33 -54 11 -62 -22 -8 -75
24 -80 49 -13 61 -12 144 1 176 30 71 -80 102 -138 40z m-44 -84 c54 -53 20
-175 -49 -175 -75 0 -110 68 -81 159 13 43 93 54 130 16z m654 16 c15 -10 35
-156 25 -173 -8 -13 -119 -9 -132 4 -34 34 -2 93 52 100 50 5 44 28 -8 28 -39
0 -46 3 -46 19 0 29 75 44 109 22z"/>
<path d="M7378 6635 c-24 -53 24 -99 56 -53 20 28 20 43 0 62 -22 23 -43 20
-56 -9z"/>
<path d="M4276 6778 c9 -14 6 -242 -3 -272 -4 -15 -1 -18 11 -13 9 4 39 2 67
-3 36 -7 63 -7 89 1 27 8 47 9 68 1 17 -6 48 -8 69 -5 l38 5 -3 81 c-4 93 -11
105 -47 89 -37 -17 -35 -73 3 -101 33 -24 21 -58 -19 -53 -40 5 -54 28 -57 95
-2 34 -4 73 -5 87 -1 14 2 35 7 48 8 25 -14 32 -32 9 -20 -23 -132 -9 -155 19
-19 25 -44 34 -31 12z m149 -82 c21 -15 40 -152 24 -172 -11 -13 -108 -6 -126
8 -34 27 -10 87 37 97 49 10 51 31 3 31 -47 0 -56 6 -42 31 12 23 76 26 104 5z"/>
<path d="M7173 6770 c-66 -40 -43 -175 34 -201 64 -21 74 20 13 51 -94 48 -74
140 30 140 49 0 66 12 34 24 -30 12 -79 6 -111 -14z"/>
<path d="M1173 6763 c-12 -2 -34 -18 -48 -35 -27 -32 -159 -44 -191 -17 -18
14 -24 -22 -24 -143 0 -105 1 -108 23 -108 21 0 22 3 22 102 l0 101 53 4 c66
4 92 -18 92 -76 0 -75 12 -131 28 -131 13 0 14 16 10 103 -8 145 18 193 92
174 29 -8 24 12 -6 23 -14 6 -26 9 -27 9 -1 -1 -12 -4 -24 -6z"/>
<path d="M7680 6752 c0 -23 31 -47 61 -47 33 0 37 -6 53 -78 9 -37 22 -27 29
20 3 21 8 46 12 56 5 13 2 17 -13 17 -11 0 -41 9 -67 20 -49 21 -75 25 -75 12z"/>
<path d="M4702 6735 c-34 -18 -36 -23 -21 -41 11 -14 11 -18 -4 -29 -13 -9
-17 -28 -17 -81 l0 -69 53 -17 c91 -30 185 -14 184 31 -1 14 0 60 1 102 l2 76
43 0 c23 1 47 -3 52 -7 6 -4 35 -4 65 0 32 4 64 3 77 -3 13 -6 32 -6 50 0 72
23 92 -1 94 -116 3 -110 34 -94 34 17 -1 134 -21 142 -325 140 -124 -1 -234 1
-245 4 -11 3 -30 0 -43 -7z m143 -50 c56 -55 20 -175 -52 -175 -66 0 -101 47
-88 117 14 76 91 108 140 58z"/>
<path d="M4766 6644 c-26 -25 -13 -84 19 -84 19 0 45 28 45 50 0 19 -25 50
-40 50 -5 0 -16 -7 -24 -16z"/>
<path d="M5394 6725 c-17 -13 -13 -14 37 -15 80 0 88 -10 91 -105 l3 -80 -61
-3 c-106 -5 -131 90 -28 107 64 10 55 32 -12 29 -81 -4 -107 -110 -38 -155 34
-22 239 -25 278 -4 67 36 51 151 -22 156 -51 4 -54 -10 -7 -32 79 -38 40 -122
-51 -111 -43 5 -48 48 -5 48 42 0 47 16 11 35 -78 40 -40 126 50 113 33 -5 40
6 13 17 -36 15 -240 15 -259 0z"/>
<path d="M5784 6725 c-17 -13 -14 -14 39 -15 84 0 99 -18 95 -118 l-3 -77 -60
4 c-114 6 -135 111 -23 111 18 0 28 5 28 15 0 26 -107 17 -114 -9 -23 -84 1
-131 75 -147 102 -23 156 45 130 163 -17 77 -109 117 -167 73z"/>
<path d="M8568 6729 c-31 -17 -20 -24 35 -21 69 5 83 -11 90 -105 7 -87 2 -93
-76 -84 -99 12 -109 102 -13 113 56 6 42 28 -17 26 l-55 -1 -12 -41 c-27 -99
16 -129 187 -129 l126 -1 34 39 c18 21 33 34 33 29 0 -68 162 -92 205 -31 71
102 -37 254 -149 211 -32 -12 -15 -24 33 -24 72 0 88 -18 94 -108 5 -85 3 -88
-73 -83 -103 5 -122 94 -24 110 62 10 55 31 -10 31 -45 0 -58 -4 -62 -17 -18
-58 -21 -60 -37 -24 -16 38 -97 58 -97 25 0 -8 6 -14 14 -14 21 0 66 -40 66
-59 0 -44 -101 -81 -129 -47 -19 22 1 45 34 38 31 -6 35 23 5 33 -88 28 -44
127 50 113 39 -6 38 6 0 22 -24 10 -39 10 -74 0 -32 -9 -49 -9 -64 -1 -26 14
-91 14 -114 0z"/>
<path d="M2297 6724 c-10 -10 15 -53 35 -59 24 -8 23 -32 -2 -40 -16 -5 -20
-15 -20 -50 0 -34 5 -47 20 -55 24 -13 26 -48 4 -57 -36 -14 -69 30 -74 98 -4
57 -7 64 -25 61 -20 -2 -64 -9 -76 -11 -11 -2 -18 -39 -12 -62 5 -18 11 -20
43 -15 40 6 56 -8 44 -39 -15 -38 -109 -29 -124 11 -36 95 5 168 93 162 51 -3
52 -2 55 26 3 23 1 28 -13 22 -9 -3 -27 -8 -38 -10 -12 -2 -47 -10 -77 -16
l-56 -12 -2 -96 c-2 -53 -5 -99 -7 -102 -9 -14 -117 -3 -133 14 -20 19 -28
152 -10 173 16 20 9 23 -83 32 -46 5 -94 12 -106 16 -31 10 -30 -10 2 -39 30
-28 31 -42 5 -56 -30 -16 -26 -67 7 -102 37 -38 14 -69 -33 -46 -27 12 -29 18
-32 75 -3 71 -15 85 -65 76 -46 -7 -46 -15 -2 -42 65 -38 45 -104 -32 -105
-42 -1 -48 2 -51 22 -3 22 3 26 46 22 31 -2 29 28 -3 36 -43 11 -60 68 -29 98
17 18 75 21 90 6 13 -13 28 3 39 39 7 22 5 23 -16 17 -41 -13 -123 -28 -154
-27 -114 0 -227 10 -240 21 -8 7 -15 8 -15 3 0 -5 -11 -15 -25 -21 -20 -9 -24
-17 -19 -36 3 -13 1 -27 -5 -30 -24 -15 -14 -166 12 -166 21 0 22 4 25 93 4
114 0 111 126 111 135 0 138 -2 134 -108 l-3 -81 -60 3 c-105 7 -128 95 -29
111 64 10 54 31 -16 31 -93 0 -101 -7 -98 -90 2 -71 5 -79 25 -59 9 9 19 8 40
-6 25 -17 142 -22 298 -14 11 0 39 -3 62 -6 63 -11 100 0 79 24 -19 21 -21
175 -2 189 25 19 91 8 94 -15 3 -17 -3 -24 -22 -29 -29 -7 -28 -4 -30 -91 -1
-68 3 -75 27 -40 l15 22 32 -30 c28 -27 37 -30 91 -28 81 4 101 4 284 0 220
-5 287 1 276 22 -4 9 -6 57 -3 107 l4 92 47 -2 c54 -1 70 -28 27 -47 -39 -18
-46 -157 -7 -144 9 3 34 -4 56 -15 48 -25 96 -26 124 -2 21 17 20 17 -44 17
-85 0 -98 14 -93 99 7 90 68 125 132 75 58 -46 32 -102 -44 -92 -37 5 -42 4
-38 -13 6 -31 117 -28 129 4 18 47 10 83 -24 117 l-33 33 -114 -3 c-63 -1
-126 -3 -140 -3 l-25 -2 3 -104 4 -103 -46 -6 c-53 -8 -92 4 -100 30 -12 41
-10 151 3 167 11 13 11 17 -5 22 -11 3 -31 12 -45 20 -14 7 -29 11 -32 8z"/>
<path d="M832 6697 c-16 -39 -15 -176 2 -207 19 -34 32 86 19 173 -9 60 -10
61 -21 34z"/>
<path d="M7874 6698 c9 -12 16 -37 16 -55 0 -70 24 -52 39 30 l8 47 -39 0
c-38 0 -39 0 -24 -22z"/>
<path d="M1997 6682 l-28 -3 3 -77 c3 -69 5 -77 23 -77 16 0 45 152 30 160 0
0 -13 -1 -28 -3z"/>
<path d="M2418 6604 c6 -123 54 -118 56 5 l1 71 -30 0 -30 0 3 -76z"/>
<path d="M4978 6658 c-16 -5 -28 -15 -29 -21 -8 -104 -1 -155 16 -127 3 6 16
8 28 5 21 -6 22 -3 22 69 0 85 -1 86 -37 74z"/>
<path d="M5082 6652 c-28 -18 -12 -149 17 -144 26 3 26 4 21 74 -5 71 -13 85
-38 70z"/>
<path d="M5181 6647 c-21 -26 -2 -147 23 -147 19 0 21 6 23 67 3 80 -17 114
-46 80z"/>
<path d="M1007 6614 c-24 -24 -1 -144 27 -144 20 0 21 4 16 72 -5 70 -20 95
-43 72z"/>
<path d="M1658 6204 c-44 -24 -58 -85 -30 -138 12 -22 22 -46 22 -52 0 -12 67
-27 82 -18 19 12 6 36 -26 49 -100 42 -87 134 19 143 52 4 56 6 40 18 -24 18
-73 17 -107 -2z"/>
<path d="M4503 6195 c-52 -22 -73 -105 -38 -151 8 -10 15 -26 15 -35 0 -15 37
-29 76 -29 21 0 17 38 -5 45 -108 34 -96 150 16 150 59 0 66 6 28 23 -33 15
-52 15 -92 -3z"/>
<path d="M7630 6188 c-88 -60 -40 -208 66 -208 26 0 15 37 -15 50 -101 42 -84
145 25 145 54 0 55 0 33 18 -29 23 -69 21 -109 -5z"/>
<path d="M5077 6170 c-23 -38 -52 -45 -99 -25 -47 19 -84 19 -138 0 -31 -11
-47 -12 -61 -4 -40 21 -127 12 -160 -17 -12 -11 -23 -12 -43 -4 -51 19 -66
-19 -16 -40 96 -40 75 -153 -28 -154 -52 -1 -66 -9 -36 -20 24 -9 80 -7 110 4
18 7 36 7 58 -1 21 -8 56 -9 97 -5 l64 7 3 102 c3 120 -8 105 82 109 l74 3 11
-55 c13 -68 27 -69 42 -1 13 62 18 68 38 51 20 -17 19 -31 -7 -113 -36 -110
-73 -113 -105 -8 -35 117 -85 109 -81 -14 3 -72 17 -87 33 -34 6 17 10 15 41
-17 30 -33 37 -36 66 -29 18 5 45 8 61 8 20 0 26 4 23 16 -3 9 -1 57 3 106 6
69 4 95 -6 111 -7 12 -11 29 -7 38 10 26 0 19 -19 -14z m-332 -50 c69 -26 62
-110 -10 -110 -32 0 -45 -4 -45 -14 0 -19 18 -24 57 -18 41 6 58 -23 27 -45
-48 -35 -119 -1 -129 63 -12 80 10 121 72 134 1 0 13 -4 28 -10z"/>
<path d="M8307 6180 c3 -11 2 -28 -3 -37 -4 -10 -8 -66 -8 -125 l-1 -106 40
-7 c22 -4 54 -7 70 -6 17 1 66 1 111 1 64 0 84 3 95 16 13 16 11 17 -23 10
-77 -14 -121 24 -120 105 2 95 97 131 147 55 31 -47 17 -71 -42 -74 -48 -3
-81 -30 -40 -33 99 -8 107 -6 119 33 27 90 -43 159 -139 138 -69 -16 -183 0
-194 27 -10 28 -19 31 -12 3z m147 -76 c9 -23 -12 -45 -38 -39 -33 8 -48 -8
-44 -46 3 -33 4 -34 41 -31 45 3 59 -18 32 -48 -56 -61 -137 18 -119 116 11
60 109 97 128 48z"/>
<path d="M2244 6177 c-11 -30 -48 -38 -90 -21 -27 11 -54 14 -93 10 -84 -10
-122 -10 -163 -1 -28 6 -47 3 -81 -14 -25 -12 -59 -20 -77 -19 -47 4 -48 -17
-1 -46 86 -55 61 -146 -42 -146 -48 -1 -50 -2 -33 -15 23 -18 69 -19 98 -4 16
9 35 8 75 -1 43 -11 63 -11 106 -1 l52 13 0 92 c0 50 1 96 3 101 1 6 36 12 77
13 81 2 77 5 91 -71 9 -50 26 -42 39 19 7 33 16 50 27 52 28 5 30 -37 5 -112
-38 -114 -73 -116 -108 -7 -35 110 -79 96 -79 -23 l1 -71 22 27 23 28 27 -31
c27 -31 30 -31 84 -25 70 8 63 -3 68 102 2 49 5 94 6 99 7 22 -29 71 -37 52z
m-308 -62 c42 -42 31 -90 -21 -91 -63 -2 -67 -3 -63 -16 3 -7 27 -15 54 -18
73 -7 72 -44 -1 -48 -68 -4 -86 11 -93 76 -10 109 58 163 124 97z"/>
<path d="M2334 6163 c-4 -10 -8 -68 -9 -130 l-1 -111 67 -7 c44 -5 74 -3 89 5
16 8 30 9 52 1 43 -15 91 -14 114 4 18 13 16 14 -26 15 -92 1 -117 29 -107
117 9 80 80 111 132 58 53 -52 28 -99 -50 -93 -21 2 -30 -1 -30 -12 0 -27 122
-24 129 3 23 87 -21 153 -100 149 -115 -4 -229 -1 -240 9 -8 7 -14 4 -20 -8z
m147 -39 c20 -24 -1 -49 -42 -49 -32 0 -34 -2 -37 -38 -4 -41 17 -59 43 -37
32 26 63 -18 33 -48 -13 -13 -66 -16 -92 -6 -35 13 -44 147 -13 172 29 24 90
27 108 6z"/>
<path d="M8211 6162 c-16 -31 -44 -35 -102 -16 -44 15 -60 16 -103 5 -62 -15
-71 -15 -116 -4 -40 11 -107 -1 -131 -23 -13 -11 -22 -12 -43 -4 -54 20 -66
-22 -13 -44 98 -41 50 -173 -55 -152 -30 6 -39 -8 -12 -18 23 -9 79 -7 107 3
16 6 37 6 60 -1 52 -16 169 -2 163 20 -3 10 -2 57 2 105 l7 89 68 2 c75 3 77
2 92 -64 13 -60 27 -57 40 9 11 58 24 71 45 46 11 -13 10 -26 -4 -73 -46 -153
-72 -160 -118 -32 -19 53 -27 64 -43 62 -33 -6 -36 -16 -33 -93 l3 -74 19 31
19 31 27 -31 c23 -25 34 -30 66 -28 22 2 51 3 66 4 14 0 24 6 22 12 -2 6 0 54
4 106 9 106 -11 180 -37 132z m-298 -64 c36 -43 20 -83 -35 -86 -44 -3 -73
-30 -35 -33 6 0 28 -1 47 -2 45 -2 54 -32 14 -47 -68 -26 -113 4 -121 83 -10
102 70 155 130 85z"/>
<path d="M1027 6155 c-23 -23 -23 -23 28 -17 73 8 91 -11 97 -100 7 -98 8 -98
-65 -94 -106 7 -122 116 -17 116 20 0 30 5 30 15 0 39 -104 11 -118 -32 -30
-92 16 -126 171 -128 125 -2 167 9 186 52 l12 26 19 -31 c35 -57 134 -69 181
-23 94 95 -17 282 -132 221 -31 -17 -22 -25 26 -22 74 6 92 -12 97 -100 6 -98
7 -97 -62 -94 -111 5 -132 94 -27 115 46 10 30 26 -25 26 -45 0 -48 -2 -61
-35 l-14 -35 -15 34 c-13 29 -20 34 -57 35 -45 3 -58 -18 -18 -30 88 -26 68
-114 -27 -114 -31 0 -46 5 -50 16 -9 23 2 34 35 34 36 0 39 25 4 34 -32 8 -51
51 -36 83 11 25 65 39 103 28 21 -7 21 -6 9 9 -11 13 -30 17 -90 16 -42 -1
-97 1 -122 5 -36 5 -49 3 -62 -10z"/>
<path d="M5170 6150 c-7 -14 -13 -67 -14 -131 l-1 -107 40 -7 c22 -4 51 -6 65
-6 14 1 64 1 111 1 63 0 90 4 105 16 18 15 17 15 -15 10 -102 -18 -163 63
-120 158 26 56 114 52 142 -7 24 -48 8 -67 -53 -67 -78 0 -68 -27 11 -32 57
-3 62 -1 70 20 28 75 -21 156 -92 153 -192 -6 -221 -5 -229 8 -6 11 -10 9 -20
-9z m147 -46 c8 -21 -12 -39 -44 -39 -32 0 -48 -24 -39 -59 6 -26 10 -27 41
-22 37 7 50 -3 40 -34 -13 -41 -107 -31 -121 13 -13 40 -6 118 12 138 22 25
102 27 111 3z"/>
<path d="M6963 5609 c-118 -27 -163 -117 -163 -329 0 -158 13 -209 65 -260 40
-39 43 -55 15 -70 -105 -56 -115 -442 -14 -550 l44 -47 -36 -34 c-101 -97
-108 -424 -12 -534 l41 -46 -31 -32 c-60 -64 -66 -88 -70 -256 -4 -181 4 -223
59 -285 47 -53 47 -56 10 -84 -97 -71 -102 -431 -9 -537 l40 -45 -40 -45 c-26
-30 -44 -63 -52 -95 -19 -78 -25 -83 -121 -84 -110 -2 -142 35 -94 108 14 21
14 24 0 29 -48 19 -2 107 57 107 49 0 80 -69 44 -99 -15 -13 15 -87 34 -85 6
1 17 2 25 3 12 1 11 7 -6 35 -18 31 -19 41 -9 120 6 53 7 100 2 119 -5 18 -7
49 -4 70 5 45 -8 48 -28 4 -22 -46 -109 -49 -124 -4 -17 48 1 62 76 61 l66 -1
6 45 c3 25 6 76 6 114 0 52 5 77 18 96 15 21 19 47 19 115 1 114 -18 136 -112
129 -88 -7 -85 -32 4 -32 67 0 101 -14 101 -40 0 -13 -42 -40 -61 -40 -23 0
-46 -28 -28 -34 84 -23 108 -46 74 -73 -16 -11 -37 -14 -98 -10 l-79 5 -15
-36 c-23 -55 0 -176 31 -168 12 3 29 6 39 6 28 0 20 18 -10 22 -22 2 -29 9
-30 28 -2 14 -5 41 -9 61 -7 44 13 65 53 54 16 -5 38 -7 51 -6 31 3 39 -26 18
-62 -12 -21 -14 -33 -6 -41 14 -14 13 -83 -2 -92 -6 -4 -37 -8 -69 -8 -60 -1
-79 -23 -79 -93 0 -10 -7 -28 -15 -39 -19 -25 -19 -82 1 -119 11 -21 17 -61
19 -130 1 -55 7 -111 13 -126 7 -17 7 -31 -1 -45 -6 -10 -12 -47 -12 -82 l-1
-63 45 3 c47 3 72 28 27 28 -32 0 -48 29 -44 78 3 36 4 37 43 35 70 -4 145 7
145 22 0 8 4 16 10 20 5 3 9 -12 8 -37 -3 -142 38 -287 93 -321 26 -16 24 -28
-11 -62 -53 -51 -63 -86 -71 -255 l-7 -155 30 -63 c16 -34 40 -70 54 -78 32
-22 30 -34 -11 -74 -92 -89 -95 -427 -4 -525 48 -52 48 -47 0 -102 -75 -84
-90 -386 -24 -491 17 -28 29 -53 25 -56 -12 -13 -472 -6 -472 7 0 6 0 967 0
2135 0 2279 2 2174 -49 2201 -11 6 -37 15 -58 19 -42 9 -42 9 -18 92 43 144 6
390 -66 441 -37 26 -37 42 0 69 65 46 84 111 79 282 -5 220 -44 285 -187 305
-223 31 -2344 4 -2379 -31 -14 -15 58 -17 107 -3 89 25 2275 24 2341 -1 74
-28 90 -72 97 -274 7 -184 3 -200 -62 -257 l-36 -31 -1186 2 -1187 3 -31 43
-30 44 1 181 c0 100 4 192 8 205 7 17 5 22 -8 22 -9 0 -16 -3 -17 -7 -2 -29
-2 -175 1 -400 l4 -262 28 49 c50 88 -44 82 1254 78 1253 -3 1164 1 1224 -63
44 -46 47 -409 4 -456 -43 -48 -1 -46 -1234 -52 -1139 -5 -1303 -10 -1260 -37
7 -5 0 -25 -20 -57 -82 -132 -64 -443 31 -527 l30 -27 -40 -44 c-103 -112 -93
-474 16 -553 l27 -20 -40 -44 c-60 -64 -68 -99 -69 -273 0 -171 7 -198 68
-262 l40 -42 -40 -44 c-58 -63 -67 -99 -68 -267 0 -168 9 -203 69 -268 l40
-44 -32 -26 c-102 -86 -114 -432 -17 -540 l44 -49 -38 -41 c-95 -102 -95 -434
0 -537 l40 -44 -39 -39 c-80 -80 -100 -365 -35 -491 40 -77 57 -72 -222 -69
l-230 3 -5 1205 c-3 663 -9 1212 -13 1221 -11 22 -51 39 -90 39 -46 0 -65 15
-50 37 95 136 90 410 -9 518 l-51 56 43 42 c71 71 74 84 75 247 0 189 -4 207
-67 276 l-52 56 37 31 c116 92 126 415 16 530 -58 61 -57 45 -5 99 34 33 48
59 61 104 9 32 20 67 26 77 8 14 6 23 -6 37 -19 21 -11 47 18 56 20 6 20 7 -6
26 -32 23 -34 43 -8 60 15 9 17 15 7 30 -9 16 -7 22 13 37 l24 19 -24 8 c-13
4 -27 8 -30 9 -7 0 -104 89 -113 103 -3 5 25 40 63 78 80 82 103 154 62 198
-25 26 -26 39 -6 56 9 8 11 17 6 28 -5 10 -13 47 -19 84 -23 156 -70 179 -392
191 -398 14 -2012 1 -2080 -18 -30 -8 -71 -15 -90 -16 -31 -1 -28 -3 17 -11
41 -7 58 -6 81 6 40 20 2282 24 2329 4 100 -43 113 -78 113 -293 0 -173 -8
-204 -62 -250 l-30 -25 -1175 0 -1176 0 -35 22 c-69 43 -106 318 -57 435 20
47 21 45 -23 41 l-37 -3 0 -360 c0 -473 6 -725 17 -696 10 28 14 27 66 -30 51
-56 51 -53 -4 -114 -44 -47 -47 -48 -60 -30 -12 16 -14 -13 -14 -220 0 -208 2
-236 14 -220 14 19 17 17 65 -35 l51 -55 -52 -52 c-40 -40 -55 -50 -65 -41
-11 8 -13 -29 -13 -212 0 -203 1 -222 17 -216 21 8 117 -90 105 -108 -16 -27
-98 -93 -109 -89 -10 4 -13 -45 -13 -220 l0 -224 37 -6 c49 -8 59 1 31 30 -22
24 -23 30 -23 212 l0 188 28 37 c50 64 -23 61 1248 61 l1166 0 37 -29 c95 -72
100 -442 7 -519 -11 -9 -294 -13 -1212 -14 l-1198 -3 -25 -24 c-15 -13 -26
-26 -26 -30 0 -4 -11 -22 -25 -40 -36 -47 -48 -129 -43 -286 5 -146 12 -169
70 -235 l31 -36 -30 -32 c-64 -67 -68 -85 -68 -277 0 -192 3 -202 66 -275 l31
-35 -41 -46 c-93 -106 -79 -491 19 -544 28 -15 25 -30 -15 -69 -74 -72 -94
-371 -32 -490 15 -29 27 -57 27 -62 0 -5 -125 -9 -295 -9 -162 0 -295 -4 -295
-9 0 -16 1329 -21 5350 -20 4095 2 4650 4 4650 20 0 5 -94 9 -210 9 l-210 0
-2 2746 -3 2746 -28 24 c-30 25 -129 35 -142 14 -6 -10 13 -13 95 -14 l45 -1
3 -2744 c1 -2020 -1 -2747 -9 -2757 -22 -27 -171 -19 -167 9 3 19 10 22 61 25
l57 3 0 2705 0 2706 -39 -7 c-42 -7 -71 11 -71 45 0 14 -17 28 -57 47 l-58 28
-1130 2 c-682 1 -1146 -3 -1172 -8z m2338 -62 c105 -71 127 -409 32 -498 l-39
-36 -279 -6 c-154 -3 -392 -4 -530 -2 -137 2 -541 4 -897 4 l-646 1 -32 26
c-110 93 -97 433 19 511 l34 23 1152 0 1152 0 34 -23z m159 -2751 c0 -2308 -2
-2645 -15 -2662 -18 -24 -18 -29 -15 162 2 193 -10 250 -65 304 -40 39 -43 55
-15 70 106 56 115 436 14 549 l-45 50 26 17 c112 73 119 476 10 562 -32 25
-32 39 0 64 99 78 109 441 14 540 -46 49 -46 48 -13 79 106 99 102 481 -6 560
l-29 22 44 49 c104 115 91 480 -20 552 l-26 17 44 49 c103 114 94 486 -14 553
-27 17 -24 28 16 67 51 50 65 107 65 269 0 165 -9 200 -66 261 l-43 46 39 39
c59 58 70 102 70 288 0 141 2 158 15 147 13 -11 15 -318 15 -2654z m-8800
2183 c0 -13 -103 -108 -111 -103 -10 6 -12 164 -3 188 6 14 113 -66 114 -85z
m2380 -44 c68 -40 75 -67 75 -275 0 -179 -1 -186 -24 -219 -46 -64 24 -61
-1256 -61 l-1166 0 -47 44 -47 45 -3 167 c-5 233 10 276 103 309 74 27 2319
17 2365 -10z m6249 1 c74 -39 91 -75 93 -204 2 -181 -3 -234 -23 -274 -37 -72
41 -68 -1254 -68 l-1163 0 -32 26 c-59 50 -65 72 -65 254 0 198 21 250 110
273 56 14 2306 7 2334 -7z m-2931 -565 c10 -4 0 -4309 -10 -4319 -19 -19 -145
-16 -156 5 -8 14 -15 15 -53 4 -89 -24 -2321 -11 -2355 15 -67 49 -69 58 -69
258 l0 183 27 35 c55 71 -10 68 1250 68 1273 0 1178 6 1229 -77 36 -57 37
-378 2 -415 -41 -44 -32 -53 40 -42 l37 7 0 2113 0 2113 -51 3 c-57 3 -89 29
-59 48 11 7 149 8 168 1z m-3296 -69 c67 -62 87 -406 28 -479 -55 -68 45 -63
-1245 -63 -1293 0 -1202 -5 -1247 67 -30 50 -36 375 -7 428 48 86 -13 83 1394
77 l1050 -4 27 -26z m3111 0 c62 -41 70 -65 75 -238 5 -172 -2 -207 -54 -260
l-35 -34 -1178 0 -1179 0 -41 41 c-51 51 -54 69 -50 263 4 168 9 183 73 230
27 21 36 21 1144 27 1278 6 1191 8 1245 -29z m3143 2 c99 -74 102 -425 4 -508
l-32 -26 -1173 0 -1173 0 -32 26 c-108 91 -94 454 20 515 58 30 2345 24 2386
-7z m-3046 -571 c0 -51 -10 -59 -44 -32 -33 26 -33 36 1 71 32 33 43 24 43
-39z m-3221 -42 c108 -78 103 -477 -7 -533 -31 -15 -134 -16 -1198 -18 l-1164
-1 -45 31 c-61 42 -67 72 -63 281 l3 167 31 39 c53 66 -13 62 1254 60 l1155
-2 34 -24z m3109 5 c119 -62 133 -457 19 -526 -47 -29 -2330 -31 -2387 -2 -66
33 -75 64 -75 264 0 196 3 207 75 256 l33 22 1154 0 c972 0 1158 -2 1181 -14z
m3142 -5 c73 -38 80 -62 80 -261 0 -312 146 -280 -1271 -280 l-1156 0 -33 23
c-67 44 -75 72 -75 257 1 199 18 245 101 270 67 20 2316 12 2354 -9z m-3030
-571 c0 -59 -13 -70 -46 -39 -30 28 -30 37 3 71 34 35 43 28 43 -32z m-93 -56
c106 -86 105 -450 -1 -515 -30 -18 -69 -19 -1198 -19 l-1168 0 -39 35 c-100
91 -87 452 19 507 20 10 239 14 1070 19 1392 7 1271 10 1317 -27z m2038 26
l1062 0 33 -23 c64 -42 70 -65 72 -253 1 -183 -3 -204 -57 -254 l-27 -25
-1172 -3 -1173 -2 -33 22 c-65 44 -72 69 -73 257 -1 248 39 298 232 286 41 -3
552 -5 1136 -5z m-1511 -476 c49 -48 3 -107 -52 -68 -21 15 -25 15 -41 0 -40
-36 -95 9 -73 59 14 31 138 38 166 9z m-434 -120 c0 -63 -12 -69 -54 -25 l-27
29 32 30 c42 39 49 34 49 -34z m-3071 -18 c8 -10 10 -337 9 -1222 l-3 -1209
-69 -3 c-38 -2 -76 0 -84 3 -8 3 -544 7 -1191 8 -1330 2 -1219 -5 -1265 82
-31 60 -32 340 0 400 44 86 -55 80 1256 80 1297 0 1176 7 1232 -69 36 -47 37
-363 2 -416 -28 -43 -26 -50 19 -50 54 0 52 -44 50 1180 -3 1347 4 1170 -45
1170 -46 0 -47 -4 -20 -45 18 -27 20 -47 20 -193 0 -187 -8 -216 -66 -256
l-39 -26 -1161 0 -1161 0 -40 29 c-60 44 -65 63 -61 269 3 200 6 208 83 250
32 18 2203 27 2319 10 27 -4 55 -3 61 2 6 5 35 10 65 13 30 2 60 4 66 5 6 1
17 -4 23 -12z m2507 -5 c565 -1 539 12 538 -280 0 -314 146 -281 -1258 -281
-1279 0 -1203 -4 -1248 69 -60 96 -28 423 46 472 23 15 506 25 1151 23 187 -1
534 -2 771 -3z m3611 -27 c57 -43 63 -65 64 -252 1 -188 -4 -211 -64 -256
l-28 -21 -1166 -3 -1167 -2 -37 25 c-55 36 -68 68 -75 192 -12 203 10 287 86
326 33 16 106 17 1197 15 l1162 -3 28 -21z m-3047 -564 c0 -61 -7 -65 -50 -29
l-35 29 35 29 c43 36 50 32 50 -29z m-114 -41 c74 -35 85 -65 91 -247 7 -181
0 -211 -53 -263 l-35 -34 -1179 0 -1179 0 -35 34 c-91 88 -80 439 16 501 55
36 2301 45 2374 9z m3021 12 c188 -9 205 -32 206 -281 1 -183 -6 -209 -66
-254 l-28 -21 -1166 -3 c-1163 -2 -1165 -2 -1198 18 -59 37 -72 71 -76 195 -7
252 3 288 91 333 l45 22 1035 -2 c569 -1 1090 -4 1157 -7z m-6132 -25 c98 -75
96 -449 -2 -513 -46 -30 -2359 -27 -2400 3 -104 76 -100 440 7 511 l33 23
1165 0 1165 0 32 -24z m3225 -566 c0 -61 -7 -65 -50 -29 l-35 29 33 30 c41 38
52 32 52 -30z m-3234 -46 c66 -48 69 -59 72 -249 4 -198 -4 -228 -67 -271
l-36 -24 -1160 0 -1161 0 -34 25 c-67 49 -70 61 -70 253 0 208 15 248 105 280
66 23 2319 10 2351 -14z m3118 6 c25 -11 53 -37 70 -62 l28 -43 -5 -173 c-5
-192 -16 -227 -82 -254 -60 -26 -2347 -18 -2381 8 -66 49 -69 58 -69 252 0
218 10 245 102 278 71 25 2285 20 2337 -6z m3131 1 c88 -40 90 -47 90 -266 0
-214 -4 -231 -71 -265 -48 -25 -2335 -22 -2381 2 -67 37 -78 73 -78 258 1 206
22 256 120 279 87 20 2275 13 2320 -8z m-3015 -582 c0 -56 -10 -61 -55 -23
l-30 25 33 30 c41 37 52 31 52 -32z m3007 -30 c88 -33 106 -80 107 -274 1
-182 -11 -222 -75 -260 -48 -28 -2293 -37 -2367 -9 -82 31 -94 64 -95 261 -2
202 8 230 98 277 37 20 2281 25 2332 5z"/>
<path d="M7877 5403 c-10 -18 6 -193 18 -193 16 0 15 192 -2 197 -6 2 -13 0
-16 -4z"/>
<path d="M7441 5378 c-5 -13 -21 -51 -35 -86 -35 -86 -21 -143 16 -64 19 38
63 43 80 8 12 -27 38 -36 38 -13 -3 86 -79 206 -99 155z"/>
<path d="M8286 5356 c-3 -14 -1 -37 4 -52 6 -14 8 -35 5 -45 -8 -25 12 -59 35
-59 23 0 25 17 5 44 -19 25 -19 45 1 67 15 16 14 20 -3 43 -23 32 -39 33 -47
2z"/>
<path d="M7608 5343 l-37 -4 0 -95 c0 -97 22 -134 39 -64 5 20 12 24 32 22 34
-3 51 20 52 74 1 42 -21 79 -43 72 -3 -1 -23 -3 -43 -5z m50 -45 c30 -30 -11
-85 -44 -57 -25 21 -11 69 21 69 6 0 16 -5 23 -12z"/>
<path d="M7770 5341 l-35 -6 -3 -93 c-2 -85 -1 -93 15 -90 10 2 18 10 18 18 1
26 16 41 35 35 30 -10 51 22 48 73 -4 53 -26 71 -78 63z m48 -43 c30 -30 -4
-77 -41 -57 -29 17 -15 69 18 69 6 0 16 -5 23 -12z"/>
<path d="M8042 5334 c-27 -19 -31 -93 -6 -118 18 -19 55 -21 72 -4 19 19 14
27 -20 30 -26 2 -34 8 -36 27 -4 27 15 43 41 35 22 -7 36 24 16 37 -21 13 -42
11 -67 -7z"/>
<path d="M8168 5339 c-27 -15 -22 -29 11 -29 27 0 29 -3 29 -40 1 -28 -3 -40
-14 -40 -8 0 -14 10 -14 26 0 28 -17 29 -34 1 -17 -27 5 -52 45 -52 55 -1 59
3 59 56 0 70 -37 105 -82 78z"/>
<path d="M8473 5335 c-55 -39 -28 -134 39 -135 39 0 58 24 58 75 0 64 -48 94
-97 60z m70 -47 c22 -34 -36 -66 -62 -34 -9 11 -10 20 -1 36 13 25 47 24 63
-2z"/>
<path d="M8648 5343 l-38 -4 0 -70 c0 -55 3 -69 15 -69 11 0 15 12 15 44 0 47
19 72 46 62 13 -5 15 -15 11 -45 -5 -42 4 -67 22 -57 30 19 1 157 -30 144 -2
-1 -21 -3 -41 -5z"/>
<path d="M8780 5332 c-25 -20 -20 -43 13 -57 29 -13 28 -28 -3 -35 -37 -9 -32
-34 8 -38 59 -6 86 50 35 73 -28 12 -29 25 -3 32 24 6 26 28 4 37 -23 9 -30 8
-54 -12z"/>
<path d="M7946 5318 c-10 -47 -2 -113 14 -113 15 0 23 73 13 118 -6 24 -22 21
-27 -5z"/>
<path d="M1584 4757 c-3 -8 -4 -49 -2 -93 l3 -79 42 -3 c74 -5 113 45 99 123
-11 55 -125 96 -142 52z m98 -34 c41 -37 9 -119 -44 -111 -23 3 -39 76 -24
114 7 19 46 18 68 -3z"/>
<path d="M1896 4724 c-4 -14 -2 -31 3 -38 5 -6 11 -32 13 -56 2 -38 7 -46 26
-48 27 -4 28 9 2 33 -24 22 -25 42 -4 66 14 16 14 20 -1 43 -22 33 -31 33 -39
0z"/>
<path d="M1793 4713 c-22 -8 -14 -22 15 -25 24 -3 27 -7 27 -43 0 -45 -32 -65
-42 -26 -7 27 -20 27 -28 0 -9 -27 8 -39 58 -39 40 0 40 0 37 65 -1 27 -8 46
-22 58 -21 18 -25 19 -45 10z"/>
<path d="M2024 4705 c-19 -15 -18 -16 26 -18 22 -2 25 -6 25 -42 0 -45 -32
-65 -42 -26 -6 25 -21 27 -29 6 -11 -27 15 -45 60 -42 l41 2 3 45 c4 68 -40
108 -84 75z"/>
<path d="M7869 4758 c-11 -180 6 -211 96 -173 56 23 74 108 34 159 -23 29
-128 40 -130 14z m104 -50 c25 -33 17 -74 -18 -90 -41 -19 -55 -5 -55 56 0 72
33 88 73 34z"/>
<path d="M8186 4744 c-18 -48 11 -174 41 -174 23 0 26 27 4 49 -26 26 -26 36
-1 61 l20 20 -22 30 c-25 34 -33 37 -42 14z"/>
<path d="M8065 4709 c-9 -14 2 -24 28 -24 17 0 21 -7 23 -38 2 -31 0 -38 -14
-35 -10 2 -16 11 -14 22 2 12 -2 17 -15 14 -49 -9 -21 -63 32 -63 l50 0 -3 55
c-4 68 -61 113 -87 69z"/>
<path d="M8300 4705 c-14 -17 0 -26 33 -22 15 2 20 -6 23 -36 3 -32 0 -38 -14
-35 -9 2 -16 11 -14 20 4 26 -14 30 -34 7 -29 -32 -8 -53 55 -57 l51 -3 0 55
c0 76 -60 119 -100 71z"/>
<path d="M5198 423 c-3 -37 -4 -38 -43 -38 l-40 0 0 -65 c0 -51 3 -65 15 -65
11 0 15 11 15 41 1 44 18 74 41 74 16 0 17 -6 18 -69 1 -49 20 -66 30 -26 8
32 20 32 34 0 12 -27 27 -32 37 -14 4 6 -2 21 -14 33 -25 26 -27 51 -6 60 16
6 21 36 7 36 -5 0 -17 -9 -27 -20 -24 -26 -30 -18 -30 38 0 62 -32 75 -37 15z"/>
<path d="M4307 444 c-17 -18 -8 -196 11 -192 13 3 17 14 17 53 0 69 15 70 48
3 26 -55 50 -73 58 -45 12 40 3 182 -11 182 -11 0 -15 -12 -15 -50 0 -82 -14
-75 -65 35 -8 17 -32 24 -43 14z"/>
<path d="M4630 404 c-6 -14 -7 -31 -3 -37 4 -7 10 -34 13 -62 5 -46 7 -50 33
-53 33 -4 34 9 5 49 l-22 29 21 22 21 21 -21 28 c-26 36 -35 36 -47 3z"/>
<path d="M5000 392 c-46 -14 -70 -98 -38 -130 21 -21 85 -15 102 10 39 56 -5
138 -64 120z m38 -44 c30 -30 -4 -77 -41 -57 -20 11 -23 55 -4 62 21 9 32 8
45 -5z"/>
<path d="M4499 374 c-18 -21 -18 -87 0 -108 19 -23 84 -18 89 7 3 14 -3 17
-29 15 -31 -3 -33 -1 -35 35 -2 32 0 37 18 37 15 0 19 -5 15 -20 -7 -26 16
-45 32 -26 10 12 10 21 -1 43 -16 34 -67 44 -89 17z"/>
<path d="M4733 357 c8 -53 35 -107 51 -107 20 0 22 56 2 63 -7 3 -16 22 -20
41 -9 49 -41 52 -33 3z"/>
<path d="M4809 373 c-2 -30 2 -47 16 -58 7 -5 16 -23 19 -38 14 -59 71 14 75
96 2 36 -27 16 -33 -23 -7 -45 -36 -58 -36 -16 0 49 -38 84 -41 39z"/>
<path d="M5337 373 c-11 -41 -2 -118 13 -118 19 0 22 126 3 132 -6 2 -13 -4
-16 -14z"/>
<path d="M5419 378 c-12 -41 -3 -123 14 -126 14 -3 17 4 17 41 0 52 20 77 46
57 10 -9 14 -26 12 -49 -2 -27 1 -36 12 -36 16 0 21 69 8 106 -9 23 -103 29
-109 7z"/>
<path d="M5577 383 c-4 -3 -7 -25 -7 -48 0 -23 -5 -56 -11 -74 -22 -62 86 -95
113 -35 14 30 -7 54 -46 54 -19 0 -19 2 6 23 31 26 51 63 43 77 -7 11 -88 14
-98 3z"/>
<path d="M1364 4148 c-14 -22 -13 -178 1 -178 9 0 15 15 17 38 4 51 38 53 54
2 11 -34 28 -48 38 -32 3 4 -2 21 -10 36 -16 33 -18 62 -4 71 17 11 11 43 -12
59 -26 19 -74 21 -84 4z"/>
<path d="M1513 4084 c-3 -9 -2 -37 3 -63 l9 -46 50 0 50 0 3 63 c2 51 0 62
-13 62 -11 0 -15 -11 -15 -43 0 -51 -15 -71 -42 -56 -13 7 -18 21 -18 54 0 44
-15 60 -27 29z"/>
<path d="M1679 4098 c-10 -26 -5 -128 7 -128 10 0 14 13 14 45 0 32 5 47 18
54 31 16 46 -3 43 -54 -1 -35 1 -46 11 -42 12 4 15 84 3 115 -4 10 -92 19 -96
10z"/>
<path d="M1996 4092 c-12 -21 -5 -122 8 -122 11 0 16 14 18 48 5 70 53 73 53
2 0 -33 4 -45 15 -45 11 0 15 12 15 45 0 71 48 68 53 -2 2 -36 7 -48 19 -48
14 0 12 97 -2 121 -5 8 -174 9 -179 1z"/>
<path d="M2240 4081 c-13 -25 -13 -67 0 -92 13 -23 90 -28 90 -5 0 9 -11 13
-32 12 -32 -1 -33 0 -36 42 -3 40 -2 43 20 40 17 -2 23 -10 23 -27 0 -29 22
-40 31 -16 20 52 -69 95 -96 46z"/>
<path d="M4490 4153 c-7 -111 -4 -186 7 -190 20 -8 27 4 25 42 -1 18 2 36 8
40 14 9 40 -13 40 -34 0 -10 7 -26 15 -37 23 -29 38 1 19 37 -16 33 -18 65 -4
74 15 9 12 42 -6 59 -16 16 -104 23 -104 9z"/>
<path d="M4950 4114 c-7 -17 -7 -31 -1 -38 5 -6 11 -31 13 -55 3 -48 28 -75
49 -54 9 9 6 18 -10 39 -25 32 -26 42 -5 65 14 16 14 20 -1 43 -22 33 -33 33
-45 0z"/>
<path d="M4650 4095 c-38 -46 12 -139 68 -129 51 9 53 13 50 80 -4 73 -33 88
-33 17 0 -46 -15 -69 -39 -60 -11 5 -16 20 -16 51 0 49 -11 64 -30 41z"/>
<path d="M4844 4103 c-37 -5 -57 -102 -28 -132 16 -18 22 -7 26 54 2 33 7 41
26 43 23 4 25 1 26 -63 1 -28 5 -40 16 -40 22 0 15 115 -7 133 -9 6 -19 11
-22 10 -3 0 -20 -3 -37 -5z"/>
<path d="M5203 4103 c-40 -2 -73 -7 -74 -11 -8 -71 -6 -112 7 -123 17 -14 22
-3 26 56 5 62 42 58 46 -5 2 -25 8 -49 13 -55 16 -16 27 13 22 56 -4 30 -2 40
11 45 26 10 40 -11 38 -55 -3 -41 14 -63 30 -40 20 31 -8 142 -36 137 -6 -1
-44 -4 -83 -5z"/>
<path d="M5384 4096 c-47 -35 -17 -136 40 -136 34 0 44 12 51 62 11 70 -39
111 -91 74z"/>
<path d="M5059 4088 c-13 -39 -3 -113 14 -116 16 -3 18 3 15 59 -3 57 -20 89
-29 57z"/>
<path d="M7629 4148 c-12 -41 -3 -183 11 -183 10 0 17 13 20 40 6 49 30 54 45
10 13 -38 24 -55 36 -55 13 0 10 41 -5 69 -12 21 -12 30 2 58 14 30 14 34 -3
53 -21 23 -100 29 -106 8z"/>
<path d="M8089 4119 c-8 -16 -8 -28 0 -46 6 -13 11 -41 11 -63 0 -30 4 -40 21
-45 34 -11 46 11 21 38 -26 28 -28 44 -6 68 14 16 14 20 -1 43 -21 32 -31 33
-46 5z"/>
<path d="M7790 4095 c-40 -48 10 -139 70 -129 49 9 48 7 46 76 -1 77 -30 95
-32 20 -2 -80 -54 -87 -54 -8 0 49 -11 64 -30 41z"/>
<path d="M7980 4101 l-35 -6 0 -65 c0 -82 28 -97 33 -17 3 51 21 69 47 47 9
-8 12 -22 8 -41 -8 -41 3 -65 22 -49 29 24 -1 146 -34 139 -3 -1 -22 -4 -41
-8z"/>
<path d="M8340 4101 l-75 -6 0 -65 c0 -51 3 -65 15 -65 11 0 15 12 15 42 1 48
15 69 41 59 13 -5 15 -15 11 -46 -3 -26 -1 -43 8 -50 18 -15 30 5 30 55 0 33
3 40 20 40 16 0 21 -8 23 -40 4 -59 9 -70 27 -55 27 22 2 143 -29 138 -6 -1
-45 -4 -86 -7z"/>
<path d="M8520 4090 c-42 -42 -13 -130 43 -130 35 0 44 11 51 62 11 75 -46
116 -94 68z"/>
<path d="M8197 4094 c-17 -17 -8 -126 11 -122 14 3 17 14 17 62 0 55 -11 77
-28 60z"/>
<path d="M1548 3508 c-3 -30 -6 -33 -36 -33 -49 -1 -77 -92 -38 -124 13 -11
80 -10 91 1 13 13 13 188 0 188 -8 0 -15 -13 -17 -32z m-3 -98 c0 -32 -2 -35
-30 -35 -34 0 -47 34 -24 61 23 28 54 13 54 -26z"/>
<path d="M1708 3508 c-3 -30 -6 -33 -36 -33 -40 -1 -52 -17 -52 -71 0 -55 18
-69 71 -58 l42 9 0 89 c1 89 -18 137 -25 64z m-2 -73 c13 -33 -5 -66 -34 -63
-47 5 -39 78 10 78 10 0 21 -7 24 -15z"/>
<path d="M1780 3445 c0 -57 4 -95 10 -95 6 0 10 22 10 49 0 26 3 69 6 95 6 38
4 46 -10 46 -14 0 -16 -14 -16 -95z"/>
<path d="M1147 3523 c-14 -28 -6 -183 9 -183 14 0 16 8 10 54 -8 73 15 97 39
41 8 -21 15 -45 15 -55 0 -26 23 -43 38 -28 21 21 15 55 -9 54 -17 -1 -25 9
-38 49 -23 70 -48 97 -64 68z"/>
<path d="M1305 3520 c-15 -25 -24 -72 -12 -61 23 19 37 -3 34 -55 -1 -27 2
-49 8 -49 19 0 12 169 -7 173 -9 2 -19 -2 -23 -8z"/>
<path d="M1866 3464 c-44 -44 -23 -119 33 -119 19 0 36 6 39 13 2 8 -6 12 -29
10 -33 -3 -34 -2 -35 40 -2 41 -1 43 24 40 22 -2 26 -8 24 -25 -2 -16 2 -23
13 -23 14 0 16 6 10 27 -13 53 -47 69 -79 37z"/>
<path d="M2227 3473 c-14 -13 -6 -22 21 -25 24 -3 27 -7 27 -43 0 -47 -37 -61
-43 -17 -3 19 -6 21 -18 11 -35 -29 -3 -63 50 -53 35 6 36 8 36 51 0 68 -40
109 -73 76z"/>
<path d="M2353 3473 c-21 -8 -17 -123 3 -123 13 0 15 7 9 39 -6 35 -4 41 19
56 38 25 13 46 -31 28z"/>
<path d="M2460 3458 c-43 -47 -13 -123 46 -116 41 5 44 29 3 26 -33 -3 -34 -2
-35 40 -2 39 0 42 23 42 22 0 24 -3 19 -24 -4 -16 -1 -26 8 -29 33 -13 36 45
4 67 -30 21 -43 20 -68 -6z"/>
<path d="M4685 3538 c-2 -7 -5 -24 -7 -38 -2 -20 -8 -24 -26 -22 -34 5 -62
-25 -62 -65 0 -58 14 -73 70 -73 l50 0 2 70 c1 39 2 84 2 102 1 32 -20 51 -29
26z m-11 -104 c19 -19 20 -25 3 -48 -18 -25 -57 -13 -57 18 0 41 28 56 54 30z"/>
<path d="M4847 3544 c-4 -4 -7 -20 -7 -36 0 -24 -4 -28 -29 -28 -50 0 -85 -92
-49 -128 13 -13 108 -17 108 -4 7 140 -2 217 -23 196z"/>
<path d="M4914 3537 c-9 -26 1 -190 12 -194 12 -4 26 168 16 195 -6 16 -21 15
-28 -1z"/>
<path d="M4289 3530 c-26 -15 -25 -190 1 -190 18 0 20 7 20 62 0 72 15 69 40
-10 18 -56 46 -69 55 -25 21 99 59 114 53 21 -2 -33 1 -43 12 -43 12 0 15 16
14 90 -1 118 -33 133 -67 32 -24 -74 -44 -73 -70 5 -20 59 -33 72 -58 58z"/>
<path d="M4996 3464 c-18 -18 -21 -76 -6 -105 15 -28 90 -28 90 1 0 16 -5 19
-29 14 -29 -6 -50 9 -31 21 8 5 7 11 -1 21 -16 19 3 39 26 30 14 -5 15 -9 4
-22 -10 -13 -10 -17 2 -25 34 -21 51 17 25 56 -19 29 -57 33 -80 9z"/>
<path d="M5118 3468 c-3 -7 2 -33 10 -58 8 -25 17 -51 18 -58 6 -20 38 -10 42
12 3 11 -4 25 -13 32 -10 7 -20 27 -24 45 -7 34 -26 49 -33 27z"/>
<path d="M5276 3464 c-3 -9 -6 -25 -6 -36 0 -12 -8 -22 -21 -25 -27 -7 -23
-58 4 -58 20 0 63 107 52 125 -9 15 -22 12 -29 -6z"/>
<path d="M5357 3473 c-16 -15 -6 -32 19 -30 39 3 42 -22 5 -29 -73 -15 -67
-77 7 -72 l47 3 3 47 c5 71 -44 119 -81 81z"/>
<path d="M5477 3473 c-12 -22 -1 -128 13 -128 11 0 15 12 15 44 0 24 5 46 10
48 24 8 37 22 31 32 -8 12 -63 15 -69 4z"/>
<path d="M5586 3458 c-39 -56 -11 -118 53 -118 39 0 50 20 51 92 0 47 -76 66
-104 26z"/>
<path d="M7827 3544 c-4 -4 -7 -20 -7 -36 0 -15 -3 -28 -7 -29 -5 0 -21 -2
-36 -3 -35 -2 -47 -20 -47 -71 0 -53 13 -65 72 -65 l48 0 2 75 c1 41 2 87 2
102 1 26 -14 40 -27 27z m-19 -103 c25 -15 11 -66 -18 -66 -29 0 -40 36 -20
61 14 16 20 17 38 5z"/>
<path d="M7986 3539 c-3 -8 -6 -25 -8 -39 -3 -22 -7 -25 -35 -22 -38 4 -53
-18 -53 -76 0 -50 17 -64 72 -60 l43 3 3 94 c3 86 -9 139 -22 100z m-8 -117
c7 -44 -38 -70 -57 -34 -7 14 -6 25 5 41 20 27 48 24 52 -7z"/>
<path d="M8055 3538 c-10 -27 -1 -191 11 -195 18 -6 24 177 8 196 -12 13 -14
13 -19 -1z"/>
<path d="M7417 3524 c-20 -20 -7 -184 14 -184 20 0 21 4 15 54 -12 92 28 70
49 -27 9 -43 37 -31 55 23 30 90 56 92 45 3 -6 -50 -5 -54 12 -51 18 3 19 14
13 181 -1 33 -46 -4 -65 -53 -12 -31 -27 -55 -35 -55 -8 0 -23 24 -35 55 -20
53 -47 74 -68 54z"/>
<path d="M8143 3474 c-23 -10 -36 -71 -21 -101 17 -36 98 -48 98 -15 0 16 -6
20 -32 18 -29 -1 -31 1 -32 34 -1 25 3 35 14 35 9 0 14 -8 13 -22 -2 -21 21
-38 38 -27 44 27 -27 98 -78 78z"/>
<path d="M8256 3472 c-11 -19 31 -127 50 -127 27 0 31 41 5 54 -12 7 -21 24
-23 43 -3 31 -21 48 -32 30z"/>
<path d="M8337 3474 c-15 -16 -7 -62 12 -67 12 -3 21 -15 23 -33 4 -41 40 -40
48 1 4 17 12 40 19 53 7 13 10 30 7 39 -10 25 -31 9 -36 -28 -7 -50 -38 -52
-42 -3 -3 36 -16 52 -31 38z"/>
<path d="M8485 3470 c-11 -17 5 -30 30 -24 12 3 26 1 29 -4 7 -12 -20 -36 -33
-28 -15 10 -42 -24 -39 -48 3 -18 10 -21 53 -21 l50 0 3 41 c6 76 -61 136 -93
84z"/>
<path d="M8617 3473 c-12 -11 -8 -121 4 -129 17 -10 28 15 22 51 -4 26 0 34
21 49 15 9 24 21 21 26 -7 11 -58 13 -68 3z"/>
<path d="M8726 3458 c-39 -56 -14 -118 48 -118 l43 0 7 51 c11 80 -57 126 -98
67z"/>
<path d="M4859 2907 c-93 -71 -11 -224 94 -176 49 22 64 115 26 163 -23 29
-90 36 -120 13z m103 -59 c12 -36 -9 -82 -40 -86 -48 -7 -78 50 -51 99 17 32
80 23 91 -13z"/>
<path d="M5042 2908 c-25 -25 -14 -67 23 -90 45 -26 44 -53 -2 -53 -39 0 -50
-10 -33 -30 31 -37 110 -5 110 45 0 24 -8 35 -40 55 -52 33 -53 53 -1 46 28
-4 44 8 31 24 -15 18 -71 20 -88 3z"/>
<path d="M8002 2913 c-19 -7 -42 -58 -42 -92 0 -128 164 -138 177 -11 8 86
-56 135 -135 103z m92 -49 c13 -34 6 -83 -13 -94 -58 -30 -104 29 -71 91 13
24 75 27 84 3z"/>
<path d="M8182 2908 c-25 -25 -14 -66 23 -90 44 -29 42 -53 -4 -53 -36 0 -53
-21 -30 -36 24 -15 68 -10 90 12 32 32 22 70 -23 92 -49 24 -50 47 -2 47 28 0
35 3 32 18 -4 21 -67 29 -86 10z"/>
<path d="M1787 2304 c-6 -7 1 -168 9 -194 11 -32 19 12 19 101 0 85 -8 112
-28 93z"/>
<path d="M1035 2288 c-9 -24 63 -183 83 -186 24 -4 91 177 70 190 -19 11 -29
-5 -43 -64 -16 -72 -34 -69 -57 10 -18 59 -42 82 -53 50z"/>
<path d="M1400 2256 c-8 -21 -13 -23 -54 -19 -25 3 -46 2 -47 -3 -6 -96 -3
-129 13 -132 14 -3 17 6 20 44 2 33 9 50 23 60 31 20 49 3 47 -45 -2 -31 2
-43 19 -55 37 -25 54 -2 26 35 -18 25 -19 33 -9 47 23 32 24 40 7 66 -21 32
-33 33 -45 2z"/>
<path d="M2185 2260 c-3 -11 -3 -41 0 -67 11 -88 14 -93 40 -93 28 0 33 21 10
40 -18 15 -19 43 -4 68 9 15 8 24 -6 45 -21 32 -31 34 -40 7z"/>
<path d="M1230 2215 c-15 -41 -9 -110 10 -110 11 0 16 15 18 59 4 68 -11 95
-28 51z"/>
<path d="M1493 2225 c-29 -78 67 -172 115 -112 20 25 14 127 -8 127 -17 0 -20
-7 -20 -49 0 -31 -5 -51 -12 -54 -28 -9 -38 6 -38 54 0 50 -22 70 -37 34z"/>
<path d="M1665 2230 c-9 -15 2 -25 28 -25 18 0 23 -7 25 -37 2 -29 0 -38 -12
-38 -9 0 -16 9 -16 20 0 26 -27 26 -35 0 -10 -31 12 -50 57 -50 47 0 54 13 42
83 -9 53 -67 83 -89 47z"/>
<path d="M1856 2224 c-20 -51 2 -149 25 -113 17 28 9 129 -11 129 -4 0 -11 -7
-14 -16z"/>
<path d="M1930 2226 c0 -8 9 -18 20 -21 11 -3 20 -10 20 -14 0 -4 -9 -16 -20
-26 -36 -32 -27 -65 18 -65 51 0 58 9 26 35 l-26 21 27 32 c14 17 24 36 20 42
-10 16 -85 13 -85 -4z"/>
<path d="M2057 2233 c-14 -13 -6 -22 21 -25 31 -3 43 -73 12 -73 -8 0 -14 8
-14 18 2 24 -23 21 -37 -5 -16 -30 13 -50 66 -46 l40 3 -3 55 c-5 70 -50 109
-85 73z"/>
<path d="M2279 2233 c-1 -16 -1 -108 0 -120 1 -7 8 -13 16 -13 20 0 18 131 -2
138 -7 2 -13 0 -14 -5z"/>
<path d="M2366 2218 c-36 -51 -8 -118 48 -118 56 0 86 64 56 121 -16 28 -84
27 -104 -3z m75 -18 c32 -18 14 -70 -25 -70 -8 0 -36 31 -36 40 0 27 34 44 61
30z"/>
<path d="M2516 2228 c-10 -31 -15 -98 -10 -112 13 -34 34 -17 34 28 0 82 46
88 52 6 2 -33 8 -46 21 -48 20 -4 25 84 7 119 -13 22 -98 28 -104 7z"/>
<path d="M2048 423 c-3 -37 -4 -38 -43 -38 l-40 0 -3 -68 c-3 -62 -1 -68 15
-65 14 3 17 12 16 43 -3 39 17 75 42 75 18 0 24 -22 18 -67 -6 -49 12 -66 29
-28 l12 26 22 -28 c18 -22 25 -26 35 -16 10 10 7 19 -16 43 l-29 30 24 25 c27
28 20 47 -8 22 -32 -29 -43 -21 -40 30 4 63 -29 78 -34 16z"/>
<path d="M1156 442 c-7 -12 -11 -181 -3 -188 21 -21 38 7 31 55 -10 79 31 70
51 -11 8 -32 32 -55 44 -42 17 18 18 189 1 189 -11 0 -15 -12 -15 -50 0 -65
-15 -71 -42 -15 -32 65 -53 85 -67 62z"/>
<path d="M1480 404 c-8 -20 -8 -35 -1 -49 6 -11 12 -38 13 -60 3 -35 6 -40 31
-43 32 -4 35 10 7 45 -24 31 -25 37 -3 58 15 16 15 19 1 43 -23 37 -36 38 -48
6z"/>
<path d="M1349 374 c-39 -48 -7 -127 50 -122 46 4 51 33 7 33 -27 0 -30 3 -32
38 -2 31 0 37 18 37 16 0 19 -5 14 -24 -7 -28 21 -46 31 -20 20 52 -53 100
-88 58z"/>
<path d="M1577 383 c-10 -19 35 -134 51 -131 23 4 27 36 8 57 -9 9 -19 32 -22
49 -6 29 -27 43 -37 25z"/>
<path d="M1654 366 c-7 -29 1 -46 22 -46 8 0 14 -10 14 -22 0 -30 14 -52 30
-46 11 3 49 99 50 126 0 29 -29 9 -37 -25 -12 -50 -29 -52 -37 -3 -7 45 -32
55 -42 16z"/>
<path d="M1809 369 c-41 -78 17 -148 91 -109 27 15 36 74 16 105 -22 34 -89
36 -107 4z m84 -30 c15 -24 1 -49 -27 -49 -34 0 -52 33 -30 55 19 19 43 16 57
-6z"/>
<path d="M2184 377 c-11 -30 0 -122 16 -122 20 0 22 126 3 132 -7 3 -15 -2
-19 -10z"/>
<path d="M2267 373 c-11 -47 -2 -118 16 -121 14 -3 17 4 17 41 0 52 20 77 46
57 10 -9 14 -26 12 -49 -2 -27 1 -36 12 -36 15 0 17 47 5 103 -7 29 -101 34
-108 5z"/>
<path d="M2424 378 c-4 -6 -9 -32 -10 -57 -2 -25 -4 -62 -6 -81 l-3 -35 46 -3
c65 -4 98 28 63 62 -25 25 -45 20 -38 -9 5 -21 3 -25 -15 -25 -22 0 -29 24
-11 35 6 4 8 11 5 16 -4 5 6 13 20 19 25 9 58 66 49 82 -8 13 -92 9 -100 -4z"/>
<path d="M4926 2302 c-8 -13 6 -192 15 -192 8 0 11 43 13 162 1 30 -16 49 -28
30z"/>
<path d="M4175 2288 c-10 -25 60 -183 80 -183 25 0 89 162 73 183 -16 18 -35
-2 -42 -46 -17 -91 -39 -99 -55 -20 -15 68 -43 101 -56 66z"/>
<path d="M4537 2257 c-12 -19 -22 -22 -55 -19 -47 5 -56 -10 -50 -89 5 -68 38
-69 38 -1 0 41 4 50 23 59 34 15 47 5 47 -37 0 -53 8 -70 34 -70 34 0 37 9 14
40 -20 27 -18 70 3 70 15 0 10 23 -10 48 -24 27 -25 27 -44 -1z"/>
<path d="M5321 2254 c-6 -14 -8 -31 -4 -37 4 -7 10 -34 13 -62 5 -46 7 -50 33
-53 30 -4 37 17 12 38 -18 15 -19 43 -4 68 9 15 8 24 -6 45 -22 34 -29 34 -44
1z"/>
<path d="M4365 2217 c-11 -43 -1 -112 15 -112 11 0 16 13 18 44 4 51 -4 91
-18 91 -5 0 -12 -10 -15 -23z"/>
<path d="M4637 2234 c-13 -13 -7 -89 9 -112 20 -28 89 -32 101 -4 16 35 9 116
-9 120 -15 3 -18 -4 -18 -41 0 -79 -52 -85 -54 -6 -1 40 -14 58 -29 43z"/>
<path d="M4805 2229 c-9 -14 2 -24 28 -24 17 0 21 -7 23 -37 2 -28 -1 -38 -12
-38 -8 0 -14 10 -14 25 0 32 -17 32 -32 0 -14 -32 4 -55 42 -55 61 0 66 12 44
118 -5 24 -66 33 -79 11z"/>
<path d="M5070 2226 c0 -8 7 -16 15 -20 20 -7 19 -22 -6 -55 -27 -37 -18 -51
31 -51 47 0 61 16 26 30 -33 12 -33 27 0 61 14 15 23 32 20 38 -11 17 -86 14
-86 -3z"/>
<path d="M5195 2229 c-9 -14 2 -23 28 -24 18 0 22 -6 22 -35 0 -24 -5 -35 -15
-35 -8 0 -15 8 -15 17 0 29 -13 31 -30 4 -24 -36 -6 -56 51 -56 48 0 48 0 44
70 -3 62 -59 101 -85 59z"/>
<path d="M5419 2233 c-8 -75 -2 -128 14 -131 22 -4 22 128 0 136 -7 2 -13 0
-14 -5z"/>
<path d="M5506 2218 c-37 -53 -9 -118 51 -118 53 0 82 66 53 121 -16 28 -84
27 -104 -3z m78 -24 c21 -20 20 -27 -3 -48 -22 -20 -48 -12 -57 17 -11 36 33
59 60 31z"/>
<path d="M5653 2228 c-16 -22 -10 -123 7 -123 11 0 15 11 15 42 0 46 15 69 39
60 12 -5 16 -20 16 -57 0 -43 3 -50 20 -50 23 0 29 84 10 121 -12 22 -91 27
-107 7z"/>
<path d="M8064 2214 c3 -59 9 -100 15 -102 10 -3 12 17 15 165 1 19 -5 29 -17
31 -15 3 -17 -5 -13 -94z"/>
<path d="M7314 2285 c-10 -25 60 -180 81 -180 21 0 82 154 71 181 -10 25 -33
0 -40 -44 -17 -91 -38 -98 -56 -19 -17 71 -42 99 -56 62z"/>
<path d="M7678 2259 c-12 -19 -24 -24 -59 -24 l-44 0 0 -65 c0 -81 28 -97 33
-19 5 82 72 89 72 8 0 -51 42 -92 56 -54 3 8 -1 24 -10 37 -20 28 -20 47 -1
68 12 14 12 19 -8 44 l-23 28 -16 -23z"/>
<path d="M8459 2253 c-7 -20 -7 -33 0 -45 6 -10 11 -36 11 -58 0 -43 15 -58
46 -46 15 6 15 8 2 24 -26 30 -30 54 -11 74 16 18 16 21 1 46 -23 37 -36 38
-49 5z"/>
<path d="M7506 2224 c-15 -39 -7 -126 12 -122 23 5 26 138 2 138 -4 0 -11 -7
-14 -16z"/>
<path d="M7770 2190 c0 -74 11 -90 65 -90 52 0 52 -1 56 75 3 50 1 60 -13 63
-15 3 -18 -4 -18 -41 0 -48 -16 -72 -40 -57 -10 6 -15 25 -15 52 0 33 -4 43
-17 46 -15 3 -18 -4 -18 -48z"/>
<path d="M7945 2229 c-9 -14 2 -23 28 -24 18 0 22 -6 22 -35 0 -24 -5 -35 -15
-35 -8 0 -14 8 -14 18 1 12 -4 17 -15 15 -38 -7 -20 -63 22 -66 54 -5 66 9 59
66 -7 65 -61 104 -87 61z"/>
<path d="M8210 2226 c0 -8 7 -16 15 -20 21 -8 19 -26 -6 -52 -31 -33 -19 -54
31 -54 43 0 57 23 20 33 -11 3 -20 12 -20 20 0 7 9 22 20 32 35 31 26 55 -20
55 -28 0 -40 -4 -40 -14z"/>
<path d="M8335 2230 c-10 -16 3 -29 25 -23 18 5 20 0 20 -36 0 -43 -18 -56
-27 -21 -6 23 -21 22 -37 -2 -17 -28 11 -49 58 -46 l41 3 3 47 c5 72 -53 126
-83 78z"/>
<path d="M8557 2223 c-11 -39 -2 -118 13 -118 12 0 15 14 15 64 0 62 -17 95
-28 54z"/>
<path d="M8647 2222 c-23 -25 -22 -85 1 -105 62 -56 143 27 102 104 -14 26
-80 26 -103 1z m79 -33 c19 -21 18 -21 -5 -40 -39 -32 -85 13 -49 49 17 17 32
15 54 -9z"/>
<path d="M8786 2218 c-10 -47 -2 -113 14 -113 11 0 15 11 15 42 0 47 13 67 38
57 13 -5 17 -19 17 -56 0 -42 3 -49 18 -46 21 4 29 85 12 118 -17 31 -108 29
-114 -2z"/>
<path d="M4573 1680 c-53 -21 -38 -75 32 -116 33 -19 12 -46 -30 -38 -42 8
-51 -19 -11 -37 37 -17 80 7 84 48 3 31 0 35 -47 71 -31 24 -20 46 20 37 24
-6 29 -3 29 13 0 30 -34 39 -77 22z"/>
<path d="M4699 1614 c-39 -48 -7 -127 50 -122 46 4 51 32 6 33 -28 0 -30 3
-30 35 0 24 5 35 15 35 9 0 14 -8 13 -22 -3 -27 24 -38 36 -14 25 47 -55 97
-90 55z"/>
<path d="M4837 1623 c-19 -18 -7 -133 13 -133 17 0 20 7 20 44 0 84 49 87 79
6 21 -56 57 -68 66 -23 4 15 13 43 21 62 10 22 12 37 5 44 -14 14 -31 -1 -31
-27 0 -13 -7 -29 -15 -36 -15 -12 -16 -11 -40 58 -5 13 -106 18 -118 5z"/>
<path d="M5086 1608 c-19 -26 -21 -89 -4 -106 21 -21 88 -15 88 8 0 16 -5 19
-30 14 -29 -6 -30 -6 -30 35 0 30 4 41 15 41 9 0 15 -9 15 -24 0 -28 28 -43
37 -20 21 56 -57 101 -91 52z"/>
<path d="M5226 1622 c-7 -12 -10 -121 -3 -128 19 -19 37 7 31 44 -5 34 -3 40
20 56 15 9 24 21 21 26 -7 12 -62 13 -69 2z"/>
<path d="M5332 1618 c-19 -19 -15 -36 13 -54 30 -20 28 -38 -5 -39 -13 0 -25
-5 -27 -12 -6 -17 28 -32 60 -26 48 9 59 65 16 78 -25 8 -24 21 2 28 12 3 19
12 17 19 -6 17 -60 22 -76 6z"/>
<path d="M7713 1680 c-48 -19 -41 -78 13 -103 49 -24 44 -53 -9 -49 -44 3 -52
-21 -13 -39 73 -34 120 69 51 110 -43 25 -41 47 4 43 25 -2 31 2 31 17 0 29
-34 38 -77 21z"/>
<path d="M7836 1608 c-37 -52 -9 -120 47 -116 52 4 63 28 13 28 -34 0 -35 1
-32 38 1 25 7 37 16 37 9 0 14 -8 13 -20 -2 -20 15 -37 29 -29 12 8 9 59 -4
72 -20 20 -65 14 -82 -10z"/>
<path d="M7977 1623 c-17 -17 -7 -135 11 -131 13 3 17 13 17 46 0 42 14 61 42
62 14 0 37 -40 47 -83 15 -65 86 14 86 96 0 28 -25 14 -28 -16 -7 -61 -34 -54
-56 16 -5 17 -103 26 -119 10z"/>
<path d="M8226 1608 c-19 -27 -21 -89 -4 -106 21 -21 88 -15 88 7 0 15 -7 19
-32 17 -36 -1 -51 65 -15 72 12 3 17 -4 17 -22 0 -31 14 -41 30 -21 13 15 5
55 -14 67 -22 15 -55 8 -70 -14z"/>
<path d="M8367 1623 c-16 -26 -11 -128 6 -131 14 -3 17 4 17 42 0 35 5 48 20
56 31 16 25 40 -9 40 -17 0 -32 -3 -34 -7z"/>
<path d="M8472 1618 c-20 -20 -14 -48 14 -58 30 -12 27 -36 -4 -32 -24 3 -39
-15 -24 -30 17 -17 75 -11 89 7 15 22 7 42 -26 60 l-26 13 28 11 c16 6 27 17
25 24 -6 17 -60 21 -76 5z"/>
<path d="M1432 1674 c-30 -21 -27 -74 4 -89 64 -32 63 -68 -2 -58 -27 4 -34 2
-34 -10 0 -22 37 -40 66 -33 60 15 66 94 9 116 -38 15 -35 54 4 45 36 -8 52
12 26 32 -25 17 -45 17 -73 -3z"/>
<path d="M1554 1595 c-24 -57 2 -107 53 -103 47 4 54 32 8 33 -28 0 -30 3 -30
35 0 24 5 35 15 35 8 0 15 -9 15 -20 0 -24 33 -33 41 -11 23 61 -77 91 -102
31z"/>
<path d="M1704 1618 c-19 -30 -14 -128 7 -128 16 0 19 7 19 43 0 71 47 94 70
35 27 -72 30 -78 50 -78 13 0 21 9 25 28 4 15 13 42 21 61 11 24 12 37 5 44
-15 15 -29 -1 -33 -38 -4 -41 -28 -38 -42 5 -12 38 -103 59 -122 28z"/>
<path d="M1946 1608 c-18 -26 -21 -71 -6 -99 14 -24 90 -28 90 -4 0 10 -10 15
-31 15 -29 0 -30 2 -27 38 2 25 8 37 18 37 10 0 14 -8 13 -22 -2 -17 2 -23 17
-23 22 0 27 28 10 61 -15 27 -64 25 -84 -3z"/>
<path d="M2087 1623 c-17 -17 -7 -135 11 -131 13 3 17 13 17 47 0 25 5 46 10
48 24 8 37 22 31 32 -8 12 -58 15 -69 4z"/>
<path d="M2190 1615 c-10 -12 -11 -21 -3 -33 14 -23 43 -28 43 -8 0 10 9 16
21 16 14 0 19 5 17 18 -4 23 -60 29 -78 7z"/>
<path d="M2230 1545 c0 -9 -9 -15 -24 -15 -33 0 -44 -20 -21 -36 36 -27 102 7
90 45 -7 24 -45 29 -45 6z"/>
<path d="M1406 1038 c-25 -35 -19 -56 24 -83 55 -35 54 -60 -1 -51 -38 6 -40
5 -37 -16 2 -18 10 -24 35 -26 79 -8 106 69 38 110 -41 24 -41 41 1 48 43 8
38 34 -8 38 -28 2 -40 -2 -52 -20z"/>
<path d="M1533 1018 c-6 -13 -7 -32 -2 -43 4 -11 8 -34 8 -52 1 -47 11 -63 37
-63 27 0 32 21 9 40 -20 16 -19 49 2 72 15 17 15 20 -7 43 -29 31 -34 31 -47
3z"/>
<path d="M1659 991 c-31 -25 -33 -96 -4 -117 50 -37 105 -4 105 63 0 66 -52
94 -101 54z m71 -36 c20 -25 8 -50 -25 -50 -31 0 -43 20 -31 51 7 18 40 18 56
-1z"/>
<path d="M1817 1002 c-28 -3 -28 -4 -25 -69 4 -79 28 -104 28 -29 0 38 4 48
25 62 41 27 28 43 -28 36z"/>
<path d="M1912 998 c-19 -19 -14 -28 17 -28 27 0 29 -3 29 -41 1 -43 -20 -52
-26 -11 -4 27 -28 29 -42 3 -22 -42 17 -69 75 -53 28 8 30 12 30 59 -1 72 -45
109 -83 71z"/>
<path d="M2070 1001 c-23 -6 -25 -12 -32 -91 -8 -94 -5 -100 53 -100 55 0 82
47 40 70 -30 16 -46 13 -31 -5 16 -19 -1 -41 -24 -32 -13 5 -14 10 -1 39 12
29 11 35 -3 51 -11 13 -13 20 -4 29 17 17 45 1 39 -22 -8 -32 8 -23 25 14 24
49 3 65 -62 47z"/>
<path d="M2208 1003 c-36 -9 -47 -93 -16 -130 25 -30 94 -9 84 25 -4 11 -2 23
4 27 40 25 -20 92 -72 78z"/>
<path d="M4547 1042 c-29 -31 -21 -59 24 -87 48 -31 46 -50 -4 -50 -19 0 -39
-3 -43 -7 -14 -14 19 -38 52 -38 71 0 90 75 29 112 -38 22 -41 41 -9 46 41 7
47 11 34 27 -17 21 -63 19 -83 -3z"/>
<path d="M4670 1014 c-6 -14 -7 -31 -3 -37 4 -7 10 -34 13 -62 4 -38 9 -51 24
-53 32 -7 41 14 17 44 -26 33 -26 38 0 63 l22 20 -24 25 c-30 32 -37 32 -49 0z"/>
<path d="M4795 985 c-48 -47 -20 -125 43 -125 39 0 62 28 62 77 0 70 -58 96
-105 48z m78 -37 c22 -34 -36 -66 -62 -34 -9 11 -10 20 -1 36 13 25 47 24 63
-2z"/>
<path d="M4954 1003 c-25 -5 -42 -106 -22 -130 17 -21 28 -5 28 41 0 36 4 45
26 55 24 10 20 45 -5 40 -3 -1 -16 -4 -27 -6z"/>
<path d="M5052 998 c-19 -19 -14 -28 16 -28 27 0 29 -3 28 -37 -2 -42 -26 -60
-26 -19 0 31 -24 35 -40 7 -21 -40 9 -66 66 -55 l34 6 0 59 c0 70 -40 105 -78
67z"/>
<path d="M5215 1001 c-29 -6 -59 -150 -39 -183 7 -11 72 -10 95 2 33 18 14 70
-26 70 -3 0 -3 -9 0 -20 4 -14 1 -22 -10 -26 -23 -9 -43 12 -27 28 7 7 12 21
12 33 0 12 -5 26 -12 33 -16 16 4 37 27 28 11 -4 14 -12 10 -27 -10 -30 11
-16 30 20 10 21 11 31 2 40 -12 12 -16 12 -62 2z"/>
<path d="M5344 1002 c-34 -22 -43 -84 -18 -120 26 -38 103 -25 90 16 -4 11 -2
23 4 27 17 10 11 35 -15 60 -25 26 -42 30 -61 17z"/>
<path d="M7687 1042 c-29 -31 -21 -59 24 -87 48 -31 46 -50 -4 -50 -43 0 -54
-9 -37 -30 17 -21 73 -19 93 3 30 33 19 75 -24 98 -39 20 -38 44 2 44 24 0 30
4 27 18 -5 25 -59 28 -81 4z"/>
<path d="M7810 1014 c-6 -14 -7 -31 -3 -37 4 -7 10 -34 13 -62 4 -38 9 -51 24
-53 32 -7 42 15 18 41 -27 29 -28 41 -1 65 l20 20 -24 26 c-30 32 -35 32 -47
0z"/>
<path d="M7936 989 c-52 -41 -25 -129 39 -129 60 0 90 85 45 130 -26 26 -51
25 -84 -1z m75 -35 c17 -21 0 -49 -31 -49 -31 0 -48 28 -31 49 8 9 21 16 31
16 10 0 23 -7 31 -16z"/>
<path d="M8093 1003 c-13 -2 -23 -7 -24 -11 -6 -52 -6 -111 1 -122 14 -23 30
0 30 45 0 35 4 45 21 50 41 13 16 46 -28 38z"/>
<path d="M8193 1003 c-25 -9 -14 -33 15 -33 27 0 29 -3 27 -37 0 -26 -5 -38
-15 -38 -10 0 -14 8 -13 23 3 24 -16 29 -35 10 -35 -35 0 -73 58 -63 l40 7 0
59 c0 69 -26 93 -77 72z"/>
<path d="M8343 1000 c-20 -8 -23 -17 -23 -59 0 -27 -4 -61 -10 -75 -18 -48 65
-80 104 -40 25 24 6 64 -30 64 -12 0 -12 -4 -4 -20 9 -16 8 -22 -5 -26 -25
-10 -39 10 -24 34 10 16 10 26 1 47 -13 29 -9 45 13 45 21 0 28 -19 13 -37
-11 -14 -11 -16 2 -11 21 7 45 52 37 71 -7 18 -39 21 -74 7z"/>
<path d="M8470 990 c-26 -26 -27 -90 -2 -113 36 -32 101 -12 86 26 -3 8 -1 18
5 22 18 10 12 34 -14 60 -29 30 -49 31 -75 5z"/>
<path d="M8338 423 c-3 -37 -4 -38 -43 -38 l-40 0 -3 -68 c-3 -62 -1 -68 15
-65 14 3 17 12 16 43 -3 39 17 75 42 75 18 0 24 -22 18 -67 -6 -49 12 -66 29
-28 l12 26 22 -28 c18 -22 25 -25 35 -16 10 10 8 17 -9 36 -26 28 -28 44 -5
69 21 24 9 36 -15 15 -32 -29 -43 -21 -40 30 4 63 -29 78 -34 16z"/>
<path d="M7447 443 c-5 -8 -11 -154 -8 -181 4 -42 36 -3 36 43 0 82 14 75 65
-35 4 -8 14 -16 22 -18 18 -3 35 175 19 191 -19 19 -33 -5 -28 -47 11 -81 -26
-77 -52 6 -7 20 -19 39 -27 42 -20 8 -22 8 -27 -1z"/>
<path d="M7770 404 c-8 -20 -8 -35 -1 -49 6 -11 12 -38 13 -60 3 -35 6 -40 31
-43 33 -4 34 9 5 48 -21 29 -21 30 -3 50 18 20 18 23 3 48 -23 37 -36 38 -48
6z"/>
<path d="M7639 374 c-39 -48 -7 -127 50 -122 46 4 51 33 7 33 -27 0 -30 3 -32
38 -2 31 0 37 18 37 16 0 19 -5 14 -24 -6 -23 14 -43 28 -29 11 11 6 59 -6 71
-17 17 -63 15 -79 -4z"/>
<path d="M7868 385 c-18 -18 41 -143 61 -131 15 9 14 53 -1 58 -6 2 -17 19
-23 38 -11 33 -25 46 -37 35z"/>
<path d="M8026 358 c-3 -18 -16 -40 -27 -49 -25 -18 -18 -62 8 -57 14 3 52 93
53 126 0 27 -28 10 -34 -20z"/>
<path d="M8112 382 c-22 -14 -33 -72 -19 -101 15 -33 85 -43 108 -15 51 62
-22 158 -89 116z m71 -43 c23 -37 -29 -69 -61 -37 -16 16 -15 23 4 43 19 19
43 16 57 -6z"/>
<path d="M8474 377 c-11 -30 0 -122 16 -122 20 0 22 126 3 132 -7 3 -15 -2
-19 -10z"/>
<path d="M8557 373 c-11 -45 -2 -118 16 -121 14 -3 17 4 17 41 0 52 20 77 46
56 11 -9 14 -22 9 -45 -3 -19 -1 -35 5 -39 18 -11 24 3 22 48 -4 73 -8 77 -62
77 -38 0 -50 -4 -53 -17z"/>
<path d="M8714 379 c-4 -6 -8 -35 -10 -63 -2 -28 -5 -64 -6 -81 -3 -27 0 -30
31 -33 71 -7 118 33 75 65 -29 21 -45 16 -38 -12 5 -21 3 -25 -14 -25 -36 0
-33 16 8 57 39 40 64 85 53 97 -11 11 -92 6 -99 -5z"/>
<path d="M3645 4965 c0 -297 1 -417 2 -267 2 150 2 393 0 540 -1 147 -2 24 -2
-273z"/>
<path d="M454 5165 c0 -181 2 -257 3 -168 2 89 2 237 0 330 -1 92 -3 20 -3
-162z"/>
<path d="M1166 5374 c-12 -31 -7 -41 18 -37 28 6 40 -9 31 -37 -8 -24 -41 -26
-53 -3 -12 21 -57 -59 -48 -84 7 -18 36 0 36 23 0 41 72 36 85 -6 7 -22 25
-27 25 -8 0 78 -76 200 -94 152z"/>
<path d="M2014 5346 c-3 -13 -1 -32 4 -43 5 -10 8 -32 5 -49 -5 -34 17 -60 43
-50 14 5 13 9 -5 32 -25 32 -26 51 -4 76 15 17 15 19 -2 38 -24 26 -33 25 -41
-4z"/>
<path d="M5157 5356 c-10 -24 5 -136 20 -147 25 -21 36 4 16 39 -15 26 -15 34
-4 55 10 19 10 29 2 46 -13 24 -27 27 -34 7z"/>
<path d="M1305 5328 c-8 -25 0 -163 10 -168 6 -3 11 7 13 23 3 23 8 27 37 27
38 0 55 20 55 65 0 56 -99 101 -115 53z m91 -43 c8 -21 -14 -55 -36 -55 -31 0
-45 36 -25 66 17 26 49 20 61 -11z"/>
<path d="M1466 5330 c-11 -19 -5 -181 6 -178 7 3 14 16 16 31 3 22 9 26 40 29
40 3 61 78 32 113 -11 13 -88 17 -94 5z m88 -42 c14 -23 -3 -52 -32 -56 -29
-4 -51 40 -32 63 16 20 49 16 64 -7z"/>
<path d="M1762 5328 c-42 -42 6 -153 55 -122 24 15 19 29 -13 34 -46 8 -43 64
4 68 20 2 32 8 29 15 -5 17 -59 21 -75 5z"/>
<path d="M1885 5330 c-6 -11 -3 -12 30 -14 15 -1 21 -9 23 -34 6 -62 -22 -80
-46 -29 -9 20 -11 20 -17 5 -13 -34 2 -48 50 -48 l45 0 0 46 c0 71 -57 120
-85 74z"/>
<path d="M2198 5329 c-31 -18 -25 -107 8 -119 58 -23 114 43 83 98 -16 30 -61
40 -91 21z m70 -35 c25 -45 -28 -84 -60 -44 -13 17 -15 26 -8 41 13 23 56 25
68 3z"/>
<path d="M2345 5331 c-12 -11 -5 -123 8 -118 6 2 12 19 12 38 1 42 11 59 35
59 21 0 31 -26 27 -70 -1 -16 3 -25 13 -25 17 0 16 91 -2 112 -9 11 -83 14
-93 4z"/>
<path d="M4444 5331 c-8 -9 -4 -170 5 -176 5 -3 11 7 13 22 3 24 8 29 43 33
45 6 66 51 46 103 -10 25 -87 38 -107 18z m86 -41 c20 -37 -24 -76 -55 -50
-19 16 -19 39 1 61 18 20 40 15 54 -11z"/>
<path d="M4605 5330 c-3 -5 -8 -135 -6 -167 2 -25 20 -13 23 15 3 23 8 27 38
30 48 5 75 89 38 120 -14 11 -87 12 -93 2z m90 -40 c20 -32 -32 -73 -60 -50
-20 16 -19 39 1 61 17 19 44 13 59 -11z"/>
<path d="M4902 5328 c-49 -60 12 -168 66 -115 17 17 12 22 -33 29 -38 6 -27
62 13 66 20 2 32 8 29 15 -5 17 -62 21 -75 5z"/>
<path d="M5027 5333 c-14 -14 -6 -22 21 -20 26 2 27 0 27 -43 0 -52 -21 -62
-42 -20 -10 21 -13 22 -19 7 -12 -33 3 -47 52 -47 l46 0 -4 56 c-3 33 -11 60
-19 65 -17 10 -53 12 -62 2z"/>
<path d="M5330 5320 c-42 -42 -17 -113 40 -113 60 0 89 71 49 120 -17 19 -66
16 -89 -7z m78 -41 c4 -31 -20 -53 -47 -44 -45 14 -30 79 17 73 21 -2 28 -9
30 -29z"/>
<path d="M5485 5330 c-7 -11 -9 -110 -2 -116 12 -13 27 8 21 31 -8 34 4 65 26
65 25 0 35 -17 35 -59 0 -19 6 -36 13 -38 8 -3 12 11 12 50 0 31 -5 59 -12 65
-14 11 -87 12 -93 2z"/>
<path d="M4724 4757 c-3 -8 -4 -49 -2 -93 l3 -79 45 -3 c73 -5 119 66 91 141
-16 42 -124 68 -137 34z m98 -34 c41 -37 9 -119 -44 -111 -23 3 -39 76 -24
114 7 19 46 18 68 -3z"/>
<path d="M5036 4725 c-4 -14 -2 -35 4 -46 6 -11 11 -30 10 -42 -4 -45 0 -57
19 -57 29 0 33 15 11 35 -24 22 -25 43 -4 66 15 16 14 20 -3 43 -23 32 -29 32
-37 1z"/>
<path d="M4933 4713 c-22 -8 -14 -22 15 -25 24 -3 27 -7 27 -43 0 -46 -32 -65
-42 -25 -7 28 -28 20 -28 -11 0 -31 80 -43 92 -14 19 52 -24 132 -64 118z"/>
<path d="M5155 4701 c-7 -12 -1 -14 31 -12 23 2 41 -63 23 -83 -13 -14 -39 2
-39 25 0 12 -5 19 -12 17 -40 -14 -13 -63 35 -65 57 -2 64 8 51 76 -9 47 -68
75 -89 42z"/>
<path d="M93 4175 c-8 -23 0 -27 61 -29 55 -1 84 13 72 33 -11 18 -125 14
-133 -4z"/>
<path d="M9814 3815 c-20 -15 12 -22 85 -17 57 3 85 -49 36 -68 -14 -6 -37
-15 -52 -20 -32 -13 -20 -29 28 -39 99 -20 55 -74 -59 -70 -106 4 -119 -16
-98 -150 8 -53 8 -53 38 -47 17 3 38 6 46 6 24 0 1 18 -27 22 -17 2 -25 10
-27 28 -2 14 -6 39 -9 56 -8 37 17 70 44 58 9 -4 30 -9 46 -10 17 -1 33 -3 38
-3 13 -2 7 -44 -9 -63 -14 -15 -15 -20 -3 -34 42 -51 5 -105 -70 -102 -60 2
-65 -2 -76 -72 -4 -25 -13 -55 -21 -67 -19 -30 -18 -77 3 -116 15 -29 26 -151
24 -277 0 -19 -1 -57 -1 -84 0 -27 -5 -57 -11 -67 -12 -23 56 -28 94 -8 20 11
19 12 -13 23 -28 9 -36 18 -43 49 -15 63 -9 67 93 67 89 0 90 0 90 25 0 24 -2
24 -92 27 l-93 3 -3 38 c-2 24 3 48 14 64 15 24 15 27 0 35 -44 24 -4 99 53
100 48 2 88 -82 47 -98 -14 -5 -14 -8 -1 -27 8 -12 15 -29 15 -39 0 -11 7 -18
18 -18 28 0 31 7 16 49 -10 29 -11 59 -5 115 5 41 6 105 3 142 l-5 66 -23 -26
c-32 -34 -88 -44 -114 -21 -43 39 -12 106 40 87 72 -27 100 16 100 153 0 60 4
82 18 100 32 41 28 198 -5 225 -31 24 -100 27 -129 5z m82 -619 c48 -48 6
-106 -48 -66 l-30 22 -14 -21 c-17 -23 -44 -27 -62 -9 -13 13 -17 80 -5 92 11
10 146 -5 159 -18z"/>
<path d="M1734 2908 c-81 -39 -48 -178 41 -178 61 0 89 35 82 104 -7 74 -59
106 -123 74z m77 -28 c21 -12 26 -68 9 -101 -26 -48 -100 -16 -100 43 0 53 45
82 91 58z"/>
<path d="M1912 2908 c-25 -25 -14 -67 23 -90 47 -27 43 -52 -8 -56 -48 -4 -44
-26 5 -30 71 -6 95 69 31 97 -54 24 -55 68 -1 57 24 -5 29 -3 26 12 -4 21 -57
29 -76 10z"/>
<path d="M9897 2723 c-3 -16 0 -34 6 -42 9 -10 6 -18 -13 -33 -20 -16 -21 -21
-9 -29 27 -17 39 -10 39 24 0 18 9 49 20 70 l20 37 -29 0 c-23 0 -30 -5 -34
-27z"/>
<path d="M9740 2592 c0 -5 18 -17 40 -27 46 -21 50 -36 15 -59 -56 -37 -23
-41 50 -6 77 36 89 53 41 58 -16 2 -42 12 -60 23 -31 19 -86 26 -86 11z"/>
<path d="M9760 2403 c0 -15 -4 -42 -9 -58 -14 -53 9 -157 34 -151 11 3 29 6
40 7 13 1 9 4 -10 8 -24 5 -30 12 -30 33 0 14 -3 30 -7 34 -32 31 3 94 51 94
51 0 85 -51 61 -90 -6 -10 -4 -20 6 -32 41 -45 -4 -98 -83 -98 l-49 0 -11 -42
c-11 -40 -9 -125 3 -206 l5 -33 49 7 c57 7 100 -13 100 -46 0 -11 5 -20 11
-20 7 0 8 18 4 54 -5 41 -3 63 9 87 19 39 14 49 -26 49 -25 0 -29 -3 -23 -17
29 -67 16 -93 -47 -93 -57 0 -91 53 -56 88 10 10 10 17 0 32 -15 24 -16 65 -2
90 23 43 120 32 120 -14 0 -30 9 -37 37 -30 21 6 21 6 -3 42 -15 22 -22 42
-17 51 3 9 8 50 9 91 2 41 5 84 8 95 4 17 -5 24 -52 43 -52 22 -94 40 -114 50
-5 2 -8 -9 -8 -25z"/>
<path d="M3500 2293 c-43 -14 -44 -16 -15 -23 17 -4 49 -8 71 -9 76 -2 83 -50
11 -74 -52 -17 -57 -33 -15 -42 18 -4 42 -13 53 -20 20 -12 26 32 17 127 -3
32 -76 57 -122 41z"/>
<path d="M3416 2203 c-17 -59 6 -106 44 -91 l25 9 -27 15 c-35 18 -36 41 -3
56 19 8 22 14 13 20 -22 13 -46 9 -52 -9z"/>
<path d="M6707 2138 c-2 -18 0 -39 6 -46 8 -11 6 -18 -11 -31 -24 -18 -20 -31
10 -31 13 0 18 7 18 25 0 14 7 42 15 61 17 40 13 54 -14 54 -13 0 -20 -10 -24
-32z"/>
<path d="M3413 2043 c-26 -63 -4 -178 32 -169 11 3 29 6 40 7 13 0 7 4 -13 10
-29 9 -33 13 -28 34 3 13 2 27 -4 30 -16 10 -12 75 4 81 68 26 147 -27 107
-70 -19 -20 -20 -24 -6 -36 50 -41 8 -103 -67 -99 l-53 3 -13 -44 c-8 -25 -19
-58 -24 -75 -20 -56 -21 -101 -3 -135 12 -23 18 -65 21 -139 5 -136 5 -142 0
-232 l-4 -75 35 -2 c53 -4 74 18 31 32 -31 10 -33 14 -36 64 l-3 52 89 0 c88
0 90 1 94 25 l5 25 -93 0 -94 0 0 49 c0 31 5 53 15 61 14 12 14 15 0 30 -41
45 -9 103 55 98 50 -3 76 -54 45 -88 -21 -23 11 -89 43 -90 26 0 28 8 6 39
-14 19 -15 36 -9 100 4 42 7 90 6 106 0 17 -2 54 -2 83 -1 43 -19 80 -19 39 0
-40 -94 -71 -123 -42 -38 38 -10 103 37 85 76 -28 116 35 102 159 -6 49 -4 61
14 83 11 15 20 28 20 30 0 1 -43 3 -97 3 l-96 0 -14 -32z m141 -373 c44 -43
-6 -110 -51 -69 l-24 24 -18 -24 c-36 -47 -98 8 -73 64 13 28 139 32 166 5z"/>
<path d="M6545 2010 c4 -6 24 -19 46 -30 46 -24 47 -29 14 -60 -14 -13 -25
-29 -25 -37 0 -9 7 -6 20 7 11 11 25 20 31 20 6 0 32 10 60 21 49 22 56 39 16
39 -12 0 -44 12 -72 25 -51 25 -101 33 -90 15z"/>
<path d="M6575 1827 c-24 -80 -21 -228 4 -227 18 1 35 21 24 28 -21 13 -28
126 -8 145 44 44 108 13 104 -51 -2 -26 2 -56 8 -68 31 -55 -19 -101 -97 -90
l-36 6 -12 -53 c-11 -48 -9 -145 4 -209 5 -25 7 -26 58 -21 68 7 96 -7 96 -48
0 -19 4 -28 11 -23 7 4 8 26 4 64 -5 44 -3 65 10 90 19 37 20 36 -24 45 -31 7
-33 5 -26 -11 23 -52 12 -88 -29 -95 -72 -12 -103 20 -77 77 8 17 8 31 1 44
-15 28 -12 76 6 94 33 34 114 13 114 -29 0 -21 5 -25 30 -25 35 0 38 10 10 35
-26 24 -33 47 -21 78 5 13 11 62 12 107 l2 83 -82 33 c-56 22 -83 29 -86 21z"/>
<path d="M3390 1070 c0 -5 19 -19 43 -31 23 -12 44 -23 46 -25 2 -2 -9 -17
-23 -35 -26 -31 -29 -51 -4 -32 7 5 39 20 71 33 63 25 79 58 24 52 -15 -2 -42
5 -60 16 -37 22 -97 36 -97 22z"/>
<path d="M3420 879 c0 -12 -5 -39 -11 -60 -22 -70 6 -158 48 -155 40 4 57 16
22 16 -37 0 -44 11 -47 73 -4 70 7 87 58 87 50 0 64 -19 57 -75 -4 -25 -2 -47
3 -50 49 -31 -3 -95 -77 -95 -47 0 -48 -1 -61 -40 -29 -93 -7 -257 32 -243 62
23 126 -1 126 -46 0 -20 2 -23 10 -11 6 8 7 40 4 71 -5 43 -2 62 10 81 20 30
13 38 -31 38 -33 0 -34 -1 -19 -22 35 -50 14 -88 -49 -88 -58 0 -90 51 -54 87
8 8 8 17 0 31 -16 30 -13 88 4 102 36 30 111 9 117 -32 3 -25 17 -31 37 -19
11 7 10 15 -9 41 -20 28 -21 36 -11 68 6 21 10 66 9 102 -1 36 0 71 2 78 3 8
-19 21 -64 37 -38 13 -74 29 -80 35 -16 16 -26 12 -26 -11z"/>
</g>
</svg>
