<?xml version="1.0" standalone="no"?>
<!DOCTYPE svg PUBLIC "-//W3C//DTD SVG 20010904//EN"
 "http://www.w3.org/TR/2001/REC-SVG-20010904/DTD/svg10.dtd">
<svg version="1.0" xmlns="http://www.w3.org/2000/svg"
 width="1000.000000pt" height="750.000000pt" viewBox="0 0 1000.000000 750.000000"
 preserveAspectRatio="xMidYMid meet">
<metadata>
Created by potrace 1.16, written by Peter Selinger 2001-2019
</metadata>
<g transform="translate(0.000000,750.000000) scale(0.100000,-0.100000)"
fill="currentColor" stroke="none">
<path d="M6150 7384 c-30 -8 -73 -11 -95 -9 -38 5 -76 -7 -63 -20 3 -4 55 -2
115 4 157 16 193 22 193 32 0 13 -86 9 -150 -7z"/>
<path d="M6302 7270 c-18 -11 -37 -32 -43 -47 -5 -14 -16 -31 -23 -37 -20 -16
-25 -73 -13 -134 11 -52 11 -53 -17 -75 -17 -14 -27 -30 -25 -41 4 -17 5 -17
28 1 32 26 53 96 40 131 -24 62 39 176 109 197 12 3 22 11 22 16 0 16 -44 10
-78 -11z"/>
<path d="M5720 6605 c-14 -8 -33 -14 -42 -15 -22 0 -88 -57 -88 -75 0 -8 -9
-17 -20 -20 -11 -3 -20 -14 -20 -24 0 -33 -48 -127 -83 -165 -27 -28 -32 -39
-21 -43 19 -7 42 14 59 54 9 22 21 33 34 33 23 0 34 28 25 64 -12 51 49 110
151 147 36 12 51 23 53 38 4 25 -12 26 -48 6z"/>
<path d="M2916 6411 c-37 -25 -47 -43 -35 -61 8 -12 14 -10 33 14 32 39 61 30
51 -16 -9 -42 7 -26 24 24 20 60 -14 78 -73 39z"/>
<path d="M5326 6269 c-14 -17 -26 -36 -26 -43 0 -7 -9 -21 -20 -31 -15 -13
-17 -22 -10 -29 8 -8 15 -6 23 6 66 96 68 98 99 98 26 0 29 2 18 15 -20 24
-56 18 -84 -16z"/>
<path d="M5047 6233 c-21 -13 -37 -31 -37 -42 0 -37 -55 -37 -95 0 -20 18 -22
17 -83 -40 -57 -53 -82 -101 -52 -101 6 0 10 6 10 13 0 40 100 100 149 89 41
-10 49 -9 71 9 14 10 42 31 62 45 l36 26 47 -21 c53 -24 55 -24 55 -13 -2 49
-106 72 -163 35z"/>
<path d="M3427 5820 c-31 -27 -38 -29 -61 -19 -30 14 -41 8 -32 -17 5 -13 14
-15 44 -10 60 11 69 16 86 41 24 36 2 39 -37 5z"/>
<path d="M9890 5425 c-72 -38 -172 -67 -195 -57 -32 15 -96 -3 -88 -24 3 -8
-3 -24 -12 -34 -26 -28 7 -28 42 0 14 11 31 20 38 20 6 0 20 -9 30 -20 22 -24
35 -26 35 -4 0 8 17 22 38 30 20 9 49 27 63 41 24 22 29 23 49 11 19 -12 23
-10 41 11 34 41 13 55 -41 26z"/>
<path d="M5805 5373 c-11 -3 -31 -14 -44 -24 l-24 -19 30 0 c16 0 34 -5 41
-12 9 -9 17 -5 36 15 26 28 50 34 62 16 3 -6 18 -9 32 -6 14 3 36 -2 48 -10
20 -13 26 -13 51 1 20 10 24 16 13 19 -44 15 -214 28 -245 20z"/>
<path d="M9303 5358 c-13 -6 -23 -17 -23 -25 0 -17 30 -16 53 1 19 15 53 11
77 -9 29 -24 100 -28 100 -6 0 27 -15 34 -75 37 -27 1 -63 4 -80 8 -16 3 -40
0 -52 -6z"/>
<path d="M9320 5272 c-8 -3 -28 -16 -45 -30 -18 -15 -22 -22 -10 -17 11 5 44
10 74 10 49 0 77 15 54 28 -17 9 -59 15 -73 9z"/>
<path d="M7047 5264 c-5 -5 1 -21 20 -53 2 -2 12 4 23 14 15 14 42 19 117 23
60 3 90 8 77 12 -24 9 -229 12 -237 4z"/>
<path d="M9791 5220 c-19 -11 -6 -40 18 -40 32 0 71 18 71 34 0 15 -67 20 -89
6z"/>
<path d="M9860 5135 c0 -9 6 -18 13 -21 8 -3 14 -18 14 -33 0 -16 9 -41 21
-56 12 -15 22 -36 22 -46 0 -55 36 -7 45 59 7 54 -5 68 -33 40 -17 -17 -42 8
-42 43 0 22 -5 29 -20 29 -11 0 -20 -7 -20 -15z"/>
<path d="M8648 5103 c-22 -6 -23 -26 -3 -43 8 -7 15 -25 15 -41 0 -32 11 -37
31 -13 11 14 10 18 -5 30 -18 12 -18 15 -2 38 24 37 17 43 -36 29z"/>
<path d="M8740 5080 c0 -11 7 -23 15 -26 8 -4 15 -16 15 -29 0 -13 9 -33 20
-46 l19 -24 1 36 c0 25 -5 39 -16 43 -10 4 -14 12 -10 22 7 19 -10 44 -30 44
-8 0 -14 -9 -14 -20z"/>
<path d="M8927 5033 c-54 -52 -68 -73 -49 -73 5 0 19 11 32 25 13 14 29 25 36
25 28 0 64 44 51 62 -12 15 -19 11 -70 -39z"/>
<path d="M9353 5059 c-15 -39 -9 -54 32 -79 39 -24 55 -25 55 -5 0 9 7 18 15
21 23 9 19 44 -5 44 -11 0 -20 -7 -20 -15 0 -16 -9 -19 -34 -9 -22 8 -21 44 2
44 15 1 15 2 -2 15 -27 20 -30 19 -43 -16z"/>
<path d="M9775 5044 c-40 -43 -36 -48 48 -58 55 -7 58 1 21 50 -32 41 -38 42
-69 8z"/>
<path d="M9075 5001 c-33 -28 -66 -51 -74 -51 -25 0 -80 -44 -86 -67 -6 -25
-21 -29 -45 -13 -13 9 -13 12 4 25 11 8 16 21 13 30 -12 30 -36 14 -42 -28 -1
-12 -4 -28 -6 -36 -3 -11 10 -15 59 -18 l64 -3 -7 29 c-6 29 25 51 71 51 7 0
34 20 59 44 25 25 55 46 68 48 27 4 29 32 2 36 -12 1 -44 -17 -80 -47z"/>
<path d="M7858 4920 c-13 -17 -35 -46 -50 -64 -28 -33 -36 -56 -20 -56 21 0
112 109 112 134 0 25 -16 19 -42 -14z"/>
<path d="M7940 4936 c0 -7 18 -37 41 -65 66 -82 116 -98 61 -19 -57 82 -102
120 -102 84z"/>
<path d="M8651 4937 c-6 -8 -8 -17 -4 -21 4 -4 7 -21 8 -38 0 -38 19 -47 35
-18 25 47 -8 113 -39 77z"/>
<path d="M9525 4890 c-3 -4 -2 -15 1 -23 3 -9 -3 -23 -15 -34 -12 -9 -21 -23
-21 -30 0 -18 27 -16 33 1 3 8 18 20 33 28 15 7 29 18 31 25 5 13 -55 45 -62
33z"/>
<path d="M8314 4868 c3 -13 6 -34 6 -48 1 -26 74 -119 85 -108 7 7 -33 95 -46
104 -5 3 -9 15 -9 28 0 23 -17 46 -33 46 -5 0 -7 -10 -3 -22z"/>
<path d="M8432 4871 c-20 -12 -10 -47 12 -43 16 3 17 -1 11 -25 -12 -45 -11
-58 5 -58 9 0 16 11 18 30 2 17 8 34 13 40 14 14 11 35 -6 35 -9 0 -18 7 -21
15 -7 17 -13 18 -32 6z"/>
<path d="M9130 4820 c-6 -11 -21 -20 -35 -20 -45 0 -77 -18 -73 -43 4 -27 53
-37 71 -13 13 17 88 7 95 -13 9 -26 23 -7 20 27 -2 30 -7 38 -25 40 -13 2 -23
10 -23 17 0 23 -18 27 -30 5z"/>
<path d="M9323 4819 c-23 -7 -33 -16 -33 -29 0 -11 -9 -25 -20 -32 -24 -15
-28 -79 -5 -98 23 -19 38 -2 31 36 -7 36 11 56 67 69 29 8 30 9 21 43 -7 24
-13 25 -61 11z"/>
<path d="M8858 4808 c-19 -6 -28 -17 -28 -31 0 -12 -3 -33 -7 -45 -8 -33 45
-6 76 37 36 50 22 63 -41 39z"/>
<path d="M8519 4793 c-24 -140 -15 -222 18 -170 11 17 12 96 1 103 -5 3 -6 21
-2 40 4 22 2 34 -5 34 -6 0 -12 -3 -12 -7z"/>
<path d="M8758 4789 c-9 -5 -27 -8 -40 -7 -17 2 -24 -3 -26 -20 -4 -30 73 -29
92 0 14 23 -3 40 -26 27z"/>
<path d="M8036 4767 c-35 -26 -16 -57 59 -96 137 -71 178 -83 141 -42 -21 24
-1 44 41 39 25 -3 27 0 29 30 1 17 -2 32 -7 32 -5 0 -9 -6 -9 -14 0 -14 -41
-26 -88 -26 -20 0 -23 -3 -14 -12 17 -17 15 -28 -4 -28 -9 0 -18 8 -21 19 -2
10 -20 25 -39 35 -34 16 -38 36 -8 36 8 0 14 5 14 10 0 6 -9 10 -19 10 -11 0
-23 5 -26 10 -8 14 -28 13 -49 -3z"/>
<path d="M7748 4750 c-13 -21 -101 -67 -173 -90 -54 -17 -65 -27 -65 -60 0
-15 -7 -33 -15 -40 -8 -7 -15 -16 -15 -21 0 -19 24 -8 54 25 17 18 51 42 76
52 25 10 71 33 103 52 31 18 71 38 87 44 34 11 39 33 11 48 -30 15 -50 12 -63
-10z"/>
<path d="M6985 4680 c-33 -16 -75 -33 -92 -36 -26 -5 -33 -11 -33 -30 0 -27
27 -33 37 -8 4 12 14 14 35 10 24 -5 39 2 80 34 48 39 52 40 74 25 13 -8 30
-15 38 -15 9 0 23 -11 32 -25 18 -28 114 -27 142 2 10 10 18 10 34 2 17 -9 24
-7 41 9 l20 21 -27 7 c-14 3 -41 3 -59 0 -89 -19 -104 -18 -155 8 -66 33 -93
33 -167 -4z"/>
<path d="M9734 4673 c-5 -17 -3 -28 5 -31 7 -2 21 -13 31 -24 19 -21 40 -17
40 7 0 12 -55 75 -66 75 -2 0 -7 -12 -10 -27z"/>
<path d="M6515 4650 c-3 -5 -14 -10 -23 -10 -16 -1 -72 -43 -72 -55 0 -10 54
7 72 23 14 12 20 12 33 2 26 -21 51 7 29 31 -19 21 -30 24 -39 9z"/>
<path d="M4727 4610 c-62 -45 -65 -60 -12 -60 29 0 36 4 41 25 12 47 73 60
118 24 33 -26 60 -21 64 11 3 23 0 25 -40 26 -24 0 -59 4 -78 8 -31 7 -42 3
-93 -34z"/>
<path d="M9112 4634 c-18 -12 -31 -13 -79 -5 -76 14 -73 15 -73 -19 0 -25 4
-30 23 -30 13 0 28 -5 34 -11 14 -14 127 40 131 64 4 21 -7 22 -36 1z"/>
<path d="M6615 4629 c-4 -5 1 -19 10 -29 22 -24 12 -40 -25 -40 -29 0 -64 -25
-55 -40 14 -23 56 -17 77 12 21 30 26 31 86 13 18 -6 22 -3 22 12 0 16 -5 19
-23 16 -18 -4 -29 4 -48 31 -25 38 -34 43 -44 25z"/>
<path d="M4515 4602 c-37 -12 -75 -44 -75 -63 0 -32 20 -32 26 0 9 42 83 46
120 6 27 -29 33 -30 60 -11 18 14 16 16 -27 34 -26 11 -50 25 -53 31 -8 12
-20 13 -51 3z"/>
<path d="M9465 4600 c-9 -14 16 -42 77 -86 26 -20 48 -44 50 -57 2 -12 10 -23
18 -25 22 -3 75 42 66 57 -6 9 -12 8 -26 -4 -18 -16 -20 -15 -48 23 -51 71
-121 118 -137 92z"/>
<path d="M5381 4557 c-36 -12 -66 -28 -69 -35 -6 -20 33 -14 53 8 22 25 51 26
63 3 12 -24 4 -43 -17 -43 -20 0 -41 -19 -41 -38 0 -22 53 -10 65 14 6 12 17
29 24 37 44 54 3 82 -78 54z"/>
<path d="M9330 4569 c0 -25 -36 -52 -59 -44 -26 8 -40 -19 -34 -62 3 -20 1
-33 -6 -33 -6 0 -17 -13 -26 -30 -19 -37 -20 -90 -1 -90 24 0 38 28 35 70 -3
31 1 44 14 51 9 6 17 18 17 28 0 50 103 88 147 55 18 -12 -13 -34 -48 -34 -13
0 -11 -16 4 -28 13 -11 62 0 95 21 18 12 15 47 -5 54 -10 3 -26 15 -35 27 -14
17 -19 19 -29 9 -18 -18 -39 -16 -55 5 -12 15 -13 15 -14 1z"/>
<path d="M7650 4559 c-81 -24 -53 -30 115 -24 94 4 224 2 290 -3 123 -11 164
-3 109 20 -18 7 -57 10 -104 8 -109 -6 -289 -5 -335 3 -22 3 -56 2 -75 -4z"/>
<path d="M4813 4545 c-8 -21 26 -45 55 -38 12 3 22 1 22 -4 0 -39 29 -48 59
-19 42 40 39 45 -16 42 -33 -1 -56 3 -75 16 -32 22 -37 22 -45 3z"/>
<path d="M9125 4550 c-26 -11 -57 -48 -50 -61 14 -22 99 -4 115 24 22 40 -12
60 -65 37z"/>
<path d="M9825 4540 c-17 -18 -18 -27 -8 -73 7 -32 7 -59 2 -69 -7 -14 -6 -18
6 -18 10 0 15 10 15 29 0 17 4 33 10 36 10 6 9 100 -1 110 -3 3 -14 -4 -24
-15z"/>
<path d="M6740 4505 c0 -18 -5 -25 -20 -25 -22 0 -27 -24 -10 -50 7 -11 12
-12 21 -3 17 17 48 90 41 97 -14 15 -32 4 -32 -19z"/>
<path d="M6304 4493 c-4 -16 -16 -35 -27 -44 -32 -26 -5 -66 28 -41 26 19 56
74 50 92 -10 30 -43 25 -51 -7z"/>
<path d="M9712 4478 c-18 -68 19 -144 52 -110 11 10 6 40 -6 45 -8 2 -13 22
-13 52 0 61 -19 69 -33 13z"/>
<path d="M9984 4499 c-6 -8 -14 -22 -17 -31 -4 -10 -17 -18 -30 -18 -41 0 -62
-41 -35 -68 9 -9 19 -4 42 22 17 18 37 35 44 37 9 3 12 17 10 38 -2 27 -5 31
-14 20z"/>
<path d="M4754 4489 c-4 -7 -21 -9 -46 -5 -31 5 -40 3 -45 -11 -9 -23 -23 -33
-50 -33 -27 0 -31 -16 -5 -24 57 -16 128 -4 137 24 3 10 17 21 31 24 21 6 24
9 14 21 -15 18 -26 19 -36 4z"/>
<path d="M4435 4480 c-4 -6 -4 -24 0 -40 6 -27 4 -30 -19 -30 -34 0 -33 -16 1
-25 30 -7 71 31 52 50 -5 5 -9 19 -9 32 0 24 -14 31 -25 13z"/>
<path d="M5885 4483 c-49 -8 -72 -28 -47 -42 27 -14 32 -14 32 4 0 27 30 16
51 -20 23 -38 33 -38 43 0 6 25 -18 66 -39 64 -5 -1 -23 -4 -40 -6z"/>
<path d="M7523 4483 c-22 -8 -14 -22 15 -25 29 -3 29 -2 17 -93 -3 -21 -2 -47
1 -57 6 -20 34 -25 35 -5 0 6 2 51 3 100 l3 87 -31 -1 c-17 0 -37 -3 -43 -6z"/>
<path d="M7645 4467 c-11 -41 -2 -102 15 -102 12 0 15 13 15 59 0 62 -19 89
-30 43z"/>
<path d="M7727 4478 c-17 -11 4 -42 32 -46 12 -2 18 -8 15 -14 -7 -12 16 -29
28 -22 4 3 8 14 8 25 0 14 7 19 28 19 31 0 52 -16 52 -39 0 -9 17 -30 37 -49
44 -39 79 -40 75 -3 -3 33 -6 35 -41 23 -26 -9 -31 -8 -46 14 -15 23 -14 25 2
30 10 3 30 11 45 19 26 13 29 12 39 -8 14 -25 49 -56 65 -57 21 0 23 -41 3
-58 -26 -23 -24 -42 5 -42 27 0 33 10 42 79 11 88 -8 121 -48 84 -18 -16 -20
-15 -43 9 -23 25 -76 45 -92 35 -5 -3 -50 -2 -101 2 -51 3 -99 3 -105 -1z"/>
<path d="M8234 4395 c-1 -88 5 -111 21 -84 4 5 7 32 7 59 -1 56 11 70 37 46
16 -14 19 -15 24 -2 7 17 -8 36 -45 59 -42 26 -43 24 -44 -78z"/>
<path d="M6070 4461 c0 -11 5 -23 10 -26 11 -7 13 -45 4 -69 -8 -20 -23 -20
-44 -1 -22 20 -63 -5 -43 -26 31 -32 133 -12 133 25 0 37 17 41 51 12 37 -32
49 -33 49 -5 0 29 -27 48 -67 49 -32 0 -73 29 -73 50 0 6 -4 10 -10 10 -5 0
-10 -9 -10 -19z"/>
<path d="M9550 4443 c0 -9 -8 -25 -17 -35 -19 -21 -9 -50 19 -56 21 -4 44 74
27 94 -16 19 -29 18 -29 -3z"/>
<path d="M7092 4434 c-25 -18 -6 -30 27 -17 38 14 61 0 61 -37 0 -31 17 -39
38 -18 46 46 -70 113 -126 72z"/>
<path d="M5110 4426 c0 -8 5 -18 10 -21 13 -8 -6 -44 -27 -52 -10 -4 -25 5
-44 28 -15 19 -31 31 -35 26 -4 -4 0 -15 8 -24 9 -10 18 -29 20 -43 2 -14 9
-24 16 -22 12 2 68 10 85 11 4 1 7 15 7 31 0 35 31 42 62 13 17 -15 18 -15 18
4 0 28 -31 53 -57 47 -11 -3 -30 -1 -42 5 -17 10 -21 9 -21 -3z"/>
<path d="M0 4374 c0 -10 16 -14 58 -15 31 0 129 -2 217 -5 88 -3 257 -6 375
-7 118 -2 391 -8 605 -15 215 -6 548 -14 740 -17 193 -2 397 -7 455 -10 l105
-4 -120 14 c-74 9 -267 16 -505 19 -549 8 -1461 35 -1555 46 -124 15 -375 11
-375 -6z"/>
<path d="M9300 4366 c0 -16 6 -26 15 -26 8 0 15 -4 15 -9 0 -6 -12 -9 -27 -8
-24 2 -29 -2 -31 -25 -3 -29 29 -41 43 -17 4 6 13 8 20 5 22 -8 37 20 33 61
-4 49 -68 67 -68 19z"/>
<path d="M4232 4364 c6 -31 55 -51 85 -34 36 21 38 35 6 35 -16 0 -43 4 -61 8
-27 5 -33 4 -30 -9z"/>
<path d="M4126 4346 c5 -22 1 -26 -28 -35 l-33 -11 40 4 c22 1 49 -3 61 -11
23 -15 54 -8 54 12 0 11 -81 65 -96 65 -3 0 -2 -11 2 -24z"/>
<path d="M9840 4325 c-14 -36 -18 -110 -7 -122 26 -25 48 81 27 132 -7 18 -9
18 -20 -10z"/>
<path d="M9742 4310 c-18 -28 -22 -44 -18 -79 4 -24 6 -50 6 -58 0 -8 5 -11
11 -8 6 4 9 19 7 34 -1 14 4 40 11 58 7 17 11 44 9 59 l-3 29 -23 -35z"/>
<path d="M3490 4316 c-75 -20 -120 -53 -120 -87 0 -30 -22 -74 -48 -96 -15
-12 -10 -43 7 -43 18 0 71 91 71 121 0 33 57 68 110 69 23 0 90 33 90 45 0 9
-64 4 -110 -9z"/>
<path d="M3781 4300 c-35 -9 -67 -24 -72 -33 -14 -24 6 -30 47 -12 34 14 42
14 87 -1 61 -20 78 -6 44 37 -25 32 -22 32 -106 9z"/>
<path d="M8410 4205 c-14 -8 -32 -14 -41 -15 -9 0 -26 -9 -38 -19 -13 -11 -27
-21 -32 -23 -14 -5 -15 -70 -2 -75 13 -5 17 2 28 50 5 25 9 28 34 22 23 -5 29
-2 34 14 3 12 18 23 36 28 17 4 32 12 34 18 3 16 -26 16 -53 0z"/>
<path d="M8484 4115 c-8 -20 4 -35 22 -28 8 3 23 -2 33 -11 10 -9 25 -14 33
-11 9 4 18 -1 21 -9 4 -9 11 -16 18 -16 18 0 6 16 -39 54 -46 38 -79 46 -88
21z"/>
<path d="M8774 4089 c-3 -6 -25 -19 -48 -29 l-41 -19 68 0 c74 -1 98 16 61 44
-23 17 -31 18 -40 4z"/>
<path d="M7782 3943 c2 -12 14 -19 33 -21 17 -1 40 -8 52 -14 24 -12 62 -3 47
11 -32 30 -137 48 -132 24z"/>
<path d="M7577 3918 c-7 -4 1 -12 18 -19 53 -20 171 -6 134 16 -16 11 -137 13
-152 3z"/>
<path d="M7950 3920 c0 -5 5 -10 10 -10 6 0 10 -8 10 -18 0 -14 14 -20 65 -30
80 -15 88 -15 83 0 -3 7 -18 12 -34 13 -22 0 -29 4 -27 18 1 16 -4 18 -32 13
-22 -5 -36 -2 -45 9 -14 17 -30 20 -30 5z"/>
<path d="M8448 3923 c-25 -6 -22 -19 5 -27 63 -17 194 -3 160 17 -13 7 -147
15 -165 10z"/>
<path d="M6817 3900 c-16 -13 -40 -20 -69 -20 -43 0 -90 -22 -76 -35 7 -8 83
8 163 34 28 8 57 16 65 17 45 3 46 4 30 14 -26 17 -86 11 -113 -10z"/>
<path d="M8225 3902 c-30 -31 104 -44 142 -14 22 17 21 17 -57 18 -44 0 -82
-1 -85 -4z"/>
<path d="M234 3803 c4 -32 7 -84 6 -116 -1 -52 1 -58 17 -55 33 7 20 228 -14
228 -13 0 -15 -8 -9 -57z"/>
<path d="M7383 3832 c-13 -2 -23 -8 -23 -13 0 -9 22 -11 190 -14 47 -2 101 -3
120 -4 61 -2 172 11 163 20 -8 8 -404 17 -450 11z"/>
<path d="M5344 3805 c-12 -8 -24 -12 -27 -9 -12 12 -208 15 -222 4 -10 -8 -30
-10 -59 -6 -34 5 -45 4 -49 -8 -8 -20 8 -29 37 -22 12 3 38 1 56 -4 21 -6 39
-6 51 1 10 5 52 11 91 13 98 5 155 16 169 32 16 20 -20 19 -47 -1z"/>
<path d="M5832 3813 c-59 -3 -82 -7 -79 -16 6 -20 76 -25 232 -16 83 4 163 8
179 9 47 0 19 14 -32 16 -26 1 -85 4 -132 6 -47 3 -122 3 -168 1z"/>
<path d="M9092 3802 c-24 -16 35 -46 66 -34 15 6 73 9 130 8 57 -1 105 1 108
6 5 8 -25 10 -161 13 -38 1 -83 5 -100 9 -16 3 -36 3 -43 -2z"/>
<path d="M6285 3790 c3 -5 14 -10 24 -10 9 0 23 -6 29 -12 8 -8 44 -14 85 -15
139 -5 182 -9 195 -17 23 -14 24 2 2 24 -19 19 -35 22 -143 26 -67 2 -139 7
-160 9 -25 4 -36 2 -32 -5z"/>
<path d="M5610 3781 c-64 -9 -20 -35 63 -37 57 -1 57 -1 44 20 -16 23 -38 27
-107 17z"/>
<path d="M6985 3749 c-11 -4 -37 -8 -57 -8 -41 -1 -88 -19 -88 -33 0 -11 251
1 264 12 17 16 -5 29 -39 23 -19 -3 -40 -1 -47 4 -8 6 -22 7 -33 2z"/>
<path d="M5913 3727 c-11 -18 17 -29 64 -24 26 3 75 8 108 12 107 11 81 23
-45 22 -67 -1 -124 -6 -127 -10z"/>
<path d="M7726 3725 c-3 -10 -20 -15 -48 -16 -24 0 -59 -6 -78 -14 l-35 -13
29 -7 c17 -5 48 -3 70 2 23 6 57 8 76 5 31 -4 34 -3 21 11 -7 9 -11 24 -7 32
3 9 0 15 -8 15 -8 0 -16 -7 -20 -15z"/>
<path d="M6256 3711 c-4 -6 -25 -11 -47 -11 -21 0 -39 -4 -39 -9 0 -19 170
-27 260 -12 56 10 37 18 -55 24 -38 3 -80 8 -91 12 -13 4 -25 2 -28 -4z"/>
<path d="M9555 3700 c-4 -6 -38 -8 -90 -4 -74 6 -85 5 -91 -10 -10 -26 3 -31
49 -19 33 9 48 8 75 -3 45 -19 82 -18 82 1 0 10 10 15 30 15 20 0 30 5 30 15
0 17 -75 22 -85 5z"/>
<path d="M5689 3674 c-10 -12 -23 -14 -60 -9 -47 7 -70 -4 -46 -23 25 -20 71
-20 109 -1 20 10 48 19 60 19 41 0 71 12 56 21 -23 15 -104 10 -119 -7z"/>
<path d="M7965 3630 c-13 -21 7 -27 102 -34 110 -7 223 -19 330 -36 45 -7 79
-8 89 -2 25 14 -31 30 -146 43 -52 6 -135 17 -185 25 -105 16 -181 18 -190 4z"/>
<path d="M6347 3623 c-4 -3 -24 -7 -44 -8 -21 0 -36 -5 -33 -10 3 -6 50 -8
111 -6 86 3 111 0 131 -13 18 -12 41 -15 84 -12 71 5 64 3 64 19 0 21 -294 50
-313 30z"/>
<path d="M8595 3614 c18 -13 40 -15 150 -15 70 0 75 0 75 11 0 6 -15 11 -32
10 -18 0 -73 2 -123 4 -79 4 -87 2 -70 -10z"/>
<path d="M5450 3598 c-14 -6 -44 -10 -66 -9 -33 1 -42 -2 -46 -17 -5 -17 -10
-18 -62 -9 -60 11 -110 -6 -58 -19 26 -8 28 -19 5 -33 -17 -9 -17 -10 0 -17
12 -4 26 1 42 16 19 18 31 21 58 16 37 -7 70 1 62 15 -8 12 29 29 62 29 42 0
104 20 98 31 -8 12 -63 11 -95 -3z"/>
<path d="M6015 3590 c-27 -10 -62 -19 -77 -19 -61 -2 -41 -30 25 -34 20 -2 39
-6 43 -10 20 -20 54 -7 48 18 -4 15 -2 25 4 25 30 0 66 21 52 30 -21 13 -37
11 -95 -10z"/>
<path d="M9396 3576 c-20 -32 -6 -41 38 -25 29 11 36 9 63 -10 22 -16 37 -20
57 -15 42 10 25 27 -38 40 -32 6 -63 17 -69 23 -17 17 -33 13 -51 -13z"/>
<path d="M9683 3583 c10 -10 35 -18 64 -19 27 -1 80 -5 118 -8 53 -4 59 -3 25
3 -25 4 -62 15 -82 25 -53 23 -149 23 -125 -1z"/>
<path d="M5720 3553 c-14 -3 -29 -9 -34 -14 -6 -5 -36 -9 -67 -9 -56 0 -61 -2
-97 -45 -19 -22 25 -21 50 2 10 9 30 17 46 18 99 8 177 29 167 46 -6 9 -21 10
-65 2z"/>
<path d="M6310 3537 c0 -12 8 -14 38 -10 27 4 42 1 51 -11 9 -11 30 -16 64
-16 56 0 55 7 -1 27 -64 23 -152 29 -152 10z"/>
<path d="M7280 3511 c-14 -4 -26 -15 -28 -24 -4 -19 121 -26 133 -7 3 6 15 10
26 10 34 0 20 17 -18 24 -46 7 -80 6 -113 -3z"/>
<path d="M7895 3508 c-11 -7 -38 -15 -60 -18 -28 -3 -41 -10 -43 -24 -3 -16 0
-18 19 -12 95 29 142 32 335 24 73 -3 129 -11 141 -19 17 -10 28 -10 60 0 39
13 65 15 112 9 13 -2 26 3 28 10 3 8 -10 12 -49 12 -29 0 -91 4 -138 9 -152
17 -383 22 -405 9z"/>
<path d="M8565 3502 c-52 -4 -73 -11 -58 -20 20 -13 296 -7 301 6 2 8 -12 13
-40 14 -72 3 -161 3 -203 0z"/>
<path d="M9330 3481 c-13 -9 -13 -11 0 -15 26 -9 155 -1 155 9 0 13 -136 18
-155 6z"/>
<path d="M8940 3471 c0 -12 37 -24 50 -16 5 3 43 1 85 -4 74 -11 110 -7 99 10
-3 5 -35 8 -72 7 -37 -2 -88 1 -114 5 -31 5 -48 5 -48 -2z"/>
<path d="M8040 3410 c-75 -8 -129 -23 -114 -32 5 -4 41 -3 78 2 46 6 77 5 93
-3 17 -7 27 -7 35 1 13 13 3 43 -14 40 -7 0 -42 -4 -78 -8z"/>
<path d="M8180 3411 c-26 -18 28 -28 142 -29 85 -1 117 -5 153 -21 48 -21 58
-13 30 26 -14 20 -24 21 -127 22 -62 0 -129 3 -148 6 -19 3 -42 1 -50 -4z"/>
<path d="M7404 3395 c-61 -28 -71 -61 -13 -45 18 6 62 10 96 10 63 0 78 6 64
28 -11 18 -111 24 -147 7z"/>
<path d="M6652 3374 c-13 -9 -29 -13 -37 -11 -7 3 -21 -4 -32 -15 -15 -17 -26
-19 -68 -14 -49 5 -50 5 -50 -20 0 -25 1 -25 50 -20 28 4 69 8 92 9 22 1 45 5
49 10 4 4 27 7 50 7 46 0 67 17 40 32 -9 5 -16 16 -16 23 0 20 -49 19 -78 -1z"/>
<path d="M9020 3360 c0 -28 124 -51 134 -25 3 9 4 21 0 26 -7 12 -134 12 -134
-1z"/>
<path d="M5198 3332 c-26 -5 -22 -19 10 -30 25 -9 130 -6 161 4 48 16 -108 39
-171 26z"/>
<path d="M6032 3328 c-7 -7 -12 -18 -12 -25 0 -16 36 -17 45 -2 4 6 23 9 43 7
28 -2 37 1 40 15 4 21 -96 25 -116 5z"/>
<path d="M6868 3323 c-51 -13 58 -45 120 -36 53 8 46 20 -16 27 -31 4 -64 9
-72 10 -8 2 -23 1 -32 -1z"/>
<path d="M7815 3310 c-3 -5 0 -13 8 -15 24 -10 202 -1 202 10 0 14 -201 19
-210 5z"/>
<path d="M7260 3298 c-14 -6 -51 -7 -82 -4 -53 5 -88 -7 -55 -19 23 -9 212
-10 217 -2 9 16 -53 35 -80 25z"/>
<path d="M7647 3249 c-12 -7 -41 -8 -75 -4 -40 5 -54 3 -47 -4 6 -5 51 -11
100 -13 81 -3 90 -5 87 -21 -3 -16 2 -18 25 -14 15 3 63 9 107 12 96 8 88 21
-19 30 -73 6 -100 10 -145 21 -8 2 -23 -2 -33 -7z"/>
<path d="M9625 3246 c-18 -13 -16 -15 30 -22 56 -9 116 -6 129 6 20 20 -133
35 -159 16z"/>
<path d="M6620 3231 c0 -21 143 -41 155 -21 4 6 5 13 2 16 -9 10 -157 14 -157
5z"/>
<path d="M6453 3205 c-30 -29 -29 -45 1 -45 16 0 27 7 31 20 8 25 66 28 85 5
15 -18 50 -20 50 -2 0 45 -128 62 -167 22z"/>
<path d="M8330 3190 c0 -11 90 -22 155 -19 28 1 80 -1 118 -6 68 -8 98 7 40
19 -48 10 -313 15 -313 6z"/>
<path d="M7474 3137 c-15 -8 -20 -37 -6 -37 4 0 14 6 21 13 10 10 15 9 25 -5
16 -22 64 -23 87 -2 16 14 25 15 70 4 50 -12 84 0 61 21 -11 10 -241 15 -258
6z"/>
<path d="M7760 3126 c0 -22 29 -27 61 -10 23 11 38 13 62 5 86 -26 214 -18
144 8 -45 17 -267 14 -267 -3z"/>
<path d="M9124 3121 c8 -12 61 -20 171 -26 44 -2 91 -7 105 -10 62 -12 104 -9
94 6 -3 6 -20 9 -38 6 -17 -3 -38 1 -46 8 -19 16 -295 31 -286 16z"/>
<path d="M5782 3074 c-37 -39 -35 -65 4 -40 13 9 30 16 39 16 8 0 15 3 15 8 0
4 3 17 6 30 10 34 -25 27 -64 -14z"/>
<path d="M9525 3091 c-7 -13 3 -18 50 -26 22 -4 47 -9 55 -12 8 -4 48 -7 88
-9 95 -3 83 20 -15 29 -37 4 -71 11 -77 17 -13 13 -93 13 -101 1z"/>
<path d="M6798 3058 c-31 -12 -15 -33 22 -30 18 1 38 -2 45 -8 19 -16 75 -1
75 20 0 20 -102 32 -142 18z"/>
<path d="M7367 3054 c-26 -26 13 -42 118 -47 63 -3 54 26 -10 35 -27 3 -61 9
-75 13 -14 3 -29 3 -33 -1z"/>
<path d="M8000 3040 c0 -5 12 -12 28 -15 15 -4 47 -15 71 -26 76 -35 110 -7
36 29 -46 22 -135 30 -135 12z"/>
<path d="M8756 3041 c-4 -6 -19 -11 -34 -11 -15 0 -34 -5 -42 -10 -25 -16 7
-30 65 -28 28 1 69 -2 93 -6 43 -8 61 8 25 21 -10 3 -25 12 -33 19 -22 18 -67
27 -74 15z"/>
<path d="M8911 2996 c-15 -18 73 -41 108 -28 13 4 53 5 89 0 68 -8 97 1 75 23
-18 18 -258 22 -272 5z"/>
<path d="M8221 2975 c6 -31 169 -56 169 -26 0 15 -55 33 -114 39 -52 4 -58 3
-55 -13z"/>
<path d="M8540 2951 c-45 -9 -60 -18 -60 -37 0 -21 49 -22 62 0 11 20 90 7 95
-15 7 -27 20 -24 26 6 7 39 -52 60 -123 46z"/>
<path d="M8806 2911 c-20 -32 109 -47 150 -16 18 14 18 14 -11 15 -16 0 -53 3
-81 6 -33 4 -54 3 -58 -5z"/>
<path d="M9705 2870 c-12 -20 28 -41 66 -35 27 5 45 2 63 -10 26 -17 72 -17
70 0 -2 26 -185 67 -199 45z"/>
<path d="M5985 2850 c-38 -42 12 -78 53 -37 21 22 23 28 12 41 -17 22 -43 20
-65 -4z"/>
<path d="M9166 2863 c-2 -2 -120 -12 -216 -19 -179 -13 -233 -24 -214 -45 25
-28 10 -34 -46 -20 -49 13 -90 8 -90 -10 0 -5 12 -9 28 -9 15 -1 38 -7 52 -15
37 -21 60 -18 82 11 15 19 27 24 43 20 14 -4 28 0 35 9 7 8 22 15 34 15 12 0
27 5 33 11 14 14 151 13 222 -1 54 -10 62 -8 73 22 2 3 41 1 86 -5 63 -8 98
-8 140 1 59 12 51 14 212 -38 82 -27 105 -29 105 -10 0 9 -15 17 -42 22 -24 4
-64 16 -90 28 -41 18 -433 47 -447 33z"/>
<path d="M7810 2837 c0 -17 21 -27 58 -27 14 0 34 -8 44 -17 18 -16 21 -16 48
0 45 27 118 -12 94 -49 -15 -23 -15 -24 5 -24 16 0 21 6 21 25 0 33 53 37 70
5 19 -36 60 -26 60 14 0 55 -15 61 -174 59 -82 -1 -146 3 -153 9 -21 17 -73
21 -73 5z"/>
<path d="M7472 2764 c3 -16 13 -19 70 -20 38 0 73 -6 82 -13 18 -15 36 -6 36
18 0 14 -9 18 -45 19 -25 0 -68 3 -96 7 -46 6 -51 5 -47 -11z"/>
<path d="M3300 2747 c0 -9 8 -16 18 -16 9 -1 34 -4 54 -7 41 -7 95 2 83 14 -4
4 -23 8 -43 9 -21 1 -54 5 -74 8 -31 6 -38 4 -38 -8z"/>
<path d="M7984 2722 c15 -18 15 -20 -4 -37 -23 -21 -11 -55 18 -55 43 0 56 56
22 90 -27 27 -61 29 -36 2z"/>
<path d="M3476 2691 c5 -31 2 -42 -16 -59 -41 -38 -21 -61 22 -24 35 31 36 34
22 60 -8 15 -14 35 -14 45 0 9 -5 17 -10 17 -6 0 -8 -15 -4 -39z"/>
<path d="M8550 2690 c0 -21 4 -24 52 -34 15 -4 37 -16 48 -28 19 -21 21 -21
37 -5 25 25 -25 72 -73 69 -18 -2 -35 2 -39 8 -10 17 -25 11 -25 -10z"/>
<path d="M9543 2675 c-17 -47 49 -63 93 -24 11 11 28 19 37 19 9 0 17 5 17 10
0 18 -140 12 -147 -5z"/>
<path d="M9668 2386 c-19 -14 -24 -36 -9 -36 6 0 13 5 16 10 10 16 137 12 162
-5 26 -19 53 11 31 33 -17 17 -178 15 -200 -2z"/>
<path d="M5822 2285 c-1 -105 5 -122 31 -85 26 38 9 190 -22 190 -4 0 -8 -47
-9 -105z"/>
<path d="M8802 2159 c9 -28 115 -60 129 -38 19 30 10 38 -38 37 -27 -1 -59 2
-72 6 -17 6 -22 5 -19 -5z"/>
<path d="M2760 2080 c-16 -39 -7 -48 29 -27 16 9 36 14 45 11 23 -9 39 5 25
22 -7 8 -20 12 -35 8 -15 -4 -24 -2 -24 5 0 23 -28 10 -40 -19z"/>
<path d="M6782 2087 c-13 -15 -6 -77 9 -77 4 0 12 7 17 15 4 9 21 19 38 24 19
5 29 14 29 27 0 24 -75 33 -93 11z"/>
<path d="M6282 2063 c-30 -79 -51 -217 -34 -227 5 -3 12 -23 16 -45 6 -42 21
-60 37 -44 7 7 2 32 -11 72 -23 66 -18 91 21 91 26 0 24 12 -6 40 -28 27 -32
52 -10 70 17 14 19 38 6 58 -6 10 -11 6 -19 -15z"/>
<path d="M8658 2046 c-23 -32 -7 -45 55 -44 54 1 56 5 17 35 -42 34 -53 35
-72 9z"/>
<path d="M6737 1954 c-16 -16 -5 -33 28 -44 20 -7 44 -21 55 -32 30 -33 55
-17 35 22 -20 39 -97 74 -118 54z"/>
<path d="M5883 1918 c-34 -38 -43 -79 -25 -110 17 -29 35 -39 26 -14 -9 24 15
56 41 56 29 0 32 18 10 60 -19 36 -25 37 -52 8z"/>
<path d="M8390 1770 c0 -21 33 -60 50 -60 5 0 12 -16 16 -35 10 -53 29 -62 48
-24 18 36 13 46 -24 51 -20 2 -28 12 -38 46 -15 46 -52 62 -52 22z"/>
<path d="M8595 1714 c-17 -41 -20 -80 -5 -89 14 -9 37 35 43 83 7 54 -16 58
-38 6z"/>
<path d="M7700 1675 c0 -8 9 -19 20 -25 11 -6 20 -17 20 -25 0 -23 22 -29 36
-10 17 23 48 15 107 -30 44 -34 67 -43 67 -27 0 13 -61 62 -77 62 -8 0 -26 9
-40 20 -14 11 -36 20 -48 20 -12 0 -28 7 -35 15 -16 19 -50 19 -50 0z"/>
<path d="M6312 1528 c-7 -7 -12 -15 -12 -20 0 -4 -12 -32 -26 -63 -18 -38 -23
-59 -16 -68 5 -6 12 -29 16 -49 11 -58 26 -45 26 22 0 33 4 68 9 78 33 65 35
132 3 100z"/>
<path d="M9602 1468 c-22 -22 0 -46 56 -63 32 -9 30 28 -4 54 -31 24 -36 25
-52 9z"/>
<path d="M8770 1290 c0 -13 107 -63 120 -55 15 9 3 23 -40 45 -42 21 -80 26
-80 10z"/>
<path d="M6263 1199 c-18 -18 5 -72 28 -66 23 6 37 -12 19 -23 -11 -7 -10 -14
4 -35 29 -45 38 -15 15 50 -30 83 -43 97 -66 74z"/>
<path d="M9820 780 c0 -11 -6 -30 -12 -41 -11 -18 -10 -23 1 -27 7 -2 21 -13
29 -23 17 -19 52 -26 52 -10 0 5 -11 16 -25 25 -19 12 -25 25 -25 51 0 18 -4
37 -10 40 -5 3 -10 -3 -10 -15z"/>
<path d="M7046 702 c-25 -49 -31 -102 -11 -102 12 0 16 6 13 18 -3 11 7 31 28
52 26 26 31 37 23 47 -18 21 -37 15 -53 -15z"/>
<path d="M5245 676 c-18 -27 -11 -56 14 -56 21 0 46 43 38 64 -9 23 -34 19
-52 -8z"/>
<path d="M4150 620 c-12 -8 -11 -10 8 -10 12 0 32 -10 44 -22 13 -13 36 -22
60 -23 39 -2 51 8 21 19 -10 3 -31 14 -48 25 -34 22 -63 26 -85 11z"/>
<path d="M7386 574 c-3 -9 -6 -24 -6 -34 0 -9 -7 -23 -15 -30 -18 -15 -20 -63
-2 -58 6 3 17 19 23 36 5 18 15 37 22 44 17 17 15 58 -2 58 -8 0 -17 -7 -20
-16z"/>
<path d="M6449 547 c-19 -14 -35 -57 -21 -57 6 0 12 6 15 14 9 22 57 29 77 11
13 -11 20 -13 25 -5 12 19 -4 43 -25 37 -11 -3 -23 -1 -26 4 -7 12 -26 11 -45
-4z"/>
<path d="M5911 512 c-48 -18 -66 -42 -33 -42 28 0 112 37 112 50 0 14 -28 12
-79 -8z"/>
<path d="M4605 415 c-8 -50 -19 -63 -40 -45 -9 7 -15 8 -20 0 -12 -19 6 -31
37 -25 21 5 35 2 48 -10 19 -17 40 7 40 46 0 15 -17 10 -24 -6 -10 -27 -29
-17 -23 13 12 58 12 65 0 69 -7 3 -14 -13 -18 -42z"/>
<path d="M3895 380 c-3 -5 -23 -10 -44 -10 -49 0 -61 -14 -61 -73 0 -43 2 -48
15 -37 8 7 12 17 9 22 -20 32 27 78 81 78 14 0 25 4 25 9 0 15 -18 23 -25 11z"/>
<path d="M9647 374 c-9 -10 -9 -36 1 -52 6 -9 18 -7 50 8 46 22 55 40 20 40
-13 0 -32 3 -43 6 -11 3 -24 2 -28 -2z"/>
<path d="M6902 328 c-24 -24 -14 -55 27 -76 21 -11 42 -18 45 -15 12 12 6 24
-19 35 -22 10 -25 16 -20 40 7 30 -10 39 -33 16z"/>
<path d="M5353 272 c-55 -27 -64 -39 -37 -49 9 -3 21 3 30 16 9 12 26 21 40
21 32 0 66 18 59 31 -10 15 -36 10 -92 -19z"/>
<path d="M9297 243 c-3 -4 -5 -20 -5 -34 0 -15 -6 -41 -15 -58 -8 -17 -11 -31
-6 -31 6 0 21 -12 34 -26 31 -33 43 -13 25 41 -6 19 -10 51 -8 72 3 33 -13 56
-25 36z"/>
</g>
</svg>
