<?xml version="1.0" standalone="no"?>
<!DOCTYPE svg PUBLIC "-//W3C//DTD SVG 20010904//EN"
 "http://www.w3.org/TR/2001/REC-SVG-20010904/DTD/svg10.dtd">
<svg version="1.0" xmlns="http://www.w3.org/2000/svg"
 width="1000.000000pt" height="563.000000pt" viewBox="0 0 1000.000000 563.000000"
 preserveAspectRatio="xMidYMid meet">
<metadata>
Created by potrace 1.16, written by Peter Selinger 2001-2019
</metadata>
<g transform="translate(0.000000,563.000000) scale(0.100000,-0.100000)"
fill="currentColor" stroke="none">
<path d="M325 5619 c-4 -6 -19 -7 -36 -4 -31 7 -75 -2 -64 -13 4 -4 26 -7 48
-7 30 0 42 -4 43 -15 1 -8 2 -21 3 -27 3 -37 28 -9 29 32 0 43 -9 57 -23 34z"/>
<path d="M1720 5608 c0 -64 29 -207 49 -238 26 -43 26 -39 1 40 -13 41 -20 90
-20 141 0 64 -3 79 -15 79 -9 0 -15 -9 -15 -22z"/>
<path d="M1806 5618 c38 -64 144 -154 144 -122 0 8 -11 18 -23 23 -27 10 -72
61 -82 91 -4 11 -15 20 -26 20 -14 0 -18 -4 -13 -12z"/>
<path d="M5200 5621 c0 -16 89 -115 115 -129 14 -7 25 -21 25 -30 0 -16 49
-62 65 -62 18 0 -1 39 -30 60 -18 14 -38 34 -43 45 -32 67 -132 155 -132 116z"/>
<path d="M5333 5619 c9 -5 17 -14 17 -19 0 -17 64 -100 77 -100 18 0 16 23 -4
81 -18 49 -18 49 -63 49 -35 -1 -41 -3 -27 -11z"/>
<path d="M5511 5603 c6 -15 15 -33 21 -40 6 -7 13 -46 16 -86 7 -105 25 -131
33 -49 3 36 13 70 22 80 26 28 20 51 -18 73 -19 12 -35 27 -35 35 0 8 -10 14
-25 14 -23 0 -24 -2 -14 -27z"/>
<path d="M5768 5601 l-28 -27 19 -49 c10 -27 24 -51 30 -53 19 -6 24 27 8 52
-14 20 -14 26 -2 42 37 48 15 76 -27 35z"/>
<path d="M5898 5616 c-22 -16 -23 -30 -4 -46 11 -8 12 -18 6 -35 -6 -15 -6
-27 0 -30 13 -8 13 -122 1 -129 -5 -4 -21 8 -36 26 -20 24 -29 28 -35 18 -8
-14 6 -66 21 -76 5 -3 9 -19 9 -35 0 -31 46 -103 60 -94 12 7 23 133 24 278 2
146 -2 157 -46 123z"/>
<path d="M6076 5561 c-12 -47 -16 -86 -12 -123 3 -29 6 -65 6 -80 1 -33 10
-35 34 -9 11 12 14 21 7 26 -13 7 -15 92 -2 99 5 3 9 39 10 81 2 99 -18 102
-43 6z"/>
<path d="M6625 5613 c-15 -37 -34 -167 -26 -181 14 -25 41 27 41 79 0 35 5 50
20 60 14 10 18 21 14 37 -7 26 -39 29 -49 5z"/>
<path d="M6755 5623 c29 -7 40 -20 28 -35 -5 -7 -10 -28 -11 -45 -3 -43 17
-35 41 16 28 62 24 71 -30 70 -27 -1 -39 -3 -28 -6z"/>
<path d="M6918 5593 c-38 -44 -24 -87 21 -64 15 8 20 20 19 46 -1 38 -16 45
-40 18z"/>
<path d="M2842 5583 c5 -28 102 -65 124 -48 30 21 4 43 -32 26 -23 -10 -29 -9
-50 14 -26 29 -47 33 -42 8z"/>
<path d="M498 5583 c-23 -6 -23 -15 2 -36 11 -9 20 -24 20 -32 0 -19 24 -19
40 -1 11 14 -23 78 -39 75 -3 -1 -14 -3 -23 -6z"/>
<path d="M8174 5562 c-35 -25 -50 -82 -22 -82 6 0 20 -7 30 -17 17 -15 18 -14
18 40 0 56 -7 72 -26 59z"/>
<path d="M4013 5538 c-26 -29 -76 -134 -71 -150 6 -16 39 21 83 90 44 67 35
111 -12 60z"/>
<path d="M6436 5530 c-15 -17 -26 -41 -25 -53 1 -12 -1 -30 -5 -39 -9 -21 10
-58 29 -58 18 0 21 45 4 56 -8 5 -6 10 5 16 9 5 16 18 16 29 0 11 5 30 11 41
19 35 -5 41 -35 8z"/>
<path d="M110 5521 c-16 -31 -12 -59 10 -71 11 -6 20 -17 20 -24 0 -23 29 -41
43 -27 9 9 7 16 -10 29 -14 11 -24 33 -28 65 -8 50 -18 59 -35 28z"/>
<path d="M7145 5532 c-3 -3 -5 -16 -5 -29 0 -12 -4 -23 -10 -23 -5 0 -10 -14
-10 -30 0 -36 23 -30 43 11 18 34 47 38 47 5 0 -19 5 -26 19 -26 39 0 39 53 1
63 -11 3 -20 12 -20 20 0 15 -52 22 -65 9z"/>
<path d="M7036 5509 c-22 -10 -48 -19 -58 -19 -44 0 -168 -88 -168 -118 0 -9
-9 -41 -20 -69 -21 -56 -15 -103 14 -103 30 0 40 28 28 81 -11 48 -11 53 13
81 14 16 25 34 25 38 0 5 16 9 37 8 35 -1 71 25 86 64 7 19 36 -21 38 -52 1
-21 2 -20 9 8 4 18 15 41 25 52 32 35 16 51 -29 29z"/>
<path d="M3874 5506 c-16 -6 -43 -19 -58 -29 -22 -15 -43 -18 -102 -15 -64 3
-75 0 -80 -14 -13 -43 23 -49 106 -17 30 11 77 26 104 33 26 8 58 23 69 35 24
24 12 26 -39 7z"/>
<path d="M576 5485 c-3 -10 5 -20 24 -30 16 -8 36 -24 44 -36 l15 -22 27 22
c17 13 21 21 12 21 -8 0 -34 14 -56 30 -47 34 -57 36 -66 15z"/>
<path d="M6718 5493 c-32 -5 -36 -18 -11 -32 21 -11 6 -34 -39 -57 -26 -13
-28 -19 -28 -69 0 -62 -19 -75 -43 -28 -17 31 -41 5 -31 -34 3 -11 -2 -37 -10
-58 -21 -49 -20 -58 4 -52 12 3 24 -1 29 -11 8 -14 12 -15 23 -4 10 10 10 17
0 32 -18 29 -15 39 12 50 15 5 32 27 46 57 12 26 30 65 41 85 10 20 19 43 19
50 0 7 9 19 20 26 22 13 28 53 8 51 -7 -1 -25 -4 -40 -6z"/>
<path d="M207 5483 c-14 -14 -6 -45 13 -50 24 -6 26 -29 3 -41 -14 -8 -12 -12
14 -25 17 -9 33 -13 37 -10 12 13 6 64 -9 69 -8 4 -15 14 -15 23 0 28 -28 50
-43 34z"/>
<path d="M482 5396 c-9 -24 -10 -41 -2 -61 16 -43 35 -25 35 35 0 62 -16 75
-33 26z"/>
<path d="M3865 5421 c-23 -20 -170 -62 -211 -60 -43 3 -64 -5 -51 -18 7 -6 74
-12 144 -13 19 0 36 -7 41 -16 10 -18 32 -11 32 11 0 8 -7 11 -20 8 -16 -4
-20 0 -20 17 0 20 4 22 31 16 32 -6 99 31 99 55 0 11 -33 12 -45 0z"/>
<path d="M4712 5404 c-32 -22 -27 -31 21 -38 68 -10 85 1 45 30 -38 28 -37 28
-66 8z"/>
<path d="M4841 5381 c-23 -15 -4 -41 29 -41 17 0 44 -10 61 -22 24 -18 33 -20
47 -11 14 9 22 6 44 -14 17 -17 33 -23 44 -19 25 10 -20 56 -55 56 -42 1 -118
24 -138 42 -12 11 -23 14 -32 9z"/>
<path d="M5267 5383 c-14 -13 -6 -22 51 -54 31 -18 76 -48 100 -66 53 -40 72
-42 72 -8 0 27 -4 30 -62 40 -21 3 -38 11 -38 17 0 6 11 8 25 6 33 -7 53 16
34 38 -10 12 -23 14 -55 9 -30 -4 -52 -1 -73 9 -33 18 -44 19 -54 9z"/>
<path d="M407 5373 c-19 -32 -11 -148 11 -151 21 -3 22 -1 22 77 0 76 -14 106
-33 74z"/>
<path d="M720 5375 c0 -4 10 -20 23 -35 12 -15 31 -43 41 -61 27 -48 32 -16 8
47 -17 43 -72 80 -72 49z"/>
<path d="M2831 5346 c-12 -30 -89 -46 -107 -21 -7 10 -27 15 -60 15 -39 -1
-45 -3 -31 -11 10 -6 28 -8 40 -5 32 8 60 -12 30 -20 -70 -19 35 -26 122 -9
18 4 45 45 45 67 0 18 -31 6 -39 -16z"/>
<path d="M6352 5358 c-7 -7 -12 -30 -12 -53 0 -39 -3 -42 -45 -63 -25 -12 -45
-25 -45 -29 1 -18 53 -46 68 -37 14 9 102 168 102 185 0 13 -54 11 -68 -3z"/>
<path d="M589 5316 c-13 -13 -32 -36 -42 -50 -15 -21 -25 -26 -50 -24 -39 4
-49 -42 -11 -52 19 -5 50 -35 92 -89 l19 -25 12 22 c15 27 5 70 -12 53 -23
-23 -37 -12 -37 29 0 48 22 95 50 110 19 10 28 50 11 50 -4 0 -19 -11 -32 -24z"/>
<path d="M670 5310 c0 -12 -7 -32 -16 -45 -13 -19 -14 -38 -9 -85 10 -90 29
-77 33 22 1 48 7 85 13 89 14 8 5 39 -11 39 -5 0 -10 -9 -10 -20z"/>
<path d="M3026 5305 c-11 -8 -29 -12 -41 -9 -13 3 -27 -2 -39 -15 -20 -22 -9
-30 13 -8 10 10 16 7 31 -13 l19 -25 28 28 c15 15 37 34 48 42 19 14 19 14
-10 14 -16 0 -39 -6 -49 -14z"/>
<path d="M4760 5303 c-62 -7 -67 -12 -31 -34 l33 -20 15 20 c18 27 37 26 62 0
11 -12 26 -19 35 -16 9 3 18 2 21 -3 9 -14 37 -12 33 2 -3 9 -39 25 -118 50
-8 3 -31 3 -50 1z"/>
<path d="M6067 5282 c-6 -15 -11 -54 -11 -87 -1 -33 -5 -66 -10 -73 -10 -16 7
-37 23 -28 26 17 44 75 27 91 -14 14 -13 20 4 61 24 55 24 51 -1 57 -15 4 -23
-1 -32 -21z"/>
<path d="M3849 5278 c-7 -13 -18 -27 -25 -31 -16 -9 -19 -83 -4 -92 6 -4 10 6
10 22 0 19 12 42 35 67 19 21 32 42 29 47 -10 16 -33 9 -45 -13z"/>
<path d="M5290 5235 c0 -8 5 -15 10 -15 6 0 20 -11 32 -25 12 -14 29 -25 39
-25 9 0 22 -6 29 -14 6 -8 24 -16 38 -18 37 -4 41 -40 8 -73 -26 -26 -35 -55
-16 -55 5 0 12 11 16 25 6 25 7 25 25 9 27 -24 41 -7 37 47 -2 35 -7 45 -23
47 -11 2 -31 14 -45 27 -63 58 -150 98 -150 70z"/>
<path d="M5005 5210 c-3 -5 1 -23 10 -40 15 -29 15 -30 -5 -30 -14 0 -20 -7
-20 -21 0 -19 4 -21 37 -14 51 9 53 11 43 47 -15 49 -50 82 -65 58z"/>
<path d="M5257 5170 c-4 -16 -14 -20 -49 -20 l-43 0 40 -35 c46 -39 54 -42 61
-17 3 9 11 27 16 39 11 23 5 53 -11 53 -5 0 -11 -9 -14 -20z"/>
<path d="M375 5151 c-3 -5 5 -30 17 -56 18 -38 20 -49 10 -65 -16 -27 -15 -43
3 -37 8 4 17 2 20 -4 24 -39 33 50 10 95 -8 15 -15 39 -15 52 0 24 -32 35 -45
15z"/>
<path d="M4801 5141 c-15 -26 8 -61 40 -61 10 0 21 -4 24 -10 3 -5 15 -10 25
-10 10 0 21 -9 25 -20 5 -16 9 -18 26 -7 26 16 24 27 -5 27 -15 0 -26 7 -29
20 -4 17 -11 19 -30 14 -22 -5 -28 -1 -45 32 -19 37 -19 37 -31 15z"/>
<path d="M174 5125 c-4 -15 3 -47 17 -84 25 -63 45 -72 34 -15 -3 21 -2 34 5
34 5 0 10 -10 10 -23 0 -30 35 -67 63 -67 21 1 22 1 2 12 -31 17 -36 30 -29
71 6 37 1 42 -33 38 -8 -1 -13 10 -13 29 0 40 -46 45 -56 5z"/>
<path d="M5620 5135 c0 -9 11 -21 25 -27 14 -6 25 -17 25 -24 0 -7 12 -23 28
-36 15 -13 34 -37 42 -53 8 -16 21 -30 28 -33 18 -6 16 88 -4 116 -8 12 -14
32 -12 44 2 15 -3 24 -15 26 -15 3 -17 -3 -12 -55 4 -39 3 -51 -4 -38 -5 12
-16 27 -25 34 -9 7 -16 24 -16 37 0 20 -5 24 -30 24 -20 0 -30 -5 -30 -15z"/>
<path d="M6210 5129 c0 -5 8 -9 18 -9 46 0 54 -41 12 -57 -16 -6 -32 -17 -33
-25 -2 -7 -9 -27 -14 -45 -9 -26 -8 -35 4 -44 19 -16 36 6 28 38 -4 16 3 27
22 41 34 24 64 74 55 88 -9 14 -92 25 -92 13z"/>
<path d="M5100 5098 c1 -27 47 -70 70 -66 37 5 33 21 -14 51 -48 30 -56 32
-56 15z"/>
<path d="M6367 5093 c-4 -3 -7 -17 -7 -31 0 -13 -11 -37 -25 -54 -14 -16 -28
-42 -31 -56 -3 -15 -17 -51 -31 -80 -28 -59 -21 -90 15 -64 9 7 27 16 39 21
17 8 23 22 28 68 4 32 11 65 15 73 24 47 21 148 -3 123z"/>
<path d="M69 5069 c-10 -19 -5 -27 40 -73 61 -60 69 -43 21 42 -33 57 -44 63
-61 31z"/>
<path d="M5329 5077 c-1 -7 0 -16 1 -22 1 -5 2 -21 2 -35 0 -36 16 -60 38 -60
24 0 25 8 3 32 -10 12 -16 32 -15 52 2 32 -26 64 -29 33z"/>
<path d="M5062 5053 c-9 -4 -11 -18 -6 -54 8 -57 -5 -79 -46 -79 -41 0 -60
-10 -60 -30 0 -25 15 -33 29 -16 19 23 97 30 133 12 38 -19 42 -17 29 18 -7
16 -18 26 -30 26 -29 0 -37 21 -15 37 15 11 17 17 6 33 -6 11 -12 26 -12 34 0
18 -11 25 -28 19z"/>
<path d="M6036 5028 c-11 -42 -7 -100 7 -96 22 8 41 59 31 86 -12 34 -30 38
-38 10z"/>
<path d="M5247 4996 c-4 -10 2 -20 13 -26 26 -14 25 -35 -1 -71 -11 -16 -17
-33 -14 -39 9 -15 25 -2 25 19 0 10 10 25 22 33 l23 15 -20 38 c-22 43 -40 54
-48 31z"/>
<path d="M5644 4986 c-3 -9 1 -27 9 -40 9 -13 25 -60 36 -105 11 -45 25 -89
32 -98 8 -8 12 -30 10 -49 -2 -25 2 -34 12 -34 23 0 29 30 12 56 -9 14 -11 25
-5 29 12 8 13 112 1 119 -5 3 -23 30 -39 59 -37 66 -59 86 -68 63z"/>
<path d="M5526 4933 c-4 -5 -17 -8 -29 -8 -24 0 -36 -30 -19 -47 22 -22 72 1
72 33 0 28 -9 37 -24 22z"/>
<path d="M4634 4883 c-19 -20 -34 -40 -34 -44 0 -20 22 -17 45 5 14 15 30 26
34 26 5 0 11 11 13 25 8 37 -18 32 -58 -12z"/>
<path d="M6027 4906 c-28 -72 -7 -219 32 -224 48 -7 70 6 77 46 4 20 20 62 36
93 24 50 37 99 24 99 -33 0 -55 -22 -50 -49 5 -21 1 -34 -14 -49 -11 -11 -22
-31 -24 -44 -5 -38 -40 -30 -56 15 -14 34 -13 39 3 57 15 17 16 24 7 45 -13
28 -27 32 -35 11z"/>
<path d="M6580 4844 c-17 -20 -37 -48 -43 -63 -6 -14 -17 -34 -25 -43 -18 -22
-6 -41 21 -34 12 3 29 -1 38 -10 27 -24 32 0 8 40 -23 40 -19 56 17 56 21 0
24 3 18 25 -8 33 27 35 41 3 12 -27 45 -37 45 -14 0 9 -4 16 -8 16 -4 0 -13
14 -19 30 -16 43 -52 40 -93 -6z"/>
<path d="M9375 4860 c-13 -14 -20 -41 -23 -83 -5 -76 -16 -91 -42 -57 -17 22
-20 23 -25 8 -7 -18 82 -111 97 -102 4 2 5 55 4 117 -2 63 1 117 7 125 16 20
2 14 -18 -8z"/>
<path d="M5320 4845 c-13 -14 -34 -25 -47 -25 -30 0 -30 -20 0 -21 12 0 57 -2
100 -3 85 -4 96 6 37 36 -18 9 -38 22 -43 27 -16 16 -21 14 -47 -14z"/>
<path d="M9456 4828 c-28 -137 -10 -243 29 -168 8 16 27 37 41 46 18 13 22 20
14 28 -8 8 -15 6 -25 -8 -22 -29 -35 -9 -35 54 0 59 -15 90 -24 48z"/>
<path d="M4925 4781 c6 -28 4 -31 -18 -31 -28 0 -44 -27 -27 -44 8 -8 18 -3
35 19 13 16 27 26 31 22 8 -7 44 10 44 22 0 7 -20 19 -64 39 -4 3 -5 -10 -1
-27z"/>
<path d="M4760 4793 c-27 -5 -93 -67 -83 -77 14 -13 33 -5 33 14 0 29 47 46
70 25 23 -21 52 -19 79 6 26 25 22 36 -7 18 -18 -11 -24 -10 -40 4 -10 9 -20
16 -23 16 -2 -1 -15 -4 -29 -6z"/>
<path d="M6682 4740 c-7 -11 -22 -20 -33 -20 -24 0 -21 -23 4 -28 18 -4 97 43
97 58 0 19 -55 11 -68 -10z"/>
<path d="M5185 4741 c-14 -24 133 -40 163 -18 8 7 18 5 30 -5 19 -18 42 -13
42 8 0 9 -11 14 -32 14 -18 0 -69 3 -114 6 -58 5 -83 3 -89 -5z"/>
<path d="M6247 4732 c-9 -10 -23 -36 -31 -57 -8 -22 -24 -65 -36 -95 -38 -95
-42 -122 -45 -250 -2 -69 -6 -132 -10 -141 -8 -22 13 -35 29 -18 21 24 39 89
28 102 -6 7 -9 55 -9 107 l2 95 55 0 c48 0 55 3 56 20 3 83 17 206 25 210 5 4
9 15 9 26 0 25 -50 26 -73 1z"/>
<path d="M5034 4726 c-55 -24 -31 -86 34 -86 17 0 -3 40 -21 40 -7 0 0 11 15
24 39 35 26 45 -28 22z"/>
<path d="M5105 4729 c-7 -11 106 -125 170 -171 43 -31 95 -37 115 -13 16 19
52 -7 43 -31 -8 -21 16 -44 44 -44 l24 0 -20 26 c-12 15 -21 35 -21 44 0 41
-89 69 -90 29 -1 -33 -97 11 -112 52 -5 12 -17 19 -33 19 -16 0 -25 6 -25 15
0 9 -11 20 -25 25 -18 7 -25 17 -25 35 0 26 -32 36 -45 14z"/>
<path d="M5450 4702 c0 -16 8 -20 49 -24 34 -3 59 -13 81 -32 34 -28 50 -27
50 5 0 16 -11 24 -24 17 -2 -2 -12 4 -22 13 -11 9 -35 19 -54 22 -19 4 -45 9
-57 13 -18 5 -23 2 -23 -14z"/>
<path d="M4768 4680 c-9 -6 -14 -18 -11 -29 3 -13 -2 -23 -16 -30 -21 -12 -29
-41 -12 -41 8 0 64 44 111 87 18 16 -46 28 -72 13z"/>
<path d="M4597 4653 c-9 -9 -31 -22 -49 -27 -49 -16 -89 -97 -63 -126 26 -29
30 -25 31 31 1 58 13 73 69 91 23 8 41 20 43 31 4 22 -9 22 -31 0z"/>
<path d="M6694 4620 c-54 -8 -94 -35 -94 -63 1 -21 1 -22 15 -3 8 11 27 21 43
22 26 2 102 30 102 38 0 9 -28 12 -66 6z"/>
<path d="M5100 4613 c2 -35 59 -87 108 -97 44 -10 41 9 -5 33 -21 10 -49 31
-62 45 -24 25 -41 33 -41 19z"/>
<path d="M5634 4554 c3 -16 8 -51 12 -77 3 -26 13 -54 20 -62 19 -18 18 -71
-1 -79 -11 -4 -21 5 -32 29 -16 34 -53 49 -53 22 0 -15 41 -57 56 -57 5 0 22
-16 37 -35 31 -39 96 -53 82 -17 -3 9 -13 42 -21 71 -8 30 -18 59 -24 65 -5 5
-10 18 -10 28 0 24 -45 124 -60 133 -9 5 -11 0 -6 -21z"/>
<path d="M9452 4552 c1 -15 -1 -32 -4 -38 -17 -27 -21 -754 -5 -754 21 0 41
37 31 58 -4 9 -8 26 -10 37 -1 11 -5 30 -9 43 -8 25 11 30 46 12 29 -16 24 8
-6 32 l-25 19 3 284 c1 210 5 287 15 297 20 20 14 38 -13 38 -22 0 -25 -4 -23
-28z"/>
<path d="M9331 4526 c-10 -12 -9 -21 3 -45 18 -33 21 -67 7 -75 -4 -3 -10
-145 -13 -316 -4 -218 -9 -314 -17 -324 -10 -12 -9 -20 5 -42 12 -18 19 -52
22 -103 5 -113 5 -117 -5 -231 -9 -102 -3 -144 19 -122 5 5 11 256 15 558 3
302 6 585 7 629 1 83 -13 107 -43 71z"/>
<path d="M5985 4520 c-3 -5 -1 -35 4 -67 6 -31 11 -72 11 -90 0 -22 5 -33 15
-33 22 0 30 48 17 97 -7 24 -12 57 -12 73 0 30 -21 42 -35 20z"/>
<path d="M6485 4490 c-46 -34 -117 -141 -104 -154 8 -8 89 6 89 15 0 5 -7 9
-15 9 -17 0 -21 25 -5 35 5 3 7 12 3 20 -3 10 1 15 12 15 9 0 28 9 42 20 14
11 32 20 39 20 20 0 26 17 12 40 -16 25 -14 26 -73 -20z"/>
<path d="M1326 4375 c-11 -30 14 -60 29 -35 4 7 13 6 27 -1 24 -13 42 0 36 27
-4 24 -83 31 -92 9z"/>
<path d="M5510 4326 c0 -15 55 -66 71 -66 5 0 18 -18 29 -39 16 -32 32 -45 79
-67 70 -31 94 -54 95 -91 1 -21 7 -29 24 -31 22 -3 30 12 12 23 -5 3 -7 18 -4
33 7 38 -70 102 -122 102 -8 0 -20 13 -29 30 -8 16 -24 34 -34 39 -10 6 -34
26 -54 46 -36 36 -67 46 -67 21z"/>
<path d="M6519 4322 c-44 -31 -84 -40 -112 -26 -28 15 -47 1 -67 -50 -14 -38
-6 -44 28 -19 15 11 47 23 72 27 29 4 51 15 62 29 14 18 27 22 72 22 58 0 84
11 45 19 -13 3 -36 7 -50 10 -15 3 -35 -1 -50 -12z"/>
<path d="M1630 4292 c0 -27 28 -44 53 -30 13 7 23 6 30 -1 8 -8 16 -6 29 6 27
24 22 34 -14 32 -18 -1 -48 2 -65 6 -29 7 -33 5 -33 -13z"/>
<path d="M1819 4253 c5 -20 14 -28 30 -28 13 0 27 -8 32 -18 12 -21 32 -22 49
-2 10 12 5 18 -33 34 -25 11 -48 24 -51 30 -15 24 -34 12 -27 -16z"/>
<path d="M6548 4232 c-54 -24 -51 -47 5 -38 45 7 73 27 63 45 -9 14 -23 13
-68 -7z"/>
<path d="M6426 4194 c-9 -8 -16 -20 -16 -25 0 -5 -8 -9 -19 -9 -36 0 -80 -22
-87 -43 -16 -57 -79 -207 -124 -299 -62 -123 -68 -200 -19 -206 15 -2 35 -12
45 -23 18 -20 62 -24 98 -10 16 6 10 10 -30 20 -107 27 -117 71 -48 218 25 54
57 127 70 162 41 106 50 118 119 156 68 39 72 44 53 63 -16 16 -23 15 -42 -4z"/>
<path d="M8260 4065 c-128 -29 -165 -42 -165 -55 0 -21 32 -24 60 -6 13 9 38
16 54 16 16 0 33 5 36 10 4 6 22 9 41 8 22 -1 39 3 44 12 9 14 4 31 -8 29 -4
-1 -32 -7 -62 -14z"/>
<path d="M1067 4063 c-4 -3 -7 -15 -7 -25 0 -21 -16 -23 -50 -3 -30 17 -86 19
-95 4 -4 -6 -13 -8 -21 -5 -21 8 -26 -10 -7 -25 13 -11 17 -11 20 -1 7 18 74
14 109 -7 44 -27 84 -18 84 19 0 28 -21 55 -33 43z"/>
<path d="M5635 4035 c13 -55 29 -80 55 -83 14 -2 29 -8 35 -13 5 -5 16 -9 25
-9 44 -1 60 -111 34 -240 -8 -36 -14 -85 -15 -110 -2 -120 -43 -154 -102 -88
-66 75 -193 144 -185 101 2 -12 13 -18 28 -18 27 0 120 -71 120 -91 0 -6 11
-19 25 -28 14 -9 25 -25 25 -36 0 -30 27 -39 65 -21 27 13 34 22 35 44 0 15 6
38 14 50 8 12 17 59 21 104 3 46 14 97 22 115 15 29 15 34 1 58 -10 18 -12 32
-6 44 38 68 -22 165 -104 166 -19 0 -37 12 -63 43 -36 41 -36 41 -30 12z"/>
<path d="M8010 4010 c-8 -5 -32 -16 -52 -24 -21 -8 -38 -20 -38 -25 0 -16 57
-13 74 4 8 8 26 19 40 25 14 5 26 14 26 20 0 12 -29 12 -50 0z"/>
<path d="M9728 3962 c-44 -20 -51 -38 -10 -26 15 4 84 7 155 6 106 -1 127 1
127 13 0 12 -15 15 -74 15 -40 0 -93 2 -117 5 -29 3 -57 -2 -81 -13z"/>
<path d="M1881 3961 c-7 -5 -21 -7 -30 -4 -52 13 -46 -50 7 -73 40 -16 54 -12
23 8 -29 18 -26 28 8 28 35 0 48 15 31 35 -14 17 -20 18 -39 6z"/>
<path d="M2274 3896 c-8 -22 11 -43 47 -51 19 -4 34 -16 39 -31 9 -22 40 -35
40 -16 0 8 -69 76 -102 101 -15 11 -19 11 -24 -3z"/>
<path d="M1415 3883 c-25 -7 -44 -32 -45 -60 0 -31 26 -30 55 1 21 22 26 24
54 13 41 -15 48 -5 16 27 -25 25 -40 29 -80 19z"/>
<path d="M8226 3804 c-14 -26 -26 -53 -26 -61 0 -24 40 5 51 37 6 16 17 31 25
34 21 8 17 36 -5 36 -13 0 -28 -16 -45 -46z"/>
<path d="M9738 3799 c-10 -5 -32 -9 -50 -8 -81 6 -147 -12 -95 -25 6 -2 26 -7
43 -13 23 -8 35 -7 49 3 10 8 43 14 72 14 40 0 53 4 53 15 0 8 -6 15 -14 15
-8 0 -20 2 -28 5 -7 2 -21 0 -30 -6z"/>
<path d="M9152 3729 c-84 -21 -92 -25 -92 -45 0 -16 36 -19 45 -4 3 6 24 10
45 10 21 0 42 5 46 11 3 6 25 19 48 29 58 26 10 26 -92 -1z"/>
<path d="M8645 3726 c-24 -18 -13 -46 19 -46 14 0 27 -4 30 -8 13 -21 63 -1
58 23 -3 20 -9 23 -32 19 -19 -4 -29 -1 -33 10 -8 20 -18 20 -42 2z"/>
<path d="M1140 3688 c-23 -38 -26 -78 -6 -78 20 0 33 20 41 61 9 50 -9 59 -35
17z"/>
<path d="M510 3694 c-24 -13 -22 -14 32 -14 49 0 59 -3 77 -26 25 -31 27 -54
6 -54 -43 0 -6 -31 57 -48 51 -14 58 3 13 29 -31 18 -35 25 -30 48 12 55 -94
99 -155 65z"/>
<path d="M7180 3689 c-57 -23 -124 -118 -105 -149 14 -22 26 -9 20 21 -6 27
-4 31 24 42 17 6 31 17 31 23 0 22 31 45 52 39 10 -4 25 -1 33 5 10 9 19 9 28
3 6 -6 41 -14 77 -17 36 -4 69 -11 75 -16 26 -21 69 -15 75 10 8 33 49 39 75
10 22 -24 70 -26 83 -3 15 26 129 -25 118 -53 -8 -21 11 -26 49 -14 59 20 59
77 0 66 -37 -7 -83 7 -100 31 -9 12 -20 14 -46 9 -19 -4 -74 -8 -124 -11 -49
-2 -94 -5 -100 -6 -5 -1 -45 4 -88 10 -94 13 -143 13 -177 0z"/>
<path d="M7920 3681 c0 -18 42 -81 53 -81 7 0 6 -4 -2 -9 -25 -16 -4 -41 34
-41 38 0 40 2 26 28 -23 41 -111 123 -111 103z"/>
<path d="M1670 3622 c0 -37 31 -52 58 -29 29 25 60 27 65 5 5 -16 9 -18 27 -8
23 12 18 30 -9 30 -9 0 -23 6 -29 12 -10 10 -17 10 -32 0 -26 -16 -40 -15 -62
5 -17 15 -18 15 -18 -15z"/>
<path d="M2010 3635 c-7 -8 -21 -15 -31 -15 -14 0 -19 -7 -19 -27 0 -62 35
-66 63 -7 27 55 18 86 -13 49z"/>
<path d="M2465 3614 c-19 -30 -14 -54 13 -54 26 0 42 20 42 52 0 37 -31 38
-55 2z"/>
<path d="M9840 3620 c-13 -24 7 -28 42 -9 18 10 25 8 40 -11 24 -29 46 -14 29
19 -16 30 -95 30 -111 1z"/>
<path d="M182 3600 c-7 -11 -23 -20 -37 -20 -14 0 -25 -4 -25 -9 0 -4 42 -8
94 -7 74 1 92 4 84 14 -6 6 -18 12 -27 12 -10 0 -26 7 -37 15 -26 20 -37 19
-52 -5z"/>
<path d="M5318 3591 c-99 -30 -104 -33 -83 -51 12 -10 21 -9 47 3 18 8 53 21
78 27 56 15 90 31 90 42 0 14 -41 7 -132 -21z"/>
<path d="M1589 3594 c-9 -11 -22 -14 -45 -10 -41 8 -85 -22 -61 -42 16 -14 85
7 119 36 10 8 26 12 38 9 11 -3 20 -2 20 3 0 7 -33 19 -51 20 -4 0 -12 -7 -20
-16z"/>
<path d="M2166 3563 c10 -40 12 -43 39 -43 13 0 35 -5 49 -11 21 -10 30 -9 52
6 36 23 19 37 -53 42 -35 2 -62 10 -69 18 -17 23 -25 18 -18 -12z"/>
<path d="M7847 3584 c-15 -15 -6 -38 29 -70 40 -38 54 -42 54 -15 0 42 -62
106 -83 85z"/>
<path d="M1110 3549 c0 -21 -9 -38 -30 -56 -18 -15 -30 -34 -30 -49 0 -36 12
-29 39 21 15 28 33 48 47 51 26 7 29 16 14 45 -17 30 -40 24 -40 -12z"/>
<path d="M9006 3554 c-23 -23 -11 -33 28 -24 38 8 68 -4 60 -25 -5 -12 2 -15
30 -15 25 0 36 4 36 15 0 9 -9 15 -25 15 -14 0 -25 4 -25 10 0 9 -62 40 -81
40 -4 0 -15 -7 -23 -16z"/>
<path d="M2542 3527 c3 -23 -28 -97 -45 -108 -13 -9 5 -61 23 -67 9 -3 11 2 7
20 -5 18 -1 30 13 43 22 20 30 135 9 135 -6 0 -9 -10 -7 -23z"/>
<path d="M7588 3533 c-13 -3 -16 -11 -11 -36 10 -54 43 -80 43 -34 0 18 10 28
40 42 22 10 40 22 40 27 0 8 -81 9 -112 1z"/>
<path d="M3642 3523 c-23 -9 -1 -23 36 -23 84 0 118 -48 129 -183 l6 -68 -24
9 c-33 12 -49 5 -49 -23 0 -34 18 -40 48 -18 15 11 44 26 65 33 40 15 50 43
19 59 -10 5 -24 36 -35 79 -29 113 -110 169 -195 135z"/>
<path d="M7146 3514 c-3 -9 -6 -26 -6 -39 0 -42 -22 -75 -54 -83 -35 -9 -42
-36 -11 -40 40 -5 82 32 89 79 4 24 14 52 24 62 14 16 14 19 2 27 -22 14 -37
12 -44 -6z"/>
<path d="M3528 3438 c-76 -79 -94 -107 -106 -164 -10 -47 -28 -54 -37 -15 -27
123 -184 84 -172 -42 6 -59 5 -63 -20 -81 -27 -20 -53 -5 -53 31 0 7 -7 13
-15 13 -20 0 -19 -23 3 -50 21 -26 185 -39 200 -16 9 14 58 48 99 69 31 16 32
19 31 77 -1 63 10 86 49 101 12 4 29 25 38 46 9 20 27 52 41 70 42 55 15 37
-58 -39z m-184 -211 c-2 -100 -43 -118 -84 -37 -38 74 -22 113 45 108 l40 -3
-1 -68z"/>
<path d="M6199 3489 c-31 -19 -38 -29 -48 -78 -17 -85 -20 -161 -7 -161 7 0
13 21 14 50 4 86 34 132 82 124 33 -5 41 -3 46 12 3 11 10 27 15 37 22 41 -41
51 -102 16z"/>
<path d="M8735 3470 c-16 -17 -26 -20 -62 -14 -41 6 -43 5 -43 -19 0 -30 17
-45 26 -23 3 8 25 17 55 21 43 6 49 10 49 31 0 29 -2 29 -25 4z"/>
<path d="M6724 3456 c-13 -35 4 -51 30 -27 l24 22 40 -20 c22 -11 43 -25 47
-31 3 -5 16 -10 28 -10 27 0 64 -28 80 -60 18 -35 41 -32 44 5 5 55 -274 170
-293 121z"/>
<path d="M5070 3445 c-8 -10 -42 -38 -75 -63 -81 -59 -121 -108 -105 -127 17
-21 46 -3 53 34 4 18 14 32 27 36 12 4 25 18 30 31 8 19 17 24 45 24 36 0 52
23 43 66 -3 16 -4 16 -18 -1z"/>
<path d="M9176 3430 c-3 -19 -15 -34 -31 -42 -14 -6 -25 -19 -25 -29 0 -18 1
-18 34 -1 42 21 78 102 46 102 -11 0 -20 -10 -24 -30z"/>
<path d="M6582 3425 c-12 -15 -22 -38 -22 -51 0 -24 14 -32 25 -14 3 6 15 10
26 10 22 0 22 2 5 49 l-12 34 -22 -28z"/>
<path d="M6036 3394 c-18 -18 -19 -24 -7 -43 9 -14 64 0 76 19 20 33 -40 54
-69 24z"/>
<path d="M4728 3370 c-15 -4 -40 -17 -57 -29 -32 -23 -84 -27 -128 -10 -90 35
-379 6 -455 -46 -61 -42 -73 -43 -92 -6 -13 24 -34 41 -52 41 -2 0 5 -18 16
-40 11 -21 20 -46 20 -55 0 -40 82 -11 143 51 25 25 31 26 171 28 93 2 151 8
160 15 11 9 22 8 52 -9 21 -11 46 -20 54 -20 9 0 21 -5 27 -11 16 -16 80 7 99
36 23 35 163 61 180 34 3 -5 13 -9 22 -9 14 1 13 4 -7 20 -25 21 -100 26 -153
10z"/>
<path d="M9991 3375 c-1 -5 -4 -36 -6 -67 -3 -61 -24 -104 -71 -148 -34 -32
-15 -38 29 -8 45 29 59 73 55 163 -2 39 -5 66 -7 60z"/>
<path d="M1821 3361 c-12 -7 -10 -14 7 -36 14 -18 20 -35 16 -50 -5 -20 -1
-23 37 -29 61 -10 64 23 3 38 -14 4 -22 11 -19 17 21 33 -13 79 -44 60z"/>
<path d="M2567 3330 c-36 -35 -30 -71 10 -68 31 3 36 14 26 60 l-8 37 -28 -29z"/>
<path d="M1006 3332 c-3 -3 -6 -20 -6 -37 0 -23 -6 -35 -22 -42 -21 -9 -19
-11 20 -14 39 -4 42 -3 42 21 0 14 3 35 6 46 5 21 -26 41 -40 26z"/>
<path d="M2865 3309 c-22 -11 -65 -84 -65 -110 0 -22 20 -38 58 -45 38 -8 37
-9 12 41 -33 65 -19 95 44 95 59 0 74 -43 40 -114 -18 -37 -6 -51 26 -29 13 9
35 17 49 17 31 1 40 25 12 33 -14 3 -24 18 -31 44 -18 65 -85 97 -145 68z"/>
<path d="M757 3280 c3 -14 11 -29 19 -33 18 -10 18 -31 -1 -47 -16 -13 -21
-60 -6 -60 18 0 38 47 45 105 5 47 4 57 -6 47 -16 -16 -45 -16 -51 1 -2 6 -2
1 0 -13z"/>
<path d="M1370 3271 c0 -5 -14 -18 -31 -29 l-31 -19 47 -19 c33 -12 52 -15 63
-8 26 17 25 33 -2 44 -14 5 -26 16 -26 25 0 8 -4 15 -10 15 -5 0 -10 -4 -10
-9z"/>
<path d="M7067 3262 c-22 -24 -34 -102 -16 -102 25 0 39 16 38 41 0 13 3 36 7
52 7 31 -5 35 -29 9z"/>
<path d="M1185 3231 c-6 -5 -30 -13 -55 -18 -36 -7 -46 -13 -48 -31 -4 -29 49
-30 93 -1 17 11 38 22 48 25 25 9 21 34 -6 34 -13 0 -27 -4 -32 -9z"/>
<path d="M2643 3220 c3 -11 1 -23 -4 -26 -18 -11 -6 -85 15 -100 11 -7 22 -12
24 -10 8 8 -21 156 -31 156 -5 0 -7 -9 -4 -20z"/>
<path d="M3871 3199 c-13 -17 -29 -28 -36 -25 -17 6 -43 -23 -28 -32 6 -4 14
-18 18 -32 4 -14 16 -36 26 -49 11 -14 19 -40 19 -62 0 -44 12 -56 34 -33 12
11 13 20 6 34 -14 26 -13 34 10 60 26 30 27 65 3 55 -41 -17 -52 -16 -62 3 -8
15 -7 23 4 32 12 10 45 66 45 77 0 12 -20 -2 -39 -28z"/>
<path d="M4205 3149 c-68 -59 -75 -69 -46 -69 13 0 25 9 30 23 6 14 29 31 65
46 57 23 75 51 34 51 -13 0 -50 -23 -83 -51z"/>
<path d="M137 3143 c-38 -30 -49 -50 -19 -38 9 4 37 11 61 16 74 15 93 49 27
49 -20 0 -47 -10 -69 -27z"/>
<path d="M4350 3130 c0 -31 0 -31 -50 -29 -49 3 -90 -15 -59 -25 50 -16 75
-13 102 9 26 23 38 75 17 75 -5 0 -10 -14 -10 -30z"/>
<path d="M6217 3143 c-4 -3 -7 -16 -7 -28 0 -40 -45 -71 -83 -56 -68 27 -73
26 -34 -11 20 -19 37 -42 37 -51 0 -23 19 -31 43 -19 12 6 31 13 42 17 19 7
19 7 -2 16 -65 25 18 64 111 53 50 -6 56 -5 50 10 -3 9 -1 23 6 31 17 20 -10
31 -39 16 -36 -20 -91 -14 -91 9 0 19 -20 27 -33 13z"/>
<path d="M2732 3090 c-7 -11 -21 -20 -32 -20 -11 0 -20 -4 -20 -10 0 -5 -9
-10 -19 -10 -11 0 -23 -4 -26 -10 -3 -5 0 -10 8 -10 8 0 20 -7 27 -15 18 -21
29 -19 40 10 7 19 17 25 38 25 26 0 29 3 28 30 -1 35 -25 41 -44 10z"/>
<path d="M2227 3085 c-9 -23 5 -29 98 -43 58 -9 75 -18 75 -37 0 -21 19 -28
36 -15 27 23 -59 79 -119 78 -15 0 -36 7 -46 16 -22 20 -37 20 -44 1z"/>
<path d="M2480 3078 c0 -6 7 -20 16 -29 40 -44 15 -136 -48 -175 -24 -15 -69
-54 -100 -86 -32 -32 -66 -58 -76 -58 -28 0 -33 -10 -17 -40 24 -47 75 -47 75
0 0 27 85 124 145 165 67 47 87 109 61 192 -7 23 -56 50 -56 31z"/>
<path d="M6566 3058 c-36 -85 -95 -122 -139 -88 -28 22 -57 26 -57 9 0 -15 47
-59 63 -59 7 0 23 -8 37 -17 13 -9 25 -13 27 -7 10 29 45 75 56 71 21 -6 20
-38 -1 -67 -22 -29 -20 -40 9 -40 19 0 25 23 28 104 1 27 6 57 12 67 14 27 11
59 -6 59 -8 0 -21 -15 -29 -32z"/>
<path d="M3210 3020 c0 -17 -9 -47 -20 -67 -23 -43 -26 -83 -6 -83 14 0 46 72
46 102 0 10 10 23 23 29 47 25 44 49 -9 49 -31 0 -34 -2 -34 -30z"/>
<path d="M6647 3043 c-11 -21 25 -103 45 -103 33 0 15 80 -22 100 -10 6 -21 7
-23 3z"/>
<path d="M491 3020 c-16 -14 -27 -17 -35 -10 -13 10 -83 2 -91 -11 -8 -11 32
-21 87 -21 26 0 51 -4 54 -9 8 -14 34 -10 34 5 0 7 -7 19 -15 26 -12 10 -13
16 -4 26 17 21 -3 16 -30 -6z"/>
<path d="M5855 3001 c-34 -20 -73 -61 -59 -61 15 1 143 46 151 54 26 26 -52
32 -92 7z"/>
<path d="M7910 2984 c-19 -8 -55 -32 -80 -53 -25 -20 -53 -40 -62 -44 -10 -3
-18 -12 -18 -19 0 -7 -23 -32 -50 -56 -28 -24 -50 -49 -50 -57 0 -8 -6 -18
-14 -22 -7 -4 -18 -18 -25 -30 -8 -16 -21 -23 -42 -23 -17 0 -32 -6 -36 -15
-17 -47 83 -13 106 35 36 77 95 109 113 60 5 -17 15 -29 21 -27 18 6 19 24 2
40 -21 21 -19 70 3 90 24 22 30 21 52 -5 21 -27 40 -16 22 12 -24 39 -3 70 46
70 10 0 27 9 37 20 10 11 24 20 32 20 7 0 13 5 13 10 0 14 -29 12 -70 -6z"/>
<path d="M2693 2929 c-22 -49 -23 -50 -57 -44 -43 8 -62 -1 -45 -21 29 -35
105 -18 123 29 33 87 15 118 -21 36z"/>
<path d="M1962 2948 c-11 -13 -28 -29 -37 -36 -14 -12 -14 -16 -2 -35 22 -33
52 -29 50 6 -1 21 4 31 23 39 27 13 32 33 8 42 -21 8 -17 9 -42 -16z"/>
<path d="M2107 2963 c-14 -23 -2 -128 16 -131 16 -3 18 3 15 64 -3 61 -17 91
-31 67z"/>
<path d="M3553 2953 c-9 -22 31 -53 68 -53 35 0 36 9 4 44 -27 29 -62 34 -72
9z"/>
<path d="M6015 2949 c-5 -15 0 -29 18 -47 14 -15 27 -36 29 -46 1 -11 9 -21
17 -24 19 -6 6 62 -21 106 -23 37 -34 40 -43 11z"/>
<path d="M9860 2955 c-7 -8 -21 -15 -32 -15 -11 0 -16 -5 -13 -10 4 -6 15 -8
26 -5 10 4 29 -1 41 -9 31 -22 98 -21 98 0 0 12 -6 15 -26 10 -32 -8 -64 1
-64 19 0 21 -16 26 -30 10z"/>
<path d="M4000 2939 c0 -42 27 -90 55 -98 37 -10 42 -6 24 15 -7 9 -13 27 -14
41 0 24 -65 66 -65 42z"/>
<path d="M5500 2934 c1 -29 33 -88 50 -91 63 -11 42 87 -22 103 -23 5 -28 3
-28 -12z"/>
<path d="M2823 2929 c-31 -9 -33 -12 -32 -57 1 -36 3 -41 8 -22 4 15 18 29 36
35 35 11 45 23 38 42 -6 15 -6 15 -50 2z"/>
<path d="M3320 2905 c-37 -38 -36 -45 7 -50 36 -4 63 20 63 57 0 39 -28 37
-70 -7z"/>
<path d="M4735 2920 c-13 -21 5 -25 126 -27 113 -3 152 6 92 22 -52 13 -211
17 -218 5z"/>
<path d="M7901 2879 c-9 -24 -2 -84 14 -122 9 -20 32 -17 26 4 -3 8 -7 39 -9
69 -4 64 -17 84 -31 49z"/>
<path d="M1340 2867 c0 -17 42 -67 55 -67 4 0 25 69 25 82 0 4 -18 6 -40 5
-32 -1 -40 -5 -40 -20z"/>
<path d="M1490 2871 c-5 -11 -10 -33 -10 -49 0 -16 -6 -45 -14 -63 -31 -78
-26 -126 10 -101 13 8 29 77 26 107 -2 11 5 39 13 62 21 55 1 91 -25 44z"/>
<path d="M5428 2864 c-4 -3 -94 -10 -200 -14 -192 -8 -262 -20 -241 -41 8 -8
41 -8 115 0 105 12 140 12 217 4 l44 -5 -53 -49 c-47 -43 -57 -48 -94 -46 -59
3 -60 -16 -1 -26 74 -12 130 7 106 37 -17 21 -5 36 28 36 19 0 34 8 44 23 9
13 30 30 47 37 19 8 30 19 28 29 -3 16 -29 26 -40 15z"/>
<path d="M4875 2820 c-72 -20 -154 -39 -210 -50 -145 -27 -183 -33 -230 -35
-27 -2 -58 -4 -68 -4 -12 -1 -17 -7 -15 -18 3 -19 165 -21 199 -2 19 10 146
40 299 70 114 22 122 25 100 39 -17 11 -33 11 -75 0z"/>
<path d="M6486 2818 c-30 -95 -42 -468 -16 -468 37 0 60 84 29 101 -15 7 -18
16 -13 31 4 12 8 63 10 112 1 50 5 109 8 131 11 84 11 98 -1 102 -7 3 -15 -1
-17 -9z"/>
<path d="M2174 2812 c-7 -4 -13 -16 -16 -27 -2 -14 -10 -19 -27 -17 -36 6 -20
-21 18 -29 43 -9 87 25 77 59 -7 22 -31 28 -52 14z"/>
<path d="M2522 2808 c3 -7 14 -14 26 -16 51 -8 22 -85 -32 -86 -39 -1 -43 -5
-24 -24 25 -25 63 -14 85 26 12 20 36 47 53 60 40 30 30 46 -25 37 -26 -3 -46
-2 -50 5 -9 14 -38 13 -33 -2z"/>
<path d="M1954 2776 c-30 -23 -4 -44 36 -29 28 11 30 10 30 -13 0 -30 3 -30
46 3 44 33 27 67 -21 45 -18 -8 -32 -9 -45 -2 -24 13 -22 13 -46 -4z"/>
<path d="M2740 2766 c0 -16 7 -27 21 -31 16 -5 18 -9 8 -21 -9 -11 -8 -19 7
-35 15 -16 16 -24 6 -39 -16 -25 -5 -55 14 -39 23 19 28 76 10 104 -9 13 -13
30 -10 38 6 17 -21 47 -42 47 -8 0 -14 -10 -14 -24z"/>
<path d="M2982 2768 c-7 -7 -12 -20 -12 -29 0 -9 -7 -22 -15 -29 -8 -7 -12
-16 -10 -21 7 -10 -32 -150 -45 -163 -45 -45 11 -72 163 -80 60 -4 109 -12
128 -21 37 -20 71 -13 48 10 -14 14 -192 45 -260 45 -47 0 -54 10 -38 58 7 20
14 48 15 62 13 108 17 122 40 131 27 10 30 21 11 38 -10 8 -17 7 -25 -1z"/>
<path d="M4038 2762 c-39 -3 -49 -23 -32 -66 8 -20 24 -21 24 -1 0 20 57 48
86 42 17 -3 24 0 24 12 0 17 -27 20 -102 13z"/>
<path d="M7848 2688 c-47 -20 -57 -31 -40 -42 16 -10 107 29 110 47 4 22 -12
21 -70 -5z"/>
<path d="M2097 2669 c-19 -11 -16 -36 10 -77 20 -32 47 -12 38 29 -3 15 -1 30
4 34 35 21 -16 35 -52 14z"/>
<path d="M4276 2652 c-13 -22 -173 -32 -283 -19 -54 7 -63 6 -63 -8 0 -9 9
-15 23 -15 12 0 29 -6 38 -13 13 -9 37 -11 95 -4 96 10 273 26 331 30 65 4 82
29 18 26 -27 -1 -73 2 -101 6 -32 4 -54 3 -58 -3z"/>
<path d="M2228 2579 c-33 -19 22 -118 65 -119 15 0 -4 44 -26 62 -20 16 -21
17 -4 36 26 28 2 43 -35 21z"/>
<path d="M7057 2583 c-34 -4 -38 -7 -33 -26 3 -12 6 -30 6 -40 0 -26 28 -32
51 -11 19 17 20 17 35 -4 16 -24 31 -27 54 -12 12 8 11 12 -7 32 -11 13 -26
33 -32 46 -6 12 -17 21 -24 20 -7 -1 -29 -3 -50 -5z"/>
<path d="M4000 2550 c0 -10 -6 -23 -14 -27 -7 -4 -17 -30 -21 -57 l-7 -50 35
31 c34 30 74 41 172 48 52 4 94 17 107 32 14 17 15 17 -148 -8 -97 -15 -117
-10 -108 26 4 15 2 25 -5 25 -6 0 -11 -9 -11 -20z"/>
<path d="M5252 2558 c-12 -12 38 -51 95 -74 38 -16 54 -2 28 26 -24 27 -111
60 -123 48z"/>
<path d="M4355 2553 c-115 -11 -79 -48 47 -48 51 -1 156 -2 233 -4 97 -2 148
1 168 10 21 9 33 10 53 0 28 -12 44 -7 44 14 0 23 -387 43 -545 28z"/>
<path d="M6835 2540 c-3 -6 -22 -17 -41 -25 -35 -14 -45 -40 -23 -62 8 -8 23
-3 54 18 45 30 64 35 81 20 26 -24 73 -30 79 -10 8 25 -2 39 -29 39 -12 0 -26
4 -31 9 -16 14 -83 23 -90 11z"/>
<path d="M3490 2459 c-20 -37 -9 -64 29 -67 29 -3 33 -1 26 15 -4 10 -10 30
-13 46 -5 32 -27 35 -42 6z"/>
<path d="M3606 2468 c-20 -64 -17 -78 19 -78 44 0 51 13 28 52 -20 35 -41 47
-47 26z"/>
<path d="M4930 2444 c-8 -1 -45 -6 -82 -9 -52 -5 -68 -10 -68 -22 0 -13 7 -14
48 -7 26 5 106 9 179 9 82 0 136 4 143 11 15 15 -166 30 -220 18z"/>
<path d="M5422 2410 c-29 -38 -29 -37 26 -36 26 0 55 -3 66 -8 33 -16 14 26
-23 51 -43 29 -43 29 -69 -7z"/>
<path d="M6880 2419 c-8 -5 -29 -9 -46 -9 -38 0 -51 -23 -31 -53 12 -18 11
-25 -1 -49 -12 -26 -12 -31 1 -46 9 -10 18 -30 21 -46 6 -34 11 -40 25 -31 13
8 14 60 2 83 -5 9 -10 40 -12 67 l-4 50 38 9 c36 9 46 19 29 30 -4 2 -14 1
-22 -5z"/>
<path d="M2735 2400 c-14 -23 8 -32 63 -27 39 4 67 1 101 -12 25 -10 69 -24
96 -31 28 -7 58 -19 67 -27 12 -11 21 -12 37 -4 11 6 30 11 43 11 18 0 20 2 8
10 -8 5 -25 10 -37 10 -12 0 -42 11 -67 25 -25 14 -56 25 -69 25 -14 0 -40 6
-58 14 -40 16 -175 21 -184 6z"/>
<path d="M3946 2392 c-3 -6 -1 -14 7 -19 15 -9 39 -82 31 -95 -3 -5 -1 -21 5
-36 18 -43 30 -194 17 -214 -8 -13 -7 -23 2 -38 6 -11 12 -31 12 -45 0 -24 2
-25 62 -25 44 0 67 -5 82 -17 13 -12 16 -12 9 -3 -6 8 -13 24 -15 35 -2 15
-16 23 -53 31 l-50 10 -1 67 c-1 37 -7 89 -14 116 -6 28 -9 59 -6 69 4 11 1
31 -5 46 -7 14 -10 28 -7 31 11 12 113 23 123 14 14 -14 59 -11 81 6 18 13 15
14 -31 15 -89 1 -215 26 -229 45 -8 12 -15 14 -20 7z"/>
<path d="M6896 2373 c-12 -12 -6 -21 24 -32 35 -12 39 -28 8 -33 -32 -5 -35
-28 -4 -28 19 0 29 7 36 26 9 22 15 25 36 20 21 -6 25 -4 22 11 -2 13 -16 19
-48 23 -25 3 -50 9 -56 12 -6 4 -14 5 -18 1z"/>
<path d="M5535 2328 c-37 -5 -67 -15 -79 -28 -27 -26 -15 -35 27 -19 61 22
141 -27 85 -51 -13 -6 -30 -14 -38 -18 -8 -5 -28 -15 -45 -23 -17 -9 -31 -24
-33 -37 -2 -12 -12 -27 -24 -33 -18 -10 -19 -12 -3 -29 27 -29 34 -141 9 -138
-10 2 -19 -1 -19 -7 0 -5 8 -9 17 -8 45 6 40 -44 -6 -61 -19 -7 -19 -7 2 -29
51 -50 85 32 58 138 -35 141 -12 198 82 200 64 1 75 10 67 49 -3 17 -8 45 -11
63 -7 39 -14 41 -89 31z"/>
<path d="M3238 2318 c-20 -7 -28 -16 -28 -34 0 -17 -6 -24 -19 -24 -11 0 -23
-4 -26 -10 -3 -5 -15 -10 -26 -10 -10 0 -19 -7 -19 -14 0 -13 5 -13 36 0 48
20 52 12 20 -36 -29 -44 -32 -56 -15 -62 9 -3 9 -14 -1 -42 -6 -20 -9 -48 -6
-62 5 -18 -1 -34 -19 -58 -36 -48 -5 -66 44 -25 21 17 23 23 13 40 -15 24 0
119 29 185 10 23 17 50 17 61 -1 10 9 33 22 51 28 37 18 54 -22 40z"/>
<path d="M3327 2313 c-16 -15 -5 -23 33 -23 39 0 40 -1 40 -35 0 -38 10 -44
31 -19 10 12 10 19 1 32 -7 10 -15 25 -18 35 -6 17 -72 25 -87 10z"/>
<path d="M2055 2288 c-8 -17 -21 -22 -63 -25 -67 -5 -102 -18 -102 -38 0 -18
39 -20 90 -4 19 5 71 12 114 15 44 3 83 7 88 10 15 10 -3 25 -22 19 -21 -7
-80 20 -80 35 0 18 -15 11 -25 -12z"/>
<path d="M3457 2226 c-19 -54 -17 -56 51 -56 56 0 72 22 19 28 -43 5 -63 52
-21 52 8 0 14 5 14 10 0 34 -49 7 -63 -34z"/>
<path d="M3570 2261 c0 -6 13 -11 29 -11 38 0 48 -16 25 -41 -20 -22 -8 -43
22 -37 15 3 19 12 19 48 l0 45 -47 3 c-29 2 -48 -1 -48 -7z"/>
<path d="M1315 2225 c-8 -14 -22 -36 -30 -50 -19 -31 -11 -47 20 -39 12 3 26
1 29 -5 4 -6 18 -11 31 -11 13 0 27 -5 31 -11 4 -8 10 -7 18 1 16 16 -32 51
-61 43 -28 -6 -32 31 -8 63 19 24 19 34 0 34 -8 0 -21 -11 -30 -25z"/>
<path d="M7975 2218 c-65 -22 -75 -28 -75 -43 0 -20 37 -19 48 1 6 11 23 17
48 18 27 1 39 5 39 16 0 18 -21 21 -60 8z"/>
<path d="M1646 2202 c-3 -5 -8 -29 -12 -53 -4 -24 -20 -68 -36 -97 -29 -55
-35 -86 -17 -97 17 -11 50 27 48 55 -4 40 12 93 33 113 13 13 18 29 16 50 -3
30 -21 47 -32 29z"/>
<path d="M1495 2160 c-3 -5 -3 -33 0 -62 6 -62 -9 -78 -42 -46 -35 33 -50 10
-23 -36 26 -42 30 -43 57 -13 17 20 26 42 49 126 8 30 -25 56 -41 31z"/>
<path d="M663 2123 c-3 -10 -17 -30 -31 -45 l-26 -28 25 0 c35 0 53 15 46 39
-4 17 -1 21 18 21 26 0 41 -26 25 -45 -5 -6 -7 -15 -3 -18 13 -13 23 -7 23 14
0 19 4 20 34 15 19 -4 37 -2 40 3 4 5 22 7 41 4 22 -4 35 -2 35 5 0 20 -34 29
-95 26 -39 -2 -68 2 -82 12 -29 19 -42 18 -50 -3z"/>
<path d="M5532 2128 c-13 -13 -15 -44 -6 -100 8 -46 24 -50 24 -7 0 21 10 40
30 61 40 39 39 58 -3 58 -18 0 -38 -5 -45 -12z"/>
<path d="M7984 2112 c15 -18 15 -20 -4 -37 -19 -17 -28 -55 -13 -55 14 0 73
73 73 91 0 15 -7 19 -37 19 -34 0 -35 -1 -19 -18z"/>
<path d="M1669 2093 c-4 -46 -3 -65 3 -69 4 -3 8 -18 8 -35 0 -32 11 -37 34
-13 19 18 20 26 5 41 -6 6 -14 26 -18 44 -6 29 -30 53 -32 32z"/>
<path d="M3840 2075 c-11 -13 -9 -20 10 -40 14 -15 21 -32 17 -44 -7 -28 17
-60 34 -44 16 16 14 59 -5 106 -17 39 -36 47 -56 22z"/>
<path d="M9340 2051 c0 -25 53 -35 97 -19 30 11 36 10 44 -5 13 -22 42 -22 37
0 -6 34 -178 57 -178 24z"/>
<path d="M3050 2040 c-6 -12 -23 -25 -36 -31 -23 -8 -25 -13 -19 -42 10 -45
30 -55 82 -41 25 7 21 24 -5 24 -47 1 -48 26 -4 82 9 10 10 18 3 22 -5 4 -15
-3 -21 -14z"/>
<path d="M6661 2036 c-7 -8 -11 -20 -10 -28 2 -7 -2 -23 -9 -35 -7 -13 -11
-23 -10 -24 51 -14 86 -1 57 22 -23 18 -23 19 -3 19 39 0 59 35 29 48 -33 15
-40 15 -54 -2z"/>
<path d="M6903 2035 c-17 -13 -16 -14 10 -15 36 0 35 -24 -3 -47 -16 -9 -30
-23 -30 -30 0 -24 30 -13 74 27 52 48 62 49 71 8 l7 -32 20 24 c24 29 8 46
-51 56 -20 3 -46 9 -58 14 -14 6 -27 4 -40 -5z"/>
<path d="M990 1965 c-8 -20 -16 -25 -45 -25 -24 0 -34 -4 -29 -11 20 -32 144
11 131 45 -10 25 -46 19 -57 -9z"/>
<path d="M3304 1965 c-9 -14 -13 -33 -9 -44 3 -11 0 -29 -7 -40 -15 -24 -4
-39 16 -22 8 6 12 21 9 31 -7 28 23 37 57 16 50 -29 78 -19 38 14 -19 15 -20
20 -9 33 19 24 5 37 -39 37 -31 0 -43 -5 -56 -25z"/>
<path d="M7112 1968 c-6 -7 -12 -26 -14 -43 -2 -25 -8 -31 -33 -33 -16 -2 -36
-8 -42 -14 -11 -9 -64 -16 -129 -18 -24 0 -40 -28 -25 -43 7 -7 15 -6 23 1 8
6 41 13 76 17 101 9 162 44 162 91 0 13 5 26 10 29 11 7 4 25 -9 25 -5 0 -13
-6 -19 -12z"/>
<path d="M6160 1941 c0 -22 29 -36 44 -21 17 17 41 13 26 -5 -17 -20 10 -31
39 -15 48 25 12 60 -63 60 -38 0 -46 -3 -46 -19z"/>
<path d="M8834 1950 c-24 -9 -39 -28 -31 -36 3 -3 15 0 27 6 15 8 30 9 48 1
86 -32 122 -20 48 17 -47 24 -59 25 -92 12z"/>
<path d="M5239 1936 c-2 -3 -42 -7 -88 -10 -83 -6 -118 -15 -70 -17 82 -5 279
-3 279 2 0 13 -111 35 -121 25z"/>
<path d="M4231 1909 c-32 -27 -28 -28 62 -16 89 11 98 29 16 33 -42 2 -59 -2
-78 -17z"/>
<path d="M677 1902 c-15 -2 -32 -12 -37 -22 -12 -22 -101 -22 -194 -1 -27 7
-51 10 -53 7 -11 -10 10 -26 33 -26 14 0 35 -7 48 -15 19 -13 29 -13 49 -4 18
8 30 8 46 -1 17 -8 26 -9 36 0 7 6 28 13 46 15 33 5 79 39 63 47 -5 2 -21 2
-37 0z"/>
<path d="M4457 1899 c-104 -12 -93 -29 19 -30 146 0 157 1 171 12 32 27 -41
34 -190 18z"/>
<path d="M2865 1862 c-13 -36 -5 -38 75 -21 68 14 60 34 -13 34 -38 0 -58 -4
-62 -13z"/>
<path d="M6635 1868 c-13 -35 -9 -83 5 -83 9 0 15 9 15 25 0 33 12 50 36 50
16 0 19 -7 19 -39 0 -49 11 -56 52 -35 l33 17 -27 9 c-16 6 -28 17 -28 25 0
35 -94 62 -105 31z"/>
<path d="M941 1841 c-15 -27 10 -40 62 -33 40 5 58 25 38 45 -8 8 -15 7 -28
-5 -14 -15 -18 -15 -39 -2 -21 14 -23 14 -33 -5z"/>
<path d="M3423 1853 c-71 -9 -67 -53 4 -46 46 5 78 26 67 44 -5 9 -12 9 -71 2z"/>
<path d="M4952 1848 c8 -23 93 -33 140 -17 l43 14 -40 7 c-69 12 -147 10 -143
-4z"/>
<path d="M787 1834 c-3 -4 -21 -9 -39 -13 -37 -8 -45 -34 -11 -39 27 -4 106
35 98 48 -7 11 -38 13 -48 4z"/>
<path d="M6325 1778 c4 -13 10 -51 12 -85 5 -66 9 -71 35 -50 20 15 33 67 17
67 -7 0 -9 12 -5 33 5 29 3 35 -19 45 -39 18 -48 15 -40 -10z"/>
<path d="M5447 1776 c-4 -9 -26 -16 -59 -19 -71 -6 -120 -20 -116 -32 3 -11
49 -10 111 0 37 7 47 -1 25 -23 -8 -8 -8 -15 0 -25 6 -7 9 -23 5 -35 -7 -28
17 -30 41 -4 15 17 15 23 2 53 -12 29 -12 37 0 61 8 15 10 29 5 32 -5 3 -11 0
-14 -8z"/>
<path d="M4620 1753 c-44 -4 -70 -17 -70 -34 0 -15 71 -10 100 8 27 15 30 15
54 0 42 -28 111 -12 85 19 -11 14 -62 16 -169 7z"/>
<path d="M4937 1724 c-22 -22 16 -46 61 -39 102 15 103 45 1 45 -31 0 -59 -3
-62 -6z"/>
<path d="M7855 1679 c-69 -8 30 -11 425 -13 168 -1 373 -7 455 -14 83 -6 193
-14 245 -16 52 -3 163 -10 245 -16 83 -7 152 -12 155 -12 17 -1 33 3 29 7 -5
5 -266 35 -349 40 -25 2 -135 10 -245 19 -201 16 -845 20 -960 5z"/>
<path d="M6734 1669 c-19 -31 400 -55 471 -26 44 18 -12 27 -135 21 -167 -7
-269 -5 -291 6 -23 13 -36 13 -45 -1z"/>
<path d="M4542 1653 c3 -13 12 -17 33 -15 73 7 150 1 172 -13 26 -17 63 -20
63 -5 0 6 -11 15 -24 20 -13 5 -27 14 -31 19 -12 21 -217 14 -213 -6z"/>
<path d="M3275 1631 c-58 -9 -48 -25 19 -34 67 -10 95 4 62 29 -11 8 -25 13
-30 13 -6 -1 -29 -5 -51 -8z"/>
<path d="M6078 1619 c-48 -4 -198 -10 -334 -13 -203 -4 -251 -8 -263 -21 -19
-19 116 -21 275 -5 55 5 194 12 309 14 207 3 261 10 233 27 -15 10 -97 9 -220
-2z"/>
<path d="M4191 1590 c-24 -11 -75 -23 -113 -27 -52 -4 -77 -12 -98 -29 -39
-33 -73 -44 -138 -44 -58 0 -93 -12 -78 -27 28 -28 265 5 306 42 13 12 23 13
43 6 24 -9 160 -6 255 5 37 5 42 7 31 21 -10 12 -24 13 -64 7 -52 -7 -136 -7
-144 2 -10 10 25 24 60 24 35 0 66 20 52 33 -13 13 -69 6 -112 -13z"/>
<path d="M9663 1584 c4 -4 31 -11 60 -14 29 -4 100 -15 160 -25 101 -17 133
-16 111 4 -8 8 -113 22 -279 38 -33 3 -56 2 -52 -3z"/>
<path d="M5019 1563 c-28 -3 -103 -54 -78 -53 2 0 40 7 84 15 44 8 127 15 185
16 101 1 104 2 65 14 -37 13 -173 17 -256 8z"/>
<path d="M2873 1543 c-25 -5 -31 -21 -10 -28 36 -11 157 -15 157 -5 0 20 -98
42 -147 33z"/>
<path d="M6990 1534 c-58 -6 -120 -9 -137 -7 -26 5 -33 2 -33 -11 0 -19 25
-18 190 5 41 6 82 11 90 13 8 1 11 4 5 7 -5 3 -57 0 -115 -7z"/>
<path d="M8690 1542 c0 -5 21 -12 48 -15 26 -3 101 -13 167 -22 101 -12 271
-20 195 -8 -14 2 -61 10 -105 18 -44 8 -114 17 -155 20 -41 3 -92 8 -112 11
-21 3 -38 2 -38 -4z"/>
<path d="M6557 1518 c-7 -4 -24 -8 -39 -8 -77 0 -29 -20 51 -21 50 -1 97 -2
104 -3 6 -1 12 6 12 14 0 17 -107 32 -128 18z"/>
<path d="M2363 1473 c-56 -39 38 -89 116 -62 41 14 35 19 -31 28 -47 6 -53 9
-52 29 1 26 -3 26 -33 5z"/>
<path d="M5100 1483 c-19 -1 -85 -8 -146 -14 -84 -8 -117 -8 -133 0 -16 9 -39
8 -99 -3 -42 -8 -124 -23 -182 -32 -58 -9 -148 -27 -200 -39 -117 -28 -222
-37 -219 -17 4 21 -4 22 -36 2 -27 -17 -44 -21 -71 -16 -28 6 -45 1 -88 -23
-52 -30 -104 -42 -91 -21 3 6 23 19 43 29 49 26 24 36 -52 22 -31 -6 -62 -8
-70 -5 -8 3 -25 0 -37 -7 -20 -10 -25 -9 -37 10 -18 27 -33 27 -77 -3 -20 -14
-41 -27 -48 -29 -37 -14 22 -27 143 -32 74 -3 171 -8 215 -11 59 -4 104 0 173
15 51 11 99 18 107 15 7 -3 98 12 202 35 103 22 225 45 271 50 46 6 87 13 91
15 52 33 490 34 686 2 88 -14 212 -30 275 -36 63 -6 148 -16 188 -22 88 -13
97 -7 49 33 -20 17 -37 37 -37 45 0 22 -48 37 -79 25 -88 -34 -207 -37 -416
-11 -110 14 -278 26 -325 23z"/>
<path d="M961 1445 c-47 -17 -70 -21 -87 -15 -22 9 -31 8 -74 -7 -27 -9 52
-31 116 -32 53 -1 64 2 85 25 22 23 24 24 36 8 9 -13 16 -14 26 -6 15 13 43
-1 33 -17 -4 -6 -16 -11 -27 -11 -10 0 -19 -6 -19 -14 0 -12 190 -17 230 -7
17 5 -170 73 -197 72 -11 0 -24 6 -27 14 -7 20 -19 18 -95 -10z"/>
<path d="M9591 1456 c-17 -20 -9 -23 124 -41 66 -9 123 -19 128 -22 22 -14
-14 -23 -92 -23 -56 0 -102 -6 -124 -15 -46 -19 -74 -19 -111 0 -36 19 -36 19
-36 -4 0 -27 -20 -40 -60 -39 -118 2 -377 -89 -451 -157 -49 -46 -107 -65
-198 -65 -144 0 -208 -38 -196 -116 9 -59 16 -59 -286 -4 -607 112 -569 103
-569 140 0 20 -7 33 -21 41 -29 15 -45 -1 -29 -30 17 -33 4 -41 -70 -41 -124
0 -97 -33 36 -43 76 -6 261 -36 764 -123 113 -20 212 -42 221 -50 8 -8 30 -14
47 -14 19 0 43 -10 63 -27 23 -20 45 -28 75 -29 23 -1 72 -5 110 -9 51 -5 66
-4 58 4 -6 6 -50 16 -98 21 -294 34 -124 82 424 120 85 6 175 15 200 20 25 5
128 16 230 25 271 23 270 23 270 49 l0 22 -247 -23 c-256 -24 -578 -58 -883
-93 -195 -23 -221 -21 -250 20 -34 48 -13 102 34 84 61 -23 274 24 314 71 31
36 130 79 292 126 235 69 313 85 540 113 180 22 200 27 200 52 0 10 -14 14
-52 15 -29 0 -75 4 -103 10 -27 5 -89 15 -137 23 -48 8 -91 17 -97 20 -5 3
-14 -1 -20 -8z"/>
<path d="M3033 1440 c-13 -5 -23 -16 -23 -24 0 -16 8 -19 108 -35 52 -8 73 -7
118 6 93 29 52 59 -47 35 -58 -14 -60 -14 -80 7 -21 22 -40 25 -76 11z"/>
<path d="M6587 1403 c-4 -3 -7 -14 -7 -24 0 -23 -31 -29 -53 -10 -15 13 -24
13 -60 2 -89 -26 -114 -31 -161 -31 -27 0 -63 4 -80 9 -69 21 -190 41 -199 32
-13 -13 20 -28 89 -40 32 -6 79 -15 104 -21 25 -6 169 -12 320 -14 434 -6 759
-39 885 -90 55 -22 85 -24 85 -6 0 4 -31 15 -68 24 -38 9 -100 30 -139 46 -78
33 -253 55 -523 66 -176 7 -187 9 -166 33 21 23 -5 47 -27 24z"/>
<path d="M428 1380 c-54 -9 -71 -18 -63 -31 16 -25 133 -2 143 29 4 13 -9 14
-80 2z"/>
<path d="M605 1366 c-62 -28 -86 -53 -64 -67 8 -5 21 -6 29 -2 8 3 28 8 43 11
16 2 31 11 34 19 3 7 18 20 34 29 72 37 2 47 -76 10z"/>
<path d="M4880 1342 c-115 -13 -145 -20 -145 -32 0 -12 12 -15 55 -13 30 1
182 5 338 9 195 5 282 10 279 18 -11 32 -317 43 -527 18z"/>
<path d="M1373 1343 c-54 -10 -14 -36 76 -48 68 -9 66 9 -4 36 -28 11 -50 18
-50 18 0 -1 -10 -4 -22 -6z"/>
<path d="M1620 1296 c0 -18 74 -66 101 -66 25 0 21 19 -7 34 -10 6 -31 18 -46
28 -33 22 -48 23 -48 4z"/>
<path d="M310 1280 c0 -5 5 -12 10 -15 22 -13 10 -37 -17 -35 -43 3 -53 1 -53
-11 0 -16 68 -4 90 16 21 19 34 19 50 0 10 -12 16 -13 27 -4 10 9 17 9 25 1
15 -15 55 -15 64 -1 9 15 -14 29 -47 29 -14 0 -29 4 -35 9 -13 12 -114 22
-114 11z"/>
<path d="M3354 1230 c-165 -42 -201 -89 -42 -55 121 26 198 35 236 28 33 -5
62 9 62 31 0 19 -174 17 -256 -4z"/>
<path d="M5413 1243 c-87 -4 -93 -5 -93 -25 0 -20 3 -21 83 -15 45 4 94 7 110
7 30 0 38 24 11 34 -9 3 -16 5 -17 4 -1 -1 -44 -4 -94 -5z"/>
<path d="M5103 1233 c-80 -4 -106 -17 -72 -39 24 -15 220 7 217 24 -4 19 -18
20 -145 15z"/>
<path d="M4815 1221 c-81 -5 -90 -8 -90 -26 0 -25 208 -24 234 0 19 18 5 35
-27 33 -15 -1 -67 -4 -117 -7z"/>
<path d="M9815 1223 c-232 -12 -543 -59 -685 -104 -133 -41 -145 -79 -17 -54
42 8 145 22 229 30 280 29 643 65 651 65 4 0 7 11 7 25 0 30 -32 46 -88 43
-20 -1 -64 -3 -97 -5z"/>
<path d="M4558 1203 c-37 -6 -39 -40 -3 -49 31 -8 53 0 62 22 5 14 -13 36 -27
32 -3 0 -17 -3 -32 -5z"/>
<path d="M6886 1192 c-14 -24 97 -42 259 -42 117 0 160 11 114 29 -39 14 -365
26 -373 13z"/>
<path d="M550 1159 c-25 -5 -55 -12 -68 -15 -43 -9 -11 -27 38 -21 28 3 52 1
58 -5 15 -15 42 7 42 33 0 21 -4 21 -70 8z"/>
<path d="M2727 1151 c-21 -13 -57 -20 -135 -25 -70 -5 -121 -14 -147 -26 -22
-10 -50 -21 -62 -25 -13 -3 -23 -13 -23 -21 0 -20 13 -18 44 7 15 11 32 19 40
16 18 -7 210 19 234 32 12 6 41 11 66 11 43 0 45 1 37 22 -11 30 -21 31 -54 9z"/>
<path d="M6285 1160 c-3 -5 -24 -10 -46 -10 -52 0 -129 -19 -129 -33 0 -6 29
-8 83 -3 45 3 140 9 210 13 86 4 127 9 124 17 -7 22 -229 37 -242 16z"/>
<path d="M3544 1105 c-9 -22 4 -35 35 -35 33 0 67 23 57 38 -11 18 -85 15 -92
-3z"/>
<path d="M3370 1099 c-19 -4 -65 -11 -102 -14 -56 -6 -68 -10 -68 -25 0 -24
20 -30 66 -19 22 4 58 9 82 9 49 0 82 14 82 34 0 19 -19 24 -60 15z"/>
<path d="M4815 1095 c-150 -24 -801 -81 -1373 -121 -70 -5 -83 -8 -80 -22 5
-26 100 -29 320 -10 106 9 254 21 328 28 74 6 167 15 205 20 39 5 140 14 225
21 383 28 420 33 475 60 69 33 25 44 -100 24z"/>
<path d="M3011 1051 c-87 -15 -123 -33 -89 -46 35 -13 213 21 213 40 0 25 -11
26 -124 6z"/>
<path d="M6675 1030 c-71 -4 -141 -10 -155 -13 -14 -3 -117 -9 -230 -12 -345
-11 -412 -14 -490 -20 -41 -3 -160 -10 -265 -15 -287 -14 -650 -38 -745 -50
-47 -6 -209 -19 -360 -29 -156 -10 -285 -23 -298 -30 -25 -13 -32 -57 -8 -48
45 18 109 26 261 37 94 6 188 13 210 16 97 12 393 34 530 40 66 2 126 7 134 9
11 4 264 20 501 30 36 2 173 10 305 18 132 8 265 15 295 15 118 3 272 9 425
17 205 10 323 -8 413 -62 33 -20 154 -68 287 -113 306 -104 324 -111 330 -120
10 -16 -10 -19 -226 -35 -117 -8 -290 -22 -384 -30 -282 -23 -454 -36 -565
-41 -58 -2 -152 -7 -210 -9 -58 -3 -118 -9 -134 -15 -16 -5 -56 -10 -90 -10
-34 0 -99 -4 -146 -10 -47 -5 -146 -12 -220 -14 -74 -3 -142 -7 -150 -10 -8
-3 -53 -8 -100 -10 -158 -8 -384 -26 -525 -41 -77 -8 -216 -22 -310 -30 -93
-9 -271 -27 -395 -41 -443 -49 -496 -55 -590 -64 -52 -5 -189 -20 -305 -34
-115 -14 -293 -34 -395 -46 -208 -23 -840 -98 -1150 -135 -592 -72 -642 -80
-588 -96 36 -9 175 3 518 46 1174 147 2744 318 3500 380 36 3 189 16 340 30
151 13 349 29 440 35 91 6 228 15 305 20 77 6 248 17 380 25 362 23 529 34
765 50 118 8 294 19 392 24 165 9 282 30 166 31 -97 0 -207 32 -622 177 -199
69 -278 102 -303 123 -19 17 -35 30 -37 30 -1 0 -52 9 -112 20 -112 20 -166
22 -389 10z"/>
<path d="M2266 1023 c-9 -9 -136 -24 -245 -28 -110 -4 -153 -17 -132 -38 5 -5
17 -5 29 2 31 16 72 13 79 -5 9 -23 -25 -47 -57 -40 -58 11 -64 11 -68 -6 -5
-26 28 -38 74 -28 21 5 86 15 144 21 71 8 120 19 150 34 25 12 83 30 130 40
111 24 130 34 59 35 -31 0 -59 3 -63 8 -8 8 -92 12 -100 5z"/>
<path d="M1715 909 c-267 -32 -460 -63 -663 -105 -68 -14 -126 -23 -129 -20
-3 3 -12 1 -19 -5 -7 -6 -62 -22 -121 -35 -59 -14 -121 -29 -138 -34 -16 -5
-61 -20 -99 -32 -91 -29 -70 -34 36 -9 249 59 559 116 718 131 47 5 110 13
140 19 132 24 276 34 312 21 45 -17 93 -6 83 18 -4 9 -8 26 -9 37 -1 24 -16
26 -111 14z"/>
<path d="M3940 854 c-8 -2 -194 -19 -413 -39 -890 -80 -1334 -139 -1285 -173
18 -13 28 -13 67 -3 48 13 329 51 416 55 28 2 203 20 390 39 459 49 775 77
805 71 28 -6 122 27 128 45 3 10 -70 14 -108 5z"/>
<path d="M9799 786 c-2 -2 -80 -6 -174 -9 -93 -4 -256 -12 -361 -18 -139 -8
-200 -9 -223 -1 -29 10 -31 10 -31 -14 0 -37 0 -37 412 -15 571 31 578 32 578
47 0 13 -187 22 -201 10z"/>
<path d="M1500 268 c-113 -69 -166 -108 -145 -108 17 0 178 86 182 97 11 27
-4 31 -37 11z"/>
<path d="M940 180 c0 -14 35 -30 68 -30 16 0 35 -7 42 -15 15 -18 64 -21 58
-3 -4 12 -11 16 -71 42 -42 18 -97 21 -97 6z"/>
</g>
</svg>
